<?xml version="1.0" encoding="UTF-8"?>
<svg width="80px" height="88px" viewBox="0 0 80 88" version="1.1" xmlns="http://www.w3.org/2000/svg" xmlns:xlink="http://www.w3.org/1999/xlink">
    <!-- Generator: Sketch 59 (86127) - https://sketch.com -->
    <title>Amazon</title>
    <desc>Created with Sketch.</desc>
    <g id="Page-1" stroke="none" stroke-width="1" fill="none" fill-rule="evenodd">
        <g id="Homepage" transform="translate(-592.000000, -2320.000000)">
            <g id="Scribbles" transform="translate(152.000000, 2064.000000)">
                <g id="Amazon" transform="translate(440.000000, 256.000000)">
                    <rect id="Rectangle" stroke="#EBF0F2" fill="#FFFFFF" x="0.5" y="0.5" width="79" height="87" rx="6"></rect>
                    <g id="iconfinder_amazon_1220386" transform="translate(24.000000, 16.000000)" fill-rule="nonzero">
                        <path d="M23.5382114,9.6195122 C23.5382114,10.7056911 23.5772358,11.7853659 23.5252033,12.8715447 C23.4731707,14.1073171 23.8504065,15.1674797 24.6308943,16.104065 C24.7219512,16.2146341 24.8065041,16.3252033 24.8845528,16.4422764 C25.1642276,16.8650407 25.1121951,17.1577236 24.7284553,17.4829268 C23.9089431,18.1723577 23.095935,18.8682927 22.2764228,19.5577236 C21.7886179,19.9674797 21.4829268,19.9609756 20.9886179,19.5577236 C20.3252033,19.0178862 19.804878,18.3544715 19.3430894,17.6455285 C19.2325203,17.4764228 19.1739837,17.4829268 19.0373984,17.6130081 C18.2178862,18.4130081 17.3528455,19.1544715 16.2536585,19.5252033 C14.5560976,20.104065 12.8325203,20.195122 11.1284553,19.5902439 C9.48943089,19.004878 8.50731707,17.795122 8.14308943,16.1105691 C7.7398374,14.2308943 7.94796748,12.4422764 9.10569106,10.8487805 C9.98373984,9.64552846 11.2,8.93658537 12.598374,8.50081301 C14.0422764,8.05853659 15.5317073,7.88943089 17.0276423,7.7398374 C17.4504065,7.69430894 17.8666667,7.65528455 18.2894309,7.61626016 C18.3934959,7.6097561 18.4845528,7.59674797 18.4780488,7.4601626 C18.4650407,6.77073171 18.5365854,6.06829268 18.3739837,5.39186992 C18.1658537,4.52682927 17.6,4.0195122 16.7349593,3.83089431 C16.1170732,3.69430894 15.5056911,3.73333333 14.9073171,3.93495935 C13.996748,4.24715447 13.4308943,4.87804878 13.203252,5.81463415 C13.0796748,6.32845528 12.8390244,6.51056911 12.3382114,6.45853659 C11.2715447,6.34796748 10.204878,6.23739837 9.14471545,6.12682927 C8.70894309,6.08130081 8.48130081,5.7495935 8.57235772,5.32682927 C9.12520325,2.62764228 10.8943089,1.11219512 13.4439024,0.416260163 C15.401626,-0.117073171 17.3853659,-0.149593496 19.3495935,0.403252033 C20.9300813,0.845528455 22.2569106,1.62601626 22.998374,3.17398374 C23.4211382,4.05203252 23.5186992,5.00162602 23.5317073,5.95121951 C23.5447154,7.16747967 23.5317073,8.39674797 23.5382114,9.6195122 C23.5317073,9.6195122 23.5382114,9.6195122 23.5382114,9.6195122 Z M18.4780488,11.6487805 C18.4780488,11.3235772 18.4650407,10.998374 18.4845528,10.6731707 C18.497561,10.4715447 18.4260163,10.4 18.2243902,10.4195122 C17.7300813,10.4650407 17.2292683,10.4715447 16.7349593,10.5365854 C15.8699187,10.6471545 15.0243902,10.8617886 14.3219512,11.4081301 C13.300813,12.2081301 13.0861789,13.300813 13.2552846,14.5300813 C13.4569106,15.9739837 14.7447154,16.7739837 16.1235772,16.2926829 C17.0601626,15.9674797 17.6325203,15.2780488 18.0292683,14.4130081 C18.4455285,13.5349593 18.4780488,12.5918699 18.4780488,11.6487805 Z" id="Shape" fill="#050606"></path>
                        <path d="M16.0715447,26.3284553 C11.1089431,26.295935 6.65365854,25.0211382 2.62764228,22.3349593 C1.80813008,21.7886179 1.02764228,21.1902439 0.286178862,20.5333333 C0.221138211,20.4747967 0.156097561,20.4162602 0.104065041,20.3447154 C0.0325203252,20.2471545 -0.0195121951,20.1300813 0.0650406504,20.0130081 C0.149593496,19.8829268 0.292682927,19.8699187 0.416260163,19.9284553 C0.702439024,20.0650407 0.975609756,20.2146341 1.25528455,20.3577236 C3.81788618,21.7105691 6.51707317,22.6861789 9.34634146,23.304065 C11.9089431,23.8634146 14.497561,24.1235772 17.1252033,24.0520325 C20.8780488,23.9479675 24.4943089,23.1934959 27.9739837,21.795122 C28.1430894,21.7235772 28.3186992,21.6520325 28.4943089,21.6130081 C28.7414634,21.5674797 28.9886179,21.6 29.099187,21.8666667 C29.203252,22.1138211 29.0666667,22.3089431 28.8845528,22.4650407 C28.7544715,22.5756098 28.604878,22.6666667 28.4552846,22.7642276 C26.2113821,24.2211382 23.7528455,25.1577236 21.1512195,25.7365854 C19.4341463,26.1268293 17.6910569,26.3154472 16.0715447,26.3284553 Z" id="Path" fill="#F6A61F"></path>
                        <path d="M28.5918699,20.5333333 C27.8439024,20.5268293 27.102439,20.6243902 26.3609756,20.702439 C26.2178862,20.7154472 26.0552846,20.7544715 25.9902439,20.598374 C25.9121951,20.4227642 26.0617886,20.3186992 26.1853659,20.2341463 C27.1089431,19.6227642 28.1430894,19.3821138 29.2292683,19.3235772 C29.9772358,19.2780488 30.7186992,19.3105691 31.4471545,19.5317073 C31.7788618,19.6292683 31.9414634,19.8243902 31.9349593,20.1626016 C31.895935,21.9707317 31.2910569,23.5447154 29.9837398,24.8260163 C29.9382114,24.8715447 29.8861789,24.9105691 29.8341463,24.9495935 C29.7170732,25.0341463 29.5739837,25.1121951 29.4504065,25.0081301 C29.3333333,24.9105691 29.398374,24.7674797 29.4504065,24.6504065 C29.8341463,23.6943089 30.2243902,22.7447154 30.4130081,21.7235772 C30.4390244,21.5934959 30.4455285,21.4634146 30.4520325,21.3398374 C30.4585366,20.9170732 30.3089431,20.7349593 29.8926829,20.6308943 C29.4569106,20.5138211 29.0211382,20.5333333 28.5918699,20.5333333 Z" id="Path" fill="#F6A61F"></path>
                    </g>
                    <path d="M23.2260254,56 L23.2260254,48.1474609 L24.1391113,48.1474609 L24.1391113,56 L23.2260254,56 Z M33.9370605,56 L33.9370605,52.1704102 C33.9370605,51.7013323 33.8368011,51.3495292 33.6362793,51.1149902 C33.4357575,50.8804513 33.1242371,50.7631836 32.701709,50.7631836 C32.1466932,50.7631836 31.7367038,50.9225244 31.4717285,51.2412109 C31.2067532,51.5598974 31.0742676,52.0504524 31.0742676,52.7128906 L31.0742676,56 L30.182666,56 L30.182666,52.1704102 C30.182666,51.7013323 30.0824066,51.3495292 29.8818848,51.1149902 C29.6813629,50.8804513 29.3680523,50.7631836 28.9419434,50.7631836 C28.3833468,50.7631836 27.9742526,50.930581 27.7146484,51.2653809 C27.4550443,51.6001807 27.3252441,52.148922 27.3252441,52.9116211 L27.3252441,56 L26.4336426,56 L26.4336426,50.1132812 L27.1587402,50.1132812 L27.3037598,50.9189453 L27.3467285,50.9189453 C27.5150236,50.6324855 27.7522446,50.4086922 28.0583984,50.2475586 C28.3645523,50.086425 28.7074037,50.0058594 29.0869629,50.0058594 C30.0072149,50.0058594 30.6087714,50.3388639 30.8916504,51.0048828 L30.9346191,51.0048828 C31.1100757,50.6969386 31.364305,50.4534514 31.6973145,50.2744141 C32.0303239,50.0953767 32.4098774,50.0058594 32.8359863,50.0058594 C33.5020053,50.0058594 34.0006168,50.1768375 34.3318359,50.5187988 C34.663055,50.8607602 34.8286621,51.4077111 34.8286621,52.159668 L34.8286621,56 L33.9370605,56 Z M39.679834,56.1074219 C39.296694,56.1074219 38.9466813,56.0367032 38.6297852,55.8952637 C38.312889,55.7538242 38.0470226,55.536297 37.8321777,55.2426758 L37.7677246,55.2426758 C37.8106936,55.5864275 37.8321777,55.9122706 37.8321777,56.2202148 L37.8321777,58.6425781 L36.9405762,58.6425781 L36.9405762,50.1132812 L37.6656738,50.1132812 L37.789209,50.9189453 L37.8321777,50.9189453 C38.0613455,50.5966781 38.3281072,50.363933 38.6324707,50.2207031 C38.9368342,50.0774732 39.2859518,50.0058594 39.679834,50.0058594 C40.4604368,50.0058594 41.0628885,50.272621 41.487207,50.8061523 C41.9115256,51.3396837 42.1236816,52.0880486 42.1236816,53.0512695 C42.1236816,54.0180712 41.9079449,54.7691217 41.4764648,55.3044434 C41.0449848,55.839765 40.4461139,56.1074219 39.679834,56.1074219 Z M39.5509277,50.7631836 C38.9493622,50.7631836 38.514308,50.9296858 38.245752,51.2626953 C37.9771959,51.5957048 37.8393392,52.1256474 37.8321777,52.8525391 L37.8321777,53.0512695 C37.8321777,53.8784221 37.9700344,54.4701317 38.245752,54.826416 C38.5214695,55.1827003 38.9636851,55.3608398 39.5724121,55.3608398 C40.0808782,55.3608398 40.4792303,55.15495 40.7674805,54.7431641 C41.0557306,54.3313781 41.1998535,53.7638383 41.1998535,53.0405273 C41.1998535,52.3064742 41.0557306,51.7434102 40.7674805,51.3513184 C40.4792303,50.9592266 40.0737168,50.7631836 39.5509277,50.7631836 Z M49.0373535,53.0512695 C49.0373535,54.0109097 48.7956567,54.7601698 48.3122559,55.2990723 C47.828855,55.8379747 47.1610557,56.1074219 46.3088379,56.1074219 C45.7824681,56.1074219 45.3151876,55.983888 44.9069824,55.7368164 C44.4987773,55.4897449 44.1836762,55.1352562 43.9616699,54.6733398 C43.7396636,54.2114235 43.6286621,53.6707388 43.6286621,53.0512695 C43.6286621,52.0916293 43.8685686,51.3441596 44.3483887,50.8088379 C44.8282088,50.2735162 45.4942177,50.0058594 46.3464355,50.0058594 C47.1700074,50.0058594 47.8243791,50.2797824 48.3095703,50.8276367 C48.7947615,51.375491 49.0373535,52.1166945 49.0373535,53.0512695 Z M44.5524902,53.0512695 C44.5524902,53.8032264 44.7028794,54.3761374 45.0036621,54.7700195 C45.3044449,55.1639017 45.7466605,55.3608398 46.3303223,55.3608398 C46.913984,55.3608398 47.3570948,55.1647969 47.659668,54.7727051 C47.9622411,54.3806133 48.1135254,53.8068072 48.1135254,53.0512695 C48.1135254,52.3028934 47.9622411,51.7344583 47.659668,51.3459473 C47.3570948,50.9574362 46.9104033,50.7631836 46.3195801,50.7631836 C45.7359183,50.7631836 45.295493,50.9547507 44.998291,51.3378906 C44.701089,51.7210306 44.5524902,52.2921512 44.5524902,53.0512695 Z M53.5608887,50.0058594 C53.8222832,50.0058594 54.0568186,50.0273435 54.264502,50.0703125 L54.1409668,50.8974609 C53.897476,50.8437497 53.6826344,50.8168945 53.4964355,50.8168945 C53.0201962,50.8168945 52.6128923,51.010252 52.2745117,51.3969727 C51.9361311,51.7836933 51.7669434,52.2652966 51.7669434,52.8417969 L51.7669434,56 L50.8753418,56 L50.8753418,50.1132812 L51.6111816,50.1132812 L51.7132324,51.2036133 L51.7562012,51.2036133 C51.9746267,50.8204733 52.2378077,50.5250661 52.545752,50.3173828 C52.8536962,50.1096995 53.1920717,50.0058594 53.5608887,50.0058594 Z M57.5419434,55.371582 C57.6994962,55.371582 57.8516757,55.3599448 57.9984863,55.3366699 C58.145297,55.3133951 58.2616695,55.2892254 58.3476074,55.2641602 L58.3476074,55.9462891 C58.2509273,55.9928388 58.1085947,56.0313312 57.9206055,56.0617676 C57.7326162,56.0922039 57.5634285,56.1074219 57.4130371,56.1074219 C56.2743595,56.1074219 55.7050293,55.5076557 55.7050293,54.3081055 L55.7050293,50.8061523 L54.8617676,50.8061523 L54.8617676,50.3764648 L55.7050293,50.0058594 L56.0810059,48.7490234 L56.5966309,48.7490234 L56.5966309,50.1132812 L58.3046387,50.1132812 L58.3046387,50.8061523 L56.5966309,50.8061523 L56.5966309,54.2705078 C56.5966309,54.6250018 56.6807772,54.8971345 56.8490723,55.0869141 C57.0173674,55.2766937 57.2483221,55.371582 57.5419434,55.371582 Z M23.2544922,72 L22.3628906,72 L22.3628906,63.6425781 L23.2544922,63.6425781 L23.2544922,72 Z M25.5543945,72 L25.5543945,64.1474609 L26.4674805,64.1474609 L26.4674805,71.1728516 L29.9318359,71.1728516 L29.9318359,72 L25.5543945,72 Z M32.2961914,72 L31.4045898,72 L31.4045898,66.1132812 L32.2961914,66.1132812 L32.2961914,72 Z M31.3293945,64.5180664 C31.3293945,64.3139638 31.3795242,64.1644699 31.4797852,64.0695801 C31.5800461,63.9746903 31.7053703,63.9272461 31.8557617,63.9272461 C31.9989916,63.9272461 32.1225255,63.9755855 32.2263672,64.0722656 C32.3302089,64.1689458 32.3821289,64.3175446 32.3821289,64.5180664 C32.3821289,64.7185882 32.3302089,64.8680822 32.2263672,64.9665527 C32.1225255,65.0650233 31.9989916,65.1142578 31.8557617,65.1142578 C31.7053703,65.1142578 31.5800461,65.0650233 31.4797852,64.9665527 C31.3795242,64.8680822 31.3293945,64.7185882 31.3293945,64.5180664 Z M38.2591797,70.394043 C38.2591797,70.9418973 38.0550802,71.3644191 37.646875,71.6616211 C37.2386698,71.9588231 36.6657589,72.1074219 35.928125,72.1074219 C35.1475221,72.1074219 34.5388043,71.983888 34.1019531,71.7368164 L34.1019531,70.909668 C34.3848321,71.0528979 34.6882959,71.1656897 35.0123535,71.2480469 C35.3364111,71.3304041 35.6488266,71.371582 35.9496094,71.371582 C36.4151065,71.371582 36.7731758,71.2972826 37.0238281,71.1486816 C37.2744804,71.0000806 37.3998047,70.7736018 37.3998047,70.4692383 C37.3998047,70.2400705 37.3004404,70.0440275 37.101709,69.8811035 C36.9029775,69.7181795 36.5153675,69.5257173 35.9388672,69.3037109 C35.3910129,69.0996084 35.0016125,68.9214689 34.7706543,68.7692871 C34.5396961,68.6171054 34.3678228,68.4443369 34.2550293,68.2509766 C34.1422358,68.0576162 34.0858398,67.8266615 34.0858398,67.5581055 C34.0858398,67.0782854 34.2809876,66.699627 34.6712891,66.4221191 C35.0615905,66.1446112 35.5969042,66.0058594 36.2772461,66.0058594 C36.9110383,66.0058594 37.5304983,66.1347643 38.1356445,66.3925781 L37.81875,67.1176758 C37.2279267,66.874185 36.6926131,66.7524414 36.212793,66.7524414 C35.7902648,66.7524414 35.4715831,66.8186842 35.2567383,66.9511719 C35.0418935,67.0836595 34.9344727,67.2662749 34.9344727,67.4990234 C34.9344727,67.6565763 34.9747555,67.7908523 35.0553223,67.9018555 C35.1358891,68.0128586 35.2656892,68.1184891 35.4447266,68.21875 C35.5566249,68.2814131 35.7328628,68.3615594 35.9734427,68.4591901 L36.4759766,68.6538086 C37.1742222,68.9080416 37.6459786,69.1640612 37.8912598,69.421875 C38.1365409,69.6796888 38.2591797,70.0037415 38.2591797,70.394043 Z M41.8857422,71.371582 C42.0432951,71.371582 42.1954745,71.3599448 42.3422852,71.3366699 C42.4890958,71.3133951 42.6054683,71.2892254 42.6914063,71.2641602 L42.6914063,71.9462891 C42.5947261,71.9928388 42.4523935,72.0313312 42.2644043,72.0617676 C42.0764151,72.0922039 41.9072273,72.1074219 41.7568359,72.1074219 C40.6181584,72.1074219 40.0488281,71.5076557 40.0488281,70.3081055 L40.0488281,66.8061523 L39.2055664,66.8061523 L39.2055664,66.3764648 L40.0488281,66.0058594 L40.4248047,64.7490234 L40.9404297,64.7490234 L40.9404297,66.1132812 L42.6484375,66.1132812 L42.6484375,66.8061523 L40.9404297,66.8061523 L40.9404297,70.2705078 C40.9404297,70.6250018 41.024576,70.8971345 41.1928711,71.0869141 C41.3611662,71.2766937 41.5921209,71.371582 41.8857422,71.371582 Z M45.0342773,72 L44.1426758,72 L44.1426758,66.1132812 L45.0342773,66.1132812 L45.0342773,72 Z M44.0674805,64.5180664 C44.0674805,64.3139638 44.1176102,64.1644699 44.2178711,64.0695801 C44.318132,63.9746903 44.4434563,63.9272461 44.5938477,63.9272461 C44.7370775,63.9272461 44.8606115,63.9755855 44.9644531,64.0722656 C45.0682948,64.1689458 45.1202148,64.3175446 45.1202148,64.5180664 C45.1202148,64.7185882 45.0682948,64.8680822 44.9644531,64.9665527 C44.8606115,65.0650233 44.7370775,65.1142578 44.5938477,65.1142578 C44.4434563,65.1142578 44.318132,65.0650233 44.2178711,64.9665527 C44.1176102,64.8680822 44.0674805,64.7185882 44.0674805,64.5180664 Z M51.2282227,72 L51.2282227,68.1918945 C51.2282227,67.7120744 51.1190115,67.3540051 50.9005859,67.1176758 C50.6821604,66.8813465 50.3402042,66.7631836 49.874707,66.7631836 C49.2588185,66.7631836 48.8076512,66.9296858 48.5211914,67.2626953 C48.2347316,67.5957048 48.0915039,68.1453412 48.0915039,68.9116211 L48.0915039,72 L47.1999023,72 L47.1999023,66.1132812 L47.925,66.1132812 L48.0700195,66.9189453 L48.1129883,66.9189453 C48.2956064,66.6289048 48.551626,66.4042163 48.8810547,66.244873 C49.2104834,66.0855298 49.5775045,66.0058594 49.9821289,66.0058594 C50.6911168,66.0058594 51.2246401,66.1768375 51.5827148,66.5187988 C51.9407896,66.8607602 52.1198242,67.4077111 52.1198242,68.159668 L52.1198242,72 L51.2282227,72 Z M54.8010667,71.5380876 C54.6488586,71.468522 54.5237254,71.3633855 54.4224121,71.2211914 C54.3203608,71.0779615 54.2693359,70.9114593 54.2693359,70.7216797 C54.2693359,70.5068349 54.326627,70.3188485 54.4412109,70.1577148 C54.5557948,69.9965812 54.7366199,69.8408211 54.9836914,69.6904297 C54.6793279,69.5651035 54.4313649,69.3520523 54.2397949,69.0512695 C54.048225,68.7504868 53.9524414,68.4067402 53.9524414,68.0200195 C53.9524414,67.3754851 54.1457988,66.8786639 54.5325195,66.529541 C54.9192402,66.1804182 55.4670863,66.0058594 56.1760742,66.0058594 C56.4840185,66.0058594 56.7615222,66.0416663 57.0085938,66.1132812 L59.0442383,66.1132812 L59.0442383,66.6772461 L57.9539063,66.8061523 C58.0541672,66.9314785 58.1436845,67.0952952 58.2224609,67.2976074 C58.3012374,67.4999196 58.340625,67.7281888 58.340625,67.9824219 C58.340625,68.5589222 58.1436869,69.0190413 57.7498047,69.362793 C57.3559225,69.7065447 56.8152378,69.878418 56.1277344,69.878418 C55.9522778,69.878418 55.7875659,69.8640952 55.6335938,69.8354492 C55.2540346,70.0359711 55.0642578,70.2884099 55.0642578,70.5927734 C55.0642578,70.7539071 55.1305006,70.8729651 55.2629883,70.9499512 C55.3954759,71.0269372 55.62285,71.0654297 55.9451172,71.0654297 L56.9871094,71.0654297 C57.6244824,71.0654297 58.1141422,71.1997057 58.4561035,71.4682617 C58.7980649,71.7368177 58.969043,72.1271133 58.969043,72.6391602 C58.969043,73.2908561 58.7076524,73.7876773 58.1848633,74.1296387 C57.6620742,74.4716 56.8993865,74.6425781 55.8967773,74.6425781 C55.1269167,74.6425781 54.5334168,74.4993504 54.1162598,74.2128906 C53.6991027,73.9264309 53.4905273,73.5218125 53.4905273,72.9990234 C53.4905273,72.6409487 53.6051095,72.3312188 53.8342773,72.0698242 C54.0634438,71.8084312 54.3857037,71.6311875 54.8010667,71.5380876 Z M54.3499023,72.9882812 C54.3499023,73.3069677 54.4841783,73.5486645 54.7527344,73.7133789 C55.0212904,73.8780933 55.4062149,73.9604492 55.9075195,73.9604492 C56.6558957,73.9604492 57.210008,73.8485526 57.569873,73.6247559 C57.9297381,73.4009592 58.109668,73.0974954 58.109668,72.7143555 C58.109668,72.395669 58.0111989,72.1745612 57.8142578,72.0510254 C57.6173167,71.9274896 57.246715,71.8657227 56.7024414,71.8657227 L55.6335938,71.8657227 C55.2289693,71.8657227 54.9138683,71.9624014 54.6882813,72.1557617 C54.4626942,72.3491221 54.3499023,72.6266258 54.3499023,72.9882812 Z" id="ImportlListing" fill="#000000" fill-rule="nonzero"></path>
                    <path d="M54.8333008,67.9985352 C54.8333008,67.5545225 54.9460926,67.2197277 55.1716797,66.9941406 C55.3972668,66.7685536 55.7195292,66.6557617 56.1384766,66.6557617 C57.0193403,66.6557617 57.4597656,67.0979773 57.4597656,67.9824219 C57.4597656,68.8274782 57.0247114,69.25 56.1545898,69.25 C55.7392232,69.25 55.4151704,69.1443695 55.1824219,68.9331055 C54.9496733,68.7218414 54.8333008,68.4103211 54.8333008,67.9985352 Z" id="Path" fill="#FFFFFF" fill-rule="nonzero"></path>
                </g>
            </g>
        </g>
    </g>
</svg>