<?xml version="1.0" encoding="UTF-8"?>
<svg width="152px" height="136px" viewBox="0 0 152 136" version="1.1" xmlns="http://www.w3.org/2000/svg" xmlns:xlink="http://www.w3.org/1999/xlink">
    <!-- Generator: Sketch 59 (86127) - https://sketch.com -->
    <title>Group 5 Copy</title>
    <desc>Created with Sketch.</desc>
    <g id="Page-1" stroke="none" stroke-width="1" fill="none" fill-rule="evenodd">
        <g id="Homepage" transform="translate(-752.000000, -2720.000000)">
            <g id="Cerebro" transform="translate(239.000000, 2512.000000)">
                <g id="Group-5-Copy" transform="translate(513.000000, 208.000000)">
                    <rect id="Rectangle" stroke="#EBF0F2" fill="#FFFFFF" x="0.5" y="0.5" width="151" height="135" rx="6"></rect>
                    <line x1="16" y1="63.5" x2="136.773994" y2="63.5" id="Line-11" stroke="#DBE2E8" stroke-linecap="square"></line>
                    <path d="M18.89,81.2131119 L18.89,81.7662263 C18.89,81.8227803 18.9266768,81.8707679 18.9775421,81.8877008 L19.018,81.8942263 L19.102,81.8942263 C19.158554,81.8942263 19.2065416,81.8575495 19.2234745,81.8066842 L19.23,81.7662263 L19.229,81.2131119 L20.25,81.2131119 L20.25,81.7662263 C20.25,81.8227803 20.2866768,81.8707679 20.3375421,81.8877008 L20.378,81.8942263 L20.462,81.8942263 C20.518554,81.8942263 20.5665416,81.8575495 20.5834745,81.8066842 L20.59,81.7662263 L20.589,81.2131119 L21.695,81.2131119 L21.695,81.7662263 C21.695,81.8227803 21.7316768,81.8707679 21.7825421,81.8877008 L21.823,81.8942263 L21.907,81.8942263 C21.963554,81.8942263 22.0115416,81.8575495 22.0284745,81.8066842 L22.035,81.7662263 L22.035,81.2131119 L23.055,81.2131119 L23.055,81.7662263 C23.055,81.8227803 23.0916768,81.8707679 23.1425421,81.8877008 L23.183,81.8942263 L23.267,81.8942263 C23.323554,81.8942263 23.3715416,81.8575495 23.3884745,81.8066842 L23.395,81.7662263 L23.394,81.2131119 L24.415,81.2131119 L24.415,81.7662263 C24.415,81.8227803 24.4516768,81.8707679 24.5025421,81.8877008 L24.543,81.8942263 L24.627,81.8942263 C24.683554,81.8942263 24.7315416,81.8575495 24.7484745,81.8066842 L24.755,81.7662263 L24.755,81.2131119 L25.774,81.2131119 L25.775,81.7662263 C25.775,81.8227803 25.8116768,81.8707679 25.8625421,81.8877008 L25.903,81.8942263 L25.987,81.8942263 C26.043554,81.8942263 26.0915416,81.8575495 26.1084745,81.8066842 L26.115,81.7662263 L26.114,81.2131119 L27.05,81.2131119 L27.05,81.7662263 C27.05,81.8227803 27.0866768,81.8707679 27.1375421,81.8877008 L27.178,81.8942263 L27.262,81.8942263 C27.318554,81.8942263 27.3665416,81.8575495 27.3834745,81.8066842 L27.39,81.7662263 L27.39,81.2131119 L28.41,81.2131119 L28.41,81.7662263 C28.41,81.8227803 28.4466768,81.8707679 28.4975421,81.8877008 L28.538,81.8942263 L28.622,81.8942263 C28.678554,81.8942263 28.7265416,81.8575495 28.7434745,81.8066842 L28.75,81.7662263 L28.75,81.2131119 L29.77,81.2131119 L29.77,81.7662263 C29.77,81.8227803 29.8066768,81.8707679 29.8575421,81.8877008 L29.898,81.8942263 L29.982,81.8942263 C30.038554,81.8942263 30.0865416,81.8575495 30.1034745,81.8066842 L30.11,81.7662263 L30.11,81.2131119 L30.79,81.2131781 L30.79,82.7451781 L31.47,82.744327 L31.47,82.3206604 C31.47,82.1557113 31.5870029,82.0180898 31.7425428,81.9862617 L31.8113333,81.979327 L32.2336667,81.979327 C32.3986157,81.979327 32.5362373,82.0963299 32.5680653,82.2518698 L32.575,82.3206604 L32.575,82.744327 L32.6586667,82.7452332 C32.8236157,82.7452332 32.9612373,82.8622361 32.9930653,83.017776 L33,83.0865666 L33,83.5953095 C33,83.7602586 32.8829971,83.8978801 32.7274572,83.9297082 L32.6586667,83.9366429 L32.575,83.936327 L32.575,84.276115 C32.575,84.4410641 32.4579971,84.5786856 32.3024572,84.6105137 L32.2336667,84.6174484 L31.8113333,84.6174484 C31.6463843,84.6174484 31.5087627,84.5004454 31.4769347,84.3449056 L31.47,84.276115 L31.47,83.936327 L30.79,83.9361781 L30.79,88.0986667 C30.79,89.7010288 29.4910288,91 27.8886667,91 L21.1113333,91 C19.5089712,91 18.21,89.7010288 18.21,88.0986667 L18.21,83.9361781 L17.53,83.936327 L17.53,84.276115 C17.53,84.4646282 17.3771799,84.6174484 17.1886667,84.6174484 L16.7663333,84.6174484 C16.5778201,84.6174484 16.425,84.4646282 16.425,84.276115 L16.425,83.936327 L16.3413333,83.9366429 C16.1528201,83.9366429 16,83.7838227 16,83.5953095 L16,83.0865666 C16,82.8980534 16.1528201,82.7452332 16.3413333,82.7452332 L16.425,82.744327 L16.425,82.3206604 C16.425,82.1321472 16.5778201,81.979327 16.7663333,81.979327 L17.1886667,81.979327 C17.3771799,81.979327 17.53,82.1321472 17.53,82.3206604 L17.53,82.744327 L18.21,82.7451781 L18.21,81.2131781 L18.89,81.2131119 Z M29.3048116,85.7232202 L19.6951884,85.7232202 C19.6687111,85.9039516 19.655,86.0888305 19.655,86.2769118 C19.655,88.3030443 21.2461767,89.9575376 23.2471031,90.0589648 L23.4419806,90.0638924 L25.5580194,90.0638924 C27.649511,90.0638924 29.345,88.3684034 29.345,86.2769118 C29.345,86.0888305 29.3312889,85.9039516 29.3048116,85.7232202 Z M28.7068455,83.0005353 L25.6481545,83.0005353 C25.3426557,83.0005353 25.095,83.248191 25.095,83.5536898 C25.095,83.8286387 25.2956011,84.0567347 25.5584299,84.0996044 L25.6481545,84.1068442 L28.7068455,84.1068442 C29.0123443,84.1068442 29.26,83.8591885 29.26,83.5536898 C29.26,83.248191 29.0123443,83.0005353 28.7068455,83.0005353 Z M23.2668455,83.0005353 L20.2081545,83.0005353 C19.9026557,83.0005353 19.655,83.248191 19.655,83.5536898 C19.655,83.8286387 19.8556011,84.0567347 20.1184299,84.0996044 L20.2081545,84.1068442 L23.2668455,84.1068442 C23.5723443,84.1068442 23.82,83.8591885 23.82,83.5536898 C23.82,83.248191 23.5723443,83.0005353 23.2668455,83.0005353 Z M28.5292064,75 C28.8040122,75.2227126 28.9998255,75.4257958 29.1166464,75.6092497 C29.207153,75.7513801 29.3044027,75.9518636 29.4083952,76.2107002 C29.8162674,76.3215603 30.3275672,76.53139 30.936716,77.1422527 C31.7400715,77.9478687 31.668317,79.5203935 31.668317,79.5203935 C31.668317,79.5203935 31.6241125,79.431775 31.5737434,79.364432 C31.4359708,79.1802314 31.2764191,78.9229013 30.9626278,78.7360723 C30.901379,78.6996052 30.8415802,78.6680277 30.7832313,78.6413397 L30.79,78.8385115 L30.79,78.8385115 L30.79,80.8721781 L30.11,80.8721119 L30.11,80.2351119 C30.11,80.1785579 30.0733232,80.1305703 30.0224579,80.1136374 L29.982,80.1071119 L29.898,80.1071119 C29.841446,80.1071119 29.7934584,80.1437887 29.7765255,80.194654 L29.77,80.2351119 L29.77,80.8721119 L28.75,80.8721119 L28.75,80.2351119 C28.75,80.1785579 28.7133232,80.1305703 28.6624579,80.1136374 L28.622,80.1071119 L28.538,80.1071119 C28.481446,80.1071119 28.4334584,80.1437887 28.4165255,80.194654 L28.41,80.2351119 L28.41,80.8721119 L27.39,80.8721119 L27.39,80.2351119 C27.39,80.1785579 27.3533232,80.1305703 27.3024579,80.1136374 L27.262,80.1071119 L27.178,80.1071119 C27.121446,80.1071119 27.0734584,80.1437887 27.0565255,80.194654 L27.05,80.2351119 L27.05,80.8721119 L26.114,80.8721119 L26.115,80.2351119 C26.115,80.1785579 26.0783232,80.1305703 26.0274579,80.1136374 L25.987,80.1071119 L25.903,80.1071119 C25.846446,80.1071119 25.7984584,80.1437887 25.7815255,80.194654 L25.775,80.2351119 L25.774,80.8721119 L24.755,80.8721119 L24.755,80.2351119 C24.755,80.1785579 24.7183232,80.1305703 24.6674579,80.1136374 L24.627,80.1071119 L24.543,80.1071119 C24.486446,80.1071119 24.4384584,80.1437887 24.4215255,80.194654 L24.415,80.2351119 L24.415,80.8721119 L23.394,80.8721119 L23.395,80.2351119 C23.395,80.1785579 23.3583232,80.1305703 23.3074579,80.1136374 L23.267,80.1071119 L23.183,80.1071119 C23.126446,80.1071119 23.0784584,80.1437887 23.0615255,80.194654 L23.055,80.2351119 L23.055,80.8721119 L22.035,80.8721119 L22.035,80.2351119 C22.035,80.1785579 21.9983232,80.1305703 21.9474579,80.1136374 L21.907,80.1071119 L21.823,80.1071119 C21.766446,80.1071119 21.7184584,80.1437887 21.7015255,80.194654 L21.695,80.2351119 L21.695,80.8721119 L20.589,80.8721119 L20.59,80.2351119 C20.59,80.1785579 20.5533232,80.1305703 20.5024579,80.1136374 L20.462,80.1071119 L20.378,80.1071119 C20.321446,80.1071119 20.2734584,80.1437887 20.2565255,80.194654 L20.25,80.2351119 L20.25,80.8721119 L19.229,80.8721119 L19.23,80.2351119 C19.23,80.1785579 19.1933232,80.1305703 19.1424579,80.1136374 L19.102,80.1071119 L19.018,80.1071119 C18.961446,80.1071119 18.9134584,80.1437887 18.8965255,80.194654 L18.89,80.2351119 L18.89,80.8721119 L18.21,80.8721781 L18.21,78.8385115 C18.21,78.6918017 18.2208892,78.5476352 18.2419035,78.4067762 L18.3502528,78.4259378 C18.1655589,78.3803268 17.9650812,78.4033446 17.7488196,78.4949912 C17.4244271,78.6324611 17.2166559,78.9583305 17.2166559,78.9583305 L17.2203013,78.9261592 C17.2430343,78.7478714 17.3888473,77.863067 18.1076391,77.1422527 C18.9109946,76.3366367 19.5913955,76.1796598 20.0383656,76.0770257 C20.3645719,76.0021216 20.4619699,75.9814038 20.7708804,75.9558608 L20.8146889,75.9521574 C20.9122232,75.9422522 21.0111857,75.9371781 21.1113333,75.9371781 L27.8886667,75.9371781 C28.0537585,75.9371781 28.2156298,75.950967 28.3731917,75.977456 C28.4595464,75.7472424 28.5113057,75.4214023 28.5292064,75 Z" id="Frankenstain" fill="#FFCC00"></path>
                    <path d="M41.8261719,20.9868164 C41.980144,20.7683908 42.2146794,20.4819354 42.5297852,20.1274414 L44.4311523,18.1132812 L45.4892578,18.1132812 L43.1044922,20.621582 L45.6557617,24 L44.5761719,24 L42.4975586,21.2177734 L41.8261719,21.7978516 L41.8261719,24 L40.9453125,24 L40.9453125,15.6425781 L41.8261719,15.6425781 L41.8261719,20.0737305 L41.8213976,20.3064778 C41.8150319,20.4855138 41.8023004,20.7122925 41.7832031,20.9868164 L41.8261719,20.9868164 Z M49.2608398,24.1074219 C48.3907183,24.1074219 47.7041204,23.8424506 47.2010254,23.3125 C46.6979304,22.7825494 46.4463867,22.0467169 46.4463867,21.1049805 C46.4463867,20.1560825 46.680027,19.4023465 47.1473145,18.84375 C47.6146019,18.2851535 48.2421185,18.0058594 49.0298828,18.0058594 C49.7675167,18.0058594 50.3511697,18.2484514 50.7808594,18.7336426 C51.210549,19.2188338 51.4253906,19.8588827 51.4253906,20.6538086 L51.4253906,21.2177734 L47.3702148,21.2177734 C47.3881186,21.9088576 47.5626774,22.4334292 47.8938965,22.7915039 C48.2251156,23.1495786 48.6915009,23.3286133 49.2930664,23.3286133 C49.9268586,23.3286133 50.55348,23.1961276 51.1729492,22.9311523 L51.1729492,23.7260742 C50.8578435,23.8621426 50.5597508,23.9597165 50.2786621,24.0187988 C49.9975735,24.0778812 49.6583028,24.1074219 49.2608398,24.1074219 Z M49.0191406,18.7524414 C48.546482,18.7524414 48.169614,18.9064112 47.8885254,19.2143555 C47.6074367,19.5222997 47.4418297,19.9484022 47.3916992,20.4926758 L50.4693359,20.4926758 C50.4693359,19.9304985 50.3440117,19.4999201 50.0933594,19.2009277 C49.8427071,18.9019354 49.4846377,18.7524414 49.0191406,18.7524414 Z M52.065625,18.1132812 L53.0216797,18.1132812 L54.3107422,21.4702148 C54.5936212,22.2364947 54.7690752,22.7897118 54.8371094,23.1298828 L54.8800781,23.1298828 L54.9324737,22.9415657 C54.9649194,22.8315133 55.006737,22.6976202 55.0579268,22.5398854 L55.2809556,21.8786465 C55.5006825,21.2496887 55.9507127,19.9945746 56.6310547,18.1132812 L57.5871094,18.1132812 L55.0573242,24.8164062 C54.8066719,25.4788445 54.5139502,25.9488105 54.1791504,26.2263184 C53.8443505,26.5038263 53.433466,26.6425781 52.9464844,26.6425781 C52.6743476,26.6425781 52.4057956,26.6121422 52.1408203,26.5512695 L52.1408203,25.8369141 C52.3377614,25.879883 52.557974,25.9013672 52.8014648,25.9013672 C53.4137726,25.9013672 53.8506172,25.5576206 54.1120117,24.8701172 L54.4396484,24.0322266 L52.065625,18.1132812 Z M64.6833984,24 L63.625293,24 L62.4977929,20.3874023 C62.4244597,20.1324549 62.3133145,19.7056345 62.1643555,19.1069336 L62.1213867,19.1069336 L62.0030032,19.6089675 C61.9080043,19.9980976 61.8221405,20.3141496 61.7454102,20.5571289 L60.6335938,24 L59.6023438,24 L57.9963867,18.1132812 L58.930957,18.1132812 L59.7983887,21.4916992 C59.9971201,22.2651406 60.1108071,22.7861315 60.1394531,23.0546875 L60.1824219,23.0546875 C60.2218101,22.8505849 60.2853674,22.5865088 60.3730957,22.2624512 L60.4727833,21.9058101 C60.5041504,21.7976723 60.5336555,21.7002768 60.5612987,21.6136233 L61.680957,18.1132812 L62.6477539,18.1132812 L63.7004883,21.4916992 C63.9010101,22.1075877 64.0370765,22.6249979 64.1086914,23.0439453 L64.1516602,23.0439453 L64.1804492,22.8557423 C64.1939127,22.7818362 64.2112433,22.6967584 64.2324413,22.6005083 L64.8439259,20.1986696 C64.9955455,19.6149047 65.176574,18.9197757 65.3870117,18.1132812 L66.3108398,18.1132812 L64.6833984,24 Z M72.7303711,21.0512695 C72.7303711,22.0109097 72.4886743,22.7601698 72.0052734,23.2990723 C71.5218726,23.8379747 70.8540733,24.1074219 70.0018555,24.1074219 C69.4754856,24.1074219 69.0082052,23.983888 68.6,23.7368164 C68.1917948,23.4897449 67.8766938,23.1352562 67.6546875,22.6733398 C67.4326812,22.2114235 67.3216797,21.6707388 67.3216797,21.0512695 C67.3216797,20.0916293 67.5615861,19.3441596 68.0414062,18.8088379 C68.5212264,18.2735162 69.1872353,18.0058594 70.0394531,18.0058594 C70.863025,18.0058594 71.5173967,18.2797824 72.0025879,18.8276367 C72.4877791,19.375491 72.7303711,20.1166945 72.7303711,21.0512695 Z M68.2455078,21.0512695 C68.2455078,21.8032264 68.3958969,22.3761374 68.6966797,22.7700195 C68.9974624,23.1639017 69.4396781,23.3608398 70.0233398,23.3608398 C70.6070016,23.3608398 71.0501124,23.1647969 71.3526855,22.7727051 C71.6552587,22.3806133 71.806543,21.8068072 71.806543,21.0512695 C71.806543,20.3028934 71.6552587,19.7344583 71.3526855,19.3459473 C71.0501124,18.9574362 70.6034209,18.7631836 70.0125977,18.7631836 C69.4289359,18.7631836 68.9885106,18.9547507 68.6913086,19.3378906 C68.3941066,19.7210306 68.2455078,20.2921512 68.2455078,21.0512695 Z M77.2539062,18.0058594 C77.5153008,18.0058594 77.7498362,18.0273435 77.9575195,18.0703125 L77.8339844,18.8974609 C77.5904936,18.8437497 77.375652,18.8168945 77.1894531,18.8168945 C76.7132138,18.8168945 76.3059099,19.010252 75.9675293,19.3969727 C75.6291487,19.7836933 75.4599609,20.2652966 75.4599609,20.8417969 L75.4599609,24 L74.5683594,24 L74.5683594,18.1132812 L75.3041992,18.1132812 L75.40625,19.2036133 L75.4492188,19.2036133 C75.6676443,18.8204733 75.9308253,18.5250661 76.2387695,18.3173828 C76.5467138,18.1096995 76.8850893,18.0058594 77.2539062,18.0058594 Z M83.1202148,23.2104492 L83.071875,23.2104492 C82.6600891,23.808434 82.0442098,24.1074219 81.2242188,24.1074219 C80.4543581,24.1074219 79.8554872,23.8442409 79.4275879,23.3178711 C78.9996886,22.7915013 78.7857422,22.0431364 78.7857422,21.0727539 C78.7857422,20.1023715 79.0005838,19.3486355 79.4302734,18.8115234 C79.8599631,18.2744114 80.4579389,18.0058594 81.2242188,18.0058594 C82.0227253,18.0058594 82.6350239,18.2958955 83.0611328,18.8759766 L83.130957,18.8759766 L83.0933594,18.4516602 L83.071875,18.0380859 L83.071875,15.6425781 L83.9634766,15.6425781 L83.9634766,24 L83.2383789,24 L83.1202148,23.2104492 Z M81.3370117,23.3608398 C81.9457387,23.3608398 82.3870592,23.1952328 82.6609863,22.8640137 C82.9349135,22.5327946 83.071875,21.9983761 83.071875,21.2607422 L83.071875,21.0727539 C83.071875,20.2384398 82.9331231,19.6431496 82.6556152,19.2868652 C82.3781073,18.9305809 81.9349965,18.7524414 81.3262695,18.7524414 C80.8034805,18.7524414 80.403338,18.9556458 80.1258301,19.3620605 C79.8483222,19.7684753 79.7095703,20.3422815 79.7095703,21.0834961 C79.7095703,21.835453 79.847427,22.4029929 80.1231445,22.7861328 C80.3988621,23.1692727 80.8034804,23.3608398 81.3370117,23.3608398 Z M89.9264648,22.394043 C89.9264648,22.9418973 89.7223653,23.3644191 89.3141602,23.6616211 C88.905955,23.9588231 88.3330441,24.1074219 87.5954102,24.1074219 C86.8148073,24.1074219 86.2060894,23.983888 85.7692383,23.7368164 L85.7692383,22.909668 C86.0521173,23.0528979 86.3555811,23.1656897 86.6796387,23.2480469 C87.0036963,23.3304041 87.3161118,23.371582 87.6168945,23.371582 C88.0823917,23.371582 88.440461,23.2972826 88.6911133,23.1486816 C88.9417656,23.0000806 89.0670898,22.7736018 89.0670898,22.4692383 C89.0670898,22.2400705 88.9677256,22.0440275 88.7689941,21.8811035 C88.5702627,21.7181795 88.1826526,21.5257173 87.6061523,21.3037109 C87.058298,21.0996084 86.6688976,20.9214689 86.4379395,20.7692871 C86.2069813,20.6171054 86.035108,20.4443369 85.9223145,20.2509766 C85.8095209,20.0576162 85.753125,19.8266615 85.753125,19.5581055 C85.753125,19.0782854 85.9482728,18.699627 86.3385742,18.4221191 C86.7288756,18.1446112 87.2641893,18.0058594 87.9445312,18.0058594 C88.5783235,18.0058594 89.1977834,18.1347643 89.8029297,18.3925781 L89.4860352,19.1176758 C88.8952119,18.874185 88.3598982,18.7524414 87.8800781,18.7524414 C87.45755,18.7524414 87.1388683,18.8186842 86.9240234,18.9511719 C86.7091786,19.0836595 86.6017578,19.2662749 86.6017578,19.4990234 C86.6017578,19.6565763 86.6420406,19.7908523 86.7226074,19.9018555 C86.8031742,20.0128586 86.9329744,20.1184891 87.1120117,20.21875 C87.2686694,20.3064783 87.5514326,20.4284738 87.9603081,20.5847394 L88.1432617,20.6538086 C88.8415074,20.9080416 89.3132637,21.1640612 89.5585449,21.421875 C89.8038261,21.6796888 89.9264648,22.0037415 89.9264648,22.394043 Z M91.5227539,23.4306641 C91.5227539,23.190754 91.5773595,23.0090338 91.6865723,22.885498 C91.7957851,22.7619623 91.9524404,22.7001953 92.156543,22.7001953 C92.3642263,22.7001953 92.5262527,22.7619623 92.642627,22.885498 C92.7590012,23.0090338 92.8171875,23.190754 92.8171875,23.4306641 C92.8171875,23.6634126 92.7581061,23.8424473 92.6399414,23.9677734 C92.5217768,24.0930996 92.3606456,24.1557617 92.156543,24.1557617 C91.9739249,24.1557617 91.8226406,24.0993658 91.7026855,23.9865723 C91.5827305,23.8737787 91.5227539,23.6884779 91.5227539,23.4306641 Z M97.2064453,24.1074219 C96.3542275,24.1074219 95.6944848,23.8451361 95.2271973,23.3205566 C94.7599098,22.7959772 94.5262695,22.0538785 94.5262695,21.0942383 C94.5262695,20.1095328 94.7634905,19.3486355 95.2379395,18.8115234 C95.7123884,18.2744114 96.3882443,18.0058594 97.2655273,18.0058594 C97.5484064,18.0058594 97.8312811,18.0362953 98.1141602,18.097168 C98.3970392,18.1580407 98.6190422,18.2296545 98.7801758,18.3120117 L98.50625,19.0693359 C98.3093089,18.9905595 98.0944673,18.9252118 97.8617187,18.873291 C97.6289702,18.8213702 97.4230803,18.7954102 97.244043,18.7954102 C96.0480734,18.7954102 95.4500977,19.5580978 95.4500977,21.0834961 C95.4500977,21.806807 95.5960109,22.3618145 95.8878418,22.7485352 C96.1796727,23.1352558 96.6120414,23.3286133 97.1849609,23.3286133 C97.6755233,23.3286133 98.1786107,23.2229828 98.6942383,23.0117188 L98.6942383,23.8012695 C98.3003561,24.0053721 97.8044301,24.1074219 97.2064453,24.1074219 Z M104.163086,22.394043 C104.163086,22.9418973 103.958986,23.3644191 103.550781,23.6616211 C103.142576,23.9588231 102.569665,24.1074219 101.832031,24.1074219 C101.051428,24.1074219 100.442711,23.983888 100.005859,23.7368164 L100.005859,22.909668 C100.288738,23.0528979 100.592202,23.1656897 100.91626,23.2480469 C101.240317,23.3304041 101.552733,23.371582 101.853516,23.371582 C102.319013,23.371582 102.677082,23.2972826 102.927734,23.1486816 C103.178387,23.0000806 103.303711,22.7736018 103.303711,22.4692383 C103.303711,22.2400705 103.204347,22.0440275 103.005615,21.8811035 C102.806884,21.7181795 102.419274,21.5257173 101.842773,21.3037109 C101.294919,21.0996084 100.905519,20.9214689 100.674561,20.7692871 C100.443602,20.6171054 100.271729,20.4443369 100.158936,20.2509766 C100.046142,20.0576162 99.9897461,19.8266615 99.9897461,19.5581055 C99.9897461,19.0782854 100.184894,18.699627 100.575195,18.4221191 C100.965497,18.1446112 101.50081,18.0058594 102.181152,18.0058594 C102.814945,18.0058594 103.434405,18.1347643 104.039551,18.3925781 L103.722656,19.1176758 C103.131833,18.874185 102.596519,18.7524414 102.116699,18.7524414 C101.694171,18.7524414 101.375489,18.8186842 101.160645,18.9511719 C100.9458,19.0836595 100.838379,19.2662749 100.838379,19.4990234 C100.838379,19.6565763 100.878662,19.7908523 100.959229,19.9018555 C101.039795,20.0128586 101.169595,20.1184891 101.348633,20.21875 C101.50529,20.3064783 101.788054,20.4284738 102.196929,20.5847394 L102.379883,20.6538086 C103.078128,20.9080416 103.549885,21.1640612 103.795166,21.421875 C104.040447,21.6796888 104.163086,22.0037415 104.163086,22.394043 Z M107.177344,24 L104.942969,18.1132812 L105.899023,18.1132812 L107.166602,21.6044922 L107.432227,22.3814823 C107.559831,22.7684374 107.639583,23.0393872 107.671484,23.1943359 L107.714453,23.1943359 C107.745088,23.0467296 107.827168,22.7761989 107.960694,22.3827382 L108.76363,20.1330564 C108.968909,19.566346 109.213584,18.8930884 109.497656,18.1132812 L110.453711,18.1132812 L108.219336,24 L107.177344,24 Z" id="keywords.csv" fill="#000000" fill-rule="nonzero"></path>
                    <g id="file-csv-light" transform="translate(18.000000, 12.000000)" fill="#2064F5" fill-rule="nonzero">
                        <path d="M11.559375,3.061875 L8.938125,0.440625 C8.656875,0.159375 8.275625,0 7.8790625,0 L1.4996875,0 C0.671875,0.003125 0,0.675 0,1.5028125 L0,14.5003125 C0,15.328125 0.671875,16 1.4996875,16 L10.5003125,16 C11.328125,16 12,15.328125 12,14.5003125 L12,4.1240625 C12,3.7275 11.840625,3.343125 11.559375,3.061875 Z M8.0009375,1.0184375 C8.0884375,1.0403125 8.1665625,1.0840625 8.2321875,1.1496875 L10.8534375,3.7709375 C10.9190625,3.8365625 10.9628125,3.9146875 10.9846875,4.0021875 L8.0009375,4.0021875 L8.0009375,1.0184375 L8.0009375,1.0184375 Z M11.0003125,14.5003125 C11.0003125,14.7753125 10.7753125,15.0003125 10.5003125,15.0003125 L1.4996875,15.0003125 C1.2246875,15.0003125 0.9996875,14.7753125 0.9996875,14.5003125 L0.9996875,1.5028125 C0.9996875,1.2278125 1.2246875,1 1.4996875,1 L7.0009375,1 L7.0009375,4.2521875 C7.0009375,4.6678125 7.3353125,5 7.7509375,5 L11.0003125,5 L11.0003125,14.5003125 Z M3.75,8 L3.5,8 C2.6715625,8 2,8.6715625 2,9.5 L2,10.5 C2,11.3284375 2.6715625,12 3.5,12 L3.75,12 C3.888125,12 4,11.888125 4,11.75 L4,11.25 C4,11.111875 3.888125,11 3.75,11 L3.5,11 C3.22375,11 3,10.77625 3,10.5 L3,9.5 C3,9.22375 3.22375,9 3.5,9 L3.75,9 C3.888125,9 4,8.888125 4,8.75 L4,8.25 C4,8.111875 3.888125,8 3.75,8 Z M7.25,8 C7.111875,8 7,8.111875 7,8.25 L7,8.9 C7,10.00875 7.4025,11.0528125 8.13375,11.8403125 C8.228125,11.941875 8.3609375,12 8.5,12 C8.6390625,12 8.771875,11.941875 8.86625,11.8403125 C9.5978125,11.0528125 10,10.00875 10,8.9 L10,8.25 C10,8.111875 9.888125,8 9.75,8 L9.25,8 C9.111875,8 9,8.111875 9,8.25 L9,8.9 C9,9.5334375 8.821875,10.1553125 8.5,10.6775 C8.178125,10.155625 8,9.5334375 8,8.9 L8,8.25 C8,8.111875 7.888125,8 7.75,8 L7.25,8 Z M5.6078125,9.3271875 C5.5646875,9.29 5.5415625,9.2475 5.5415625,9.2071875 C5.5415625,9.1096875 5.680625,9.0003125 5.866875,9.0003125 L6.25,9.0003125 C6.388125,9.0003125 6.5,8.8884375 6.5,8.7503125 L6.5,8.2503125 C6.5,8.1121875 6.388125,8.0003125 6.25,8.0003125 L5.8665625,8.0003125 C5.135625,8.0003125 4.54125,8.541875 4.54125,9.2071875 C4.54125,9.5403125 4.693125,9.8609375 4.9578125,10.0865625 L5.641875,10.673125 C5.685,10.7103125 5.708125,10.7528125 5.708125,10.793125 C5.708125,10.890625 5.5690625,11 5.3828125,11 L5,11 C4.861875,11 4.75,11.111875 4.75,11.25 L4.75,11.75 C4.75,11.888125 4.861875,12 5,12 L5.3834375,12 C6.114375,12 6.70875,11.4584375 6.70875,10.793125 C6.70875,10.46 6.556875,10.139375 6.2921875,9.91375 L5.6078125,9.3271875 Z" id="Shape"></path>
                    </g>
                    <path d="M41.8261719,44.9868164 C41.980144,44.7683908 42.2146794,44.4819354 42.5297852,44.1274414 L44.4311523,42.1132812 L45.4892578,42.1132812 L43.1044922,44.621582 L45.6557617,48 L44.5761719,48 L42.4975586,45.2177734 L41.8261719,45.7978516 L41.8261719,48 L40.9453125,48 L40.9453125,39.6425781 L41.8261719,39.6425781 L41.8261719,44.0737305 L41.8213976,44.3064778 C41.8150319,44.4855138 41.8023004,44.7122925 41.7832031,44.9868164 L41.8261719,44.9868164 Z M49.2608398,48.1074219 C48.3907183,48.1074219 47.7041204,47.8424506 47.2010254,47.3125 C46.6979304,46.7825494 46.4463867,46.0467169 46.4463867,45.1049805 C46.4463867,44.1560825 46.680027,43.4023465 47.1473145,42.84375 C47.6146019,42.2851535 48.2421185,42.0058594 49.0298828,42.0058594 C49.7675167,42.0058594 50.3511697,42.2484514 50.7808594,42.7336426 C51.210549,43.2188338 51.4253906,43.8588827 51.4253906,44.6538086 L51.4253906,45.2177734 L47.3702148,45.2177734 C47.3881186,45.9088576 47.5626774,46.4334292 47.8938965,46.7915039 C48.2251156,47.1495786 48.6915009,47.3286133 49.2930664,47.3286133 C49.9268586,47.3286133 50.55348,47.1961276 51.1729492,46.9311523 L51.1729492,47.7260742 C50.8578435,47.8621426 50.5597508,47.9597165 50.2786621,48.0187988 C49.9975735,48.0778812 49.6583028,48.1074219 49.2608398,48.1074219 Z M49.0191406,42.7524414 C48.546482,42.7524414 48.169614,42.9064112 47.8885254,43.2143555 C47.6074367,43.5222997 47.4418297,43.9484022 47.3916992,44.4926758 L50.4693359,44.4926758 C50.4693359,43.9304985 50.3440117,43.4999201 50.0933594,43.2009277 C49.8427071,42.9019354 49.4846377,42.7524414 49.0191406,42.7524414 Z M52.065625,42.1132812 L53.0216797,42.1132812 L54.3107422,45.4702148 C54.5936212,46.2364947 54.7690752,46.7897118 54.8371094,47.1298828 L54.8800781,47.1298828 L54.9324737,46.9415657 C54.9649194,46.8315133 55.006737,46.6976202 55.0579268,46.5398854 L55.2809556,45.8786465 C55.5006825,45.2496887 55.9507127,43.9945746 56.6310547,42.1132812 L57.5871094,42.1132812 L55.0573242,48.8164062 C54.8066719,49.4788445 54.5139502,49.9488105 54.1791504,50.2263184 C53.8443505,50.5038263 53.433466,50.6425781 52.9464844,50.6425781 C52.6743476,50.6425781 52.4057956,50.6121422 52.1408203,50.5512695 L52.1408203,49.8369141 C52.3377614,49.879883 52.557974,49.9013672 52.8014648,49.9013672 C53.4137726,49.9013672 53.8506172,49.5576206 54.1120117,48.8701172 L54.4396484,48.0322266 L52.065625,42.1132812 Z M64.6833984,48 L63.625293,48 L62.4977929,44.3874023 C62.4244597,44.1324549 62.3133145,43.7056345 62.1643555,43.1069336 L62.1213867,43.1069336 L62.0030032,43.6089675 C61.9080043,43.9980976 61.8221405,44.3141496 61.7454102,44.5571289 L60.6335938,48 L59.6023438,48 L57.9963867,42.1132812 L58.930957,42.1132812 L59.7983887,45.4916992 C59.9971201,46.2651406 60.1108071,46.7861315 60.1394531,47.0546875 L60.1824219,47.0546875 C60.2218101,46.8505849 60.2853674,46.5865088 60.3730957,46.2624512 L60.4727833,45.9058101 C60.5041504,45.7976723 60.5336555,45.7002768 60.5612987,45.6136233 L61.680957,42.1132812 L62.6477539,42.1132812 L63.7004883,45.4916992 C63.9010101,46.1075877 64.0370765,46.6249979 64.1086914,47.0439453 L64.1516602,47.0439453 L64.1804492,46.8557423 C64.1939127,46.7818362 64.2112433,46.6967584 64.2324413,46.6005083 L64.8439259,44.1986696 C64.9955455,43.6149047 65.176574,42.9197757 65.3870117,42.1132812 L66.3108398,42.1132812 L64.6833984,48 Z M72.7303711,45.0512695 C72.7303711,46.0109097 72.4886743,46.7601698 72.0052734,47.2990723 C71.5218726,47.8379747 70.8540733,48.1074219 70.0018555,48.1074219 C69.4754856,48.1074219 69.0082052,47.983888 68.6,47.7368164 C68.1917948,47.4897449 67.8766938,47.1352562 67.6546875,46.6733398 C67.4326812,46.2114235 67.3216797,45.6707388 67.3216797,45.0512695 C67.3216797,44.0916293 67.5615861,43.3441596 68.0414062,42.8088379 C68.5212264,42.2735162 69.1872353,42.0058594 70.0394531,42.0058594 C70.863025,42.0058594 71.5173967,42.2797824 72.0025879,42.8276367 C72.4877791,43.375491 72.7303711,44.1166945 72.7303711,45.0512695 Z M68.2455078,45.0512695 C68.2455078,45.8032264 68.3958969,46.3761374 68.6966797,46.7700195 C68.9974624,47.1639017 69.4396781,47.3608398 70.0233398,47.3608398 C70.6070016,47.3608398 71.0501124,47.1647969 71.3526855,46.7727051 C71.6552587,46.3806133 71.806543,45.8068072 71.806543,45.0512695 C71.806543,44.3028934 71.6552587,43.7344583 71.3526855,43.3459473 C71.0501124,42.9574362 70.6034209,42.7631836 70.0125977,42.7631836 C69.4289359,42.7631836 68.9885106,42.9547507 68.6913086,43.3378906 C68.3941066,43.7210306 68.2455078,44.2921512 68.2455078,45.0512695 Z M77.2539062,42.0058594 C77.5153008,42.0058594 77.7498362,42.0273435 77.9575195,42.0703125 L77.8339844,42.8974609 C77.5904936,42.8437497 77.375652,42.8168945 77.1894531,42.8168945 C76.7132138,42.8168945 76.3059099,43.010252 75.9675293,43.3969727 C75.6291487,43.7836933 75.4599609,44.2652966 75.4599609,44.8417969 L75.4599609,48 L74.5683594,48 L74.5683594,42.1132812 L75.3041992,42.1132812 L75.40625,43.2036133 L75.4492188,43.2036133 C75.6676443,42.8204733 75.9308253,42.5250661 76.2387695,42.3173828 C76.5467138,42.1096995 76.8850893,42.0058594 77.2539062,42.0058594 Z M83.1202148,47.2104492 L83.071875,47.2104492 C82.6600891,47.808434 82.0442098,48.1074219 81.2242188,48.1074219 C80.4543581,48.1074219 79.8554872,47.8442409 79.4275879,47.3178711 C78.9996886,46.7915013 78.7857422,46.0431364 78.7857422,45.0727539 C78.7857422,44.1023715 79.0005838,43.3486355 79.4302734,42.8115234 C79.8599631,42.2744114 80.4579389,42.0058594 81.2242188,42.0058594 C82.0227253,42.0058594 82.6350239,42.2958955 83.0611328,42.8759766 L83.130957,42.8759766 L83.0933594,42.4516602 L83.071875,42.0380859 L83.071875,39.6425781 L83.9634766,39.6425781 L83.9634766,48 L83.2383789,48 L83.1202148,47.2104492 Z M81.3370117,47.3608398 C81.9457387,47.3608398 82.3870592,47.1952328 82.6609863,46.8640137 C82.9349135,46.5327946 83.071875,45.9983761 83.071875,45.2607422 L83.071875,45.0727539 C83.071875,44.2384398 82.9331231,43.6431496 82.6556152,43.2868652 C82.3781073,42.9305809 81.9349965,42.7524414 81.3262695,42.7524414 C80.8034805,42.7524414 80.403338,42.9556458 80.1258301,43.3620605 C79.8483222,43.7684753 79.7095703,44.3422815 79.7095703,45.0834961 C79.7095703,45.835453 79.847427,46.4029929 80.1231445,46.7861328 C80.3988621,47.1692727 80.8034804,47.3608398 81.3370117,47.3608398 Z M89.9264648,46.394043 C89.9264648,46.9418973 89.7223653,47.3644191 89.3141602,47.6616211 C88.905955,47.9588231 88.3330441,48.1074219 87.5954102,48.1074219 C86.8148073,48.1074219 86.2060894,47.983888 85.7692383,47.7368164 L85.7692383,46.909668 C86.0521173,47.0528979 86.3555811,47.1656897 86.6796387,47.2480469 C87.0036963,47.3304041 87.3161118,47.371582 87.6168945,47.371582 C88.0823917,47.371582 88.440461,47.2972826 88.6911133,47.1486816 C88.9417656,47.0000806 89.0670898,46.7736018 89.0670898,46.4692383 C89.0670898,46.2400705 88.9677256,46.0440275 88.7689941,45.8811035 C88.5702627,45.7181795 88.1826526,45.5257173 87.6061523,45.3037109 C87.058298,45.0996084 86.6688976,44.9214689 86.4379395,44.7692871 C86.2069813,44.6171054 86.035108,44.4443369 85.9223145,44.2509766 C85.8095209,44.0576162 85.753125,43.8266615 85.753125,43.5581055 C85.753125,43.0782854 85.9482728,42.699627 86.3385742,42.4221191 C86.7288756,42.1446112 87.2641893,42.0058594 87.9445312,42.0058594 C88.5783235,42.0058594 89.1977834,42.1347643 89.8029297,42.3925781 L89.4860352,43.1176758 C88.8952119,42.874185 88.3598982,42.7524414 87.8800781,42.7524414 C87.45755,42.7524414 87.1388683,42.8186842 86.9240234,42.9511719 C86.7091786,43.0836595 86.6017578,43.2662749 86.6017578,43.4990234 C86.6017578,43.6565763 86.6420406,43.7908523 86.7226074,43.9018555 C86.8031742,44.0128586 86.9329744,44.1184891 87.1120117,44.21875 C87.2686694,44.3064783 87.5514326,44.4284738 87.9603081,44.5847394 L88.1432617,44.6538086 C88.8415074,44.9080416 89.3132637,45.1640612 89.5585449,45.421875 C89.8038261,45.6796888 89.9264648,46.0037415 89.9264648,46.394043 Z M91.5227539,47.4306641 C91.5227539,47.190754 91.5773595,47.0090338 91.6865723,46.885498 C91.7957851,46.7619623 91.9524404,46.7001953 92.156543,46.7001953 C92.3642263,46.7001953 92.5262527,46.7619623 92.642627,46.885498 C92.7590012,47.0090338 92.8171875,47.190754 92.8171875,47.4306641 C92.8171875,47.6634126 92.7581061,47.8424473 92.6399414,47.9677734 C92.5217768,48.0930996 92.3606456,48.1557617 92.156543,48.1557617 C91.9739249,48.1557617 91.8226406,48.0993658 91.7026855,47.9865723 C91.5827305,47.8737787 91.5227539,47.6884779 91.5227539,47.4306641 Z M97.3407227,48.1074219 C96.4706011,48.1074219 95.7840032,47.8424506 95.2809082,47.3125 C94.7778132,46.7825494 94.5262695,46.0467169 94.5262695,45.1049805 C94.5262695,44.1560825 94.7599098,43.4023465 95.2271973,42.84375 C95.6944848,42.2851535 96.3220013,42.0058594 97.1097656,42.0058594 C97.8473995,42.0058594 98.4310525,42.2484514 98.8607422,42.7336426 C99.2904318,43.2188338 99.5052734,43.8588827 99.5052734,44.6538086 L99.5052734,45.2177734 L95.4500977,45.2177734 C95.4680014,45.9088576 95.6425602,46.4334292 95.9737793,46.7915039 C96.3049984,47.1495786 96.7713837,47.3286133 97.3729492,47.3286133 C98.0067415,47.3286133 98.6333628,47.1961276 99.252832,46.9311523 L99.252832,47.7260742 C98.9377263,47.8621426 98.6396336,47.9597165 98.3585449,48.0187988 C98.0774563,48.0778812 97.7381856,48.1074219 97.3407227,48.1074219 Z M97.0990234,42.7524414 C96.6263648,42.7524414 96.2494968,42.9064112 95.9684082,43.2143555 C95.6873196,43.5222997 95.5217125,43.9484022 95.471582,44.4926758 L98.5492187,44.4926758 C98.5492187,43.9304985 98.4238945,43.4999201 98.1732422,43.2009277 C97.9225899,42.9019354 97.5645206,42.7524414 97.0990234,42.7524414 Z M102.498047,44.9868164 L100.45166,42.1132812 L101.466797,42.1132812 L103.019043,44.3691406 L104.565918,42.1132812 L105.570312,42.1132812 L103.523926,44.9868164 L105.677734,48 L104.667969,48 L103.019043,45.6152344 L101.354004,48 L100.344238,48 L102.498047,44.9868164 Z M109.250586,48.1074219 C108.398368,48.1074219 107.738625,47.8451361 107.271338,47.3205566 C106.80405,46.7959772 106.57041,46.0538785 106.57041,45.0942383 C106.57041,44.1095328 106.807631,43.3486355 107.28208,42.8115234 C107.756529,42.2744114 108.432385,42.0058594 109.309668,42.0058594 C109.592547,42.0058594 109.875422,42.0362953 110.158301,42.097168 C110.44118,42.1580407 110.663183,42.2296545 110.824316,42.3120117 L110.550391,43.0693359 C110.35345,42.9905595 110.138608,42.9252118 109.905859,42.873291 C109.673111,42.8213702 109.467221,42.7954102 109.288184,42.7954102 C108.092214,42.7954102 107.494238,43.5580978 107.494238,45.0834961 C107.494238,45.806807 107.640152,46.3618145 107.931982,46.7485352 C108.223813,47.1352558 108.656182,47.3286133 109.229102,47.3286133 C109.719664,47.3286133 110.222751,47.2229828 110.738379,47.0117188 L110.738379,47.8012695 C110.344497,48.0053721 109.848571,48.1074219 109.250586,48.1074219 Z M114.89668,48.1074219 C114.026558,48.1074219 113.33996,47.8424506 112.836865,47.3125 C112.33377,46.7825494 112.082227,46.0467169 112.082227,45.1049805 C112.082227,44.1560825 112.315867,43.4023465 112.783154,42.84375 C113.250442,42.2851535 113.877958,42.0058594 114.665723,42.0058594 C115.403357,42.0058594 115.98701,42.2484514 116.416699,42.7336426 C116.846389,43.2188338 117.06123,43.8588827 117.06123,44.6538086 L117.06123,45.2177734 L113.006055,45.2177734 C113.023958,45.9088576 113.198517,46.4334292 113.529736,46.7915039 C113.860955,47.1495786 114.327341,47.3286133 114.928906,47.3286133 C115.562698,47.3286133 116.18932,47.1961276 116.808789,46.9311523 L116.808789,47.7260742 C116.493683,47.8621426 116.195591,47.9597165 115.914502,48.0187988 C115.633413,48.0778812 115.294143,48.1074219 114.89668,48.1074219 Z M114.65498,42.7524414 C114.182322,42.7524414 113.805454,42.9064112 113.524365,43.2143555 C113.243277,43.5222997 113.07767,43.9484022 113.027539,44.4926758 L116.105176,44.4926758 C116.105176,43.9304985 115.979852,43.4999201 115.729199,43.2009277 C115.478547,42.9019354 115.120478,42.7524414 114.65498,42.7524414 Z M119.747852,48 L118.85625,48 L118.85625,39.6425781 L119.747852,39.6425781 L119.747852,48 Z" id="keywords.excel" fill="#000000" fill-rule="nonzero"></path>
                    <path d="M43.496582,88 L42.5834961,88 L42.5834961,80.9584961 L40.0966797,80.9584961 L40.0966797,80.1474609 L45.9833984,80.1474609 L45.9833984,80.9584961 L43.496582,80.9584961 L43.496582,88 Z M51.61875,85.0512695 C51.61875,86.0109097 51.3770532,86.7601698 50.8936523,87.2990723 C50.4102515,87.8379747 49.7424522,88.1074219 48.8902344,88.1074219 C48.3638646,88.1074219 47.8965841,87.983888 47.4883789,87.7368164 C47.0801737,87.4897449 46.7650727,87.1352562 46.5430664,86.6733398 C46.3210601,86.2114235 46.2100586,85.6707388 46.2100586,85.0512695 C46.2100586,84.0916293 46.449965,83.3441596 46.9297852,82.8088379 C47.4096053,82.2735162 48.0756142,82.0058594 48.927832,82.0058594 C49.7514039,82.0058594 50.4057756,82.2797824 50.8909668,82.8276367 C51.376158,83.375491 51.61875,84.1166945 51.61875,85.0512695 Z M47.1338867,85.0512695 C47.1338867,85.8032264 47.2842758,86.3761374 47.5850586,86.7700195 C47.8858413,87.1639017 48.328057,87.3608398 48.9117187,87.3608398 C49.4953805,87.3608398 49.9384913,87.1647969 50.2410645,86.7727051 C50.5436376,86.3806133 50.6949219,85.8068072 50.6949219,85.0512695 C50.6949219,84.3028934 50.5436376,83.7344583 50.2410645,83.3459473 C49.9384913,82.9574362 49.4917998,82.7631836 48.9009766,82.7631836 C48.3173148,82.7631836 47.8768895,82.9547507 47.5796875,83.3378906 C47.2824855,83.7210306 47.1338867,84.2921512 47.1338867,85.0512695 Z M57.6365234,88 L56.7234375,88 L56.7234375,80.1474609 L61.1008789,80.1474609 L61.1008789,80.9584961 L57.6365234,80.9584961 L57.6365234,83.8320312 L60.8914063,83.8320312 L60.8914063,84.6430664 L57.6365234,84.6430664 L57.6365234,88 Z M65.2269531,82.0058594 C65.4883477,82.0058594 65.7228831,82.0273435 65.9305664,82.0703125 L65.8070312,82.8974609 C65.5635404,82.8437497 65.3486988,82.8168945 65.1625,82.8168945 C64.6862606,82.8168945 64.2789568,83.010252 63.9405762,83.3969727 C63.6021956,83.7836933 63.4330078,84.2652966 63.4330078,84.8417969 L63.4330078,88 L62.5414063,88 L62.5414063,82.1132812 L63.2772461,82.1132812 L63.3792969,83.2036133 L63.4222656,83.2036133 C63.6406912,82.8204733 63.9038722,82.5250661 64.2118164,82.3173828 C64.5197607,82.1096995 64.8581362,82.0058594 65.2269531,82.0058594 Z M70.706543,88 L70.5292969,87.1621094 L70.4863281,87.1621094 C70.1927069,87.5309263 69.8999852,87.7806797 69.6081543,87.911377 C69.3163234,88.0420742 68.9519879,88.1074219 68.5151367,88.1074219 C67.9314749,88.1074219 67.4740414,87.9570328 67.1428223,87.65625 C66.8116032,87.3554672 66.6459961,86.9275744 66.6459961,86.3725586 C66.6459961,85.1837506 67.5966702,84.5607099 69.4980469,84.503418 L70.4970703,84.4711914 L70.4970703,84.105957 C70.4970703,83.6440407 70.3977061,83.3029796 70.1989746,83.0827637 C70.0002431,82.8625477 69.6824566,82.7524414 69.2456055,82.7524414 C68.7550431,82.7524414 68.2000356,82.9028305 67.5805664,83.2036133 L67.3066406,82.5214844 C67.5966811,82.3639315 67.9144677,82.2403976 68.2600098,82.1508789 C68.6055519,82.0613602 68.9519839,82.0166016 69.2993164,82.0166016 C70.0011428,82.0166016 70.5212385,82.1723617 70.8596191,82.4838867 C71.1979997,82.7954117 71.3671875,83.2949184 71.3671875,83.9824219 L71.3671875,88 L70.706543,88 Z M68.6923828,87.371582 C69.2473986,87.371582 69.683348,87.2194026 70.0002441,86.9150391 C70.3171403,86.6106756 70.4755859,86.1845731 70.4755859,85.6367188 L70.4755859,85.1049805 L69.5839844,85.1425781 C68.8749965,85.1676434 68.3638525,85.2777497 68.0505371,85.4729004 C67.7372217,85.6680511 67.5805664,85.9715149 67.5805664,86.3833008 C67.5805664,86.705568 67.6781403,86.9508455 67.873291,87.1191406 C68.0684417,87.2874357 68.3414696,87.371582 68.6923828,87.371582 Z M77.5074219,88 L77.5074219,84.1918945 C77.5074219,83.7120744 77.3982107,83.3540051 77.1797852,83.1176758 C76.9613596,82.8813465 76.6194034,82.7631836 76.1539063,82.7631836 C75.5380178,82.7631836 75.0868504,82.9296858 74.8003906,83.2626953 C74.5139309,83.5957048 74.3707031,84.1453412 74.3707031,84.9116211 L74.3707031,88 L73.4791016,88 L73.4791016,82.1132812 L74.2041992,82.1132812 L74.3492188,82.9189453 L74.3921875,82.9189453 C74.5748056,82.6289048 74.8308252,82.4042163 75.1602539,82.244873 C75.4896826,82.0855298 75.8567037,82.0058594 76.2613281,82.0058594 C76.970316,82.0058594 77.5038394,82.1768375 77.8619141,82.5187988 C78.2199888,82.8607602 78.3990234,83.4077111 78.3990234,84.159668 L78.3990234,88 L77.5074219,88 Z M81.3864258,84.9868164 C81.5403979,84.7683908 81.7749333,84.4819354 82.0900391,84.1274414 L83.9914062,82.1132812 L85.0495117,82.1132812 L82.6647461,84.621582 L85.2160156,88 L84.1364258,88 L82.0578125,85.2177734 L81.3864258,85.7978516 L81.3864258,88 L80.5055664,88 L80.5055664,79.6425781 L81.3864258,79.6425781 L81.3864258,84.0737305 C81.3864258,84.2706716 81.372103,84.5750305 81.343457,84.9868164 L81.3864258,84.9868164 Z M88.8210937,88.1074219 C87.9509722,88.1074219 87.2643743,87.8424506 86.7612793,87.3125 C86.2581843,86.7825494 86.0066406,86.0467169 86.0066406,85.1049805 C86.0066406,84.1560825 86.2402809,83.4023465 86.7075684,82.84375 C87.1748559,82.2851535 87.8023724,82.0058594 88.5901367,82.0058594 C89.3277706,82.0058594 89.9114236,82.2484514 90.3411133,82.7336426 C90.7708029,83.2188338 90.9856445,83.8588827 90.9856445,84.6538086 L90.9856445,85.2177734 L86.9304687,85.2177734 C86.9483725,85.9088576 87.1229313,86.4334292 87.4541504,86.7915039 C87.7853695,87.1495786 88.2517548,87.3286133 88.8533203,87.3286133 C89.4871125,87.3286133 90.1137339,87.1961276 90.7332031,86.9311523 L90.7332031,87.7260742 C90.4180974,87.8621426 90.1200047,87.9597165 89.838916,88.0187988 C89.5578274,88.0778812 89.2185567,88.1074219 88.8210937,88.1074219 Z M88.5793945,82.7524414 C88.1067359,82.7524414 87.7298679,82.9064112 87.4487793,83.2143555 C87.1676907,83.5222997 87.0020836,83.9484022 86.9519531,84.4926758 L90.0295898,84.4926758 C90.0295898,83.9304985 89.9042656,83.4999201 89.6536133,83.2009277 C89.402961,82.9019354 89.0448917,82.7524414 88.5793945,82.7524414 Z M96.8089844,88 L96.8089844,84.1918945 C96.8089844,83.7120744 96.6997732,83.3540051 96.4813477,83.1176758 C96.2629221,82.8813465 95.9209659,82.7631836 95.4554687,82.7631836 C94.8395803,82.7631836 94.3884129,82.9296858 94.1019531,83.2626953 C93.8154934,83.5957048 93.6722656,84.1453412 93.6722656,84.9116211 L93.6722656,88 L92.7806641,88 L92.7806641,82.1132812 L93.5057617,82.1132812 L93.6507812,82.9189453 L93.69375,82.9189453 C93.8763681,82.6289048 94.1323877,82.4042163 94.4618164,82.244873 C94.7912451,82.0855298 95.1582662,82.0058594 95.5628906,82.0058594 C96.2718785,82.0058594 96.8054019,82.1768375 97.1634766,82.5187988 C97.5215513,82.8607602 97.7005859,83.4077111 97.7005859,84.159668 L97.7005859,88 L96.8089844,88 Z M103.604492,86.394043 C103.604492,86.9418973 103.400393,87.3644191 102.992188,87.6616211 C102.583982,87.9588231 102.011071,88.1074219 101.273438,88.1074219 C100.492835,88.1074219 99.8841168,87.983888 99.4472656,87.7368164 L99.4472656,86.909668 C99.7301446,87.0528979 100.033608,87.1656897 100.357666,87.2480469 C100.681724,87.3304041 100.994139,87.371582 101.294922,87.371582 C101.760419,87.371582 102.118488,87.2972826 102.369141,87.1486816 C102.619793,87.0000806 102.745117,86.7736018 102.745117,86.4692383 C102.745117,86.2400705 102.645753,86.0440275 102.447021,85.8811035 C102.24829,85.7181795 101.86068,85.5257173 101.28418,85.3037109 C100.736325,85.0996084 100.346925,84.9214689 100.115967,84.7692871 C99.8850086,84.6171054 99.7131353,84.4443369 99.6003418,84.2509766 C99.4875483,84.0576162 99.4311523,83.8266615 99.4311523,83.5581055 C99.4311523,83.0782854 99.6263001,82.699627 100.016602,82.4221191 C100.406903,82.1446112 100.942217,82.0058594 101.622559,82.0058594 C102.256351,82.0058594 102.875811,82.1347643 103.480957,82.3925781 L103.164062,83.1176758 C102.573239,82.874185 102.037926,82.7524414 101.558105,82.7524414 C101.135577,82.7524414 100.816896,82.8186842 100.602051,82.9511719 C100.387206,83.0836595 100.279785,83.2662749 100.279785,83.4990234 C100.279785,83.6565763 100.320068,83.7908523 100.400635,83.9018555 C100.481202,84.0128586 100.611002,84.1184891 100.790039,84.21875 C100.946697,84.3064783 101.22946,84.4284738 101.638335,84.5847394 L101.821289,84.6538086 C102.519535,84.9080416 102.991291,85.1640612 103.236572,85.421875 C103.481853,85.6796888 103.604492,86.0037415 103.604492,86.394043 Z M107.231055,87.371582 C107.388608,87.371582 107.540787,87.3599448 107.687598,87.3366699 C107.834408,87.3133951 107.950781,87.2892254 108.036719,87.2641602 L108.036719,87.9462891 C107.940039,87.9928388 107.797706,88.0313312 107.609717,88.0617676 C107.421728,88.0922039 107.25254,88.1074219 107.102148,88.1074219 C105.963471,88.1074219 105.394141,87.5076557 105.394141,86.3081055 L105.394141,82.8061523 L104.550879,82.8061523 L104.550879,82.3764648 L105.394141,82.0058594 L105.770117,80.7490234 L106.285742,80.7490234 L106.285742,82.1132812 L107.99375,82.1132812 L107.99375,82.8061523 L106.285742,82.8061523 L106.285742,86.2705078 C106.285742,86.6250018 106.369888,86.8971345 106.538184,87.0869141 C106.706479,87.2766937 106.937433,87.371582 107.231055,87.371582 Z M113.108105,88 L112.930859,87.1621094 L112.887891,87.1621094 C112.594269,87.5309263 112.301548,87.7806797 112.009717,87.911377 C111.717886,88.0420742 111.35355,88.1074219 110.916699,88.1074219 C110.333037,88.1074219 109.875604,87.9570328 109.544385,87.65625 C109.213166,87.3554672 109.047559,86.9275744 109.047559,86.3725586 C109.047559,85.1837506 109.998233,84.5607099 111.899609,84.503418 L112.898633,84.4711914 L112.898633,84.105957 C112.898633,83.6440407 112.799269,83.3029796 112.600537,83.0827637 C112.401806,82.8625477 112.084019,82.7524414 111.647168,82.7524414 C111.156606,82.7524414 110.601598,82.9028305 109.982129,83.2036133 L109.708203,82.5214844 C109.998244,82.3639315 110.31603,82.2403976 110.661572,82.1508789 C111.007114,82.0613602 111.353546,82.0166016 111.700879,82.0166016 C112.402705,82.0166016 112.922801,82.1723617 113.261182,82.4838867 C113.599562,82.7954117 113.76875,83.2949184 113.76875,83.9824219 L113.76875,88 L113.108105,88 Z M111.093945,87.371582 C111.648961,87.371582 112.084911,87.2194026 112.401807,86.9150391 C112.718703,86.6106756 112.877148,86.1845731 112.877148,85.6367188 L112.877148,85.1049805 L111.985547,85.1425781 C111.276559,85.1676434 110.765415,85.2777497 110.4521,85.4729004 C110.138784,85.6680511 109.982129,85.9715149 109.982129,86.3833008 C109.982129,86.705568 110.079703,86.9508455 110.274854,87.1191406 C110.470004,87.2874357 110.743032,87.371582 111.093945,87.371582 Z M116.772266,88 L115.880664,88 L115.880664,82.1132812 L116.772266,82.1132812 L116.772266,88 Z M115.805469,80.5180664 C115.805469,80.3139638 115.855598,80.1644699 115.955859,80.0695801 C116.05612,79.9746903 116.181445,79.9272461 116.331836,79.9272461 C116.475066,79.9272461 116.5986,79.9755855 116.702441,80.0722656 C116.806283,80.1689458 116.858203,80.3175446 116.858203,80.5180664 C116.858203,80.7185882 116.806283,80.8680822 116.702441,80.9665527 C116.5986,81.0650233 116.475066,81.1142578 116.331836,81.1142578 C116.181445,81.1142578 116.05612,81.0650233 115.955859,80.9665527 C115.855598,80.8680822 115.805469,80.7185882 115.805469,80.5180664 Z M122.966211,88 L122.966211,84.1918945 C122.966211,83.7120744 122.857,83.3540051 122.638574,83.1176758 C122.420149,82.8813465 122.078192,82.7631836 121.612695,82.7631836 C120.996807,82.7631836 120.545639,82.9296858 120.25918,83.2626953 C119.97272,83.5957048 119.829492,84.1453412 119.829492,84.9116211 L119.829492,88 L118.937891,88 L118.937891,82.1132812 L119.662988,82.1132812 L119.808008,82.9189453 L119.850977,82.9189453 C120.033595,82.6289048 120.289614,82.4042163 120.619043,82.244873 C120.948472,82.0855298 121.315493,82.0058594 121.720117,82.0058594 C122.429105,82.0058594 122.962628,82.1768375 123.320703,82.5187988 C123.678778,82.8607602 123.857813,83.4077111 123.857813,84.159668 L123.857813,88 L122.966211,88 Z" id="ToFrankenstain" fill="#000000" fill-rule="nonzero"></path>
                    <path d="M44.4418945,104.851074 C43.5789345,104.851074 42.8977076,105.138425 42.3981934,105.713135 C41.8986791,106.287845 41.6489258,107.074702 41.6489258,108.07373 C41.6489258,109.101405 41.8897274,109.895424 42.3713379,110.455811 C42.8529484,111.016197 43.5395463,111.296387 44.4311523,111.296387 C44.9790066,111.296387 45.6038376,111.197918 46.3056641,111.000977 L46.3056641,111.80127 C45.7613905,112.005372 45.0900105,112.107422 44.2915039,112.107422 C43.1349226,112.107422 42.2424348,111.756514 41.6140137,111.054688 C40.9855926,110.352861 40.6713867,109.355638 40.6713867,108.062988 C40.6713867,107.253739 40.822671,106.544762 41.1252441,105.936035 C41.4278173,105.327308 41.8646619,104.858237 42.435791,104.528809 C43.0069202,104.19938 43.6791954,104.034668 44.4526367,104.034668 C45.2762085,104.034668 45.9959279,104.185057 46.6118164,104.48584 L46.2250977,105.27002 C45.6306936,104.990721 45.0362985,104.851074 44.4418945,104.851074 Z M53.2408203,109.05127 C53.2408203,110.01091 52.9991235,110.76017 52.5157227,111.299072 C52.0323218,111.837975 51.3645225,112.107422 50.5123047,112.107422 C49.9859349,112.107422 49.5186544,111.983888 49.1104492,111.736816 C48.7022441,111.489745 48.387143,111.135256 48.1651367,110.67334 C47.9431304,110.211423 47.8321289,109.670739 47.8321289,109.05127 C47.8321289,108.091629 48.0720354,107.34416 48.5518555,106.808838 C49.0316756,106.273516 49.6976845,106.005859 50.5499023,106.005859 C51.3734742,106.005859 52.0278459,106.279782 52.5130371,106.827637 C52.9982283,107.375491 53.2408203,108.116695 53.2408203,109.05127 Z M48.755957,109.05127 C48.755957,109.803226 48.9063462,110.376137 49.2071289,110.77002 C49.5079117,111.163902 49.9501273,111.36084 50.5337891,111.36084 C51.1174508,111.36084 51.5605616,111.164797 51.8631348,110.772705 C52.1657079,110.380613 52.3169922,109.806807 52.3169922,109.05127 C52.3169922,108.302893 52.1657079,107.734458 51.8631348,107.345947 C51.5605616,106.957436 51.1138701,106.763184 50.5230469,106.763184 C49.9393851,106.763184 49.4989598,106.954751 49.2017578,107.337891 C48.9045558,107.721031 48.755957,108.292151 48.755957,109.05127 Z M57.8180664,112.107422 C57.4349265,112.107422 57.0849137,112.036703 56.7680176,111.895264 C56.4511215,111.753824 56.185255,111.536297 55.9704102,111.242676 L55.905957,111.242676 C55.948926,111.586427 55.9704102,111.912271 55.9704102,112.220215 L55.9704102,114.642578 L55.0788086,114.642578 L55.0788086,106.113281 L55.8039062,106.113281 L55.9274414,106.918945 L55.9704102,106.918945 C56.199578,106.596678 56.4663396,106.363933 56.7707031,106.220703 C57.0750666,106.077473 57.4241842,106.005859 57.8180664,106.005859 C58.5986693,106.005859 59.2011209,106.272621 59.6254395,106.806152 C60.049758,107.339684 60.2619141,108.088049 60.2619141,109.05127 C60.2619141,110.018071 60.0461773,110.769122 59.6146973,111.304443 C59.1832172,111.839765 58.5843463,112.107422 57.8180664,112.107422 Z M57.6891602,106.763184 C57.0875946,106.763184 56.6525404,106.929686 56.3839844,107.262695 C56.1154283,107.595705 55.9775717,108.125647 55.9704102,108.852539 L55.9704102,109.05127 C55.9704102,109.878422 56.1082669,110.470132 56.3839844,110.826416 C56.6597019,111.1827 57.1019175,111.36084 57.7106445,111.36084 C58.2191106,111.36084 58.6174628,111.15495 58.9057129,110.743164 C59.193963,110.331378 59.3380859,109.763838 59.3380859,109.040527 C59.3380859,108.306474 59.193963,107.74341 58.9057129,107.351318 C58.6174628,106.959227 58.2119492,106.763184 57.6891602,106.763184 Z M60.9397461,106.113281 L61.8958008,106.113281 L63.1848633,109.470215 C63.4677423,110.236495 63.6431963,110.789712 63.7112305,111.129883 L63.7541992,111.129883 L63.8065948,110.941566 C63.8282252,110.868197 63.854021,110.784233 63.8839821,110.689673 L64.1916843,109.774134 C64.4228131,109.115837 64.8606413,107.895559 65.5051758,106.113281 L66.4612305,106.113281 L63.9314453,112.816406 C63.680793,113.478844 63.3880713,113.94881 63.0532715,114.226318 C62.7184716,114.503826 62.3075871,114.642578 61.8206055,114.642578 C61.5484687,114.642578 61.2799167,114.612142 61.0149414,114.55127 L61.0149414,113.836914 C61.2118825,113.879883 61.4320951,113.901367 61.6755859,113.901367 C62.2878937,113.901367 62.7247383,113.557621 62.9861328,112.870117 L63.3137695,112.032227 L60.9397461,106.113281 Z M72.7260742,111.371582 C72.8836271,111.371582 73.0358066,111.359945 73.1826172,111.33667 C73.3294278,111.313395 73.4458004,111.289225 73.5317383,111.26416 L73.5317383,111.946289 C73.4350581,111.992839 73.2927255,112.031331 73.1047363,112.061768 C72.9167471,112.092204 72.7475593,112.107422 72.597168,112.107422 C71.4584904,112.107422 70.8891602,111.507656 70.8891602,110.308105 L70.8891602,106.806152 L70.0458984,106.806152 L70.0458984,106.376465 L70.8891602,106.005859 L71.2651367,104.749023 L71.7807617,104.749023 L71.7807617,106.113281 L73.4887695,106.113281 L73.4887695,106.806152 L71.7807617,106.806152 L71.7807617,110.270508 C71.7807617,110.625002 71.864908,110.897134 72.0332031,111.086914 C72.2014982,111.276694 72.432453,111.371582 72.7260742,111.371582 Z M80.0640625,109.05127 C80.0640625,110.01091 79.8223657,110.76017 79.3389648,111.299072 C78.855564,111.837975 78.1877647,112.107422 77.3355469,112.107422 C76.8091771,112.107422 76.3418966,111.983888 75.9336914,111.736816 C75.5254862,111.489745 75.2103852,111.135256 74.9883789,110.67334 C74.7663726,110.211423 74.6553711,109.670739 74.6553711,109.05127 C74.6553711,108.091629 74.8952775,107.34416 75.3750977,106.808838 C75.8549178,106.273516 76.5209267,106.005859 77.3731445,106.005859 C78.1967164,106.005859 78.8510881,106.279782 79.3362793,106.827637 C79.8214705,107.375491 80.0640625,108.116695 80.0640625,109.05127 Z M75.5791992,109.05127 C75.5791992,109.803226 75.7295883,110.376137 76.0303711,110.77002 C76.3311538,111.163902 76.7733695,111.36084 77.3570313,111.36084 C77.940693,111.36084 78.3838038,111.164797 78.686377,110.772705 C78.9889501,110.380613 79.1402344,109.806807 79.1402344,109.05127 C79.1402344,108.302893 78.9889501,107.734458 78.686377,107.345947 C78.3838038,106.957436 77.9371123,106.763184 77.3462891,106.763184 C76.7626273,106.763184 76.322202,106.954751 76.025,107.337891 C75.727798,107.721031 75.5791992,108.292151 75.5791992,109.05127 Z M88.5310547,104.851074 C87.6680946,104.851074 86.9868677,105.138425 86.4873535,105.713135 C85.9878393,106.287845 85.7380859,107.074702 85.7380859,108.07373 C85.7380859,109.101405 85.9788876,109.895424 86.460498,110.455811 C86.9421085,111.016197 87.6287065,111.296387 88.5203125,111.296387 C89.0681668,111.296387 89.6929978,111.197918 90.3948242,111.000977 L90.3948242,111.80127 C89.8505507,112.005372 89.1791707,112.107422 88.3806641,112.107422 C87.2240828,112.107422 86.3315949,111.756514 85.7031738,111.054688 C85.0747527,110.352861 84.7605469,109.355638 84.7605469,108.062988 C84.7605469,107.253739 84.9118312,106.544762 85.2144043,105.936035 C85.5169774,105.327308 85.953822,104.858237 86.5249512,104.528809 C87.0960803,104.19938 87.7683555,104.034668 88.5417969,104.034668 C89.3653687,104.034668 90.0850881,104.185057 90.7009766,104.48584 L90.3142578,105.27002 C89.7198538,104.990721 89.1254587,104.851074 88.5310547,104.851074 Z M93.1405273,112 L92.2489258,112 L92.2489258,103.642578 L93.1405273,103.642578 L93.1405273,112 Z M96.1977539,112 L95.3061523,112 L95.3061523,106.113281 L96.1977539,106.113281 L96.1977539,112 Z M95.230957,104.518066 C95.230957,104.313964 95.2810867,104.16447 95.3813477,104.06958 C95.4816086,103.97469 95.6069328,103.927246 95.7573242,103.927246 C95.9005541,103.927246 96.024088,103.975585 96.1279297,104.072266 C96.2317714,104.168946 96.2836914,104.317545 96.2836914,104.518066 C96.2836914,104.718588 96.2317714,104.868082 96.1279297,104.966553 C96.024088,105.065023 95.9005541,105.114258 95.7573242,105.114258 C95.6069328,105.114258 95.4816086,105.065023 95.3813477,104.966553 C95.2810867,104.868082 95.230957,104.718588 95.230957,104.518066 Z M101.102637,112.107422 C100.719497,112.107422 100.369484,112.036703 100.052588,111.895264 C99.7356918,111.753824 99.4698253,111.536297 99.2549805,111.242676 L99.1905273,111.242676 C99.2334963,111.586427 99.2549805,111.912271 99.2549805,112.220215 L99.2549805,114.642578 L98.3633789,114.642578 L98.3633789,106.113281 L99.0884766,106.113281 L99.2120117,106.918945 L99.2549805,106.918945 C99.4841483,106.596678 99.7509099,106.363933 100.055273,106.220703 C100.359637,106.077473 100.708755,106.005859 101.102637,106.005859 C101.88324,106.005859 102.485691,106.272621 102.91001,106.806152 C103.334328,107.339684 103.546484,108.088049 103.546484,109.05127 C103.546484,110.018071 103.330748,110.769122 102.899268,111.304443 C102.467788,111.839765 101.868917,112.107422 101.102637,112.107422 Z M100.97373,106.763184 C100.372165,106.763184 99.9371107,106.929686 99.6685547,107.262695 C99.3999987,107.595705 99.262142,108.125647 99.2549805,108.852539 L99.2549805,109.05127 C99.2549805,109.878422 99.3928372,110.470132 99.6685547,110.826416 C99.9442722,111.1827 100.386488,111.36084 100.995215,111.36084 C101.503681,111.36084 101.902033,111.15495 102.190283,110.743164 C102.478533,110.331378 102.622656,109.763838 102.622656,109.040527 C102.622656,108.306474 102.478533,107.74341 102.190283,107.351318 C101.902033,106.959227 101.49652,106.763184 100.97373,106.763184 Z M108.118359,106.016602 C108.891801,106.016602 109.492462,106.280678 109.920361,106.808838 C110.348261,107.336998 110.562207,108.084468 110.562207,109.05127 C110.562207,110.018071 110.34647,110.769122 109.91499,111.304443 C109.48351,111.839765 108.884639,112.107422 108.118359,112.107422 C107.735219,112.107422 107.385207,112.036703 107.068311,111.895264 C106.751414,111.753824 106.485548,111.536297 106.270703,111.242676 L106.20625,111.242676 L106.018262,112 L105.379102,112 L105.379102,103.642578 L106.270703,103.642578 L106.270703,105.672852 C106.270703,106.127606 106.25638,106.535805 106.227734,106.897461 L106.270703,106.897461 C106.68607,106.310218 107.301949,106.016602 108.118359,106.016602 Z M107.989453,106.763184 C107.380726,106.763184 106.942091,106.937742 106.673535,107.286865 C106.404979,107.635988 106.270703,108.224117 106.270703,109.05127 C106.270703,109.878422 106.40856,110.470132 106.684277,110.826416 C106.959995,111.1827 107.40221,111.36084 108.010937,111.36084 C108.558792,111.36084 108.966991,111.161216 109.235547,110.761963 C109.504103,110.36271 109.638379,109.788903 109.638379,109.040527 C109.638379,108.274247 109.504103,107.703127 109.235547,107.327148 C108.966991,106.95117 108.55163,106.763184 107.989453,106.763184 Z M117.475879,109.05127 C117.475879,110.01091 117.234182,110.76017 116.750781,111.299072 C116.26738,111.837975 115.599581,112.107422 114.747363,112.107422 C114.220993,112.107422 113.753713,111.983888 113.345508,111.736816 C112.937303,111.489745 112.622202,111.135256 112.400195,110.67334 C112.178189,110.211423 112.067188,109.670739 112.067188,109.05127 C112.067188,108.091629 112.307094,107.34416 112.786914,106.808838 C113.266734,106.273516 113.932743,106.005859 114.784961,106.005859 C115.608533,106.005859 116.262904,106.279782 116.748096,106.827637 C117.233287,107.375491 117.475879,108.116695 117.475879,109.05127 Z M112.991016,109.05127 C112.991016,109.803226 113.141405,110.376137 113.442188,110.77002 C113.74297,111.163902 114.185186,111.36084 114.768848,111.36084 C115.352509,111.36084 115.79562,111.164797 116.098193,110.772705 C116.400766,110.380613 116.552051,109.806807 116.552051,109.05127 C116.552051,108.302893 116.400766,107.734458 116.098193,107.345947 C115.79562,106.957436 115.348929,106.763184 114.758105,106.763184 C114.174444,106.763184 113.734018,106.954751 113.436816,107.337891 C113.139614,107.721031 112.991016,108.292151 112.991016,109.05127 Z M122.933984,112 L122.756738,111.162109 L122.71377,111.162109 C122.420148,111.530926 122.127427,111.78068 121.835596,111.911377 C121.543765,112.042074 121.179429,112.107422 120.742578,112.107422 C120.158916,112.107422 119.701483,111.957033 119.370264,111.65625 C119.039045,111.355467 118.873438,110.927574 118.873438,110.372559 C118.873438,109.183751 119.824112,108.56071 121.725488,108.503418 L122.724512,108.471191 L122.724512,108.105957 C122.724512,107.644041 122.625147,107.30298 122.426416,107.082764 C122.227685,106.862548 121.909898,106.752441 121.473047,106.752441 C120.982485,106.752441 120.427477,106.902831 119.808008,107.203613 L119.534082,106.521484 C119.824123,106.363932 120.141909,106.240398 120.487451,106.150879 C120.832993,106.06136 121.179425,106.016602 121.526758,106.016602 C122.228584,106.016602 122.74868,106.172362 123.087061,106.483887 C123.425441,106.795412 123.594629,107.294918 123.594629,107.982422 L123.594629,112 L122.933984,112 Z M120.919824,111.371582 C121.47484,111.371582 121.910789,111.219403 122.227686,110.915039 C122.544582,110.610676 122.703027,110.184573 122.703027,109.636719 L122.703027,109.10498 L121.811426,109.142578 C121.102438,109.167643 120.591294,109.27775 120.277979,109.4729 C119.964663,109.668051 119.808008,109.971515 119.808008,110.383301 C119.808008,110.705568 119.905582,110.950846 120.100732,111.119141 C120.295883,111.287436 120.568911,111.371582 120.919824,111.371582 Z M128.39209,106.005859 C128.653484,106.005859 128.88802,106.027344 129.095703,106.070312 L128.972168,106.897461 C128.728677,106.84375 128.513836,106.816895 128.327637,106.816895 C127.851397,106.816895 127.444093,107.010252 127.105713,107.396973 C126.767332,107.783693 126.598145,108.265297 126.598145,108.841797 L126.598145,112 L125.706543,112 L125.706543,106.113281 L126.442383,106.113281 L126.544434,107.203613 L126.587402,107.203613 C126.805828,106.820473 127.069009,106.525066 127.376953,106.317383 C127.684897,106.109699 128.023273,106.005859 128.39209,106.005859 Z M134.258398,111.210449 L134.210059,111.210449 C133.798273,111.808434 133.182393,112.107422 132.362402,112.107422 C131.592542,112.107422 130.993671,111.844241 130.565771,111.317871 C130.137872,110.791501 129.923926,110.043136 129.923926,109.072754 C129.923926,108.102371 130.138767,107.348635 130.568457,106.811523 C130.998147,106.274411 131.596122,106.005859 132.362402,106.005859 C133.160909,106.005859 133.773208,106.295896 134.199316,106.875977 L134.269141,106.875977 L134.231543,106.45166 L134.210059,106.038086 L134.210059,103.642578 L135.10166,103.642578 L135.10166,112 L134.376563,112 L134.258398,111.210449 Z" id="CopytoClipboard" fill="#000000" fill-rule="nonzero"></path>
                    <path d="M132.475195,111.36084 C131.941664,111.36084 131.537046,111.169273 131.261328,110.786133 C130.985611,110.402993 130.847754,109.835453 130.847754,109.083496 C130.847754,108.342281 130.986506,107.768475 131.264014,107.362061 C131.541522,106.955646 131.941664,106.752441 132.464453,106.752441 C133.07318,106.752441 133.516291,106.930581 133.793799,107.286865 C134.071307,107.64315 134.210059,108.23844 134.210059,109.072754 L134.210059,109.260742 C134.210059,109.998376 134.073097,110.532795 133.79917,110.864014 C133.525243,111.195233 133.083922,111.36084 132.475195,111.36084 Z" id="Path" fill="#FFFFFF"></path>
                    <g id="copy-light" transform="translate(18.000000, 99.000000)" fill="#000000" fill-rule="nonzero">
                        <path d="M13.5606562,2.06065625 L11.9393437,0.43934375 C11.6580408,0.158038705 11.2765114,-1.0658141e-14 10.8786875,-1.0658141e-14 L5.5,-1.0658141e-14 C4.6715625,-1.0658141e-14 4,0.6715625 4,1.5 L4,3 L1.5,3 C0.6715625,3 0,3.6715625 0,4.5 L0,14.5 C0,15.3284375 0.6715625,16 1.5,16 L8.5,16 C9.3284375,16 10,15.3284375 10,14.5 L10,13 L12.5,13 C13.3284375,13 14,12.3284375 14,11.5 L14,3.1213125 C14,2.72348856 13.8419613,2.34195921 13.5606562,2.06065625 Z M11,1.01534375 C11.0879172,1.03703602 11.168223,1.08237085 11.2322187,1.1464375 L12.8535312,2.76778125 C12.9175915,2.83178181 12.9629253,2.91208578 12.984625,3 L11,3 L11,1.01534375 Z M9,14.5 C9,14.7756875 8.7756875,15 8.5,15 L1.5,15 C1.2243125,15 1,14.7756875 1,14.5 L1,4.5 C1,4.2243125 1.2243125,4 1.5,4 L4,4 L4,11.5 C4,12.3284375 4.6715625,13 5.5,13 L9,13 L9,14.5 Z M13,11.5 C13,11.7756875 12.7756875,12 12.5,12 L5.5,12 C5.2243125,12 5,11.7756875 5,11.5 L5,1.5 C5,1.2243125 5.2243125,1 5.5,1 L10,1 L10,3.25 C10,3.6625 10.3375,4 10.75,4 L13,4 L13,11.5 Z" id="Shape"></path>
                    </g>
                    <g id="file-csv-light-copy" transform="translate(18.000000, 36.000000)" fill="#4CAF50" fill-rule="nonzero">
                        <g id="file-excel-light">
                            <path d="M11.5368421,3.08460039 L8.92007797,0.467836257 C8.63937622,0.187134503 8.2588694,0.0280701754 7.86276803,0.0280701754 L1.49707602,0.0280701754 C0.670565302,0.0311890838 0,0.701754386 0,1.52826511 L0,14.502924 C0,15.3294347 0.670565302,16 1.49707602,16 L10.4795322,16 C11.3060429,16 11.9766082,15.3294347 11.9766082,14.502924 L11.9766082,4.14502924 C11.9766082,3.74892788 11.8175439,3.36530214 11.5368421,3.08460039 Z M10.8319688,3.79259259 C10.8974659,3.85808967 10.9411306,3.93606238 10.962963,4.02339181 L7.98440546,4.02339181 L7.98440546,1.04483431 C8.07173489,1.06666667 8.1497076,1.11033138 8.21520468,1.17582846 L10.8319688,3.79259259 Z M10.4795322,15.0019493 L1.49707602,15.0019493 C1.22261209,15.0019493 0.998050682,14.7773879 0.998050682,14.502924 L0.998050682,1.52826511 C0.998050682,1.25380117 1.22261209,1.02923977 1.49707602,1.02923977 L6.98635478,1.02923977 L6.98635478,4.27290448 C6.98635478,4.6877193 7.32007797,5.0214425 7.73489279,5.0214425 L10.9785575,5.0214425 L10.9785575,14.502924 C10.9785575,14.7773879 10.7539961,15.0019493 10.4795322,15.0019493 Z M6.60272904,9.6374269 L8.17777778,7.08615984 C8.32748538,6.83664717 8.1497076,6.51851852 7.85653021,6.51851852 L7.72865497,6.51851852 C7.60077973,6.51851852 7.48226121,6.58401559 7.41364522,6.69005848 C6.44678363,8.20272904 6.27836257,8.35867446 5.98830409,9.01364522 C5.45185185,8.00935673 5.72631579,8.51461988 4.55984405,6.69005848 C4.49122807,6.58401559 4.37270955,6.51851852 4.24483431,6.51851852 L4.11695906,6.51851852 C3.82378168,6.51851852 3.6460039,6.83976608 3.79883041,7.08615984 L5.3957115,9.6374269 L3.55243665,12.4288499 C3.39337232,12.6783626 3.5711501,13.005848 3.86744639,13.005848 L3.97660819,13.005848 C4.10448343,13.005848 4.22300195,12.9403509 4.29161793,12.834308 C5.45185185,11.0253411 5.70448343,10.8849903 5.98830409,10.2612086 C6.97076023,12.0296296 7.36998051,12.357115 7.68499025,12.8374269 C7.75360624,12.9434698 7.87212476,13.005848 7.99688109,13.005848 L8.10916179,13.005848 C8.40545809,13.005848 8.58323587,12.6814815 8.42417154,12.4319688 L6.60272904,9.6374269 Z" id="Shape"></path>
                        </g>
                    </g>
                </g>
            </g>
        </g>
    </g>
</svg>