<?xml version="1.0" encoding="UTF-8"?>
<svg width="432px" height="369px" viewBox="0 0 432 369" version="1.1" xmlns="http://www.w3.org/2000/svg" xmlns:xlink="http://www.w3.org/1999/xlink">
    <!-- Generator: Sketch 59 (86127) - https://sketch.com -->
    <title>Browser</title>
    <desc>Created with Sketch.</desc>
    <g id="Page-1" stroke="none" stroke-width="1" fill="none" fill-rule="evenodd">
        <g id="Homepage" transform="translate(-800.000000, -2512.000000)">
            <g id="Cerebro" transform="translate(239.000000, 2512.000000)">
                <g id="Browser" transform="translate(561.000000, 0.000000)">
                    <path d="M6,0.5 C2.96243388,0.5 0.5,2.96243388 0.5,6 L0.5,365 C0.5,366.932997 2.06700338,368.5 4,368.5 L428,368.5 C429.932997,368.5 431.5,366.932997 431.5,365 L431.5,6 C431.5,2.96243388 429.037566,0.5 426,0.5 L6,0.5 Z" id="Rectangle" stroke="#DBE2E8" fill="#FFFFFF"></path>
                    <rect id="Rectangle" stroke="#DBE2E8" fill="#FFFFFF" x="24.5" y="40.5" width="383" height="31" rx="2"></rect>
                    <path d="M61.953125,60 L57.1777344,60 L57.1777344,51.4335938 L61.953125,51.4335938 L61.953125,52.3183594 L58.1738281,52.3183594 L58.1738281,55.078125 L61.7246094,55.078125 L61.7246094,55.9570312 L58.1738281,55.9570312 L58.1738281,59.109375 L61.953125,59.109375 L61.953125,60 Z M68.0996094,60 L68.0996094,55.8457031 C68.0996094,55.322263 67.9804699,54.9316419 67.7421875,54.6738281 C67.5039051,54.4160143 67.1308619,54.2871094 66.6230469,54.2871094 C65.9511685,54.2871094 65.4589859,54.4687482 65.1464844,54.8320312 C64.8339828,55.1953143 64.6777344,55.7949177 64.6777344,56.6308594 L64.6777344,60 L63.7050781,60 L63.7050781,53.578125 L64.4960938,53.578125 L64.6542969,54.4570312 L64.7011719,54.4570312 C64.9003916,54.1406234 65.1796857,53.8955087 65.5390625,53.7216797 C65.8984393,53.5478507 66.2988259,53.4609375 66.7402344,53.4609375 C67.5136757,53.4609375 68.0957012,53.6474591 68.4863281,54.0205078 C68.8769551,54.3935566 69.0722656,54.9902303 69.0722656,55.8105469 L69.0722656,60 L68.0996094,60 Z M73.1445312,59.3144531 C73.3164071,59.3144531 73.4824211,59.3017579 73.6425781,59.2763672 C73.8027352,59.2509764 73.929687,59.2246095 74.0234375,59.1972656 L74.0234375,59.9414062 C73.9179682,59.9921878 73.7626963,60.0341795 73.5576172,60.0673828 C73.352538,60.1005861 73.1679696,60.1171875 73.0039062,60.1171875 C71.7617125,60.1171875 71.140625,59.4628972 71.140625,58.1542969 L71.140625,54.3339844 L70.2207031,54.3339844 L70.2207031,53.8652344 L71.140625,53.4609375 L71.5507812,52.0898438 L72.1132812,52.0898438 L72.1132812,53.578125 L73.9765625,53.578125 L73.9765625,54.3339844 L72.1132812,54.3339844 L72.1132812,58.1132812 C72.1132812,58.5000019 72.2050772,58.796874 72.3886719,59.0039062 C72.5722665,59.2109385 72.8242171,59.3144531 73.1445312,59.3144531 Z M78.0195312,60.1171875 C77.0703078,60.1171875 76.3212918,59.8281279 75.7724609,59.25 C75.2236301,58.6718721 74.9492188,57.8691458 74.9492188,56.8417969 C74.9492188,55.8066354 75.204099,54.984378 75.7138672,54.375 C76.2236354,53.765622 76.9081988,53.4609375 77.7675781,53.4609375 C78.5722696,53.4609375 79.208982,53.7255833 79.6777344,54.2548828 C80.1464867,54.7841823 80.3808594,55.4824175 80.3808594,56.3496094 L80.3808594,56.9648438 L75.9570312,56.9648438 C75.9765626,57.7187538 76.1669904,58.2910137 76.5283203,58.6816406 C76.8896502,59.0722676 77.3984342,59.2675781 78.0546875,59.2675781 C78.7460972,59.2675781 79.4296841,59.1230483 80.1054688,58.8339844 L80.1054688,59.7011719 C79.761717,59.8496101 79.436525,59.9560544 79.1298828,60.0205078 C78.8232407,60.0849613 78.4531272,60.1171875 78.0195312,60.1171875 Z M77.7558594,54.2753906 C77.2402318,54.2753906 76.8291031,54.4433577 76.5224609,54.7792969 C76.2158188,55.1152361 76.0351565,55.5800752 75.9804688,56.1738281 L79.3378906,56.1738281 C79.3378906,55.5605438 79.2011732,55.0908219 78.9277344,54.7646484 C78.6542955,54.4384749 78.2636744,54.2753906 77.7558594,54.2753906 Z M84.96875,53.4609375 C85.2539077,53.4609375 85.5097645,53.4843748 85.7363281,53.53125 L85.6015625,54.4335938 C85.3359362,54.3749997 85.1015635,54.3457031 84.8984375,54.3457031 C84.3789037,54.3457031 83.9345722,54.5566385 83.5654297,54.9785156 C83.1962872,55.4003927 83.0117188,55.9257781 83.0117188,56.5546875 L83.0117188,60 L82.0390625,60 L82.0390625,53.578125 L82.8417969,53.578125 L82.953125,54.7675781 L83,54.7675781 C83.2382824,54.3496073 83.5253889,54.0273449 83.8613281,53.8007812 C84.1972673,53.5742176 84.5664042,53.4609375 84.96875,53.4609375 Z M93.0429688,60.1171875 C92.6249979,60.1171875 92.2431658,60.0400398 91.8974609,59.8857422 C91.5517561,59.7314445 91.2617199,59.4941422 91.0273438,59.1738281 L90.9570312,59.1738281 C91.0039065,59.54883 91.0273438,59.9042952 91.0273438,60.2402344 L91.0273438,62.8828125 L90.0546875,62.8828125 L90.0546875,53.578125 L90.8457031,53.578125 L90.9804688,54.4570312 L91.0273438,54.4570312 C91.277345,54.105467 91.5683577,53.8515633 91.9003906,53.6953125 C92.2324235,53.5390617 92.6132791,53.4609375 93.0429688,53.4609375 C93.8945355,53.4609375 94.5517555,53.7519502 95.0146484,54.3339844 C95.4775414,54.9160185 95.7089844,55.7324166 95.7089844,56.7832031 C95.7089844,57.8378959 95.4736352,58.6572236 95.0029297,59.2412109 C94.5322242,59.8251982 93.8789104,60.1171875 93.0429688,60.1171875 Z M92.9023438,54.2871094 C92.2460905,54.2871094 91.7714858,54.4687482 91.4785156,54.8320312 C91.1855454,55.1953143 91.0351563,55.7734335 91.0273438,56.5664062 L91.0273438,56.7832031 C91.0273438,57.6855514 91.1777329,58.3310527 91.4785156,58.7197266 C91.7792984,59.1084004 92.2617154,59.3027344 92.9257812,59.3027344 C93.4804715,59.3027344 93.9150375,59.0781272 94.2294922,58.6289062 C94.5439469,58.1796853 94.7011719,57.5605508 94.7011719,56.7714844 C94.7011719,55.9706991 94.5439469,55.3564475 94.2294922,54.9287109 C93.9150375,54.5009744 93.4726591,54.2871094 92.9023438,54.2871094 Z M100.337891,53.4609375 C100.623048,53.4609375 100.878905,53.4843748 101.105469,53.53125 L100.970703,54.4335938 C100.705077,54.3749997 100.470704,54.3457031 100.267578,54.3457031 C99.7480443,54.3457031 99.3037128,54.5566385 98.9345703,54.9785156 C98.5654278,55.4003927 98.3808594,55.9257781 98.3808594,56.5546875 L98.3808594,60 L97.4082031,60 L97.4082031,53.578125 L98.2109375,53.578125 L98.3222656,54.7675781 L98.3691406,54.7675781 C98.6074231,54.3496073 98.8945296,54.0273449 99.2304688,53.8007812 C99.5664079,53.5742176 99.9355449,53.4609375 100.337891,53.4609375 Z M107.609375,56.7832031 C107.609375,57.8300834 107.345706,58.647458 106.818359,59.2353516 C106.291013,59.8232451 105.562505,60.1171875 104.632812,60.1171875 C104.058591,60.1171875 103.54883,59.9824232 103.103516,59.7128906 C102.658201,59.443358 102.314454,59.0566431 102.072266,58.5527344 C101.830077,58.0488256 101.708984,57.4589878 101.708984,56.7832031 C101.708984,55.7363229 101.970701,54.9209014 102.494141,54.3369141 C103.017581,53.7529268 103.744136,53.4609375 104.673828,53.4609375 C105.57227,53.4609375 106.28613,53.7597626 106.81543,54.3574219 C107.344729,54.9550811 107.609375,55.7636668 107.609375,56.7832031 Z M102.716797,56.7832031 C102.716797,57.6035197 102.880858,58.2285135 103.208984,58.6582031 C103.537111,59.0878928 104.019528,59.3027344 104.65625,59.3027344 C105.292972,59.3027344 105.776366,59.0888693 106.106445,58.6611328 C106.436525,58.2333963 106.601562,57.607426 106.601562,56.7832031 C106.601562,55.9667928 106.436525,55.3466818 106.106445,54.9228516 C105.776366,54.4990213 105.289066,54.2871094 104.644531,54.2871094 C104.007809,54.2871094 103.527345,54.4960917 103.203125,54.9140625 C102.878905,55.3320333 102.716797,55.955074 102.716797,56.7832031 Z M113.685547,59.1386719 L113.632812,59.1386719 C113.183592,59.7910189 112.511723,60.1171875 111.617188,60.1171875 C110.77734,60.1171875 110.124026,59.830081 109.657227,59.2558594 C109.190427,58.6816378 108.957031,57.8652397 108.957031,56.8066406 C108.957031,55.7480416 109.191404,54.9257842 109.660156,54.3398438 C110.128909,53.7539033 110.781246,53.4609375 111.617188,53.4609375 C112.488286,53.4609375 113.156248,53.7773406 113.621094,54.4101562 L113.697266,54.4101562 L113.65625,53.9472656 L113.632812,53.4960938 L113.632812,50.8828125 L114.605469,50.8828125 L114.605469,60 L113.814453,60 L113.685547,59.1386719 Z M111.740234,59.3027344 C112.4043,59.3027344 112.885741,59.1220721 113.18457,58.7607422 C113.4834,58.3994123 113.632812,57.8164103 113.632812,57.0117188 L113.632812,56.8066406 C113.632812,55.8964798 113.481447,55.2470723 113.178711,54.8583984 C112.875975,54.4697246 112.392581,54.2753906 111.728516,54.2753906 C111.1582,54.2753906 110.721681,54.4970681 110.418945,54.9404297 C110.116209,55.3837913 109.964844,56.0097616 109.964844,56.8183594 C109.964844,57.638676 110.115233,58.2578104 110.416016,58.6757812 C110.716798,59.0937521 111.1582,59.3027344 111.740234,59.3027344 Z M117.582031,53.578125 L117.582031,57.7441406 C117.582031,58.2675807 117.701171,58.6582018 117.939453,58.9160156 C118.177736,59.1738294 118.550779,59.3027344 119.058594,59.3027344 C119.730472,59.3027344 120.221678,59.1191425 120.532227,58.7519531 C120.842775,58.3847638 120.998047,57.7851604 120.998047,56.953125 L120.998047,53.578125 L121.970703,53.578125 L121.970703,60 L121.167969,60 L121.027344,59.1386719 L120.974609,59.1386719 C120.77539,59.4550797 120.499025,59.6972648 120.145508,59.8652344 C119.79199,60.033204 119.388674,60.1171875 118.935547,60.1171875 C118.154293,60.1171875 117.569338,59.9316425 117.180664,59.5605469 C116.79199,59.1894513 116.597656,58.5957072 116.597656,57.7792969 L116.597656,53.578125 L117.582031,53.578125 Z M126.599609,60.1171875 C125.669917,60.1171875 124.950198,59.8310575 124.44043,59.2587891 C123.930662,58.6865206 123.675781,57.8769584 123.675781,56.8300781 C123.675781,55.755854 123.934568,54.9257842 124.452148,54.3398438 C124.969729,53.7539033 125.707026,53.4609375 126.664062,53.4609375 C126.972658,53.4609375 127.281248,53.4941403 127.589844,53.5605469 C127.898439,53.6269535 128.140624,53.7050777 128.316406,53.7949219 L128.017578,54.6210938 C127.802733,54.5351558 127.568361,54.4638675 127.314453,54.4072266 C127.060546,54.3505857 126.835938,54.3222656 126.640625,54.3222656 C125.335931,54.3222656 124.683594,55.1542886 124.683594,56.8183594 C124.683594,57.6074258 124.842772,58.2128885 125.161133,58.6347656 C125.479494,59.0566427 125.951169,59.2675781 126.576172,59.2675781 C127.111331,59.2675781 127.660153,59.1523449 128.222656,58.921875 L128.222656,59.7832031 C127.792967,60.0058605 127.251956,60.1171875 126.599609,60.1171875 Z M131.820312,59.3144531 C131.992188,59.3144531 132.158202,59.3017579 132.318359,59.2763672 C132.478516,59.2509764 132.605468,59.2246095 132.699219,59.1972656 L132.699219,59.9414062 C132.593749,59.9921878 132.438478,60.0341795 132.233398,60.0673828 C132.028319,60.1005861 131.843751,60.1171875 131.679688,60.1171875 C130.437494,60.1171875 129.816406,59.4628972 129.816406,58.1542969 L129.816406,54.3339844 L128.896484,54.3339844 L128.896484,53.8652344 L129.816406,53.4609375 L130.226562,52.0898438 L130.789062,52.0898438 L130.789062,53.578125 L132.652344,53.578125 L132.652344,54.3339844 L130.789062,54.3339844 L130.789062,58.1132812 C130.789062,58.5000019 130.880858,58.796874 131.064453,59.0039062 C131.248048,59.2109385 131.499998,59.3144531 131.820312,59.3144531 Z M142.630859,60 L141.564453,57.2753906 L138.130859,57.2753906 L137.076172,60 L136.068359,60 L139.455078,51.3984375 L140.292969,51.3984375 L143.662109,60 L142.630859,60 Z M138.482422,56.3789062 L141.253906,56.3789062 L140.257812,53.7246094 C140.128906,53.3886702 139.996094,52.9765649 139.859375,52.4882812 C139.773437,52.8632831 139.650391,53.2753884 139.490234,53.7246094 L138.482422,56.3789062 Z M149.673828,57.7207031 C149.673828,58.4746131 149.400393,59.0624979 148.853516,59.484375 C148.306638,59.9062521 147.564458,60.1171875 146.626953,60.1171875 C145.611323,60.1171875 144.830081,59.9863294 144.283203,59.7246094 L144.283203,58.7636719 C144.634767,58.9121101 145.017576,59.0292964 145.431641,59.1152344 C145.845705,59.2011723 146.255857,59.2441406 146.662109,59.2441406 C147.326175,59.2441406 147.82617,59.1181653 148.162109,58.8662109 C148.498049,58.6142566 148.666016,58.2636741 148.666016,57.8144531 C148.666016,57.5175766 148.606446,57.274415 148.487305,57.0849609 C148.368163,56.8955069 148.168947,56.7207039 147.889648,56.5605469 C147.69015,56.446149 147.416415,56.320791 147.06844,56.184471 L146.615234,56.015625 C145.818355,55.7304673 145.249025,55.3925801 144.907227,55.0019531 C144.565428,54.6113262 144.394531,54.1015656 144.394531,53.4726562 C144.394531,52.8124967 144.642576,52.2871113 145.138672,51.8964844 C145.634768,51.5058574 146.291012,51.3105469 147.107422,51.3105469 C147.958989,51.3105469 148.742184,51.4667953 149.457031,51.7792969 L149.146484,52.6464844 C148.43945,52.3496079 147.751956,52.2011719 147.083984,52.2011719 C146.556638,52.2011719 146.144533,52.314452 145.847656,52.5410156 C145.55078,52.7675793 145.402344,53.0820292 145.402344,53.484375 C145.402344,53.7812515 145.457031,54.0244131 145.566406,54.2138672 C145.675782,54.4033213 145.86035,54.5771476 146.120117,54.7353516 C146.342775,54.8709549 146.666592,55.0187535 147.091577,55.1787505 L147.3125,55.2597656 C148.210942,55.5800797 148.8291,55.9238263 149.166992,56.2910156 C149.504885,56.658205 149.673828,57.1347627 149.673828,57.7207031 Z M151.425781,60 L151.425781,51.4335938 L152.421875,51.4335938 L152.421875,60 L151.425781,60 Z M161.462891,60 L160.326172,60 L155.644531,52.8105469 L155.597656,52.8105469 C155.660157,53.6543011 155.691406,54.4277309 155.691406,55.1308594 L155.691406,60 L154.771484,60 L154.771484,51.4335938 L155.896484,51.4335938 L160.566406,58.59375 L160.613281,58.59375 L160.560547,57.5771484 L160.560547,57.5771484 L160.532715,56.8410638 C160.527832,56.6364745 160.527344,56.4726569 160.53125,56.3496094 L160.53125,51.4335938 L161.462891,51.4335938 L161.462891,60 Z" id="EnterproductASIN" fill="#9E9E9E" fill-rule="nonzero"></path>
                    <g id="search-regular" transform="translate(32.000000, 48.000000)" fill="#9E9E9E" fill-rule="nonzero">
                        <path d="M15.8596491,14.6245614 L12.0732943,10.8382066 C12.0015595,10.7664717 11.9079922,10.7290448 11.8081871,10.7290448 L11.3964912,10.7290448 C12.3789474,9.59064327 12.9746589,8.10916179 12.9746589,6.48732943 C12.9746589,2.9037037 10.0709552,0 6.48732943,0 C2.9037037,0 0,2.9037037 0,6.48732943 C0,10.0709552 2.9037037,12.9746589 6.48732943,12.9746589 C8.10916179,12.9746589 9.59064327,12.3789474 10.7290448,11.3964912 L10.7290448,11.8081871 C10.7290448,11.9079922 10.7695906,12.0015595 10.8382066,12.0732943 L14.6245614,15.8596491 C14.7711501,16.0062378 15.0081871,16.0062378 15.1547758,15.8596491 L15.8596491,15.1547758 C16.0062378,15.0081871 16.0062378,14.7711501 15.8596491,14.6245614 Z M6.48732943,11.4775828 C3.73021442,11.4775828 1.49707602,9.24444444 1.49707602,6.48732943 C1.49707602,3.73021442 3.73021442,1.49707602 6.48732943,1.49707602 C9.24444444,1.49707602 11.4775828,3.73021442 11.4775828,6.48732943 C11.4775828,9.24444444 9.24444444,11.4775828 6.48732943,11.4775828 Z" id="Shape"></path>
                    </g>
                    <g id="Group-8" transform="translate(50.000000, 104.000000)" fill="#DBE2E8">
                        <rect id="Rectangle-Copy-48" x="0" y="0" width="150" height="6" rx="2"></rect>
                        <rect id="Rectangle-Copy-88" x="0" y="16" width="133" height="6" rx="2"></rect>
                        <rect id="Rectangle-Copy-89" x="0" y="32" width="141" height="6" rx="2"></rect>
                        <rect id="Rectangle-Copy-90" x="0" y="48" width="158" height="6" rx="2"></rect>
                        <rect id="Rectangle-Copy-91" x="0" y="64" width="117" height="6" rx="2"></rect>
                        <rect id="Rectangle-Copy-92" x="0" y="80" width="119" height="6" rx="2"></rect>
                        <rect id="Rectangle-Copy-93" x="0" y="96" width="142" height="6" rx="2"></rect>
                        <rect id="Rectangle-Copy-94" x="0" y="112" width="150" height="6" rx="2"></rect>
                        <rect id="Rectangle-Copy-95" x="0" y="128" width="119" height="6" rx="2"></rect>
                        <rect id="Rectangle-Copy-96" x="0" y="144" width="126" height="6" rx="2"></rect>
                        <rect id="Rectangle-Copy-97" x="0" y="160" width="110" height="6" rx="2"></rect>
                        <rect id="Rectangle-Copy-98" x="0" y="176" width="140" height="6" rx="2"></rect>
                        <rect id="Rectangle-Copy-99" x="0" y="192" width="126" height="6" rx="2"></rect>
                    </g>
                    <g id="Group-8-Copy-2" transform="translate(232.000000, 104.000000)" fill="#DBE2E8">
                        <rect id="Rectangle-Copy-48" x="0" y="0" width="48" height="6" rx="2"></rect>
                        <rect id="Rectangle-Copy-88" x="0" y="16" width="48" height="6" rx="2"></rect>
                        <rect id="Rectangle-Copy-89" x="0" y="32" width="48" height="6" rx="2"></rect>
                        <rect id="Rectangle-Copy-90" x="0" y="48" width="48" height="6" rx="2"></rect>
                        <rect id="Rectangle-Copy-91" x="0" y="64" width="48" height="6" rx="2"></rect>
                        <rect id="Rectangle-Copy-92" x="0" y="80" width="48" height="6" rx="2"></rect>
                        <rect id="Rectangle-Copy-93" x="0" y="96" width="48" height="6" rx="2"></rect>
                        <rect id="Rectangle-Copy-94" x="0" y="112" width="48" height="6" rx="2"></rect>
                        <rect id="Rectangle-Copy-95" x="0" y="128" width="48" height="6" rx="2"></rect>
                        <rect id="Rectangle-Copy-96" x="0" y="144" width="48" height="6" rx="2"></rect>
                        <rect id="Rectangle-Copy-97" x="0" y="160" width="48" height="6" rx="2"></rect>
                        <rect id="Rectangle-Copy-98" x="0" y="176" width="48" height="6" rx="2"></rect>
                        <rect id="Rectangle-Copy-99" x="0" y="192" width="48" height="6" rx="2"></rect>
                    </g>
                    <g id="Group-8-Copy-5" transform="translate(24.000000, 104.000000)" fill="#DBE2E8">
                        <rect id="Rectangle-Copy-48" x="0" y="0" width="16" height="6" rx="2"></rect>
                        <rect id="Rectangle-Copy-88" x="0" y="16" width="16" height="6" rx="2"></rect>
                        <rect id="Rectangle-Copy-89" x="0" y="32" width="16" height="6" rx="2"></rect>
                        <rect id="Rectangle-Copy-90" x="0" y="48" width="16" height="6" rx="2"></rect>
                        <rect id="Rectangle-Copy-91" x="0" y="64" width="16" height="6" rx="2"></rect>
                        <rect id="Rectangle-Copy-92" x="0" y="80" width="16" height="6" rx="2"></rect>
                        <rect id="Rectangle-Copy-93" x="0" y="96" width="16" height="6" rx="2"></rect>
                        <rect id="Rectangle-Copy-94" x="0" y="112" width="16" height="6" rx="2"></rect>
                        <rect id="Rectangle-Copy-95" x="0" y="128" width="16" height="6" rx="2"></rect>
                        <rect id="Rectangle-Copy-96" x="0" y="144" width="16" height="6" rx="2"></rect>
                        <rect id="Rectangle-Copy-97" x="0" y="160" width="16" height="6" rx="2"></rect>
                        <rect id="Rectangle-Copy-98" x="0" y="176" width="16" height="6" rx="2"></rect>
                        <rect id="Rectangle-Copy-99" x="0" y="192" width="16" height="6" rx="2"></rect>
                    </g>
                    <g id="Group-8-Copy-3" transform="translate(296.000000, 104.000000)" fill="#DBE2E8">
                        <rect id="Rectangle-Copy-48" x="0" y="0" width="48" height="6" rx="2"></rect>
                        <rect id="Rectangle-Copy-88" x="0" y="16" width="48" height="6" rx="2"></rect>
                        <rect id="Rectangle-Copy-89" x="0" y="32" width="48" height="6" rx="2"></rect>
                        <rect id="Rectangle-Copy-90" x="0" y="48" width="48" height="6" rx="2"></rect>
                        <rect id="Rectangle-Copy-91" x="0" y="64" width="48" height="6" rx="2"></rect>
                        <rect id="Rectangle-Copy-92" x="0" y="80" width="48" height="6" rx="2"></rect>
                        <rect id="Rectangle-Copy-93" x="0" y="96" width="48" height="6" rx="2"></rect>
                        <rect id="Rectangle-Copy-94" x="0" y="112" width="48" height="6" rx="2"></rect>
                        <rect id="Rectangle-Copy-95" x="0" y="128" width="48" height="6" rx="2"></rect>
                        <rect id="Rectangle-Copy-96" x="0" y="144" width="48" height="6" rx="2"></rect>
                        <rect id="Rectangle-Copy-97" x="0" y="160" width="48" height="6" rx="2"></rect>
                        <rect id="Rectangle-Copy-98" x="0" y="176" width="48" height="6" rx="2"></rect>
                        <rect id="Rectangle-Copy-99" x="0" y="192" width="48" height="6" rx="2"></rect>
                    </g>
                    <g id="Group-8-Copy-4" transform="translate(360.000000, 104.000000)" fill="#DBE2E8">
                        <rect id="Rectangle-Copy-48" x="0" y="0" width="48" height="6" rx="2"></rect>
                        <rect id="Rectangle-Copy-88" x="0" y="16" width="48" height="6" rx="2"></rect>
                        <rect id="Rectangle-Copy-89" x="0" y="32" width="48" height="6" rx="2"></rect>
                        <rect id="Rectangle-Copy-90" x="0" y="48" width="48" height="6" rx="2"></rect>
                        <rect id="Rectangle-Copy-91" x="0" y="64" width="48" height="6" rx="2"></rect>
                        <rect id="Rectangle-Copy-92" x="0" y="80" width="48" height="6" rx="2"></rect>
                        <rect id="Rectangle-Copy-93" x="0" y="96" width="48" height="6" rx="2"></rect>
                        <rect id="Rectangle-Copy-94" x="0" y="112" width="48" height="6" rx="2"></rect>
                        <rect id="Rectangle-Copy-95" x="0" y="128" width="48" height="6" rx="2"></rect>
                        <rect id="Rectangle-Copy-96" x="0" y="144" width="48" height="6" rx="2"></rect>
                        <rect id="Rectangle-Copy-97" x="0" y="160" width="48" height="6" rx="2"></rect>
                        <rect id="Rectangle-Copy-98" x="0" y="176" width="48" height="6" rx="2"></rect>
                        <rect id="Rectangle-Copy-99" x="0" y="192" width="48" height="6" rx="2"></rect>
                    </g>
                    <line x1="1" y1="80" x2="431.5" y2="80" id="Line-7" stroke="#DBE2E8" stroke-linecap="square"></line>
                    <circle id="Oval" fill="#FB544B" cx="10" cy="9" r="4"></circle>
                    <circle id="Oval-Copy" fill="#FAB521" cx="22" cy="9" r="4"></circle>
                    <circle id="Oval-Copy-2" fill="#27CA41" cx="34" cy="9" r="4"></circle>
                </g>
            </g>
        </g>
    </g>
</svg>