<?xml version="1.0" encoding="UTF-8"?>
<svg width="432px" height="96px" viewBox="0 0 432 96" version="1.1" xmlns="http://www.w3.org/2000/svg" xmlns:xlink="http://www.w3.org/1999/xlink">
    <!-- Generator: Sketch 59 (86127) - https://sketch.com -->
    <title>line</title>
    <desc>Created with Sketch.</desc>
    <g id="Page-1" stroke="none" stroke-width="1" fill="none" fill-rule="evenodd">
        <g id="Homepage" transform="translate(-184.000000, -2960.000000)">
            <g id="RG" transform="translate(184.000000, 2960.000000)">
                <g id="line">
                    <path d="M6,0.5 C2.96243388,0.5 0.5,2.96243388 0.5,6 L0.5,92 C0.5,93.9329966 2.06700338,95.5 4,95.5 L428,95.5 C429.932997,95.5 431.5,93.9329966 431.5,92 L431.5,6 C431.5,2.96243388 429.037566,0.5 426,0.5 L6,0.5 Z" id="Rectangle" stroke="#EBF0F2" fill="#FFFFFF"></path>
                    <path d="M16.3549805,28.140625 L16.3549805,32 L15.2758789,32 L15.2758789,22.7197266 L17.8212891,22.7197266 C18.9596411,22.7197266 19.8006972,22.9376606 20.3444824,23.3735352 C20.8882677,23.8094097 21.1601562,24.4653277 21.1601562,25.3413086 C21.1601562,26.5685283 20.5380922,27.3979471 19.2939453,27.8295898 L21.8139648,32 L20.5380859,32 L18.2910156,28.140625 L16.3549805,28.140625 Z M16.3549805,27.2138672 L17.8339844,27.2138672 C18.5957069,27.2138672 19.1542951,27.0625829 19.5097656,26.7600098 C19.8652362,26.4574366 20.0429688,26.0035838 20.0429688,25.3984375 C20.0429688,24.7848277 19.8620624,24.342612 19.5002441,24.0717773 C19.1384259,23.8009427 18.5576212,23.6655273 17.7578125,23.6655273 L16.3549805,23.6655273 L16.3549805,27.2138672 Z M26.0922852,32.1269531 C25.0639597,32.1269531 24.2525258,31.8138052 23.657959,31.1875 C23.0633922,30.5611948 22.7661133,29.6915746 22.7661133,28.5786133 C22.7661133,27.4571884 23.0422336,26.5664096 23.5944824,25.90625 C24.1467313,25.2460904 24.8883417,24.9160156 25.8193359,24.9160156 C26.6910851,24.9160156 27.3808568,25.2027152 27.8886719,25.776123 C28.3964869,26.3495309 28.6503906,27.1059523 28.6503906,28.0454102 L28.6503906,28.7119141 L23.8579102,28.7119141 C23.8790691,29.5286499 24.0853659,30.1485981 24.4768066,30.5717773 C24.8682474,30.9949565 25.41943,31.206543 26.1303711,31.206543 C26.8793983,31.206543 27.6199508,31.049969 28.3520508,30.7368164 L28.3520508,31.6762695 C27.9796531,31.8370776 27.6273617,31.9523922 27.295166,32.0222168 C26.9629703,32.0920414 26.5620141,32.1269531 26.0922852,32.1269531 Z M25.8066406,25.7983398 C25.2480441,25.7983398 24.8026547,25.9803042 24.470459,26.3442383 C24.1382633,26.7081724 23.9425459,27.2117481 23.8833008,27.8549805 L27.5205078,27.8549805 C27.5205078,27.1905891 27.3723973,26.6817238 27.0761719,26.3283691 C26.7799464,25.9750145 26.3567736,25.7983398 25.8066406,25.7983398 Z M33.684082,32.1269531 C33.2312803,32.1269531 32.8176288,32.0433765 32.4431152,31.8762207 C32.0686016,31.7090649 31.7543958,31.4519874 31.5004883,31.1049805 L31.4243164,31.1049805 C31.4750979,31.5112325 31.5004883,31.8963198 31.5004883,32.2602539 L31.5004883,35.1230469 L30.4467773,35.1230469 L30.4467773,25.0429688 L31.3037109,25.0429688 L31.449707,25.9951172 L31.5004883,25.9951172 C31.771323,25.6142559 32.0865867,25.3391936 32.4462891,25.1699219 C32.8059914,25.0006502 33.2185849,24.9160156 33.684082,24.9160156 C34.6066127,24.9160156 35.318601,25.2312794 35.8200684,25.8618164 C36.3215357,26.4923534 36.5722656,27.3767847 36.5722656,28.5151367 C36.5722656,29.6577206 36.317304,30.5453256 35.807373,31.1779785 C35.2974421,31.8106314 34.5896855,32.1269531 33.684082,32.1269531 Z M33.5317383,25.8110352 C32.8207972,25.8110352 32.3066422,26.0078105 31.9892578,26.4013672 C31.6718734,26.7949238 31.5089519,27.4212197 31.5004883,28.2802734 L31.5004883,28.5151367 C31.5004883,29.4926807 31.6634098,30.1919738 31.9892578,30.6130371 C32.3151058,31.0341004 32.8377243,31.2446289 33.5571289,31.2446289 C34.1580434,31.2446289 34.6288232,31.0013045 34.9694824,30.5146484 C35.3101417,30.0279924 35.4804688,29.3572634 35.4804688,28.5024414 C35.4804688,27.634924 35.3101417,26.9694847 34.9694824,26.5061035 C34.6288232,26.0427223 34.1495799,25.8110352 33.5317383,25.8110352 Z M44.4179688,28.5151367 C44.4179688,29.649257 44.1323271,30.5347462 43.5610352,31.1716309 C42.9897432,31.8085156 42.2005259,32.1269531 41.1933594,32.1269531 C40.571286,32.1269531 40.0190454,31.9809585 39.5366211,31.6889648 C39.0541968,31.3969712 38.6818047,30.9780301 38.4194336,30.4321289 C38.1570625,29.8862277 38.0258789,29.2472367 38.0258789,28.5151367 C38.0258789,27.3810165 38.3094047,26.4976431 38.8764648,25.8649902 C39.443525,25.2323373 40.2306265,24.9160156 41.237793,24.9160156 C42.2111051,24.9160156 42.9844535,25.2397429 43.5578613,25.887207 C44.1312691,26.5346712 44.4179688,27.410639 44.4179688,28.5151367 Z M39.1176758,28.5151367 C39.1176758,29.403813 39.2954084,30.0808896 39.6508789,30.5463867 C40.0063494,31.0118838 40.5289679,31.2446289 41.21875,31.2446289 C41.9085321,31.2446289 42.4322085,31.0129418 42.7897949,30.5495605 C43.1473813,30.0861793 43.3261719,29.4080448 43.3261719,28.5151367 C43.3261719,27.6306922 43.1473813,26.9589053 42.7897949,26.4997559 C42.4322085,26.0406064 41.9043004,25.8110352 41.2060547,25.8110352 C40.5162726,25.8110352 39.99577,26.0374326 39.6445312,26.4902344 C39.2932925,26.9430361 39.1176758,27.6179968 39.1176758,28.5151367 Z M49.4389648,24.9160156 C49.7478857,24.9160156 50.0250639,24.941406 50.2705078,24.9921875 L50.1245117,25.9697266 C49.8367499,25.9062497 49.5828462,25.8745117 49.362793,25.8745117 C48.7999646,25.8745117 48.3186055,26.1030251 47.9187012,26.5600586 C47.5187968,27.0170921 47.3188477,27.5862596 47.3188477,28.2675781 L47.3188477,32 L46.2651367,32 L46.2651367,25.0429688 L47.1347656,25.0429688 L47.2553711,26.331543 L47.3061523,26.331543 C47.5642917,25.8787412 47.8753237,25.5296236 48.2392578,25.2841797 C48.6031919,25.0387358 49.0030903,24.9160156 49.4389648,24.9160156 Z M53.8188477,31.2573242 C54.0050465,31.2573242 54.184895,31.2435711 54.3583984,31.2160645 L54.5916749,31.1740112 C54.660441,31.159729 54.7202146,31.1451824 54.7709961,31.1303711 L54.7709961,31.9365234 C54.6567377,31.9915367 54.4885265,32.0370278 54.2663574,32.072998 C54.0441883,32.1089683 53.8442392,32.1269531 53.6665039,32.1269531 C52.3207941,32.1269531 51.6479492,31.4181386 51.6479492,30.0004883 L51.6479492,25.8618164 L50.6513672,25.8618164 L50.6513672,25.3540039 L51.6479492,24.9160156 L52.0922852,23.4306641 L52.7016602,23.4306641 L52.7016602,25.0429688 L54.7202148,25.0429688 L54.7202148,25.8618164 L52.7016602,25.8618164 L52.7016602,29.9560547 C52.7016602,30.3750021 52.8011058,30.6966135 53,30.9208984 C53.1988942,31.1451834 53.4718407,31.2573242 53.8188477,31.2573242 Z M67.1044922,27.2709961 C67.1044922,28.8029048 66.6887249,29.9740357 65.8571777,30.7844238 C65.0256306,31.594812 63.8291094,32 62.2675781,32 L59.6967773,32 L59.6967773,22.7197266 L62.5405273,22.7197266 C63.9835684,22.7197266 65.1049765,23.1196249 65.9047852,23.9194336 C66.7045938,24.7192423 67.1044922,25.8364186 67.1044922,27.2709961 Z M65.9619141,27.309082 C65.9619141,26.0987895 65.6582875,25.186852 65.0510254,24.5732422 C64.4437632,23.9596323 63.5413471,23.652832 62.34375,23.652832 L60.7758789,23.652832 L60.7758789,31.0668945 L62.0898438,31.0668945 C63.3763085,31.0668945 64.3432585,30.7505728 64.9907227,30.1179199 C65.6381868,29.485267 65.9619141,28.5489971 65.9619141,27.309082 Z M73.293457,32 L73.0839844,31.0097656 L73.0332031,31.0097656 C72.6861962,31.4456402 72.3402524,31.7408033 71.9953613,31.8952637 C71.6504703,32.0497241 71.2198919,32.1269531 70.7036133,32.1269531 C70.0138312,32.1269531 69.4732279,31.9492205 69.0817871,31.59375 C68.6903464,31.2382795 68.4946289,30.7325879 68.4946289,30.0766602 C68.4946289,28.6717052 69.6181528,27.9353845 71.8652344,27.8676758 L73.0458984,27.8295898 L73.0458984,27.3979492 C73.0458984,26.8520481 72.928468,26.4489759 72.6936035,26.1887207 C72.4587391,25.9284655 72.0831732,25.7983398 71.5668945,25.7983398 C70.987139,25.7983398 70.3312211,25.9760724 69.5991211,26.331543 L69.2753906,25.5253906 C69.6181658,25.3391918 69.9937317,25.1931971 70.4020996,25.0874023 C70.8104675,24.9816075 71.2198873,24.9287109 71.6303711,24.9287109 C72.4598023,24.9287109 73.0744609,25.1127911 73.4743652,25.480957 C73.8742696,25.8491229 74.0742188,26.4394491 74.0742188,27.2519531 L74.0742188,32 L73.293457,32 Z M70.9130859,31.2573242 C71.5690137,31.2573242 72.0842266,31.0774758 72.4587402,30.7177734 C72.8332538,30.3580711 73.0205078,29.8544954 73.0205078,29.2070312 L73.0205078,28.5786133 L71.9667969,28.6230469 C71.1289021,28.6526694 70.5248228,28.7827951 70.154541,29.0134277 C69.7842592,29.2440604 69.5991211,29.6026994 69.5991211,30.0893555 C69.5991211,30.4702167 69.7144357,30.7600902 69.9450684,30.9589844 C70.175701,31.1578786 70.4983703,31.2573242 70.9130859,31.2573242 Z M78.4921875,31.2573242 C78.6783863,31.2573242 78.8582348,31.2435711 79.0317383,31.2160645 L79.2650148,31.1740112 C79.3337809,31.159729 79.3935544,31.1451824 79.4443359,31.1303711 L79.4443359,31.9365234 C79.3300776,31.9915367 79.1618663,32.0370278 78.9396973,32.072998 C78.7175282,32.1089683 78.517579,32.1269531 78.3398438,32.1269531 C76.9941339,32.1269531 76.3212891,31.4181386 76.3212891,30.0004883 L76.3212891,25.8618164 L75.324707,25.8618164 L75.324707,25.3540039 L76.3212891,24.9160156 L76.765625,23.4306641 L77.375,23.4306641 L77.375,25.0429688 L79.3935547,25.0429688 L79.3935547,25.8618164 L77.375,25.8618164 L77.375,29.9560547 C77.375,30.3750021 77.4744456,30.6966135 77.6733398,30.9208984 C77.8722341,31.1451834 78.1451806,31.2573242 78.4921875,31.2573242 Z M83.7734375,32.1269531 C82.745112,32.1269531 81.9336781,31.8138052 81.3391113,31.1875 C80.7445446,30.5611948 80.4472656,29.6915746 80.4472656,28.5786133 C80.4472656,27.4571884 80.7233859,26.5664096 81.2756348,25.90625 C81.8278836,25.2460904 82.569494,24.9160156 83.5004883,24.9160156 C84.3722374,24.9160156 85.0620092,25.2027152 85.5698242,25.776123 C86.0776393,26.3495309 86.331543,27.1059523 86.331543,28.0454102 L86.331543,28.7119141 L81.5390625,28.7119141 C81.5602215,29.5286499 81.7665182,30.1485981 82.157959,30.5717773 C82.5493997,30.9949565 83.1005824,31.206543 83.8115234,31.206543 C84.5605506,31.206543 85.3011031,31.049969 86.0332031,30.7368164 L86.0332031,31.6762695 C85.6608054,31.8370776 85.308514,31.9523922 84.9763184,32.0222168 C84.6441227,32.0920414 84.2431664,32.1269531 83.7734375,32.1269531 Z" id="ReportDate" fill="#9E9E9E" fill-rule="nonzero"></path>
                    <path d="M83.487793,25.7983398 C84.0379259,25.7983398 84.4610988,25.9750145 84.7573242,26.3283691 C85.0535497,26.6817238 85.2016602,27.1905891 85.2016602,27.8549805 L81.5644531,27.8549805 C81.6236982,27.2117481 81.8194157,26.7081724 82.1516113,26.3442383 C82.483807,25.9803042 82.9291964,25.7983398 83.487793,25.7983398 Z" id="Path" fill="#FFFFFF"></path>
                    <path d="M16.3549805,56 L15.2758789,56 L15.2758789,46.7197266 L20.4492188,46.7197266 L20.4492188,47.6782227 L16.3549805,47.6782227 L16.3549805,51.0742188 L20.2016602,51.0742188 L20.2016602,52.0327148 L16.3549805,52.0327148 L16.3549805,56 Z M24.765625,56.1269531 C23.7372995,56.1269531 22.9258656,55.8138052 22.3312988,55.1875 C21.7367321,54.5611948 21.4394531,53.6915746 21.4394531,52.5786133 C21.4394531,51.4571884 21.7155734,50.5664096 22.2678223,49.90625 C22.8200711,49.2460904 23.5616815,48.9160156 24.4926758,48.9160156 C25.3644249,48.9160156 26.0541967,49.2027152 26.5620117,49.776123 C27.0698268,50.3495309 27.3237305,51.1059523 27.3237305,52.0454102 L27.3237305,52.7119141 L22.53125,52.7119141 C22.552409,53.5286499 22.7587057,54.1485981 23.1501465,54.5717773 C23.5415872,54.9949565 24.0927699,55.206543 24.8037109,55.206543 C25.5527381,55.206543 26.2932906,55.049969 27.0253906,54.7368164 L27.0253906,55.6762695 C26.6529929,55.8370776 26.3007015,55.9523922 25.9685059,56.0222168 C25.6363102,56.0920414 25.2353539,56.1269531 24.765625,56.1269531 Z M24.4799805,49.7983398 C23.9213839,49.7983398 23.4759945,49.9803042 23.1437988,50.3442383 C22.8116032,50.7081724 22.6158857,51.2117481 22.5566406,51.8549805 L26.1938477,51.8549805 C26.1938477,51.1905891 26.0457372,50.6817238 25.7495117,50.3283691 C25.4532863,49.9750145 25.0301134,49.7983398 24.4799805,49.7983398 Z M32.3574219,48.9287109 C33.2714889,48.9287109 33.9813614,49.2408009 34.4870605,49.8649902 C34.9927597,50.4891796 35.2456055,51.3725529 35.2456055,52.5151367 C35.2456055,53.6577206 34.9906438,54.5453256 34.4807129,55.1779785 C33.970782,55.8106314 33.2630254,56.1269531 32.3574219,56.1269531 C31.9046201,56.1269531 31.4909687,56.0433765 31.1164551,55.8762207 C30.7419415,55.7090649 30.4277356,55.4519874 30.1738281,55.1049805 L30.0976562,55.1049805 L29.8754883,56 L29.1201172,56 L29.1201172,46.1230469 L30.1738281,46.1230469 L30.1738281,48.5224609 C30.1738281,49.0598985 30.1569012,49.5423156 30.1230469,49.9697266 L30.1738281,49.9697266 C30.664716,49.2757127 31.3925733,48.9287109 32.3574219,48.9287109 Z M32.2050781,49.8110352 C31.4856735,49.8110352 30.9672867,50.0173319 30.6499023,50.4299316 C30.3325179,50.8425314 30.1738281,51.5375928 30.1738281,52.5151367 C30.1738281,53.4926807 30.3367497,54.1919738 30.6625977,54.6130371 C30.9884456,55.0341004 31.5110641,55.2446289 32.2304688,55.2446289 C32.8779329,55.2446289 33.36035,55.00871 33.6777344,54.5368652 C33.9951188,54.0650204 34.1538086,53.3868859 34.1538086,52.5024414 C34.1538086,51.5968379 33.9951188,50.9218772 33.6777344,50.4775391 C33.36035,50.0332009 32.8694695,49.8110352 32.2050781,49.8110352 Z M43.8847656,56 L42.8564453,56 L42.8564453,49.3857422 C42.8564453,48.8356092 42.8733722,48.3151066 42.9072266,47.8242188 L42.7153864,48.0075954 L42.7153864,48.0075954 L42.5438868,48.1592621 C42.3575766,48.3164767 41.8756658,48.7104895 41.0981445,49.3413086 L40.5395508,48.6176758 L42.9960938,46.7197266 L43.8847656,46.7197266 L43.8847656,56 Z M47.5219727,52.0327148 C47.5219727,50.2088125 47.8763799,48.845138 48.5852051,47.9416504 C49.2940302,47.0381628 50.342441,46.5864258 51.7304688,46.5864258 C52.2086612,46.5864258 52.5852851,46.6266272 52.8603516,46.7070312 L52.8603516,47.6147461 C52.5345036,47.5089513 52.1621115,47.4560547 51.7431641,47.4560547 C50.7486929,47.4560547 49.9890977,47.7660288 49.4643555,48.3859863 C48.9396133,49.0059439 48.6518557,49.9802993 48.6010742,51.309082 L48.6772461,51.309082 C49.1427432,50.5812138 49.879064,50.2172852 50.8862305,50.2172852 C51.7198935,50.2172852 52.3768693,50.469073 52.8571777,50.9726562 C53.3374861,51.4762395 53.5776367,52.1596637 53.5776367,53.0229492 C53.5776367,53.9877978 53.3142116,54.7463351 52.7873535,55.298584 C52.2604954,55.8508328 51.5485071,56.1269531 50.6513672,56.1269531 C49.6907504,56.1269531 48.9290393,55.7661983 48.3662109,55.0446777 C47.8033826,54.3231572 47.5219727,53.3191796 47.5219727,52.0327148 Z M50.6386719,55.2319336 C51.2395863,55.2319336 51.7061344,55.0425637 52.0383301,54.6638184 C52.3705257,54.285073 52.5366211,53.7381221 52.5366211,53.0229492 C52.5366211,52.4093394 52.382163,51.9269223 52.0732422,51.5756836 C51.7643214,51.2244449 51.303063,51.0488281 50.6894531,51.0488281 C50.3085918,51.0488281 49.9594742,51.1271151 49.6420898,51.2836914 C49.3247054,51.4402677 49.0718597,51.6560859 48.8835449,51.9311523 C48.6952302,52.2062188 48.6010742,52.4918605 48.6010742,52.7880859 C48.6010742,53.2239605 48.6857088,53.6302065 48.8549805,54.0068359 C49.0242521,54.3834654 49.2644027,54.6818023 49.5754395,54.9018555 C49.8864762,55.1219087 50.2408834,55.2319336 50.6386719,55.2319336 Z M56.434082,54.4892578 L56.5292969,54.6352539 C56.4192703,55.0584331 56.2605805,55.5503715 56.0532227,56.111084 C55.8458648,56.6717964 55.6300467,57.193357 55.4057617,57.6757812 L54.6123047,57.6757812 L54.7304417,57.2011174 C54.7711137,57.0313767 54.8130786,56.8501164 54.8563366,56.657336 L54.9899902,56.0444336 C55.1275235,55.3969694 55.2237953,54.8785827 55.2788086,54.4892578 L56.434082,54.4892578 Z M67.5107422,56 L61.4106445,56 L61.4106445,55.0922852 L63.8544922,52.6357422 C64.5992876,51.8824832 65.0901681,51.3450537 65.3271484,51.0234375 C65.5641288,50.7018213 65.7418614,50.3886734 65.8603516,50.0839844 C65.9788417,49.7792954 66.0380859,49.4513364 66.0380859,49.1000977 C66.0380859,48.604978 65.8878596,48.2124852 65.5874023,47.9226074 C65.2869451,47.6327297 64.8701199,47.487793 64.3369141,47.487793 C63.951821,47.487793 63.5868344,47.5512689 63.2419434,47.6782227 C62.8970523,47.8051764 62.5130229,48.0358056 62.0898438,48.3701172 L61.53125,47.652832 C62.386072,46.941891 63.3170523,46.5864258 64.3242188,46.5864258 C65.1959679,46.5864258 65.8793921,46.8096495 66.3745117,47.2561035 C66.8696314,47.7025576 67.1171875,48.3024051 67.1171875,49.0556641 C67.1171875,49.6438831 66.9521501,50.2257458 66.6220703,50.8012695 C66.2919905,51.3767932 65.6741582,52.1046505 64.7685547,52.9848633 L62.7373047,54.9716797 L62.7373047,55.0224609 L67.5107422,55.0224609 L67.5107422,56 Z M74.9946289,51.347168 C74.9946289,52.9510171 74.7417831,54.1485963 74.236084,54.9399414 C73.7303848,55.7312865 72.9570365,56.1269531 71.9160156,56.1269531 C70.9173127,56.1269531 70.1577174,55.7217651 69.637207,54.911377 C69.1166966,54.1009888 68.8564453,52.912931 68.8564453,51.347168 C68.8564453,49.7306234 69.1082332,48.5309284 69.6118164,47.7480469 C70.1153997,46.9651654 70.8834584,46.5737305 71.9160156,46.5737305 C72.9231821,46.5737305 73.688067,46.9820923 74.2106934,47.7988281 C74.7333197,48.615564 74.9946289,49.7983321 74.9946289,51.347168 Z M69.9228516,51.347168 C69.9228516,52.6971096 70.0815414,53.6799286 70.3989258,54.2956543 C70.7163102,54.91138 71.2220017,55.2192383 71.9160156,55.2192383 C72.6184931,55.2192383 73.1273584,54.9071483 73.442627,54.282959 C73.7578955,53.6587697 73.9155273,52.6801824 73.9155273,51.347168 C73.9155273,50.0141535 73.7578955,49.0376821 73.442627,48.4177246 C73.1273584,47.7977671 72.6184931,47.487793 71.9160156,47.487793 C71.2220017,47.487793 70.7163102,47.7935354 70.3989258,48.4050293 C70.0815414,49.0165232 69.9228516,49.9972263 69.9228516,51.347168 Z M80.1806641,56 L79.1523438,56 L79.1523438,49.3857422 C79.1523438,48.8356092 79.1692707,48.3151066 79.203125,47.8242188 L79.0112849,48.0075954 L79.0112849,48.0075954 L78.8397852,48.1592621 C78.653475,48.3164767 78.1715642,48.7104895 77.394043,49.3413086 L76.8354492,48.6176758 L79.2919922,46.7197266 L80.1806641,46.7197266 L80.1806641,56 Z M86.7822266,46.5864258 C87.628585,46.5864258 88.2993139,46.7832012 88.7944336,47.1767578 C89.2895533,47.5703145 89.5371094,48.1140916 89.5371094,48.8081055 C89.5371094,49.265139 89.3953465,49.6819643 89.1118164,50.0585938 C88.8282863,50.4352232 88.3754914,50.7779932 87.753418,51.0869141 C88.5066769,51.4466164 89.0419906,51.8242982 89.359375,52.2199707 C89.6767594,52.6156433 89.8354492,53.0737279 89.8354492,53.5942383 C89.8354492,54.3644244 89.5667345,54.979083 89.0292969,55.4382324 C88.4918593,55.8973819 87.7555385,56.1269531 86.8203125,56.1269531 C85.8300732,56.1269531 85.068362,55.910077 84.5351562,55.4763184 C84.0019505,55.0425597 83.7353516,54.4279011 83.7353516,53.6323242 C83.7353516,52.5701444 84.382806,51.7428415 85.6777344,51.1503906 C85.0937471,50.8203108 84.674806,50.4637877 84.4208984,50.0808105 C84.1669909,49.6978334 84.0400391,49.2693709 84.0400391,48.7954102 C84.0400391,48.1225552 84.2886531,47.5861836 84.7858887,47.1862793 C85.2831242,46.786375 85.9485635,46.5864258 86.7822266,46.5864258 Z M84.7763672,53.6577148 C84.7763672,54.1655299 84.9530419,54.5611965 85.3063965,54.8447266 C85.6597511,55.1282566 86.1559213,55.2700195 86.7949219,55.2700195 C87.4254589,55.2700195 87.9163394,55.121909 88.2675781,54.8256836 C88.6188169,54.5294582 88.7944336,54.1232122 88.7944336,53.6069336 C88.7944336,53.1964498 88.6293962,52.8314632 88.2993164,52.5119629 C87.9692366,52.1924626 87.3937216,51.8824885 86.5727539,51.5820312 C85.9422169,51.8528659 85.4851902,52.1522607 85.2016602,52.4802246 C84.9181301,52.8081885 84.7763672,53.2006813 84.7763672,53.6577148 Z M86.7695312,47.4433594 C86.2405573,47.4433594 85.8258479,47.5703112 85.5253906,47.8242188 C85.2249334,48.0781263 85.074707,48.4166646 85.074707,48.8398438 C85.074707,49.2291686 85.199543,49.5634752 85.4492188,49.8427734 C85.6988945,50.1220717 86.1601529,50.4013658 86.8330078,50.6806641 C87.4381541,50.4267565 87.8666166,50.1538101 88.1184082,49.8618164 C88.3701998,49.5698228 88.4960938,49.2291686 88.4960938,48.8398438 C88.4960938,48.4124328 88.3426936,48.0728365 88.0358887,47.8210449 C87.7290838,47.5692533 87.3069688,47.4433594 86.7695312,47.4433594 Z M94.4057617,52.9975586 L94.4057617,52.0327148 L106.364746,52.0327148 L106.364746,52.9975586 L94.4057617,52.9975586 Z M117.371582,56 L116.216309,53.0483398 L112.496582,53.0483398 L111.354004,56 L110.262207,56 L113.931152,46.6816406 L114.838867,46.6816406 L118.48877,56 L117.371582,56 Z M112.877441,52.0771484 L115.879883,52.0771484 L114.800781,49.2016602 C114.661132,48.837726 114.517253,48.3912787 114.369141,47.8623047 C114.276041,48.2685567 114.142742,48.7150041 113.969238,49.2016602 L112.877441,52.0771484 Z M120.596191,49.0429688 L120.596191,53.5561523 C120.596191,54.1232125 120.725259,54.5463853 120.983398,54.8256836 C121.241538,55.1049819 121.645668,55.2446289 122.195801,55.2446289 C122.923669,55.2446289 123.455809,55.0457377 123.792236,54.6479492 C124.128664,54.2501608 124.296875,53.6005904 124.296875,52.6992188 L124.296875,49.0429688 L125.350586,49.0429688 L125.350586,56 L124.480957,56 L124.328613,55.0668945 L124.271484,55.0668945 C124.055663,55.4096697 123.756268,55.6720369 123.373291,55.8540039 C122.990314,56.035971 122.553388,56.1269531 122.0625,56.1269531 C121.216142,56.1269531 120.58244,55.925946 120.161377,55.5239258 C119.740314,55.1219055 119.529785,54.4786828 119.529785,53.5942383 L119.529785,49.0429688 L120.596191,49.0429688 Z M133.278809,49.0429688 L133.278809,49.7094727 L131.990234,49.8618164 C132.108725,50.0099291 132.214518,50.2035307 132.307617,50.442627 C132.400717,50.6817232 132.447266,50.9514959 132.447266,51.2519531 C132.447266,51.9332716 132.214521,52.4770488 131.749023,52.8833008 C131.283526,53.2895528 130.644535,53.4926758 129.832031,53.4926758 C129.624673,53.4926758 129.430014,53.4757489 129.248047,53.4418945 C128.799477,53.6788749 128.575195,53.9772117 128.575195,54.3369141 C128.575195,54.5273447 128.653482,54.6680497 128.810059,54.7590332 C128.966635,54.8500167 129.23535,54.8955078 129.616211,54.8955078 L130.847656,54.8955078 C131.600915,54.8955078 132.179604,55.0541976 132.58374,55.371582 C132.987876,55.6889664 133.189941,56.1502248 133.189941,56.7553711 C133.189941,57.5255572 132.881025,58.1127096 132.263184,58.5168457 C131.645342,58.9209818 130.743984,59.1230469 129.559082,59.1230469 C128.649247,59.1230469 127.947838,58.9537777 127.454834,58.6152344 C126.96183,58.276691 126.715332,57.7985057 126.715332,57.1806641 C126.715332,56.7574849 126.850747,56.3914403 127.121582,56.0825195 C127.392417,55.7735987 127.773272,55.5641282 128.26416,55.4541016 C128.086425,55.3736975 127.937256,55.2488615 127.81665,55.0795898 C127.696044,54.9103182 127.635742,54.7135428 127.635742,54.4892578 C127.635742,54.2353503 127.70345,54.0131845 127.838867,53.8227539 C127.974285,53.6323233 128.187987,53.4482431 128.47998,53.2705078 C128.120278,53.1223951 127.827231,52.8706072 127.60083,52.5151367 C127.374429,52.1596662 127.26123,51.7534203 127.26123,51.2963867 C127.26123,50.5346642 127.489744,49.9475118 127.946777,49.5349121 C128.403811,49.1223124 129.051265,48.9160156 129.88916,48.9160156 C130.253094,48.9160156 130.581053,48.9583329 130.873047,49.0429688 L133.278809,49.0429688 Z M127.730957,57.1679688 C127.730957,57.5445982 127.889647,57.8302399 128.207031,58.0249023 C128.524416,58.2195648 128.979326,58.3168945 129.571777,58.3168945 C130.456222,58.3168945 131.111082,58.184653 131.536377,57.920166 C131.961672,57.655679 132.174316,57.29704 132.174316,56.8442383 C132.174316,56.4676088 132.057944,56.2062996 131.825195,56.0603027 C131.592447,55.9143059 131.154463,55.8413086 130.51123,55.8413086 L129.248047,55.8413086 C128.769854,55.8413086 128.397462,55.9555653 128.130859,56.184082 C127.864256,56.4125988 127.730957,56.7405578 127.730957,57.1679688 Z M128.302246,51.2709961 C128.302246,51.7576522 128.439777,52.1258126 128.714844,52.3754883 C128.98991,52.625164 129.372882,52.75 129.86377,52.75 C130.892095,52.75 131.40625,52.250656 131.40625,51.2519531 C131.40625,50.2067005 130.885747,49.684082 129.844727,49.684082 C129.349607,49.684082 128.968751,49.8173815 128.702148,50.0839844 C128.435546,50.3505873 128.302246,50.7462539 128.302246,51.2709961 Z M141.505371,56 L140.477051,56 L140.477051,49.3857422 C140.477051,48.8356092 140.493978,48.3151066 140.527832,47.8242188 L140.435438,47.9144966 L140.435438,47.9144966 L140.229492,48.1035156 C140.119466,48.2008468 139.61589,48.6134404 138.71875,49.3413086 L138.160156,48.6176758 L140.616699,46.7197266 L141.505371,46.7197266 L141.505371,56 Z M145.142578,52.0327148 C145.142578,50.2088125 145.496985,48.845138 146.205811,47.9416504 C146.914636,47.0381628 147.963046,46.5864258 149.351074,46.5864258 C149.829267,46.5864258 150.205891,46.6266272 150.480957,46.7070312 L150.480957,47.6147461 C150.155109,47.5089513 149.782717,47.4560547 149.36377,47.4560547 C148.369298,47.4560547 147.609703,47.7660288 147.084961,48.3859863 C146.560219,49.0059439 146.272461,49.9802993 146.22168,51.309082 L146.297852,51.309082 C146.763349,50.5812138 147.499669,50.2172852 148.506836,50.2172852 C149.340499,50.2172852 149.997475,50.469073 150.477783,50.9726562 C150.958092,51.4762395 151.198242,52.1596637 151.198242,53.0229492 C151.198242,53.9877978 150.934817,54.7463351 150.407959,55.298584 C149.881101,55.8508328 149.169113,56.1269531 148.271973,56.1269531 C147.311356,56.1269531 146.549645,55.7661983 145.986816,55.0446777 C145.423988,54.3231572 145.142578,53.3191796 145.142578,52.0327148 Z M148.259277,55.2319336 C148.860192,55.2319336 149.32674,55.0425637 149.658936,54.6638184 C149.991131,54.285073 150.157227,53.7381221 150.157227,53.0229492 C150.157227,52.4093394 150.002768,51.9269223 149.693848,51.5756836 C149.384927,51.2244449 148.923668,51.0488281 148.310059,51.0488281 C147.929197,51.0488281 147.58008,51.1271151 147.262695,51.2836914 C146.945311,51.4402677 146.692465,51.6560859 146.50415,51.9311523 C146.315836,52.2062188 146.22168,52.4918605 146.22168,52.7880859 C146.22168,53.2239605 146.306314,53.6302065 146.475586,54.0068359 C146.644858,54.3834654 146.885008,54.6818023 147.196045,54.9018555 C147.507082,55.1219087 147.861489,55.2319336 148.259277,55.2319336 Z M154.054688,54.4892578 L154.149902,54.6352539 C154.039876,55.0584331 153.881186,55.5503715 153.673828,56.111084 C153.46647,56.6717964 153.250652,57.193357 153.026367,57.6757812 L152.23291,57.6757812 C152.328125,57.3090259 152.431421,56.8702771 152.542799,56.3595252 L152.610596,56.0444336 C152.748129,55.3969694 152.844401,54.8785827 152.899414,54.4892578 L154.054688,54.4892578 Z M165.131348,56 L159.03125,56 L159.03125,55.0922852 L161.475098,52.6357422 C162.219893,51.8824832 162.710774,51.3450537 162.947754,51.0234375 C163.184734,50.7018213 163.362467,50.3886734 163.480957,50.0839844 C163.599447,49.7792954 163.658691,49.4513364 163.658691,49.1000977 C163.658691,48.604978 163.508465,48.2124852 163.208008,47.9226074 C162.907551,47.6327297 162.490725,47.487793 161.95752,47.487793 C161.572426,47.487793 161.20744,47.5512689 160.862549,47.6782227 C160.517658,47.8051764 160.133628,48.0358056 159.710449,48.3701172 L159.151855,47.652832 C160.006677,46.941891 160.937658,46.5864258 161.944824,46.5864258 C162.816573,46.5864258 163.499998,46.8096495 163.995117,47.2561035 C164.490237,47.7025576 164.737793,48.3024051 164.737793,49.0556641 C164.737793,49.6438831 164.572756,50.2257458 164.242676,50.8012695 C163.940103,51.3288329 163.395737,51.9843989 162.609566,52.7679842 L160.35791,54.9716797 L160.35791,55.0224609 L165.131348,55.0224609 L165.131348,56 Z M172.615234,51.347168 C172.615234,52.9510171 172.362389,54.1485963 171.856689,54.9399414 C171.35099,55.7312865 170.577642,56.1269531 169.536621,56.1269531 C168.537918,56.1269531 167.778323,55.7217651 167.257812,54.911377 C166.737302,54.1009888 166.477051,52.912931 166.477051,51.347168 C166.477051,49.7306234 166.728839,48.5309284 167.232422,47.7480469 C167.736005,46.9651654 168.504064,46.5737305 169.536621,46.5737305 C170.543788,46.5737305 171.308673,46.9820923 171.831299,47.7988281 C172.353925,48.615564 172.615234,49.7983321 172.615234,51.347168 Z M167.543457,51.347168 C167.543457,52.6971096 167.702147,53.6799286 168.019531,54.2956543 C168.336916,54.91138 168.842607,55.2192383 169.536621,55.2192383 C170.239099,55.2192383 170.747964,54.9071483 171.063232,54.282959 C171.378501,53.6587697 171.536133,52.6801824 171.536133,51.347168 C171.536133,50.0141535 171.378501,49.0376821 171.063232,48.4177246 C170.747964,47.7977671 170.239099,47.487793 169.536621,47.487793 C168.842607,47.487793 168.336916,47.7935354 168.019531,48.4050293 C167.702147,49.0165232 167.543457,49.9972263 167.543457,51.347168 Z M177.80127,56 L176.772949,56 L176.772949,49.3857422 C176.772949,48.8356092 176.789876,48.3151066 176.82373,47.8242188 L176.731337,47.9144966 L176.731337,47.9144966 L176.525391,48.1035156 C176.415364,48.2008468 175.911788,48.6134404 175.014648,49.3413086 L174.456055,48.6176758 L176.912598,46.7197266 L177.80127,46.7197266 L177.80127,56 Z M187.430664,50.6806641 C187.430664,54.3115416 186.02573,56.1269531 183.21582,56.1269531 C182.724932,56.1269531 182.335613,56.0846358 182.047852,56 L182.047852,55.0922852 C182.386395,55.2023117 182.771482,55.2573242 183.203125,55.2573242 C184.218755,55.2573242 184.985756,54.9431184 185.50415,54.3146973 C186.022545,53.6862762 186.305013,52.7225 186.351562,51.4233398 L186.275391,51.4233398 C186.042642,51.7745786 185.733726,52.0422354 185.348633,52.2263184 C184.96354,52.4104013 184.529788,52.5024414 184.047363,52.5024414 C183.226396,52.5024414 182.574709,52.2570012 182.092285,51.7661133 C181.609861,51.2752254 181.368652,50.5896854 181.368652,49.7094727 C181.368652,48.7446241 181.638425,47.9829129 182.177979,47.4243164 C182.717532,46.8657199 183.427404,46.5864258 184.307617,46.5864258 C184.938154,46.5864258 185.489337,46.7482894 185.961182,47.0720215 C186.433026,47.3957536 186.795897,47.8675913 187.049805,48.4875488 C187.303712,49.1075064 187.430664,49.8385375 187.430664,50.6806641 Z M184.307617,47.487793 C183.702471,47.487793 183.234865,47.6824525 182.904785,48.0717773 C182.574705,48.4611022 182.409668,49.0027635 182.409668,49.6967773 C182.409668,50.3061554 182.56201,50.7853986 182.866699,51.1345215 C183.171388,51.4836443 183.634763,51.6582031 184.256836,51.6582031 C184.641929,51.6582031 184.996336,51.5799161 185.320068,51.4233398 C185.6438,51.2667635 185.898762,51.0530612 186.084961,50.7822266 C186.27116,50.5113919 186.364258,50.2278661 186.364258,49.9316406 C186.364258,49.4873025 186.277507,49.0768248 186.104004,48.7001953 C185.9305,48.3235658 185.688234,48.0273448 185.377197,47.8115234 C185.066161,47.595702 184.709637,47.487793 184.307617,47.487793 Z M15.0795898,72 L15.0795898,64.1474609 L15.9926758,64.1474609 L15.9926758,71.1728516 L19.4570312,71.1728516 L19.4570312,72 L15.0795898,72 Z M25.7358398,69.0512695 C25.7358398,70.0109097 25.494143,70.7601698 25.0107422,71.2990723 C24.5273413,71.8379747 23.859542,72.1074219 23.0073242,72.1074219 C22.4809544,72.1074219 22.0136739,71.983888 21.6054688,71.7368164 C21.1972636,71.4897449 20.8821626,71.1352562 20.6601562,70.6733398 C20.4381499,70.2114235 20.3271484,69.6707388 20.3271484,69.0512695 C20.3271484,68.0916293 20.5670549,67.3441596 21.046875,66.8088379 C21.5266951,66.2735162 22.1927041,66.0058594 23.0449219,66.0058594 C23.8684937,66.0058594 24.5228654,66.2797824 25.0080566,66.8276367 C25.4932479,67.375491 25.7358398,68.1166945 25.7358398,69.0512695 Z M21.2509766,69.0512695 C21.2509766,69.8032264 21.4013657,70.3761374 21.7021484,70.7700195 C22.0029312,71.1639017 22.4451468,71.3608398 23.0288086,71.3608398 C23.6124704,71.3608398 24.0555812,71.1647969 24.3581543,70.7727051 C24.6607274,70.3806133 24.8120117,69.8068072 24.8120117,69.0512695 C24.8120117,68.3028934 24.6607274,67.7344583 24.3581543,67.3459473 C24.0555812,66.9574362 23.6088897,66.7631836 23.0180664,66.7631836 C22.4344046,66.7631836 21.9939794,66.9547507 21.6967773,67.3378906 C21.3995753,67.7210306 21.2509766,68.2921512 21.2509766,69.0512695 Z M31.0961914,70.394043 C31.0961914,70.9418973 30.8920919,71.3644191 30.4838867,71.6616211 C30.0756816,71.9588231 29.5027706,72.1074219 28.7651367,72.1074219 C27.9845339,72.1074219 27.375816,71.983888 26.9389648,71.7368164 L26.9389648,70.909668 C27.2218439,71.0528979 27.5253076,71.1656897 27.8493652,71.2480469 C28.1734228,71.3304041 28.4858383,71.371582 28.7866211,71.371582 C29.2521182,71.371582 29.6101875,71.2972826 29.8608398,71.1486816 C30.1114921,71.0000806 30.2368164,70.7736018 30.2368164,70.4692383 C30.2368164,70.2400705 30.1374522,70.0440275 29.9387207,69.8811035 C29.7399892,69.7181795 29.3523792,69.5257173 28.7758789,69.3037109 C28.2280246,69.0996084 27.8386242,68.9214689 27.607666,68.7692871 C27.3767078,68.6171054 27.2048345,68.4443369 27.092041,68.2509766 C26.9792475,68.0576162 26.9228516,67.8266615 26.9228516,67.5581055 C26.9228516,67.0782854 27.1179994,66.699627 27.5083008,66.4221191 C27.8986022,66.1446112 28.4339159,66.0058594 29.1142578,66.0058594 C29.74805,66.0058594 30.36751,66.1347643 30.9726562,66.3925781 L30.6557617,67.1176758 C30.0649385,66.874185 29.5296248,66.7524414 29.0498047,66.7524414 C28.6272765,66.7524414 28.3085948,66.8186842 28.09375,66.9511719 C27.8789052,67.0836595 27.7714844,67.2662749 27.7714844,67.4990234 C27.7714844,67.6565763 27.8117672,67.7908523 27.892334,67.9018555 C27.9729008,68.0128586 28.1027009,68.1184891 28.2817383,68.21875 C28.3936366,68.2814131 28.5698745,68.3615594 28.8104544,68.4591901 L29.3129883,68.6538086 C30.011234,68.9080416 30.4829903,69.1640612 30.7282715,69.421875 C30.9735527,69.6796888 31.0961914,70.0037415 31.0961914,70.394043 Z M34.4477539,71.371582 C34.6053068,71.371582 34.7574862,71.3599448 34.9042969,71.3366699 C35.0511075,71.3133951 35.16748,71.2892254 35.253418,71.2641602 L35.253418,71.9462891 C35.1567378,71.9928388 35.0144052,72.0313312 34.826416,72.0617676 C34.6384268,72.0922039 34.469239,72.1074219 34.3188477,72.1074219 C33.1801701,72.1074219 32.6108398,71.5076557 32.6108398,70.3081055 L32.6108398,66.8061523 L31.7675781,66.8061523 L31.7675781,66.3764648 L32.6108398,66.0058594 L32.9868164,64.7490234 L33.5024414,64.7490234 L33.5024414,66.1132812 L35.2104492,66.1132812 L35.2104492,66.8061523 L33.5024414,66.8061523 L33.5024414,70.2705078 C33.5024414,70.6250018 33.5865877,70.8971345 33.7548828,71.0869141 C33.9231779,71.2766937 34.1541326,71.371582 34.4477539,71.371582 Z" id="Feb16,2018—Aug16,2019Lost" fill="#3F3F3F" fill-rule="nonzero"></path>
                    <path d="M389.964844,50.3271484 C389.964844,50.0436184 390.029378,49.8288582 390.158447,49.6828613 C390.287517,49.5368645 390.472655,49.4638672 390.713867,49.4638672 C390.959311,49.4638672 391.150797,49.5368645 391.28833,49.6828613 C391.425863,49.8288582 391.494629,50.0436184 391.494629,50.3271484 C391.494629,50.6022149 391.424805,50.8138013 391.285156,50.9619141 C391.145507,51.1100268 390.955079,51.184082 390.713867,51.184082 C390.498046,51.184082 390.319255,51.1174323 390.17749,50.9841309 C390.035725,50.8508294 389.964844,50.6318375 389.964844,50.3271484 Z M395.82373,50.2573242 C396.009929,50.2573242 396.189778,50.2435711 396.363281,50.2160645 L396.596558,50.1740112 C396.665324,50.159729 396.725097,50.1451824 396.775879,50.1303711 L396.775879,50.9365234 C396.661621,50.9915367 396.493409,51.0370278 396.27124,51.072998 C396.049071,51.1089683 395.849122,51.1269531 395.671387,51.1269531 C394.325677,51.1269531 393.652832,50.4181386 393.652832,49.0004883 L393.652832,44.8618164 L392.65625,44.8618164 L392.65625,44.3540039 L393.652832,43.9160156 L394.097168,42.4306641 L394.706543,42.4306641 L394.706543,44.0429688 L396.725098,44.0429688 L396.725098,44.8618164 L394.706543,44.8618164 L394.706543,48.9560547 C394.706543,49.3750021 394.805989,49.6966135 395.004883,49.9208984 C395.203777,50.1451834 395.476724,50.2573242 395.82373,50.2573242 Z M399.841797,47.4389648 L397.42334,44.0429688 L398.623047,44.0429688 L400.45752,46.7089844 L402.285645,44.0429688 L403.472656,44.0429688 L401.054199,47.4389648 L403.599609,51 L402.40625,51 L400.45752,48.1816406 L398.489746,51 L397.296387,51 L399.841797,47.4389648 Z M407.224121,50.2573242 C407.41032,50.2573242 407.590168,50.2435711 407.763672,50.2160645 L407.996948,50.1740112 C408.065714,50.159729 408.125488,50.1451824 408.17627,50.1303711 L408.17627,50.9365234 C408.062011,50.9915367 407.8938,51.0370278 407.671631,51.072998 C407.449462,51.1089683 407.249513,51.1269531 407.071777,51.1269531 C405.726067,51.1269531 405.053223,50.4181386 405.053223,49.0004883 L405.053223,44.8618164 L404.056641,44.8618164 L404.056641,44.3540039 L405.053223,43.9160156 L405.497559,42.4306641 L406.106934,42.4306641 L406.106934,44.0429688 L408.125488,44.0429688 L408.125488,44.8618164 L406.106934,44.8618164 L406.106934,48.9560547 C406.106934,49.3750021 406.206379,49.6966135 406.405273,49.9208984 C406.604168,50.1451834 406.877114,50.2573242 407.224121,50.2573242 Z" id=".txt" fill="#3085F8" fill-rule="nonzero"></path>
                    <line x1="389" y1="55" x2="409" y2="55" id="Line-10" stroke="#2064F5" stroke-width="0.6" stroke-linecap="square"></line>
                    <g id="cloud-download-light" transform="translate(355.000000, 37.000000)" fill="#2064F5" fill-rule="nonzero">
                        <path d="M25.2220588,9.12352941 C25.3455882,8.68676471 25.4117647,8.23235294 25.4117647,7.76470588 C25.4117647,5.03382353 23.2014706,2.82352941 20.4705882,2.82352941 C19.7338235,2.82352941 19.0191176,2.98235294 18.3529412,3.3 C16.9588235,1.31470588 14.6338235,1.0658141e-13 12,1.0658141e-13 C7.83529412,1.0658141e-13 4.425,3.28676471 4.24411765,7.42058824 C1.72941176,8.30294118 -1.0658141e-13,10.6897059 -1.0658141e-13,13.4117647 C-1.0658141e-13,16.9235294 2.84117647,19.7647059 6.35294118,19.7647059 L22.5882353,19.7647059 C25.7073529,19.7647059 28.2352941,17.2411765 28.2352941,14.1176471 C28.2352941,12.0441176 27.0970588,10.1117647 25.2220588,9.12352941 Z M22.5882353,18.3529412 L6.35294118,18.3529412 C3.62205882,18.3529412 1.41176471,16.1426471 1.41176471,13.4117647 C1.41176471,10.9058824 3.27352941,8.83676471 5.69117647,8.51470588 C5.66029412,8.26764706 5.64705882,8.01617647 5.64705882,7.76470588 C5.64705882,4.25735294 8.49264706,1.41176471 12,1.41176471 C14.6602941,1.41176471 16.9367647,3.04411765 17.8852941,5.36470588 C18.5294118,4.67205882 19.4470588,4.23529412 20.4705882,4.23529412 C22.4205882,4.23529412 24,5.81470588 24,7.76470588 C24,8.58088235 23.7220588,9.33529412 23.2544118,9.93529412 C25.2794118,10.2529412 26.8235294,12.0044118 26.8235294,14.1176471 C26.8235294,16.4558824 24.9264706,18.3529412 22.5882353,18.3529412 Z M17.8764706,9.81617647 C17.6691176,9.60882353 17.3338235,9.60882353 17.1264706,9.81617647 L14.1176471,12.825 L14.1176471,6.17647059 C14.1176471,5.88529412 13.8794118,5.64705882 13.5882353,5.64705882 L13.2352941,5.64705882 C12.9441176,5.64705882 12.7058824,5.88529412 12.7058824,6.17647059 L12.7058824,12.825 L9.69705882,9.81617647 C9.48970588,9.60882353 9.15441176,9.60882353 8.94705882,9.81617647 L8.69558824,10.0676471 C8.48823529,10.275 8.48823529,10.6102941 8.69558824,10.8176471 L13.0323529,15.1544118 C13.2397059,15.3617647 13.575,15.3617647 13.7823529,15.1544118 L18.1191176,10.8176471 C18.3264706,10.6102941 18.3264706,10.275 18.1191176,10.0676471 L17.8764706,9.81617647 L17.8764706,9.81617647 Z" id="Shape"></path>
                    </g>
                    <path d="M254.328,40.124 C253.936,39.312 253.292,38.528 252.564,37.968 C251.696,37.324 250.828,37.1 250.128,37.044 L250.128,34.58 L248.056,34.58 L248.056,37.072 C246.74,37.268 245.76,37.856 245.116,38.472 C244.248,39.312 243.688,40.572 243.688,42.084 C243.688,43.092 243.996,44.044 244.864,44.94 C245.508,45.584 246.656,46.284 247.496,46.648 L249.288,47.404 L249.692768,47.57984 C250.21424,47.80832 250.6712,48.0368 251.164,48.552 C251.752,49.168 251.976,49.784 251.976,50.596 C251.976,51.464 251.78,52.164 251.108,52.836 C250.464,53.508 249.792,53.732 248.896,53.732 C247.916,53.732 247.104,53.424 246.46,52.612 C246.012,52.024 245.676,51.156 245.676,50.232 L242.848,50.848 C242.96,52.136 243.408,53.368 244.416,54.488 C245.508,55.72 246.712,56.224 248.056,56.336 L248.056,59.08 L250.128,59.08 L250.128,56.252 C251.276,56.084 252.284,55.608 253.208,54.628 C254.412,53.34 254.832,51.912 254.832,50.372 C254.832,49.14 254.496,47.908 253.544,46.844 C252.676,45.864 251.472,45.304 250.436,44.884 L249.036,44.324 C248.532,44.128 247.664,43.708 247.272,43.372 C246.74,42.924 246.544,42.448 246.544,41.804 C246.544,41.244 246.656,40.824 247.104,40.376 C247.496,39.984 248.168,39.62 249.176,39.62 C249.96,39.62 250.632,39.816 251.192,40.292 C251.612,40.656 251.864,41.048 252.032,41.468 L254.328,40.124 Z M258.304,55.244 L260.544,56.644 L272.304,37.324 L258.416,37.324 L258.416,39.956 L267.6,39.956 L258.304,55.244 Z M275.916,55.104 L277.988,56.644 L283.831985,49.126305 C284.403008,48.3881653 284.926909,47.6661818 285.436,46.648 C286.024,45.5 286.332,44.436 286.332,43.092 C286.332,41.02 285.492,39.676 284.708,38.864 C283.924,38.052 282.44,37.016 279.892,37.016 C277.82,37.016 276.252,37.716 275.076,38.92 C273.956,40.068 273.228,41.72 273.228,43.596 C273.228,45.528 273.984,46.9 274.936,47.852 C275.692,48.608 277.092,49.588 279.304,49.588 C279.64,49.588 279.948,49.56 280.312,49.476 L275.916,55.104 Z M279.752,47.152 C278.716,47.152 277.736,46.704 277.12,46.116 C276.42,45.416 276.028,44.38 276.028,43.344 C276.028,42.196 276.504,41.216 277.12,40.6 C277.736,40.012 278.744,39.536 279.78,39.536 C280.732,39.536 281.74,39.928 282.44,40.6 C283.14,41.272 283.532,42.252 283.532,43.26 C283.532,44.24 283.14,45.304 282.44,46.032 C281.712,46.788 280.704,47.152 279.752,47.152 Z M300.248,53.368 L293.276,53.368 L296.774254,49.2324358 C297.617157,48.2321983 298.298182,47.3887273 298.848,46.564 C299.604,45.444 300.192,44.184 300.192,42.644 C300.192,39.732 298.148,37.016 294.172,37.016 C291.918,37.016 290.58975,37.9931806 289.891524,38.7399951 L289.804,38.836 C289.076,39.648 288.32,41.104 288.236,42.924 L290.98,42.924 C291.092,41.16 292.184,39.536 294.284,39.536 C296.356,39.536 297.392,40.992 297.392,42.56 C297.392,43.652 296.944,44.464 296.412,45.248 C295.796,46.144 294.816,47.376 294.172,48.16 L287.704,56 L300.248,56 L300.248,53.368 Z M304.504,54.656 C304.504,55.58 305.26,56.336 306.184,56.336 C307.108,56.336 307.864,55.58 307.864,54.656 C307.864,53.732 307.108,52.976 306.184,52.976 C305.26,52.976 304.504,53.732 304.504,54.656 Z M316.712,56 L319.568,56 L319.568,37.324 L315.032,37.324 L313.464,39.956 L316.712,39.956 L316.712,56 Z M326.68,56 L326.68,39.956 L323.432,39.956 L325,37.324 L329.536,37.324 L329.536,56 L326.68,56 Z" id="$792.11" fill="#2B2B2B" fill-rule="nonzero"></path>
                </g>
            </g>
        </g>
    </g>
</svg>