<?xml version="1.0" encoding="UTF-8"?>
<svg width="432px" height="96px" viewBox="0 0 432 96" version="1.1" xmlns="http://www.w3.org/2000/svg" xmlns:xlink="http://www.w3.org/1999/xlink">
    <!-- Generator: Sketch 59 (86127) - https://sketch.com -->
    <title>line 2</title>
    <desc>Created with Sketch.</desc>
    <g id="Page-1" stroke="none" stroke-width="1" fill="none" fill-rule="evenodd">
        <g id="Homepage" transform="translate(-232.000000, -3080.000000)">
            <g id="RG" transform="translate(184.000000, 2960.000000)">
                <g id="line-2" transform="translate(48.000000, 120.000000)">
                    <path d="M6,0.5 C2.96243388,0.5 0.5,2.96243388 0.5,6 L0.5,92 C0.5,93.9329966 2.06700338,95.5 4,95.5 L428,95.5 C429.932997,95.5 431.5,93.9329966 431.5,92 L431.5,6 C431.5,2.96243388 429.037566,0.5 426,0.5 L6,0.5 Z" id="Rectangle" stroke="#EBF0F2" fill="#FFFFFF"></path>
                    <path d="M16.3549805,28.140625 L16.3549805,32 L15.2758789,32 L15.2758789,22.7197266 L17.8212891,22.7197266 C18.9596411,22.7197266 19.8006972,22.9376606 20.3444824,23.3735352 C20.8882677,23.8094097 21.1601562,24.4653277 21.1601562,25.3413086 C21.1601562,26.5685283 20.5380922,27.3979471 19.2939453,27.8295898 L21.8139648,32 L20.5380859,32 L18.2910156,28.140625 L16.3549805,28.140625 Z M16.3549805,27.2138672 L17.8339844,27.2138672 C18.5957069,27.2138672 19.1542951,27.0625829 19.5097656,26.7600098 C19.8652362,26.4574366 20.0429688,26.0035838 20.0429688,25.3984375 C20.0429688,24.7848277 19.8620624,24.342612 19.5002441,24.0717773 C19.1384259,23.8009427 18.5576212,23.6655273 17.7578125,23.6655273 L16.3549805,23.6655273 L16.3549805,27.2138672 Z M26.0922852,32.1269531 C25.0639597,32.1269531 24.2525258,31.8138052 23.657959,31.1875 C23.0633922,30.5611948 22.7661133,29.6915746 22.7661133,28.5786133 C22.7661133,27.4571884 23.0422336,26.5664096 23.5944824,25.90625 C24.1467313,25.2460904 24.8883417,24.9160156 25.8193359,24.9160156 C26.6910851,24.9160156 27.3808568,25.2027152 27.8886719,25.776123 C28.3964869,26.3495309 28.6503906,27.1059523 28.6503906,28.0454102 L28.6503906,28.7119141 L23.8579102,28.7119141 C23.8790691,29.5286499 24.0853659,30.1485981 24.4768066,30.5717773 C24.8682474,30.9949565 25.41943,31.206543 26.1303711,31.206543 C26.8793983,31.206543 27.6199508,31.049969 28.3520508,30.7368164 L28.3520508,31.6762695 C27.9796531,31.8370776 27.6273617,31.9523922 27.295166,32.0222168 C26.9629703,32.0920414 26.5620141,32.1269531 26.0922852,32.1269531 Z M25.8066406,25.7983398 C25.2480441,25.7983398 24.8026547,25.9803042 24.470459,26.3442383 C24.1382633,26.7081724 23.9425459,27.2117481 23.8833008,27.8549805 L27.5205078,27.8549805 C27.5205078,27.1905891 27.3723973,26.6817238 27.0761719,26.3283691 C26.7799464,25.9750145 26.3567736,25.7983398 25.8066406,25.7983398 Z M33.684082,32.1269531 C33.2312803,32.1269531 32.8176288,32.0433765 32.4431152,31.8762207 C32.0686016,31.7090649 31.7543958,31.4519874 31.5004883,31.1049805 L31.4243164,31.1049805 C31.4750979,31.5112325 31.5004883,31.8963198 31.5004883,32.2602539 L31.5004883,35.1230469 L30.4467773,35.1230469 L30.4467773,25.0429688 L31.3037109,25.0429688 L31.449707,25.9951172 L31.5004883,25.9951172 C31.771323,25.6142559 32.0865867,25.3391936 32.4462891,25.1699219 C32.8059914,25.0006502 33.2185849,24.9160156 33.684082,24.9160156 C34.6066127,24.9160156 35.318601,25.2312794 35.8200684,25.8618164 C36.3215357,26.4923534 36.5722656,27.3767847 36.5722656,28.5151367 C36.5722656,29.6577206 36.317304,30.5453256 35.807373,31.1779785 C35.2974421,31.8106314 34.5896855,32.1269531 33.684082,32.1269531 Z M33.5317383,25.8110352 C32.8207972,25.8110352 32.3066422,26.0078105 31.9892578,26.4013672 C31.6718734,26.7949238 31.5089519,27.4212197 31.5004883,28.2802734 L31.5004883,28.5151367 C31.5004883,29.4926807 31.6634098,30.1919738 31.9892578,30.6130371 C32.3151058,31.0341004 32.8377243,31.2446289 33.5571289,31.2446289 C34.1580434,31.2446289 34.6288232,31.0013045 34.9694824,30.5146484 C35.3101417,30.0279924 35.4804688,29.3572634 35.4804688,28.5024414 C35.4804688,27.634924 35.3101417,26.9694847 34.9694824,26.5061035 C34.6288232,26.0427223 34.1495799,25.8110352 33.5317383,25.8110352 Z M44.4179688,28.5151367 C44.4179688,29.649257 44.1323271,30.5347462 43.5610352,31.1716309 C42.9897432,31.8085156 42.2005259,32.1269531 41.1933594,32.1269531 C40.571286,32.1269531 40.0190454,31.9809585 39.5366211,31.6889648 C39.0541968,31.3969712 38.6818047,30.9780301 38.4194336,30.4321289 C38.1570625,29.8862277 38.0258789,29.2472367 38.0258789,28.5151367 C38.0258789,27.3810165 38.3094047,26.4976431 38.8764648,25.8649902 C39.443525,25.2323373 40.2306265,24.9160156 41.237793,24.9160156 C42.2111051,24.9160156 42.9844535,25.2397429 43.5578613,25.887207 C44.1312691,26.5346712 44.4179688,27.410639 44.4179688,28.5151367 Z M39.1176758,28.5151367 C39.1176758,29.403813 39.2954084,30.0808896 39.6508789,30.5463867 C40.0063494,31.0118838 40.5289679,31.2446289 41.21875,31.2446289 C41.9085321,31.2446289 42.4322085,31.0129418 42.7897949,30.5495605 C43.1473813,30.0861793 43.3261719,29.4080448 43.3261719,28.5151367 C43.3261719,27.6306922 43.1473813,26.9589053 42.7897949,26.4997559 C42.4322085,26.0406064 41.9043004,25.8110352 41.2060547,25.8110352 C40.5162726,25.8110352 39.99577,26.0374326 39.6445312,26.4902344 C39.2932925,26.9430361 39.1176758,27.6179968 39.1176758,28.5151367 Z M49.4389648,24.9160156 C49.7478857,24.9160156 50.0250639,24.941406 50.2705078,24.9921875 L50.1245117,25.9697266 C49.8367499,25.9062497 49.5828462,25.8745117 49.362793,25.8745117 C48.7999646,25.8745117 48.3186055,26.1030251 47.9187012,26.5600586 C47.5187968,27.0170921 47.3188477,27.5862596 47.3188477,28.2675781 L47.3188477,32 L46.2651367,32 L46.2651367,25.0429688 L47.1347656,25.0429688 L47.2553711,26.331543 L47.3061523,26.331543 C47.5642917,25.8787412 47.8753237,25.5296236 48.2392578,25.2841797 C48.6031919,25.0387358 49.0030903,24.9160156 49.4389648,24.9160156 Z M53.8188477,31.2573242 C54.0050465,31.2573242 54.184895,31.2435711 54.3583984,31.2160645 L54.5916749,31.1740112 C54.660441,31.159729 54.7202146,31.1451824 54.7709961,31.1303711 L54.7709961,31.9365234 C54.6567377,31.9915367 54.4885265,32.0370278 54.2663574,32.072998 C54.0441883,32.1089683 53.8442392,32.1269531 53.6665039,32.1269531 C52.3207941,32.1269531 51.6479492,31.4181386 51.6479492,30.0004883 L51.6479492,25.8618164 L50.6513672,25.8618164 L50.6513672,25.3540039 L51.6479492,24.9160156 L52.0922852,23.4306641 L52.7016602,23.4306641 L52.7016602,25.0429688 L54.7202148,25.0429688 L54.7202148,25.8618164 L52.7016602,25.8618164 L52.7016602,29.9560547 C52.7016602,30.3750021 52.8011058,30.6966135 53,30.9208984 C53.1988942,31.1451834 53.4718407,31.2573242 53.8188477,31.2573242 Z M67.1044922,27.2709961 C67.1044922,28.8029048 66.6887249,29.9740357 65.8571777,30.7844238 C65.0256306,31.594812 63.8291094,32 62.2675781,32 L59.6967773,32 L59.6967773,22.7197266 L62.5405273,22.7197266 C63.9835684,22.7197266 65.1049765,23.1196249 65.9047852,23.9194336 C66.7045938,24.7192423 67.1044922,25.8364186 67.1044922,27.2709961 Z M65.9619141,27.309082 C65.9619141,26.0987895 65.6582875,25.186852 65.0510254,24.5732422 C64.4437632,23.9596323 63.5413471,23.652832 62.34375,23.652832 L60.7758789,23.652832 L60.7758789,31.0668945 L62.0898438,31.0668945 C63.3763085,31.0668945 64.3432585,30.7505728 64.9907227,30.1179199 C65.6381868,29.485267 65.9619141,28.5489971 65.9619141,27.309082 Z M73.293457,32 L73.0839844,31.0097656 L73.0332031,31.0097656 C72.6861962,31.4456402 72.3402524,31.7408033 71.9953613,31.8952637 C71.6504703,32.0497241 71.2198919,32.1269531 70.7036133,32.1269531 C70.0138312,32.1269531 69.4732279,31.9492205 69.0817871,31.59375 C68.6903464,31.2382795 68.4946289,30.7325879 68.4946289,30.0766602 C68.4946289,28.6717052 69.6181528,27.9353845 71.8652344,27.8676758 L73.0458984,27.8295898 L73.0458984,27.3979492 C73.0458984,26.8520481 72.928468,26.4489759 72.6936035,26.1887207 C72.4587391,25.9284655 72.0831732,25.7983398 71.5668945,25.7983398 C70.987139,25.7983398 70.3312211,25.9760724 69.5991211,26.331543 L69.2753906,25.5253906 C69.6181658,25.3391918 69.9937317,25.1931971 70.4020996,25.0874023 C70.8104675,24.9816075 71.2198873,24.9287109 71.6303711,24.9287109 C72.4598023,24.9287109 73.0744609,25.1127911 73.4743652,25.480957 C73.8742696,25.8491229 74.0742188,26.4394491 74.0742188,27.2519531 L74.0742188,32 L73.293457,32 Z M70.9130859,31.2573242 C71.5690137,31.2573242 72.0842266,31.0774758 72.4587402,30.7177734 C72.8332538,30.3580711 73.0205078,29.8544954 73.0205078,29.2070312 L73.0205078,28.5786133 L71.9667969,28.6230469 C71.1289021,28.6526694 70.5248228,28.7827951 70.154541,29.0134277 C69.7842592,29.2440604 69.5991211,29.6026994 69.5991211,30.0893555 C69.5991211,30.4702167 69.7144357,30.7600902 69.9450684,30.9589844 C70.175701,31.1578786 70.4983703,31.2573242 70.9130859,31.2573242 Z M78.4921875,31.2573242 C78.6783863,31.2573242 78.8582348,31.2435711 79.0317383,31.2160645 L79.2650148,31.1740112 C79.3337809,31.159729 79.3935544,31.1451824 79.4443359,31.1303711 L79.4443359,31.9365234 C79.3300776,31.9915367 79.1618663,32.0370278 78.9396973,32.072998 C78.7175282,32.1089683 78.517579,32.1269531 78.3398438,32.1269531 C76.9941339,32.1269531 76.3212891,31.4181386 76.3212891,30.0004883 L76.3212891,25.8618164 L75.324707,25.8618164 L75.324707,25.3540039 L76.3212891,24.9160156 L76.765625,23.4306641 L77.375,23.4306641 L77.375,25.0429688 L79.3935547,25.0429688 L79.3935547,25.8618164 L77.375,25.8618164 L77.375,29.9560547 C77.375,30.3750021 77.4744456,30.6966135 77.6733398,30.9208984 C77.8722341,31.1451834 78.1451806,31.2573242 78.4921875,31.2573242 Z M83.7734375,32.1269531 C82.745112,32.1269531 81.9336781,31.8138052 81.3391113,31.1875 C80.7445446,30.5611948 80.4472656,29.6915746 80.4472656,28.5786133 C80.4472656,27.4571884 80.7233859,26.5664096 81.2756348,25.90625 C81.8278836,25.2460904 82.569494,24.9160156 83.5004883,24.9160156 C84.3722374,24.9160156 85.0620092,25.2027152 85.5698242,25.776123 C86.0776393,26.3495309 86.331543,27.1059523 86.331543,28.0454102 L86.331543,28.7119141 L81.5390625,28.7119141 C81.5602215,29.5286499 81.7665182,30.1485981 82.157959,30.5717773 C82.5493997,30.9949565 83.1005824,31.206543 83.8115234,31.206543 C84.5605506,31.206543 85.3011031,31.049969 86.0332031,30.7368164 L86.0332031,31.6762695 C85.6608054,31.8370776 85.308514,31.9523922 84.9763184,32.0222168 C84.6441227,32.0920414 84.2431664,32.1269531 83.7734375,32.1269531 Z" id="ReportDate" fill="#9E9E9E" fill-rule="nonzero"></path>
                    <g id="Jan-16,-2018-—-Jul-1" transform="translate(12.984375, 46.123047)" fill-rule="nonzero">
                        <path d="M0.939453125,12.3208008 C0.541664678,12.3208008 0.228516768,12.2636724 0,12.1494141 L0,11.2290039 C0.300457231,11.3136397 0.613605142,11.355957 0.939453125,11.355957 C1.35840053,11.355957 1.6768381,11.2290052 1.89477539,10.9750977 C2.11271268,10.7211901 2.22167969,10.3551456 2.22167969,9.87695312 L2.22167969,0.596679688 L3.30078125,0.596679688 L3.30078125,9.78808594 C3.30078125,10.5921264 3.09765828,11.2152484 2.69140625,11.6574707 C2.28515422,12.099693 1.70117568,12.3208008 0.939453125,12.3208008 Z M9.88330078,9.87695312 L9.67382812,8.88671875 L9.62304688,8.88671875 C9.27603993,9.32259333 8.93009613,9.61775639 8.58520508,9.7722168 C8.24031403,9.9266772 7.80973565,10.0039062 7.29345703,10.0039062 C6.60367494,10.0039062 6.06307162,9.82617365 5.67163086,9.47070312 C5.2801901,9.1152326 5.08447266,8.60954104 5.08447266,7.95361328 C5.08447266,6.54865834 6.20799658,5.81233758 8.45507812,5.74462891 L9.63574219,5.70654297 L9.63574219,5.27490234 C9.63574219,4.72900118 9.51831172,4.32592904 9.28344727,4.06567383 C9.04858281,3.80541862 8.6730169,3.67529297 8.15673828,3.67529297 C7.57698278,3.67529297 6.92106486,3.85302557 6.18896484,4.20849609 L5.86523438,3.40234375 C6.20800953,3.2161449 6.58357543,3.07015027 6.99194336,2.96435547 C7.40031129,2.85856067 7.80973102,2.80566406 8.22021484,2.80566406 C9.04964607,2.80566406 9.66430464,2.98974425 10.064209,3.35791016 C10.4641133,3.72607606 10.6640625,4.31640219 10.6640625,5.12890625 L10.6640625,9.87695312 L9.88330078,9.87695312 Z M7.50292969,9.13427734 C8.15885745,9.13427734 8.67407039,8.95442888 9.04858398,8.59472656 C9.42309758,8.23502424 9.61035156,7.73144855 9.61035156,7.08398438 L9.61035156,6.45556641 L8.55664062,6.5 C7.71874581,6.52962254 7.11466656,6.6597482 6.74438477,6.89038086 C6.37410297,7.12101352 6.18896484,7.47965251 6.18896484,7.96630859 C6.18896484,8.34716987 6.30427945,8.63704328 6.53491211,8.8359375 C6.76554477,9.03483172 7.08821407,9.13427734 7.50292969,9.13427734 Z M17.5957031,9.87695312 L17.5957031,5.37646484 C17.5957031,4.80940472 17.4666354,4.38623187 17.2084961,4.10693359 C16.9503568,3.82763532 16.5462267,3.68798828 15.9960938,3.68798828 C15.2682255,3.68798828 14.7350277,3.88476366 14.3964844,4.27832031 C14.057941,4.67187697 13.8886719,5.32144729 13.8886719,6.22705078 L13.8886719,9.87695312 L12.8349609,9.87695312 L12.8349609,2.91992188 L13.6918945,2.91992188 L13.8632812,3.87207031 L13.9140625,3.87207031 C14.1298839,3.52929516 14.4324525,3.2637542 14.8217773,3.07543945 C15.2111022,2.88712471 15.6448544,2.79296875 16.1230469,2.79296875 C16.9609417,2.79296875 17.5914692,2.99503379 18.0146484,3.39916992 C18.4378276,3.80330606 18.6494141,4.44970259 18.6494141,5.33837891 L18.6494141,9.87695312 L17.5957031,9.87695312 Z M27.6123047,9.87695312 L26.5839844,9.87695312 L26.5839844,3.26269531 C26.5839844,2.71256235 26.6009113,2.19205975 26.6347656,1.70117188 L26.4429255,1.88454849 L26.4429255,1.88454849 L26.2714258,2.03621526 C26.0851156,2.19342979 25.6032048,2.58744259 24.8256836,3.21826172 L24.2670898,2.49462891 L26.7236328,0.596679688 L27.6123047,0.596679688 L27.6123047,9.87695312 Z M31.2495117,5.90966797 C31.2495117,4.08576562 31.603919,2.72209111 32.3127441,1.81860352 C33.0215693,0.915115925 34.06998,0.463378906 35.4580078,0.463378906 C35.9362003,0.463378906 36.3128241,0.503580327 36.5878906,0.583984375 L36.5878906,1.49169922 C36.2620426,1.38590442 35.8896505,1.33300781 35.4707031,1.33300781 C34.476232,1.33300781 33.7166367,1.64298193 33.1918945,2.26293945 C32.6671523,2.88289698 32.3793948,3.85725247 32.3286133,5.18603516 L32.4047852,5.18603516 C32.8702823,4.45816693 33.606603,4.09423828 34.6137695,4.09423828 C35.4474326,4.09423828 36.1044084,4.34602613 36.5847168,4.84960938 C37.0650252,5.35319262 37.3051758,6.03661678 37.3051758,6.89990234 C37.3051758,7.86475092 37.0417507,8.62328825 36.5148926,9.17553711 C35.9880345,9.72778596 35.2760462,10.0039062 34.3789062,10.0039062 C33.4182895,10.0039062 32.6565783,9.64315139 32.09375,8.92163086 C31.5309217,8.20011032 31.2495117,7.19613273 31.2495117,5.90966797 Z M34.3662109,9.10888672 C34.9671254,9.10888672 35.4336735,8.91951687 35.7658691,8.54077148 C36.0980648,8.1620261 36.2641602,7.61507519 36.2641602,6.89990234 C36.2641602,6.2862925 36.1097021,5.80387545 35.8007812,5.45263672 C35.4918604,5.10139798 35.030602,4.92578125 34.4169922,4.92578125 C34.0361309,4.92578125 33.6870133,5.00406823 33.3696289,5.16064453 C33.0522445,5.31722083 32.7993987,5.53303899 32.611084,5.80810547 C32.4227692,6.08317195 32.3286133,6.36881362 32.3286133,6.66503906 C32.3286133,7.10091364 32.4132479,7.50715958 32.5825195,7.88378906 C32.7517912,8.26041855 32.9919418,8.55875541 33.3029785,8.77880859 C33.6140152,8.99886178 33.9684225,9.10888672 34.3662109,9.10888672 Z M40.1616211,8.36621094 L40.2568359,8.51220703 C40.1468093,8.93538623 39.9881195,9.42732467 39.7807617,9.98803711 C39.5734039,10.5487495 39.3575858,11.0703101 39.1333008,11.5527344 L38.3398438,11.5527344 L38.4579808,11.0780705 C38.4986527,10.9083298 38.5406177,10.7270696 38.5838757,10.5342891 L38.7175293,9.92138672 C38.8550625,9.27392254 38.9513344,8.7555358 39.0063477,8.36621094 L40.1616211,8.36621094 Z M51.2382812,9.87695312 L45.1381836,9.87695312 L45.1381836,8.96923828 L47.5820312,6.51269531 C48.3268266,5.75943634 48.8177071,5.22200682 49.0546875,4.90039062 C49.2916679,4.57877443 49.4694004,4.26562652 49.5878906,3.9609375 C49.7063808,3.65624848 49.765625,3.32828952 49.765625,2.97705078 C49.765625,2.48193112 49.6153986,2.0894383 49.3149414,1.79956055 C49.0144842,1.5096828 48.5976589,1.36474609 48.0644531,1.36474609 C47.6793601,1.36474609 47.3143735,1.42822202 46.9694824,1.55517578 C46.6245914,1.68212954 46.240562,1.91275875 45.8173828,2.24707031 L45.2587891,1.52978516 C46.113611,0.818844102 47.0445913,0.463378906 48.0517578,0.463378906 C48.923507,0.463378906 49.6069311,0.686602585 50.1020508,1.13305664 C50.5971704,1.5795107 50.8447266,2.17935821 50.8447266,2.93261719 C50.8447266,3.52083627 50.6796892,4.10269895 50.3496094,4.67822266 C50.0195296,5.25374637 49.4016972,5.98160367 48.4960938,6.86181641 L46.4648438,8.84863281 L46.4648438,8.89941406 L51.2382812,8.89941406 L51.2382812,9.87695312 Z M58.722168,5.22412109 C58.722168,6.82797026 58.4693222,8.02554943 57.963623,8.81689453 C57.4579239,9.60823963 56.6845755,10.0039062 55.6435547,10.0039062 C54.6448518,10.0039062 53.8852565,9.59871824 53.3647461,8.78833008 C52.8442357,7.97794191 52.5839844,6.78988413 52.5839844,5.22412109 C52.5839844,3.60757655 52.8357722,2.40788152 53.3393555,1.625 C53.8429387,0.842118481 54.6109974,0.450683594 55.6435547,0.450683594 C56.6507212,0.450683594 57.4156061,0.859045396 57.9382324,1.67578125 C58.4608587,2.4925171 58.722168,3.67528522 58.722168,5.22412109 Z M53.6503906,5.22412109 C53.6503906,6.57406274 53.8090804,7.55688169 54.1264648,8.17260742 C54.4438492,8.78833316 54.9495408,9.09619141 55.6435547,9.09619141 C56.3460322,9.09619141 56.8548975,8.78410143 57.170166,8.15991211 C57.4854345,7.53572279 57.6430664,6.55713557 57.6430664,5.22412109 C57.6430664,3.89110662 57.4854345,2.91463526 57.170166,2.29467773 C56.8548975,1.67472021 56.3460322,1.36474609 55.6435547,1.36474609 C54.9495408,1.36474609 54.4438492,1.67048848 54.1264648,2.28198242 C53.8090804,2.89347636 53.6503906,3.87417945 53.6503906,5.22412109 Z M63.9082031,9.87695312 L62.8798828,9.87695312 L62.8798828,3.26269531 C62.8798828,2.71256235 62.8968097,2.19205975 62.9306641,1.70117188 L62.7388239,1.88454849 L62.7388239,1.88454849 L62.5673243,2.03621526 C62.3810141,2.19342979 61.8991033,2.58744259 61.121582,3.21826172 L60.5629883,2.49462891 L63.0195312,0.596679688 L63.9082031,0.596679688 L63.9082031,9.87695312 Z M70.5097656,0.463378906 C71.356124,0.463378906 72.026853,0.660154282 72.5219727,1.05371094 C73.0170923,1.44726759 73.2646484,1.99104471 73.2646484,2.68505859 C73.2646484,3.14209213 73.1228855,3.55891739 72.8393555,3.93554688 C72.5558254,4.31217636 72.1030305,4.65494637 71.480957,4.96386719 C72.234216,5.32356951 72.7695297,5.70125128 73.0869141,6.09692383 C73.4042985,6.49259638 73.5629883,6.95068099 73.5629883,7.47119141 C73.5629883,8.24137755 73.2942735,8.85603612 72.7568359,9.31518555 C72.2193984,9.77433498 71.4830776,10.0039062 70.5478516,10.0039062 C69.5576122,10.0039062 68.7959011,9.78703016 68.2626953,9.35327148 C67.7294895,8.91951281 67.4628906,8.30485424 67.4628906,7.50927734 C67.4628906,6.44709755 68.1103451,5.61979463 69.4052734,5.02734375 C68.8212861,4.69726397 68.402345,4.34074085 68.1484375,3.95776367 C67.89453,3.5747865 67.7675781,3.14632398 67.7675781,2.67236328 C67.7675781,1.99950835 68.0161922,1.46313677 68.5134277,1.06323242 C69.0106633,0.663328079 69.6761026,0.463378906 70.5097656,0.463378906 Z M68.5039062,7.53466797 C68.5039062,8.04248301 68.6805809,8.43814962 69.0339355,8.72167969 C69.3872902,9.00520975 69.8834603,9.14697266 70.5224609,9.14697266 C71.1529979,9.14697266 71.6438785,8.99886216 71.9951172,8.70263672 C72.3463559,8.40641128 72.5219727,8.00016534 72.5219727,7.48388672 C72.5219727,7.0734029 72.3569352,6.70841631 72.0268555,6.38891602 C71.6967757,6.06941572 71.1212606,5.75944161 70.300293,5.45898438 C69.669756,5.72981906 69.2127293,6.02921385 68.9291992,6.35717773 C68.6456692,6.68514161 68.5039062,7.07763443 68.5039062,7.53466797 Z M70.4970703,1.3203125 C69.9680963,1.3203125 69.5533869,1.44726436 69.2529297,1.70117188 C68.9524725,1.95507939 68.8022461,2.29361768 68.8022461,2.71679688 C68.8022461,3.10612174 68.9270821,3.44042829 69.1767578,3.71972656 C69.4264335,3.99902483 69.8876919,4.27831892 70.5605469,4.55761719 C71.1656931,4.30370967 71.5941556,4.03076318 71.8459473,3.73876953 C72.0977389,3.44677588 72.2236328,3.10612174 72.2236328,2.71679688 C72.2236328,2.28938588 72.0702327,1.94978967 71.7634277,1.69799805 C71.4566228,1.44620642 71.0345079,1.3203125 70.4970703,1.3203125 Z M78.1333008,6.87451172 L78.1333008,5.90966797 L90.0922852,5.90966797 L90.0922852,6.87451172 L78.1333008,6.87451172 Z M93.9135742,12.3208008 C93.5157858,12.3208008 93.2026379,12.2636724 92.9741211,12.1494141 L92.9741211,11.2290039 C93.2745783,11.3136397 93.5877262,11.355957 93.9135742,11.355957 C94.3325216,11.355957 94.6509592,11.2290052 94.8688965,10.9750977 C95.0868338,10.7211901 95.1958008,10.3551456 95.1958008,9.87695312 L95.1958008,0.596679688 L96.2749023,0.596679688 L96.2749023,9.78808594 C96.2749023,10.5921264 96.0717794,11.2152484 95.6655273,11.6574707 C95.2592753,12.099693 94.6752968,12.3208008 93.9135742,12.3208008 Z M99.5693359,2.91992188 L99.5693359,7.43310547 C99.5693359,8.0001656 99.6984037,8.42333845 99.956543,8.70263672 C100.214682,8.98193499 100.618812,9.12158203 101.168945,9.12158203 C101.896814,9.12158203 102.428953,8.92269079 102.765381,8.52490234 C103.101808,8.1271139 103.27002,7.47754357 103.27002,6.57617188 L103.27002,2.91992188 L104.32373,2.91992188 L104.32373,9.87695312 L103.454102,9.87695312 L103.301758,8.94384766 L103.244629,8.94384766 C103.028808,9.28662281 102.729413,9.54898998 102.346436,9.73095703 C101.963458,9.91292409 101.526532,10.0039062 101.035645,10.0039062 C100.189286,10.0039062 99.5555848,9.80289915 99.1345215,9.40087891 C98.7134582,8.99885867 98.5029297,8.35563593 98.5029297,7.47119141 L98.5029297,2.91992188 L99.5693359,2.91992188 Z M107.611816,9.87695312 L106.558105,9.87695312 L106.558105,0 L107.611816,0 L107.611816,9.87695312 Z M116.644531,9.87695312 L115.616211,9.87695312 L115.616211,3.26269531 C115.616211,2.71256235 115.633138,2.19205975 115.666992,1.70117188 L115.475152,1.88454849 L115.475152,1.88454849 L115.303652,2.03621526 C115.117342,2.19342979 114.635431,2.58744259 113.85791,3.21826172 L113.299316,2.49462891 L115.755859,0.596679688 L116.644531,0.596679688 L116.644531,9.87695312 Z M120.281738,5.90966797 C120.281738,4.08576562 120.636146,2.72209111 121.344971,1.81860352 C122.053796,0.915115925 123.102207,0.463378906 124.490234,0.463378906 C124.968427,0.463378906 125.345051,0.503580327 125.620117,0.583984375 L125.620117,1.49169922 C125.294269,1.38590442 124.921877,1.33300781 124.50293,1.33300781 C123.508459,1.33300781 122.748863,1.64298193 122.224121,2.26293945 C121.699379,2.88289698 121.411621,3.85725247 121.36084,5.18603516 L121.437012,5.18603516 C121.902509,4.45816693 122.63883,4.09423828 123.645996,4.09423828 C124.479659,4.09423828 125.136635,4.34602613 125.616943,4.84960938 C126.097252,5.35319262 126.337402,6.03661678 126.337402,6.89990234 C126.337402,7.86475092 126.073977,8.62328825 125.547119,9.17553711 C125.020261,9.72778596 124.308273,10.0039062 123.411133,10.0039062 C122.450516,10.0039062 121.688805,9.64315139 121.125977,8.92163086 C120.563148,8.20011032 120.281738,7.19613273 120.281738,5.90966797 Z M123.398438,9.10888672 C123.999352,9.10888672 124.4659,8.91951687 124.798096,8.54077148 C125.130291,8.1620261 125.296387,7.61507519 125.296387,6.89990234 C125.296387,6.2862925 125.141929,5.80387545 124.833008,5.45263672 C124.524087,5.10139798 124.062829,4.92578125 123.449219,4.92578125 C123.068357,4.92578125 122.71924,5.00406823 122.401855,5.16064453 C122.084471,5.31722083 121.831625,5.53303899 121.643311,5.80810547 C121.454996,6.08317195 121.36084,6.36881362 121.36084,6.66503906 C121.36084,7.10091364 121.445474,7.50715958 121.614746,7.88378906 C121.784018,8.26041855 122.024168,8.55875541 122.335205,8.77880859 C122.646242,8.99886178 123.000649,9.10888672 123.398438,9.10888672 Z M129.193848,8.36621094 L129.289062,8.51220703 C129.179036,8.93538623 129.020346,9.42732467 128.812988,9.98803711 C128.60563,10.5487495 128.389812,11.0703101 128.165527,11.5527344 L127.37207,11.5527344 L127.490207,11.0780705 C127.571551,10.7385891 127.658067,10.3530295 127.749756,9.92138672 L127.903849,9.16005585 C127.96223,8.85329629 128.007138,8.58868229 128.038574,8.36621094 L129.193848,8.36621094 Z M140.270508,9.87695312 L134.17041,9.87695312 L134.17041,8.96923828 L136.614258,6.51269531 C137.359053,5.75943634 137.849934,5.22200682 138.086914,4.90039062 C138.323894,4.57877443 138.501627,4.26562652 138.620117,3.9609375 C138.738607,3.65624848 138.797852,3.32828952 138.797852,2.97705078 C138.797852,2.48193112 138.647625,2.0894383 138.347168,1.79956055 C138.046711,1.5096828 137.629885,1.36474609 137.09668,1.36474609 C136.711587,1.36474609 136.3466,1.42822202 136.001709,1.55517578 C135.656818,1.68212954 135.272789,1.91275875 134.849609,2.24707031 L134.291016,1.52978516 C135.145838,0.818844102 136.076818,0.463378906 137.083984,0.463378906 C137.955734,0.463378906 138.639158,0.686602585 139.134277,1.13305664 C139.629397,1.5795107 139.876953,2.17935821 139.876953,2.93261719 C139.876953,3.52083627 139.711916,4.10269895 139.381836,4.67822266 C139.079263,5.20578606 138.534898,5.86135199 137.748726,6.64493728 L135.49707,8.84863281 L135.49707,8.89941406 L140.270508,8.89941406 L140.270508,9.87695312 Z M147.754395,5.22412109 C147.754395,6.82797026 147.501549,8.02554943 146.99585,8.81689453 C146.49015,9.60823963 145.716802,10.0039062 144.675781,10.0039062 C143.677078,10.0039062 142.917483,9.59871824 142.396973,8.78833008 C141.876462,7.97794191 141.616211,6.78988413 141.616211,5.22412109 C141.616211,3.60757655 141.867999,2.40788152 142.371582,1.625 C142.875165,0.842118481 143.643224,0.450683594 144.675781,0.450683594 C145.682948,0.450683594 146.447833,0.859045396 146.970459,1.67578125 C147.493085,2.4925171 147.754395,3.67528522 147.754395,5.22412109 Z M142.682617,5.22412109 C142.682617,6.57406274 142.841307,7.55688169 143.158691,8.17260742 C143.476076,8.78833316 143.981767,9.09619141 144.675781,9.09619141 C145.378259,9.09619141 145.887124,8.78410143 146.202393,8.15991211 C146.517661,7.53572279 146.675293,6.55713557 146.675293,5.22412109 C146.675293,3.89110662 146.517661,2.91463526 146.202393,2.29467773 C145.887124,1.67472021 145.378259,1.36474609 144.675781,1.36474609 C143.981767,1.36474609 143.476076,1.67048848 143.158691,2.28198242 C142.841307,2.89347636 142.682617,3.87417945 142.682617,5.22412109 Z M152.94043,9.87695312 L151.912109,9.87695312 L151.912109,3.26269531 C151.912109,2.71256235 151.929036,2.19205975 151.962891,1.70117188 L151.77105,1.88454849 L151.77105,1.88454849 L151.599551,2.03621526 C151.413241,2.19342979 150.93133,2.58744259 150.153809,3.21826172 L149.595215,2.49462891 L152.051758,0.596679688 L152.94043,0.596679688 L152.94043,9.87695312 Z M162.569824,4.55761719 C162.569824,8.18849472 161.16489,10.0039062 158.35498,10.0039062 C157.864093,10.0039062 157.474774,9.96158896 157.187012,9.87695312 L157.187012,8.96923828 C157.525555,9.07926487 157.910642,9.13427734 158.342285,9.13427734 C159.357915,9.13427734 160.124916,8.8200715 160.643311,8.19165039 C161.161705,7.56322928 161.444173,6.59945311 161.490723,5.30029297 L161.414551,5.30029297 C161.181802,5.6515317 160.872886,5.91918853 160.487793,6.10327148 C160.1027,6.28735444 159.668948,6.37939453 159.186523,6.37939453 C158.365556,6.37939453 157.71387,6.13395428 157.231445,5.64306641 C156.749021,5.15217854 156.507812,4.46663852 156.507812,3.58642578 C156.507812,2.62157721 156.777585,1.85986607 157.317139,1.30126953 C157.856692,0.742672988 158.566565,0.463378906 159.446777,0.463378906 C160.077314,0.463378906 160.628497,0.625242522 161.100342,0.948974609 C161.572187,1.2727067 161.935057,1.74454443 162.188965,2.36450195 C162.442872,2.98445948 162.569824,3.71549058 162.569824,4.55761719 Z" id="Jan16,2018—Jul16,2019" fill="#525252"></path>
                        <path d="M8.36328125,21.8754883 C8.36328125,23.1717187 8.01147813,24.1626756 7.30786133,24.8483887 C6.60424453,25.5341017 5.59180348,25.8769531 4.27050781,25.8769531 L2.09521484,25.8769531 L2.09521484,18.0244141 L4.50146484,18.0244141 C5.72249959,18.0244141 6.67138333,18.3627896 7.34814453,19.0395508 C8.02490573,19.716312 8.36328125,20.661615 8.36328125,21.8754883 Z M7.39648438,21.9077148 C7.39648438,20.8836212 7.13956963,20.1119818 6.62573242,19.5927734 C6.11189522,19.0735651 5.34831236,18.8139648 4.33496094,18.8139648 L3.00830078,18.8139648 L3.00830078,25.0874023 L4.12011719,25.0874023 C5.2086643,25.0874023 6.02685273,24.8197455 6.57470703,24.2844238 C7.12256133,23.7491021 7.39648438,22.9568737 7.39648438,21.9077148 Z M13.6000977,25.8769531 L13.4228516,25.0390625 L13.3798828,25.0390625 C13.0862616,25.4078794 12.7935399,25.6576328 12.501709,25.7883301 C12.2098781,25.9190273 11.8455425,25.984375 11.4086914,25.984375 C10.8250296,25.984375 10.3675961,25.8339859 10.036377,25.5332031 C9.70515785,25.2324204 9.53955078,24.8045275 9.53955078,24.2495117 C9.53955078,23.0607037 10.4902249,22.437663 12.3916016,22.3803711 L13.390625,22.3481445 L13.390625,21.9829102 C13.390625,21.5209938 13.2912608,21.1799327 13.0925293,20.9597168 C12.8937978,20.7395009 12.5760113,20.6293945 12.1391602,20.6293945 C11.6485978,20.6293945 11.0935903,20.7797837 10.4741211,21.0805664 L10.2001953,20.3984375 C10.4902358,20.2408846 10.8080224,20.1173507 11.1535645,20.027832 C11.4991065,19.9383134 11.8455386,19.8935547 12.1928711,19.8935547 C12.8946975,19.8935547 13.4147932,20.0493148 13.7531738,20.3608398 C14.0915544,20.6723648 14.2607422,21.1718716 14.2607422,21.859375 L14.2607422,25.8769531 L13.6000977,25.8769531 Z M11.5859375,25.2485352 C12.1409533,25.2485352 12.5769027,25.0963557 12.8937988,24.7919922 C13.2106949,24.4876287 13.3691406,24.0615262 13.3691406,23.5136719 L13.3691406,22.9819336 L12.4775391,23.0195312 C11.7685511,23.0445965 11.2574072,23.1547028 10.9440918,23.3498535 C10.6307764,23.5450042 10.4741211,23.848468 10.4741211,24.2602539 C10.4741211,24.5825211 10.571695,24.8277986 10.7668457,24.9960938 C10.9619964,25.1643889 11.2350243,25.2485352 11.5859375,25.2485352 Z M23.6010742,25.8769531 L23.6010742,22.0473633 C23.6010742,21.5782854 23.5008148,21.2264823 23.300293,20.9919434 C23.0997711,20.7574044 22.7882508,20.6401367 22.3657227,20.6401367 C21.8107069,20.6401367 21.4007175,20.7994776 21.1357422,21.1181641 C20.8707669,21.4368506 20.7382812,21.9274055 20.7382812,22.5898438 L20.7382812,25.8769531 L19.8466797,25.8769531 L19.8466797,22.0473633 C19.8466797,21.5782854 19.7464203,21.2264823 19.5458984,20.9919434 C19.3453766,20.7574044 19.0320659,20.6401367 18.605957,20.6401367 C18.0473605,20.6401367 17.6382663,20.8075341 17.3786621,21.142334 C17.1190579,21.4771338 16.9892578,22.0258751 16.9892578,22.7885742 L16.9892578,25.8769531 L16.0976562,25.8769531 L16.0976562,19.9902344 L16.8227539,19.9902344 L16.9677734,20.7958984 L17.0107422,20.7958984 C17.1790373,20.5094387 17.4162582,20.2856453 17.7224121,20.1245117 C18.028566,19.9633781 18.3714174,19.8828125 18.7509766,19.8828125 C19.6712286,19.8828125 20.272785,20.215817 20.5556641,20.8818359 L20.5986328,20.8818359 C20.7740894,20.5738917 21.0283186,20.3304045 21.3613281,20.1513672 C21.6943376,19.9723298 22.0738911,19.8828125 22.5,19.8828125 C23.166019,19.8828125 23.6646305,20.0537906 23.9958496,20.395752 C24.3270687,20.7377133 24.4926758,21.2846642 24.4926758,22.0366211 L24.4926758,25.8769531 L23.6010742,25.8769531 Z M29.949707,25.8769531 L29.7724609,25.0390625 L29.7294922,25.0390625 C29.4358709,25.4078794 29.1431492,25.6576328 28.8513184,25.7883301 C28.5594875,25.9190273 28.1951519,25.984375 27.7583008,25.984375 C27.174639,25.984375 26.7172054,25.8339859 26.3859863,25.5332031 C26.0547672,25.2324204 25.8891602,24.8045275 25.8891602,24.2495117 C25.8891602,23.0607037 26.8398342,22.437663 28.7412109,22.3803711 L29.7402344,22.3481445 L29.7402344,21.9829102 C29.7402344,21.5209938 29.6408701,21.1799327 29.4421387,20.9597168 C29.2434072,20.7395009 28.9256207,20.6293945 28.4887695,20.6293945 C27.9982072,20.6293945 27.4431997,20.7797837 26.8237305,21.0805664 L26.5498047,20.3984375 C26.8398452,20.2408846 27.1576317,20.1173507 27.5031738,20.027832 C27.8487159,19.9383134 28.195148,19.8935547 28.5424805,19.8935547 C29.2443069,19.8935547 29.7644026,20.0493148 30.1027832,20.3608398 C30.4411638,20.6723648 30.6103516,21.1718716 30.6103516,21.859375 L30.6103516,25.8769531 L29.949707,25.8769531 Z M27.9355469,25.2485352 C28.4905627,25.2485352 28.9265121,25.0963557 29.2434082,24.7919922 C29.5603043,24.4876287 29.71875,24.0615262 29.71875,23.5136719 L29.71875,22.9819336 L28.8271484,23.0195312 C28.1181605,23.0445965 27.6070165,23.1547028 27.2937012,23.3498535 C26.9803858,23.5450042 26.8237305,23.848468 26.8237305,24.2602539 C26.8237305,24.5825211 26.9213044,24.8277986 27.1164551,24.9960938 C27.3116058,25.1643889 27.5846337,25.2485352 27.9355469,25.2485352 Z M33.0219652,25.4150407 C32.869757,25.3454751 32.7446238,25.2403386 32.6433105,25.0981445 C32.5412593,24.9549146 32.4902344,24.7884124 32.4902344,24.5986328 C32.4902344,24.383788 32.5475255,24.1958016 32.6621094,24.034668 C32.7766933,23.8735344 32.9575183,23.7177742 33.2045898,23.5673828 C32.9002263,23.4420567 32.6522633,23.2290054 32.4606934,22.9282227 C32.2691234,22.6274399 32.1733398,22.2836933 32.1733398,21.8969727 C32.1733398,21.2524382 32.3666973,20.755617 32.753418,20.4064941 C33.1401387,20.0573713 33.6879847,19.8828125 34.3969727,19.8828125 C34.7049169,19.8828125 34.9824206,19.9186194 35.2294922,19.9902344 L37.2651367,19.9902344 L37.2651367,20.5541992 L36.1748047,20.6831055 C36.2750656,20.8084316 36.3645829,20.9722483 36.4433594,21.1745605 C36.5221358,21.3768728 36.5615234,21.605142 36.5615234,21.859375 C36.5615234,22.4358753 36.3645853,22.8959944 35.9707031,23.2397461 C35.5768209,23.5834978 35.0361362,23.7553711 34.3486328,23.7553711 C34.1731762,23.7553711 34.0084643,23.7410483 33.8544922,23.7124023 C33.474933,23.9129242 33.2851562,24.1653631 33.2851562,24.4697266 C33.2851562,24.6308602 33.3513991,24.7499182 33.4838867,24.8269043 C33.6163744,24.9038904 33.8437484,24.9423828 34.1660156,24.9423828 L35.2080078,24.9423828 C35.8453808,24.9423828 36.3350406,25.0766588 36.677002,25.3452148 C37.0189633,25.6137709 37.1899414,26.0040665 37.1899414,26.5161133 C37.1899414,27.1678092 36.9285508,27.6646305 36.4057617,28.0065918 C35.8829726,28.3485531 35.120285,28.5195312 34.1176758,28.5195312 C33.3478152,28.5195312 32.7543152,28.3763035 32.3371582,28.0898438 C31.9200012,27.803384 31.7114258,27.3987656 31.7114258,26.8759766 C31.7114258,26.5179019 31.826008,26.2081719 32.0551758,25.9467773 C32.2843422,25.6853844 32.6066021,25.5081406 33.0219652,25.4150407 Z M32.5708008,26.8652344 C32.5708008,27.1839209 32.7050768,27.4256177 32.9736328,27.590332 C33.2421888,27.7550464 33.6271134,27.8374023 34.128418,27.8374023 C34.8767941,27.8374023 35.4309064,27.7255057 35.7907715,27.501709 C36.1506366,27.2779123 36.3305664,26.9744485 36.3305664,26.5913086 C36.3305664,26.2726221 36.2320973,26.0515143 36.0351562,25.9279785 C35.8382152,25.8044427 35.4676134,25.7426758 34.9233398,25.7426758 L33.8544922,25.7426758 C33.4498678,25.7426758 33.1347668,25.8393545 32.9091797,26.0327148 C32.6835926,26.2260752 32.5708008,26.5035789 32.5708008,26.8652344 Z M33.0541992,21.8754883 C33.0541992,22.2872742 33.1705718,22.5987945 33.4033203,22.8100586 C33.6360689,23.0213227 33.9601216,23.1269531 34.3754883,23.1269531 C35.2456098,23.1269531 35.6806641,22.7044313 35.6806641,21.859375 C35.6806641,20.9749305 35.2402388,20.5327148 34.359375,20.5327148 C33.9404276,20.5327148 33.6181652,20.6455067 33.3925781,20.8710938 C33.1669911,21.0966808 33.0541992,21.4314756 33.0541992,21.8754883 Z M40.9604492,25.984375 C40.0903277,25.984375 39.4037297,25.7194037 38.9006348,25.1894531 C38.3975398,24.6595026 38.1459961,23.9236701 38.1459961,22.9819336 C38.1459961,22.0330356 38.3796363,21.2792997 38.8469238,20.7207031 C39.3142113,20.1621066 39.9417278,19.8828125 40.7294922,19.8828125 C41.4671261,19.8828125 42.0507791,20.1254045 42.4804688,20.6105957 C42.9101584,21.0957869 43.125,21.7358359 43.125,22.5307617 L43.125,23.0947266 L39.0698242,23.0947266 C39.087728,23.7858107 39.2622868,24.3103823 39.5935059,24.668457 C39.924725,25.0265317 40.3911103,25.2055664 40.9926758,25.2055664 C41.626468,25.2055664 42.2530894,25.0730808 42.8725586,24.8081055 L42.8725586,25.6030273 C42.5574529,25.7390957 42.2593601,25.8366696 41.9782715,25.895752 C41.6971828,25.9548343 41.3579121,25.984375 40.9604492,25.984375 Z M40.71875,20.6293945 C40.2460914,20.6293945 39.8692234,20.7833643 39.5881348,21.0913086 C39.3070461,21.3992528 39.1414391,21.8253554 39.0913086,22.3696289 L42.1689453,22.3696289 C42.1689453,21.8074516 42.043621,21.3768732 41.7929688,21.0778809 C41.5423165,20.7788885 41.1842471,20.6293945 40.71875,20.6293945 Z M46.5463867,25.2485352 C46.7039396,25.2485352 46.8561191,25.2368979 47.0029297,25.213623 C47.1497403,25.1903482 47.2661129,25.1661785 47.3520508,25.1411133 L47.3520508,25.8232422 C47.2553706,25.8697919 47.113038,25.9082844 46.9250488,25.9387207 C46.7370596,25.9691571 46.5678718,25.984375 46.4174805,25.984375 C45.2788029,25.984375 44.7094727,25.3846089 44.7094727,24.1850586 L44.7094727,20.6831055 L43.8662109,20.6831055 L43.8662109,20.253418 L44.7094727,19.8828125 L45.0854492,18.6259766 L45.6010742,18.6259766 L45.6010742,19.9902344 L47.309082,19.9902344 L47.309082,20.6831055 L45.6010742,20.6831055 L45.6010742,24.1474609 C45.6010742,24.5019549 45.6852205,24.7740876 45.8535156,24.9638672 C46.0218107,25.1536468 46.2527655,25.2485352 46.5463867,25.2485352 Z" id="Damaget" fill="#5FC065"></path>
                    </g>
                    <path d="M389.964844,50.3271484 C389.964844,50.0436184 390.029378,49.8288582 390.158447,49.6828613 C390.287517,49.5368645 390.472655,49.4638672 390.713867,49.4638672 C390.959311,49.4638672 391.150797,49.5368645 391.28833,49.6828613 C391.425863,49.8288582 391.494629,50.0436184 391.494629,50.3271484 C391.494629,50.6022149 391.424805,50.8138013 391.285156,50.9619141 C391.145507,51.1100268 390.955079,51.184082 390.713867,51.184082 C390.498046,51.184082 390.319255,51.1174323 390.17749,50.9841309 C390.035725,50.8508294 389.964844,50.6318375 389.964844,50.3271484 Z M395.82373,50.2573242 C396.009929,50.2573242 396.189778,50.2435711 396.363281,50.2160645 L396.596558,50.1740112 C396.665324,50.159729 396.725097,50.1451824 396.775879,50.1303711 L396.775879,50.9365234 C396.661621,50.9915367 396.493409,51.0370278 396.27124,51.072998 C396.049071,51.1089683 395.849122,51.1269531 395.671387,51.1269531 C394.325677,51.1269531 393.652832,50.4181386 393.652832,49.0004883 L393.652832,44.8618164 L392.65625,44.8618164 L392.65625,44.3540039 L393.652832,43.9160156 L394.097168,42.4306641 L394.706543,42.4306641 L394.706543,44.0429688 L396.725098,44.0429688 L396.725098,44.8618164 L394.706543,44.8618164 L394.706543,48.9560547 C394.706543,49.3750021 394.805989,49.6966135 395.004883,49.9208984 C395.203777,50.1451834 395.476724,50.2573242 395.82373,50.2573242 Z M399.841797,47.4389648 L397.42334,44.0429688 L398.623047,44.0429688 L400.45752,46.7089844 L402.285645,44.0429688 L403.472656,44.0429688 L401.054199,47.4389648 L403.599609,51 L402.40625,51 L400.45752,48.1816406 L398.489746,51 L397.296387,51 L399.841797,47.4389648 Z M407.224121,50.2573242 C407.41032,50.2573242 407.590168,50.2435711 407.763672,50.2160645 L407.996948,50.1740112 C408.065714,50.159729 408.125488,50.1451824 408.17627,50.1303711 L408.17627,50.9365234 C408.062011,50.9915367 407.8938,51.0370278 407.671631,51.072998 C407.449462,51.1089683 407.249513,51.1269531 407.071777,51.1269531 C405.726067,51.1269531 405.053223,50.4181386 405.053223,49.0004883 L405.053223,44.8618164 L404.056641,44.8618164 L404.056641,44.3540039 L405.053223,43.9160156 L405.497559,42.4306641 L406.106934,42.4306641 L406.106934,44.0429688 L408.125488,44.0429688 L408.125488,44.8618164 L406.106934,44.8618164 L406.106934,48.9560547 C406.106934,49.3750021 406.206379,49.6966135 406.405273,49.9208984 C406.604168,50.1451834 406.877114,50.2573242 407.224121,50.2573242 Z" id=".txt" fill="#3085F8" fill-rule="nonzero"></path>
                    <path d="M83.487793,25.7983398 C84.0379259,25.7983398 84.4610988,25.9750145 84.7573242,26.3283691 C85.0535497,26.6817238 85.2016602,27.1905891 85.2016602,27.8549805 L81.5644531,27.8549805 C81.6236982,27.2117481 81.8194157,26.7081724 82.1516113,26.3442383 C82.483807,25.9803042 82.9291964,25.7983398 83.487793,25.7983398 Z" id="Path" fill="#FFFFFF"></path>
                    <path d="M172.431152,47.487793 C172.833173,47.487793 173.189696,47.595702 173.500732,47.8115234 C173.811769,48.0273448 174.054036,48.3235658 174.227539,48.7001953 C174.401043,49.0768248 174.487793,49.4873025 174.487793,49.9316406 C174.487793,50.2278661 174.394695,50.5113919 174.208496,50.7822266 C174.022297,51.0530612 173.767336,51.2667635 173.443604,51.4233398 C173.119871,51.5799161 172.765464,51.6582031 172.380371,51.6582031 C171.758298,51.6582031 171.294923,51.4836443 170.990234,51.1345215 C170.685545,50.7853986 170.533203,50.3061554 170.533203,49.6967773 C170.533203,49.0027635 170.698241,48.4611022 171.02832,48.0717773 C171.3584,47.6824525 171.826006,47.487793 172.431152,47.487793 Z" id="Path" fill="#FFFFFF" fill-rule="nonzero"></path>
                    <line x1="389" y1="55" x2="409" y2="55" id="Line-10" stroke="#2064F5" stroke-width="0.6" stroke-linecap="square"></line>
                    <g id="cloud-download-light" transform="translate(355.000000, 37.000000)" fill="#2064F5" fill-rule="nonzero">
                        <path d="M25.2220588,9.12352941 C25.3455882,8.68676471 25.4117647,8.23235294 25.4117647,7.76470588 C25.4117647,5.03382353 23.2014706,2.82352941 20.4705882,2.82352941 C19.7338235,2.82352941 19.0191176,2.98235294 18.3529412,3.3 C16.9588235,1.31470588 14.6338235,1.0658141e-13 12,1.0658141e-13 C7.83529412,1.0658141e-13 4.425,3.28676471 4.24411765,7.42058824 C1.72941176,8.30294118 -1.0658141e-13,10.6897059 -1.0658141e-13,13.4117647 C-1.0658141e-13,16.9235294 2.84117647,19.7647059 6.35294118,19.7647059 L22.5882353,19.7647059 C25.7073529,19.7647059 28.2352941,17.2411765 28.2352941,14.1176471 C28.2352941,12.0441176 27.0970588,10.1117647 25.2220588,9.12352941 Z M22.5882353,18.3529412 L6.35294118,18.3529412 C3.62205882,18.3529412 1.41176471,16.1426471 1.41176471,13.4117647 C1.41176471,10.9058824 3.27352941,8.83676471 5.69117647,8.51470588 C5.66029412,8.26764706 5.64705882,8.01617647 5.64705882,7.76470588 C5.64705882,4.25735294 8.49264706,1.41176471 12,1.41176471 C14.6602941,1.41176471 16.9367647,3.04411765 17.8852941,5.36470588 C18.5294118,4.67205882 19.4470588,4.23529412 20.4705882,4.23529412 C22.4205882,4.23529412 24,5.81470588 24,7.76470588 C24,8.58088235 23.7220588,9.33529412 23.2544118,9.93529412 C25.2794118,10.2529412 26.8235294,12.0044118 26.8235294,14.1176471 C26.8235294,16.4558824 24.9264706,18.3529412 22.5882353,18.3529412 Z M17.8764706,9.81617647 C17.6691176,9.60882353 17.3338235,9.60882353 17.1264706,9.81617647 L14.1176471,12.825 L14.1176471,6.17647059 C14.1176471,5.88529412 13.8794118,5.64705882 13.5882353,5.64705882 L13.2352941,5.64705882 C12.9441176,5.64705882 12.7058824,5.88529412 12.7058824,6.17647059 L12.7058824,12.825 L9.69705882,9.81617647 C9.48970588,9.60882353 9.15441176,9.60882353 8.94705882,9.81617647 L8.69558824,10.0676471 C8.48823529,10.275 8.48823529,10.6102941 8.69558824,10.8176471 L13.0323529,15.1544118 C13.2397059,15.3617647 13.575,15.3617647 13.7823529,15.1544118 L18.1191176,10.8176471 C18.3264706,10.6102941 18.3264706,10.275 18.1191176,10.0676471 L17.8764706,9.81617647 L17.8764706,9.81617647 Z" id="Shape"></path>
                    </g>
                    <path d="M227.136,40.124 C226.744,39.312 226.1,38.528 225.372,37.968 C224.504,37.324 223.636,37.1 222.936,37.044 L222.936,34.58 L220.864,34.58 L220.864,37.072 C219.548,37.268 218.568,37.856 217.924,38.472 C217.056,39.312 216.496,40.572 216.496,42.084 C216.496,43.092 216.804,44.044 217.672,44.94 C218.316,45.584 219.464,46.284 220.304,46.648 L222.096,47.404 L222.500768,47.57984 C223.02224,47.80832 223.4792,48.0368 223.972,48.552 C224.56,49.168 224.784,49.784 224.784,50.596 C224.784,51.464 224.588,52.164 223.916,52.836 C223.272,53.508 222.6,53.732 221.704,53.732 C220.724,53.732 219.912,53.424 219.268,52.612 C218.82,52.024 218.484,51.156 218.484,50.232 L215.656,50.848 C215.768,52.136 216.216,53.368 217.224,54.488 C218.316,55.72 219.52,56.224 220.864,56.336 L220.864,59.08 L222.936,59.08 L222.936,56.252 C224.084,56.084 225.092,55.608 226.016,54.628 C227.22,53.34 227.64,51.912 227.64,50.372 C227.64,49.14 227.304,47.908 226.352,46.844 C225.484,45.864 224.28,45.304 223.244,44.884 L221.844,44.324 C221.34,44.128 220.472,43.708 220.08,43.372 C219.548,42.924 219.352,42.448 219.352,41.804 C219.352,41.244 219.464,40.824 219.912,40.376 C220.304,39.984 220.976,39.62 221.984,39.62 C222.768,39.62 223.44,39.816 224,40.292 C224.42,40.656 224.672,41.048 224.84,41.468 L227.136,40.124 Z M243.208,53.368 L236.236,53.368 L239.734254,49.2324358 C240.577157,48.2321983 241.258182,47.3887273 241.808,46.564 C242.564,45.444 243.152,44.184 243.152,42.644 C243.152,39.732 241.108,37.016 237.132,37.016 C234.878,37.016 233.54975,37.9931806 232.851524,38.7399951 L232.764,38.836 C232.036,39.648 231.28,41.104 231.196,42.924 L233.94,42.924 C234.052,41.16 235.144,39.536 237.244,39.536 C239.316,39.536 240.352,40.992 240.352,42.56 C240.352,43.652 239.904,44.464 239.372,45.248 C238.756,46.144 237.776,47.376 237.132,48.16 L230.664,56 L243.208,56 L243.208,53.368 Z M245.896,59.612 L247.744,60.368 L251.216,53.452 L248.752,52.5 L245.896,59.612 Z M259.224,42.084 C259.224,41.972 259.364,40.964 260.008,40.292 C260.624,39.648 261.408,39.536 262.08,39.536 C262.64,39.536 263.424,39.62 264.068,40.236 C264.376,40.544 264.796,41.132 264.796,42.112 C264.796,42.952 264.516,43.652 264.068,44.1 C263.648,44.52 262.892,44.912 261.688,44.912 L261.296,44.912 L261.296,47.32 L261.856,47.32 C262.444,47.32 263.452,47.376 264.264,48.16 C264.992,48.86 265.104,49.756 265.104,50.372 C265.104,51.632 264.656,52.5 264.124,53.004 C263.62,53.452 262.808,53.788 261.94,53.788 C260.764,53.788 260.064,53.312 259.672,52.948 C259.196,52.5 258.804,51.772 258.664,50.932 L255.92,50.932 C256.06,52.36 256.676,53.844 257.516,54.74 C258.72,56.028 260.26,56.308 261.688,56.308 C263.144,56.308 264.908,56.028 266.252,54.684 C267.148,53.788 267.848,52.36 267.848,50.512 C267.848,49.448 267.596,48.412 267.064,47.628 C266.756,47.152 266.168,46.508 265.216,46.144 C265.748,45.864 266.392,45.388 266.896,44.576 C267.372,43.792 267.54,43.008 267.54,42.112 C267.54,40.768 267.176,39.564 266.196,38.556 C264.992,37.296 263.592,37.016 262.164,37.016 C260.932,37.016 259.364,37.212 258.076,38.444 C257.208,39.284 256.564,40.572 256.48,42.084 L259.224,42.084 Z M275.128,42.084 C275.128,41.972 275.268,40.964 275.912,40.292 C276.528,39.648 277.312,39.536 277.984,39.536 C278.544,39.536 279.328,39.62 279.972,40.236 C280.28,40.544 280.7,41.132 280.7,42.112 C280.7,42.952 280.42,43.652 279.972,44.1 C279.552,44.52 278.796,44.912 277.592,44.912 L277.2,44.912 L277.2,47.32 L277.76,47.32 C278.348,47.32 279.356,47.376 280.168,48.16 C280.896,48.86 281.008,49.756 281.008,50.372 C281.008,51.632 280.56,52.5 280.028,53.004 C279.524,53.452 278.712,53.788 277.844,53.788 C276.668,53.788 275.968,53.312 275.576,52.948 C275.1,52.5 274.708,51.772 274.568,50.932 L271.824,50.932 C271.964,52.36 272.58,53.844 273.42,54.74 C274.624,56.028 276.164,56.308 277.592,56.308 C279.048,56.308 280.812,56.028 282.156,54.684 C283.052,53.788 283.752,52.36 283.752,50.512 C283.752,49.448 283.5,48.412 282.968,47.628 C282.66,47.152 282.072,46.508 281.12,46.144 C281.652,45.864 282.296,45.388 282.8,44.576 C283.276,43.792 283.444,43.008 283.444,42.112 C283.444,40.768 283.08,39.564 282.1,38.556 C280.896,37.296 279.496,37.016 278.068,37.016 C276.836,37.016 275.268,37.212 273.98,38.444 C273.112,39.284 272.468,40.572 272.384,42.084 L275.128,42.084 Z M298.592,53.368 L291.62,53.368 L295.118254,49.2324358 C295.961157,48.2321983 296.642182,47.3887273 297.192,46.564 C297.948,45.444 298.536,44.184 298.536,42.644 C298.536,39.732 296.492,37.016 292.516,37.016 C290.262,37.016 288.93375,37.9931806 288.235524,38.7399951 L288.148,38.836 C287.42,39.648 286.664,41.104 286.58,42.924 L289.324,42.924 C289.436,41.16 290.528,39.536 292.628,39.536 C294.7,39.536 295.736,40.992 295.736,42.56 C295.736,43.652 295.288,44.464 294.756,45.248 C294.14,46.144 293.16,47.376 292.516,48.16 L286.048,56 L298.592,56 L298.592,53.368 Z M302.848,54.656 C302.848,55.58 303.604,56.336 304.528,56.336 C305.452,56.336 306.208,55.58 306.208,54.656 C306.208,53.732 305.452,52.976 304.528,52.976 C303.604,52.976 302.848,53.732 302.848,54.656 Z M315.056,56 L317.912,56 L317.912,37.324 L313.376,37.324 L311.808,39.956 L315.056,39.956 L315.056,56 Z M324.184,55.104 L326.256,56.644 L332.099985,49.126305 C332.671008,48.3881653 333.194909,47.6661818 333.704,46.648 C334.292,45.5 334.6,44.436 334.6,43.092 C334.6,41.02 333.76,39.676 332.976,38.864 C332.192,38.052 330.708,37.016 328.16,37.016 C326.088,37.016 324.52,37.716 323.344,38.92 C322.224,40.068 321.496,41.72 321.496,43.596 C321.496,45.528 322.252,46.9 323.204,47.852 C323.96,48.608 325.36,49.588 327.572,49.588 C327.908,49.588 328.216,49.56 328.58,49.476 L324.184,55.104 Z M328.02,47.152 C326.984,47.152 326.004,46.704 325.388,46.116 C324.688,45.416 324.296,44.38 324.296,43.344 C324.296,42.196 324.772,41.216 325.388,40.6 C326.004,40.012 327.012,39.536 328.048,39.536 C329,39.536 330.008,39.928 330.708,40.6 C331.408,41.272 331.8,42.252 331.8,43.26 C331.8,44.24 331.408,45.304 330.708,46.032 C329.98,46.788 328.972,47.152 328.02,47.152 Z" id="$2,332.19" fill="#313131" fill-rule="nonzero"></path>
                </g>
            </g>
        </g>
    </g>
</svg>