<?xml version="1.0" encoding="UTF-8"?>
<svg width="432px" height="96px" viewBox="0 0 432 96" version="1.1" xmlns="http://www.w3.org/2000/svg" xmlns:xlink="http://www.w3.org/1999/xlink">
    <!-- Generator: Sketch 59 (86127) - https://sketch.com -->
    <title>line</title>
    <desc>Created with Sketch.</desc>
    <g id="Page-1" stroke="none" stroke-width="1" fill="none" fill-rule="evenodd">
        <g id="Homepage" transform="translate(-200.000000, -3200.000000)">
            <g id="RG" transform="translate(184.000000, 2960.000000)">
                <g id="line" transform="translate(16.000000, 240.000000)">
                    <path d="M6,0.5 C2.96243388,0.5 0.5,2.96243388 0.5,6 L0.5,92 C0.5,93.9329966 2.06700338,95.5 4,95.5 L428,95.5 C429.932997,95.5 431.5,93.9329966 431.5,92 L431.5,6 C431.5,2.96243388 429.037566,0.5 426,0.5 L6,0.5 Z" id="Rectangle" stroke="#EBF0F2" fill="#FFFFFF"></path>
                    <path d="M16.3549805,28.140625 L16.3549805,32 L15.2758789,32 L15.2758789,22.7197266 L17.8212891,22.7197266 C18.9596411,22.7197266 19.8006972,22.9376606 20.3444824,23.3735352 C20.8882677,23.8094097 21.1601562,24.4653277 21.1601562,25.3413086 C21.1601562,26.5685283 20.5380922,27.3979471 19.2939453,27.8295898 L21.8139648,32 L20.5380859,32 L18.2910156,28.140625 L16.3549805,28.140625 Z M16.3549805,27.2138672 L17.8339844,27.2138672 C18.5957069,27.2138672 19.1542951,27.0625829 19.5097656,26.7600098 C19.8652362,26.4574366 20.0429688,26.0035838 20.0429688,25.3984375 C20.0429688,24.7848277 19.8620624,24.342612 19.5002441,24.0717773 C19.1384259,23.8009427 18.5576212,23.6655273 17.7578125,23.6655273 L16.3549805,23.6655273 L16.3549805,27.2138672 Z M26.0922852,32.1269531 C25.0639597,32.1269531 24.2525258,31.8138052 23.657959,31.1875 C23.0633922,30.5611948 22.7661133,29.6915746 22.7661133,28.5786133 C22.7661133,27.4571884 23.0422336,26.5664096 23.5944824,25.90625 C24.1467313,25.2460904 24.8883417,24.9160156 25.8193359,24.9160156 C26.6910851,24.9160156 27.3808568,25.2027152 27.8886719,25.776123 C28.3964869,26.3495309 28.6503906,27.1059523 28.6503906,28.0454102 L28.6503906,28.7119141 L23.8579102,28.7119141 C23.8790691,29.5286499 24.0853659,30.1485981 24.4768066,30.5717773 C24.8682474,30.9949565 25.41943,31.206543 26.1303711,31.206543 C26.8793983,31.206543 27.6199508,31.049969 28.3520508,30.7368164 L28.3520508,31.6762695 C27.9796531,31.8370776 27.6273617,31.9523922 27.295166,32.0222168 C26.9629703,32.0920414 26.5620141,32.1269531 26.0922852,32.1269531 Z M25.8066406,25.7983398 C25.2480441,25.7983398 24.8026547,25.9803042 24.470459,26.3442383 C24.1382633,26.7081724 23.9425459,27.2117481 23.8833008,27.8549805 L27.5205078,27.8549805 C27.5205078,27.1905891 27.3723973,26.6817238 27.0761719,26.3283691 C26.7799464,25.9750145 26.3567736,25.7983398 25.8066406,25.7983398 Z M33.684082,32.1269531 C33.2312803,32.1269531 32.8176288,32.0433765 32.4431152,31.8762207 C32.0686016,31.7090649 31.7543958,31.4519874 31.5004883,31.1049805 L31.4243164,31.1049805 C31.4750979,31.5112325 31.5004883,31.8963198 31.5004883,32.2602539 L31.5004883,35.1230469 L30.4467773,35.1230469 L30.4467773,25.0429688 L31.3037109,25.0429688 L31.449707,25.9951172 L31.5004883,25.9951172 C31.771323,25.6142559 32.0865867,25.3391936 32.4462891,25.1699219 C32.8059914,25.0006502 33.2185849,24.9160156 33.684082,24.9160156 C34.6066127,24.9160156 35.318601,25.2312794 35.8200684,25.8618164 C36.3215357,26.4923534 36.5722656,27.3767847 36.5722656,28.5151367 C36.5722656,29.6577206 36.317304,30.5453256 35.807373,31.1779785 C35.2974421,31.8106314 34.5896855,32.1269531 33.684082,32.1269531 Z M33.5317383,25.8110352 C32.8207972,25.8110352 32.3066422,26.0078105 31.9892578,26.4013672 C31.6718734,26.7949238 31.5089519,27.4212197 31.5004883,28.2802734 L31.5004883,28.5151367 C31.5004883,29.4926807 31.6634098,30.1919738 31.9892578,30.6130371 C32.3151058,31.0341004 32.8377243,31.2446289 33.5571289,31.2446289 C34.1580434,31.2446289 34.6288232,31.0013045 34.9694824,30.5146484 C35.3101417,30.0279924 35.4804688,29.3572634 35.4804688,28.5024414 C35.4804688,27.634924 35.3101417,26.9694847 34.9694824,26.5061035 C34.6288232,26.0427223 34.1495799,25.8110352 33.5317383,25.8110352 Z M44.4179688,28.5151367 C44.4179688,29.649257 44.1323271,30.5347462 43.5610352,31.1716309 C42.9897432,31.8085156 42.2005259,32.1269531 41.1933594,32.1269531 C40.571286,32.1269531 40.0190454,31.9809585 39.5366211,31.6889648 C39.0541968,31.3969712 38.6818047,30.9780301 38.4194336,30.4321289 C38.1570625,29.8862277 38.0258789,29.2472367 38.0258789,28.5151367 C38.0258789,27.3810165 38.3094047,26.4976431 38.8764648,25.8649902 C39.443525,25.2323373 40.2306265,24.9160156 41.237793,24.9160156 C42.2111051,24.9160156 42.9844535,25.2397429 43.5578613,25.887207 C44.1312691,26.5346712 44.4179688,27.410639 44.4179688,28.5151367 Z M39.1176758,28.5151367 C39.1176758,29.403813 39.2954084,30.0808896 39.6508789,30.5463867 C40.0063494,31.0118838 40.5289679,31.2446289 41.21875,31.2446289 C41.9085321,31.2446289 42.4322085,31.0129418 42.7897949,30.5495605 C43.1473813,30.0861793 43.3261719,29.4080448 43.3261719,28.5151367 C43.3261719,27.6306922 43.1473813,26.9589053 42.7897949,26.4997559 C42.4322085,26.0406064 41.9043004,25.8110352 41.2060547,25.8110352 C40.5162726,25.8110352 39.99577,26.0374326 39.6445312,26.4902344 C39.2932925,26.9430361 39.1176758,27.6179968 39.1176758,28.5151367 Z M49.4389648,24.9160156 C49.7478857,24.9160156 50.0250639,24.941406 50.2705078,24.9921875 L50.1245117,25.9697266 C49.8367499,25.9062497 49.5828462,25.8745117 49.362793,25.8745117 C48.7999646,25.8745117 48.3186055,26.1030251 47.9187012,26.5600586 C47.5187968,27.0170921 47.3188477,27.5862596 47.3188477,28.2675781 L47.3188477,32 L46.2651367,32 L46.2651367,25.0429688 L47.1347656,25.0429688 L47.2553711,26.331543 L47.3061523,26.331543 C47.5642917,25.8787412 47.8753237,25.5296236 48.2392578,25.2841797 C48.6031919,25.0387358 49.0030903,24.9160156 49.4389648,24.9160156 Z M53.8188477,31.2573242 C54.0050465,31.2573242 54.184895,31.2435711 54.3583984,31.2160645 L54.5916749,31.1740112 C54.660441,31.159729 54.7202146,31.1451824 54.7709961,31.1303711 L54.7709961,31.9365234 C54.6567377,31.9915367 54.4885265,32.0370278 54.2663574,32.072998 C54.0441883,32.1089683 53.8442392,32.1269531 53.6665039,32.1269531 C52.3207941,32.1269531 51.6479492,31.4181386 51.6479492,30.0004883 L51.6479492,25.8618164 L50.6513672,25.8618164 L50.6513672,25.3540039 L51.6479492,24.9160156 L52.0922852,23.4306641 L52.7016602,23.4306641 L52.7016602,25.0429688 L54.7202148,25.0429688 L54.7202148,25.8618164 L52.7016602,25.8618164 L52.7016602,29.9560547 C52.7016602,30.3750021 52.8011058,30.6966135 53,30.9208984 C53.1988942,31.1451834 53.4718407,31.2573242 53.8188477,31.2573242 Z M67.1044922,27.2709961 C67.1044922,28.8029048 66.6887249,29.9740357 65.8571777,30.7844238 C65.0256306,31.594812 63.8291094,32 62.2675781,32 L59.6967773,32 L59.6967773,22.7197266 L62.5405273,22.7197266 C63.9835684,22.7197266 65.1049765,23.1196249 65.9047852,23.9194336 C66.7045938,24.7192423 67.1044922,25.8364186 67.1044922,27.2709961 Z M65.9619141,27.309082 C65.9619141,26.0987895 65.6582875,25.186852 65.0510254,24.5732422 C64.4437632,23.9596323 63.5413471,23.652832 62.34375,23.652832 L60.7758789,23.652832 L60.7758789,31.0668945 L62.0898438,31.0668945 C63.3763085,31.0668945 64.3432585,30.7505728 64.9907227,30.1179199 C65.6381868,29.485267 65.9619141,28.5489971 65.9619141,27.309082 Z M73.293457,32 L73.0839844,31.0097656 L73.0332031,31.0097656 C72.6861962,31.4456402 72.3402524,31.7408033 71.9953613,31.8952637 C71.6504703,32.0497241 71.2198919,32.1269531 70.7036133,32.1269531 C70.0138312,32.1269531 69.4732279,31.9492205 69.0817871,31.59375 C68.6903464,31.2382795 68.4946289,30.7325879 68.4946289,30.0766602 C68.4946289,28.6717052 69.6181528,27.9353845 71.8652344,27.8676758 L73.0458984,27.8295898 L73.0458984,27.3979492 C73.0458984,26.8520481 72.928468,26.4489759 72.6936035,26.1887207 C72.4587391,25.9284655 72.0831732,25.7983398 71.5668945,25.7983398 C70.987139,25.7983398 70.3312211,25.9760724 69.5991211,26.331543 L69.2753906,25.5253906 C69.6181658,25.3391918 69.9937317,25.1931971 70.4020996,25.0874023 C70.8104675,24.9816075 71.2198873,24.9287109 71.6303711,24.9287109 C72.4598023,24.9287109 73.0744609,25.1127911 73.4743652,25.480957 C73.8742696,25.8491229 74.0742188,26.4394491 74.0742188,27.2519531 L74.0742188,32 L73.293457,32 Z M70.9130859,31.2573242 C71.5690137,31.2573242 72.0842266,31.0774758 72.4587402,30.7177734 C72.8332538,30.3580711 73.0205078,29.8544954 73.0205078,29.2070312 L73.0205078,28.5786133 L71.9667969,28.6230469 C71.1289021,28.6526694 70.5248228,28.7827951 70.154541,29.0134277 C69.7842592,29.2440604 69.5991211,29.6026994 69.5991211,30.0893555 C69.5991211,30.4702167 69.7144357,30.7600902 69.9450684,30.9589844 C70.175701,31.1578786 70.4983703,31.2573242 70.9130859,31.2573242 Z M78.4921875,31.2573242 C78.6783863,31.2573242 78.8582348,31.2435711 79.0317383,31.2160645 L79.2650148,31.1740112 C79.3337809,31.159729 79.3935544,31.1451824 79.4443359,31.1303711 L79.4443359,31.9365234 C79.3300776,31.9915367 79.1618663,32.0370278 78.9396973,32.072998 C78.7175282,32.1089683 78.517579,32.1269531 78.3398438,32.1269531 C76.9941339,32.1269531 76.3212891,31.4181386 76.3212891,30.0004883 L76.3212891,25.8618164 L75.324707,25.8618164 L75.324707,25.3540039 L76.3212891,24.9160156 L76.765625,23.4306641 L77.375,23.4306641 L77.375,25.0429688 L79.3935547,25.0429688 L79.3935547,25.8618164 L77.375,25.8618164 L77.375,29.9560547 C77.375,30.3750021 77.4744456,30.6966135 77.6733398,30.9208984 C77.8722341,31.1451834 78.1451806,31.2573242 78.4921875,31.2573242 Z M83.7734375,32.1269531 C82.745112,32.1269531 81.9336781,31.8138052 81.3391113,31.1875 C80.7445446,30.5611948 80.4472656,29.6915746 80.4472656,28.5786133 C80.4472656,27.4571884 80.7233859,26.5664096 81.2756348,25.90625 C81.8278836,25.2460904 82.569494,24.9160156 83.5004883,24.9160156 C84.3722374,24.9160156 85.0620092,25.2027152 85.5698242,25.776123 C86.0776393,26.3495309 86.331543,27.1059523 86.331543,28.0454102 L86.331543,28.7119141 L81.5390625,28.7119141 C81.5602215,29.5286499 81.7665182,30.1485981 82.157959,30.5717773 C82.5493997,30.9949565 83.1005824,31.206543 83.8115234,31.206543 C84.5605506,31.206543 85.3011031,31.049969 86.0332031,30.7368164 L86.0332031,31.6762695 C85.6608054,31.8370776 85.308514,31.9523922 84.9763184,32.0222168 C84.6441227,32.0920414 84.2431664,32.1269531 83.7734375,32.1269531 Z" id="ReportDate" fill="#9E9E9E" fill-rule="nonzero"></path>
                    <path d="M83.487793,25.7983398 C84.0379259,25.7983398 84.4610988,25.9750145 84.7573242,26.3283691 C85.0535497,26.6817238 85.2016602,27.1905891 85.2016602,27.8549805 L81.5644531,27.8549805 C81.6236982,27.2117481 81.8194157,26.7081724 82.1516113,26.3442383 C82.483807,25.9803042 82.9291964,25.7983398 83.487793,25.7983398 Z" id="Path" fill="#FFFFFF"></path>
                    <g id="Feb-16,-2018-—-Aug-1" transform="translate(15.079590, 46.123047)">
                        <path d="M1.27539062,9.87695312 L0.196289062,9.87695312 L0.196289062,0.596679688 L5.36962891,0.596679688 L5.36962891,1.55517578 L1.27539062,1.55517578 L1.27539062,4.95117188 L5.12207031,4.95117188 L5.12207031,5.90966797 L1.27539062,5.90966797 L1.27539062,9.87695312 Z M9.68603516,10.0039062 C8.6577097,10.0039062 7.84627576,9.69075834 7.25170898,9.06445312 C6.65714221,8.43814791 6.35986328,7.5685277 6.35986328,6.45556641 C6.35986328,5.33414153 6.63598357,4.44336268 7.18823242,3.78320312 C7.74048128,3.12304357 8.4820917,2.79296875 9.41308594,2.79296875 C10.2848351,2.79296875 10.9746068,3.07966836 11.4824219,3.65307617 C11.9902369,4.22648399 12.2441406,4.98290546 12.2441406,5.92236328 L12.2441406,6.58886719 L7.45166016,6.58886719 C7.47281912,7.40560304 7.67911588,8.02555127 8.07055664,8.44873047 C8.4619974,8.87190967 9.01318004,9.08349609 9.72412109,9.08349609 C10.4731483,9.08349609 11.2137008,8.92692214 11.9458008,8.61376953 L11.9458008,9.55322266 C11.5734031,9.71403075 11.2211117,9.82934535 10.888916,9.89916992 C10.5567203,9.96899449 10.1557641,10.0039062 9.68603516,10.0039062 Z M9.40039062,3.67529297 C8.84179408,3.67529297 8.39640466,3.85725729 8.06420898,4.22119141 C7.73201331,4.58512552 7.53629587,5.08870121 7.47705078,5.73193359 L11.1142578,5.73193359 C11.1142578,5.06754225 10.9661473,4.5586769 10.6699219,4.20532227 C10.3736964,3.85196763 9.95052358,3.67529297 9.40039062,3.67529297 Z M17.277832,2.80566406 C18.1918991,2.80566406 18.9017716,3.11775404 19.4074707,3.74194336 C19.9131698,4.36613268 20.1660156,5.24950601 20.1660156,6.39208984 C20.1660156,7.53467368 19.911054,8.42227874 19.401123,9.05493164 C18.8911921,9.68758454 18.1834355,10.0039062 17.277832,10.0039062 C16.8250303,10.0039062 16.4113788,9.92032961 16.0368652,9.75317383 C15.6623516,9.58601804 15.3481458,9.32894054 15.0942383,8.98193359 L15.0180664,8.98193359 L14.7958984,9.87695312 L14.0405273,9.87695312 L14.0405273,0 L15.0942383,0 L15.0942383,2.39941406 C15.0942383,2.93685165 15.0773114,3.4192687 15.043457,3.84667969 L15.0942383,3.84667969 C15.5851262,3.1526658 16.3129835,2.80566406 17.277832,2.80566406 Z M17.1254883,3.68798828 C16.4060836,3.68798828 15.8876969,3.89428505 15.5703125,4.30688477 C15.2529281,4.71948448 15.0942383,5.41454589 15.0942383,6.39208984 C15.0942383,7.36963379 15.2571598,8.06892693 15.5830078,8.48999023 C15.9088558,8.91105354 16.4314743,9.12158203 17.1508789,9.12158203 C17.7983431,9.12158203 18.2807601,8.88566317 18.5981445,8.41381836 C18.9155289,7.94197355 19.0742188,7.26383906 19.0742188,6.37939453 C19.0742188,5.47379104 18.9155289,4.79883035 18.5981445,4.35449219 C18.2807601,3.91015403 17.7898796,3.68798828 17.1254883,3.68798828 Z M28.8051758,9.87695312 L27.7768555,9.87695312 L27.7768555,3.26269531 C27.7768555,2.71256235 27.7937824,2.19205975 27.8276367,1.70117188 L27.6357966,1.88454849 L27.6357966,1.88454849 L27.4642969,2.03621526 C27.2779867,2.19342979 26.7960759,2.58744259 26.0185547,3.21826172 L25.4599609,2.49462891 L27.9165039,0.596679688 L28.8051758,0.596679688 L28.8051758,9.87695312 Z M32.4423828,5.90966797 C32.4423828,4.08576562 32.7967901,2.72209111 33.5056152,1.81860352 C34.2144404,0.915115925 35.2628511,0.463378906 36.6508789,0.463378906 C37.1290714,0.463378906 37.5056952,0.503580327 37.7807617,0.583984375 L37.7807617,1.49169922 C37.4549137,1.38590442 37.0825216,1.33300781 36.6635742,1.33300781 C35.6691031,1.33300781 34.9095078,1.64298193 34.3847656,2.26293945 C33.8600234,2.88289698 33.5722659,3.85725247 33.5214844,5.18603516 L33.5976562,5.18603516 C34.0631534,4.45816693 34.7994741,4.09423828 35.8066406,4.09423828 C36.6403036,4.09423828 37.2972795,4.34602613 37.7775879,4.84960938 C38.2578963,5.35319262 38.4980469,6.03661678 38.4980469,6.89990234 C38.4980469,7.86475092 38.2346218,8.62328825 37.7077637,9.17553711 C37.1809056,9.72778596 36.4689172,10.0039062 35.5717773,10.0039062 C34.6111606,10.0039062 33.8494494,9.64315139 33.2866211,8.92163086 C32.7237928,8.20011032 32.4423828,7.19613273 32.4423828,5.90966797 Z M35.559082,9.10888672 C36.1599965,9.10888672 36.6265446,8.91951687 36.9587402,8.54077148 C37.2909359,8.1620261 37.4570312,7.61507519 37.4570312,6.89990234 C37.4570312,6.2862925 37.3025732,5.80387545 36.9936523,5.45263672 C36.6847315,5.10139798 36.2234731,4.92578125 35.6098633,4.92578125 C35.229002,4.92578125 34.8798844,5.00406823 34.5625,5.16064453 C34.2451156,5.31722083 33.9922698,5.53303899 33.8039551,5.80810547 C33.6156403,6.08317195 33.5214844,6.36881362 33.5214844,6.66503906 C33.5214844,7.10091364 33.6061189,7.50715958 33.7753906,7.88378906 C33.9446623,8.26041855 34.1848129,8.55875541 34.4958496,8.77880859 C34.8068863,8.99886178 35.1612936,9.10888672 35.559082,9.10888672 Z M41.3544922,8.36621094 L41.449707,8.51220703 C41.3396804,8.93538623 41.1809906,9.42732467 40.9736328,9.98803711 C40.766275,10.5487495 40.5504569,11.0703101 40.3261719,11.5527344 L39.5327148,11.5527344 L39.6508519,11.0780705 C39.6915238,10.9083298 39.7334887,10.7270696 39.7767468,10.5342891 L39.9104004,9.92138672 C40.0479336,9.27392254 40.1442055,8.7555358 40.1992188,8.36621094 L41.3544922,8.36621094 Z M52.4311523,9.87695312 L46.3310547,9.87695312 L46.3310547,8.96923828 L48.7749023,6.51269531 C49.5196977,5.75943634 50.0105782,5.22200682 50.2475586,4.90039062 C50.4845389,4.57877443 50.6622715,4.26562652 50.7807617,3.9609375 C50.8992519,3.65624848 50.9584961,3.32828952 50.9584961,2.97705078 C50.9584961,2.48193112 50.8082697,2.0894383 50.5078125,1.79956055 C50.2073553,1.5096828 49.79053,1.36474609 49.2573242,1.36474609 C48.8722311,1.36474609 48.5072446,1.42822202 48.1623535,1.55517578 C47.8174625,1.68212954 47.4334331,1.91275875 47.0102539,2.24707031 L46.4516602,1.52978516 C47.3064821,0.818844102 48.2374624,0.463378906 49.2446289,0.463378906 C50.1163781,0.463378906 50.7998022,0.686602585 51.2949219,1.13305664 C51.7900415,1.5795107 52.0375977,2.17935821 52.0375977,2.93261719 C52.0375977,3.52083627 51.8725602,4.10269895 51.5424805,4.67822266 C51.2124007,5.25374637 50.5945683,5.98160367 49.6889648,6.86181641 L47.6577148,8.84863281 L47.6577148,8.89941406 L52.4311523,8.89941406 L52.4311523,9.87695312 Z M59.9150391,5.22412109 C59.9150391,6.82797026 59.6621933,8.02554943 59.1564941,8.81689453 C58.650795,9.60823963 57.8774466,10.0039062 56.8364258,10.0039062 C55.8377229,10.0039062 55.0781276,9.59871824 54.5576172,8.78833008 C54.0371068,7.97794191 53.7768555,6.78988413 53.7768555,5.22412109 C53.7768555,3.60757655 54.0286433,2.40788152 54.5322266,1.625 C55.0358098,0.842118481 55.8038685,0.450683594 56.8364258,0.450683594 C57.8435923,0.450683594 58.6084772,0.859045396 59.1311035,1.67578125 C59.6537298,2.4925171 59.9150391,3.67528522 59.9150391,5.22412109 Z M54.8432617,5.22412109 C54.8432617,6.57406274 55.0019515,7.55688169 55.3193359,8.17260742 C55.6367203,8.78833316 56.1424119,9.09619141 56.8364258,9.09619141 C57.5389033,9.09619141 58.0477686,8.78410143 58.3630371,8.15991211 C58.6783056,7.53572279 58.8359375,6.55713557 58.8359375,5.22412109 C58.8359375,3.89110662 58.6783056,2.91463526 58.3630371,2.29467773 C58.0477686,1.67472021 57.5389033,1.36474609 56.8364258,1.36474609 C56.1424119,1.36474609 55.6367203,1.67048848 55.3193359,2.28198242 C55.0019515,2.89347636 54.8432617,3.87417945 54.8432617,5.22412109 Z M65.1010742,9.87695312 L64.0727539,9.87695312 L64.0727539,3.26269531 C64.0727539,2.71256235 64.0896808,2.19205975 64.1235352,1.70117188 L63.931695,1.88454849 L63.931695,1.88454849 L63.7601954,2.03621526 C63.5738852,2.19342979 63.0919744,2.58744259 62.3144531,3.21826172 L61.7558594,2.49462891 L64.2124023,0.596679688 L65.1010742,0.596679688 L65.1010742,9.87695312 Z M71.7026367,0.463378906 C72.5489951,0.463378906 73.2197241,0.660154282 73.7148438,1.05371094 C74.2099634,1.44726759 74.4575195,1.99104471 74.4575195,2.68505859 C74.4575195,3.14209213 74.3157566,3.55891739 74.0322266,3.93554688 C73.7486965,4.31217636 73.2959015,4.65494637 72.6738281,4.96386719 C73.4270871,5.32356951 73.9624008,5.70125128 74.2797852,6.09692383 C74.5971696,6.49259638 74.7558594,6.95068099 74.7558594,7.47119141 C74.7558594,8.24137755 74.4871446,8.85603612 73.949707,9.31518555 C73.4122694,9.77433498 72.6759487,10.0039062 71.7407227,10.0039062 C70.7504833,10.0039062 69.9887722,9.78703016 69.4555664,9.35327148 C68.9223606,8.91951281 68.6557617,8.30485424 68.6557617,7.50927734 C68.6557617,6.44709755 69.3032162,5.61979463 70.5981445,5.02734375 C70.0141572,4.69726397 69.5952161,4.34074085 69.3413086,3.95776367 C69.0874011,3.5747865 68.9604492,3.14632398 68.9604492,2.67236328 C68.9604492,1.99950835 69.2090633,1.46313677 69.7062988,1.06323242 C70.2035344,0.663328079 70.8689737,0.463378906 71.7026367,0.463378906 Z M69.6967773,7.53466797 C69.6967773,8.04248301 69.873452,8.43814962 70.2268066,8.72167969 C70.5801613,9.00520975 71.0763314,9.14697266 71.715332,9.14697266 C72.345869,9.14697266 72.8367495,8.99886216 73.1879883,8.70263672 C73.539227,8.40641128 73.7148438,8.00016534 73.7148438,7.48388672 C73.7148438,7.0734029 73.5498063,6.70841631 73.2197266,6.38891602 C72.8896468,6.06941572 72.3141317,5.75944161 71.4931641,5.45898438 C70.8626271,5.72981906 70.4056004,6.02921385 70.1220703,6.35717773 C69.8385402,6.68514161 69.6967773,7.07763443 69.6967773,7.53466797 Z M71.6899414,1.3203125 C71.1609674,1.3203125 70.746258,1.44726436 70.4458008,1.70117188 C70.1453435,1.95507939 69.9951172,2.29361768 69.9951172,2.71679688 C69.9951172,3.10612174 70.1199532,3.44042829 70.3696289,3.71972656 C70.6193046,3.99902483 71.080563,4.27831892 71.753418,4.55761719 C72.3585642,4.30370967 72.7870267,4.03076318 73.0388184,3.73876953 C73.29061,3.44677588 73.4165039,3.10612174 73.4165039,2.71679688 C73.4165039,2.28938588 73.2631037,1.94978967 72.9562988,1.69799805 C72.6494939,1.44620642 72.227379,1.3203125 71.6899414,1.3203125 Z M79.3261719,6.87451172 L79.3261719,5.90966797 L91.2851562,5.90966797 L91.2851562,6.87451172 L79.3261719,6.87451172 Z M102.291992,9.87695312 L101.136719,6.92529297 L97.4169922,6.92529297 L96.2744141,9.87695312 L95.1826172,9.87695312 L98.8515625,0.55859375 L99.7592773,0.55859375 L103.40918,9.87695312 L102.291992,9.87695312 Z M97.7978516,5.95410156 L100.800293,5.95410156 L99.7211914,3.07861328 C99.5815423,2.71467917 99.4376635,2.26823181 99.2895508,1.73925781 C99.1964514,2.14550984 99.0631519,2.5919572 98.8896484,3.07861328 L97.7978516,5.95410156 Z M105.516602,2.91992188 L105.516602,7.43310547 C105.516602,8.0001656 105.645669,8.42333845 105.903809,8.70263672 C106.161948,8.98193499 106.566078,9.12158203 107.116211,9.12158203 C107.844079,9.12158203 108.376219,8.92269079 108.712646,8.52490234 C109.049074,8.1271139 109.217285,7.47754357 109.217285,6.57617188 L109.217285,2.91992188 L110.270996,2.91992188 L110.270996,9.87695312 L109.401367,9.87695312 L109.249023,8.94384766 L109.191895,8.94384766 C108.976073,9.28662281 108.676678,9.54898998 108.293701,9.73095703 C107.910724,9.91292409 107.473798,10.0039062 106.98291,10.0039062 C106.136552,10.0039062 105.50285,9.80289915 105.081787,9.40087891 C104.660724,8.99885867 104.450195,8.35563593 104.450195,7.47119141 L104.450195,2.91992188 L105.516602,2.91992188 Z M118.199219,2.91992188 L118.199219,3.58642578 L116.910645,3.73876953 C117.029135,3.88688225 117.134928,4.08048383 117.228027,4.31958008 C117.321127,4.55867633 117.367676,4.82844902 117.367676,5.12890625 C117.367676,5.81022476 117.134931,6.35400188 116.669434,6.76025391 C116.203936,7.16650594 115.564945,7.36962891 114.752441,7.36962891 C114.545084,7.36962891 114.350424,7.35270199 114.168457,7.31884766 C113.719887,7.55582801 113.495605,7.85416487 113.495605,8.21386719 C113.495605,8.40429783 113.573892,8.5450028 113.730469,8.63598633 C113.887045,8.72696986 114.15576,8.77246094 114.536621,8.77246094 L115.768066,8.77246094 C116.521325,8.77246094 117.100014,8.93115076 117.50415,9.24853516 C117.908287,9.56591956 118.110352,10.027178 118.110352,10.6323242 C118.110352,11.4025104 117.801435,11.9896627 117.183594,12.3937988 C116.565752,12.797935 115.664394,13 114.479492,13 C113.569657,13 112.868248,12.8307309 112.375244,12.4921875 C111.88224,12.1536441 111.635742,11.6754588 111.635742,11.0576172 C111.635742,10.634438 111.771158,10.2683935 112.041992,9.95947266 C112.312827,9.65055184 112.693682,9.44108128 113.18457,9.33105469 C113.006835,9.25065064 112.857667,9.12581465 112.737061,8.95654297 C112.616454,8.78727129 112.556152,8.59049591 112.556152,8.36621094 C112.556152,8.11230342 112.62386,7.89013767 112.759277,7.69970703 C112.894695,7.50927639 113.108397,7.3251962 113.400391,7.14746094 C113.040688,6.99934822 112.747641,6.74756037 112.52124,6.39208984 C112.294839,6.03661932 112.181641,5.63037338 112.181641,5.17333984 C112.181641,4.41161729 112.410154,3.82446495 112.867188,3.41186523 C113.324221,2.99926552 113.971675,2.79296875 114.80957,2.79296875 C115.173504,2.79296875 115.501463,2.83528604 115.793457,2.91992188 L118.199219,2.91992188 Z M112.651367,11.0449219 C112.651367,11.4215514 112.810057,11.707193 113.127441,11.9018555 C113.444826,12.0965179 113.899737,12.1938477 114.492188,12.1938477 C115.376632,12.1938477 116.031492,12.0616061 116.456787,11.7971191 C116.882082,11.5326321 117.094727,11.1739931 117.094727,10.7211914 C117.094727,10.3445619 116.978354,10.0832527 116.745605,9.93725586 C116.512857,9.79125904 116.074873,9.71826172 115.431641,9.71826172 L114.168457,9.71826172 C113.690265,9.71826172 113.317872,9.83251839 113.05127,10.0610352 C112.784667,10.2895519 112.651367,10.6175109 112.651367,11.0449219 Z M113.222656,5.14794922 C113.222656,5.6346053 113.360187,6.00276568 113.635254,6.25244141 C113.91032,6.50211713 114.293292,6.62695312 114.78418,6.62695312 C115.812505,6.62695312 116.32666,6.12760916 116.32666,5.12890625 C116.32666,4.08365363 115.806158,3.56103516 114.765137,3.56103516 C114.270017,3.56103516 113.889161,3.6943346 113.622559,3.9609375 C113.355956,4.2275404 113.222656,4.62320701 113.222656,5.14794922 Z M126.425781,9.87695312 L125.397461,9.87695312 L125.397461,3.26269531 C125.397461,2.71256235 125.414388,2.19205975 125.448242,1.70117188 L125.355848,1.79144974 L125.355848,1.79144974 L125.149902,1.98046875 C125.039876,2.07779997 124.5363,2.4903935 123.63916,3.21826172 L123.080566,2.49462891 L125.537109,0.596679688 L126.425781,0.596679688 L126.425781,9.87695312 Z M130.062988,5.90966797 C130.062988,4.08576562 130.417396,2.72209111 131.126221,1.81860352 C131.835046,0.915115925 132.883457,0.463378906 134.271484,0.463378906 C134.749677,0.463378906 135.126301,0.503580327 135.401367,0.583984375 L135.401367,1.49169922 C135.075519,1.38590442 134.703127,1.33300781 134.28418,1.33300781 C133.289709,1.33300781 132.530113,1.64298193 132.005371,2.26293945 C131.480629,2.88289698 131.192871,3.85725247 131.14209,5.18603516 L131.218262,5.18603516 C131.683759,4.45816693 132.42008,4.09423828 133.427246,4.09423828 C134.260909,4.09423828 134.917885,4.34602613 135.398193,4.84960938 C135.878502,5.35319262 136.118652,6.03661678 136.118652,6.89990234 C136.118652,7.86475092 135.855227,8.62328825 135.328369,9.17553711 C134.801511,9.72778596 134.089523,10.0039062 133.192383,10.0039062 C132.231766,10.0039062 131.470055,9.64315139 130.907227,8.92163086 C130.344398,8.20011032 130.062988,7.19613273 130.062988,5.90966797 Z M133.179688,9.10888672 C133.780602,9.10888672 134.24715,8.91951687 134.579346,8.54077148 C134.911541,8.1620261 135.077637,7.61507519 135.077637,6.89990234 C135.077637,6.2862925 134.923179,5.80387545 134.614258,5.45263672 C134.305337,5.10139798 133.844079,4.92578125 133.230469,4.92578125 C132.849607,4.92578125 132.50049,5.00406823 132.183105,5.16064453 C131.865721,5.31722083 131.612875,5.53303899 131.424561,5.80810547 C131.236246,6.08317195 131.14209,6.36881362 131.14209,6.66503906 C131.14209,7.10091364 131.226724,7.50715958 131.395996,7.88378906 C131.565268,8.26041855 131.805418,8.55875541 132.116455,8.77880859 C132.427492,8.99886178 132.781899,9.10888672 133.179688,9.10888672 Z M138.975098,8.36621094 L139.070312,8.51220703 C138.960286,8.93538623 138.801596,9.42732467 138.594238,9.98803711 C138.38688,10.5487495 138.171062,11.0703101 137.946777,11.5527344 L137.15332,11.5527344 C137.248536,11.1859791 137.351831,10.7472302 137.463209,10.2364783 L137.531006,9.92138672 C137.668539,9.27392254 137.764811,8.7555358 137.819824,8.36621094 L138.975098,8.36621094 Z M150.051758,9.87695312 L143.95166,9.87695312 L143.95166,8.96923828 L146.395508,6.51269531 C147.140303,5.75943634 147.631184,5.22200682 147.868164,4.90039062 C148.105144,4.57877443 148.282877,4.26562652 148.401367,3.9609375 C148.519857,3.65624848 148.579102,3.32828952 148.579102,2.97705078 C148.579102,2.48193112 148.428875,2.0894383 148.128418,1.79956055 C147.827961,1.5096828 147.411135,1.36474609 146.87793,1.36474609 C146.492837,1.36474609 146.12785,1.42822202 145.782959,1.55517578 C145.438068,1.68212954 145.054039,1.91275875 144.630859,2.24707031 L144.072266,1.52978516 C144.927088,0.818844102 145.858068,0.463378906 146.865234,0.463378906 C147.736984,0.463378906 148.420408,0.686602585 148.915527,1.13305664 C149.410647,1.5795107 149.658203,2.17935821 149.658203,2.93261719 C149.658203,3.52083627 149.493166,4.10269895 149.163086,4.67822266 C148.860513,5.20578606 148.316148,5.86135199 147.529976,6.64493728 L145.27832,8.84863281 L145.27832,8.89941406 L150.051758,8.89941406 L150.051758,9.87695312 Z M157.535645,5.22412109 C157.535645,6.82797026 157.282799,8.02554943 156.7771,8.81689453 C156.2714,9.60823963 155.498052,10.0039062 154.457031,10.0039062 C153.458328,10.0039062 152.698733,9.59871824 152.178223,8.78833008 C151.657712,7.97794191 151.397461,6.78988413 151.397461,5.22412109 C151.397461,3.60757655 151.649249,2.40788152 152.152832,1.625 C152.656415,0.842118481 153.424474,0.450683594 154.457031,0.450683594 C155.464198,0.450683594 156.229083,0.859045396 156.751709,1.67578125 C157.274335,2.4925171 157.535645,3.67528522 157.535645,5.22412109 Z M152.463867,5.22412109 C152.463867,6.57406274 152.622557,7.55688169 152.939941,8.17260742 C153.257326,8.78833316 153.763017,9.09619141 154.457031,9.09619141 C155.159509,9.09619141 155.668374,8.78410143 155.983643,8.15991211 C156.298911,7.53572279 156.456543,6.55713557 156.456543,5.22412109 C156.456543,3.89110662 156.298911,2.91463526 155.983643,2.29467773 C155.668374,1.67472021 155.159509,1.36474609 154.457031,1.36474609 C153.763017,1.36474609 153.257326,1.67048848 152.939941,2.28198242 C152.622557,2.89347636 152.463867,3.87417945 152.463867,5.22412109 Z M162.72168,9.87695312 L161.693359,9.87695312 L161.693359,3.26269531 C161.693359,2.71256235 161.710286,2.19205975 161.744141,1.70117188 L161.651747,1.79144974 L161.651747,1.79144974 L161.445801,1.98046875 C161.335774,2.07779997 160.832198,2.4903935 159.935059,3.21826172 L159.376465,2.49462891 L161.833008,0.596679688 L162.72168,0.596679688 L162.72168,9.87695312 Z M172.351074,4.55761719 C172.351074,8.18849472 170.94614,10.0039062 168.13623,10.0039062 C167.645343,10.0039062 167.256024,9.96158896 166.968262,9.87695312 L166.968262,8.96923828 C167.306805,9.07926487 167.691892,9.13427734 168.123535,9.13427734 C169.139165,9.13427734 169.906166,8.8200715 170.424561,8.19165039 C170.942955,7.56322928 171.225423,6.59945311 171.271973,5.30029297 L171.195801,5.30029297 C170.963052,5.6515317 170.654136,5.91918853 170.269043,6.10327148 C169.88395,6.28735444 169.450198,6.37939453 168.967773,6.37939453 C168.146806,6.37939453 167.49512,6.13395428 167.012695,5.64306641 C166.530271,5.15217854 166.289062,4.46663852 166.289062,3.58642578 C166.289062,2.62157721 166.558835,1.85986607 167.098389,1.30126953 C167.637942,0.742672988 168.347815,0.463378906 169.228027,0.463378906 C169.858564,0.463378906 170.409747,0.625242522 170.881592,0.948974609 C171.353437,1.2727067 171.716307,1.74454443 171.970215,2.36450195 C172.224122,2.98445948 172.351074,3.71549058 172.351074,4.55761719 Z" id="Feb16,2018—Aug16,2019" fill="#484848" fill-rule="nonzero"></path>
                        <path d="M169.228027,1.36474609 C169.630048,1.36474609 169.986571,1.47265517 170.297607,1.68847656 C170.608644,1.90429795 170.850911,2.20051895 171.024414,2.57714844 C171.197918,2.95377792 171.284668,3.36425559 171.284668,3.80859375 C171.284668,4.10481919 171.19157,4.388345 171.005371,4.65917969 C170.819172,4.93001437 170.564211,5.14371667 170.240479,5.30029297 C169.916746,5.45686927 169.562339,5.53515625 169.177246,5.53515625 C168.555173,5.53515625 168.091798,5.36059745 167.787109,5.01147461 C167.48242,4.66235177 167.330078,4.18310852 167.330078,3.57373047 C167.330078,2.87971658 167.495116,2.33805533 167.825195,1.94873047 C168.155275,1.55940561 168.622881,1.36474609 169.228027,1.36474609 Z" id="Path" fill="#FFFFFF"></path>
                        <path d="M6.26806641,21.8754883 C6.26806641,23.1717187 5.91626328,24.1626756 5.21264648,24.8483887 C4.50902969,25.5341017 3.49658864,25.8769531 2.17529297,25.8769531 L0,25.8769531 L0,18.0244141 L2.40625,18.0244141 C3.62728475,18.0244141 4.57616849,18.3627896 5.25292969,19.0395508 C5.92969088,19.716312 6.26806641,20.661615 6.26806641,21.8754883 Z M5.30126953,21.9077148 C5.30126953,20.8836212 5.04435478,20.1119818 4.53051758,19.5927734 C4.01668037,19.0735651 3.25309751,18.8139648 2.23974609,18.8139648 L0.913085938,18.8139648 L0.913085938,25.0874023 L2.02490234,25.0874023 C3.11344945,25.0874023 3.93163789,24.8197455 4.47949219,24.2844238 C5.02734649,23.7491021 5.30126953,22.9568737 5.30126953,21.9077148 Z M11.5048828,25.8769531 L11.3276367,25.0390625 L11.284668,25.0390625 C10.9910467,25.4078794 10.698325,25.6576328 10.4064941,25.7883301 C10.1146633,25.9190273 9.75032771,25.984375 9.31347656,25.984375 C8.72981479,25.984375 8.27238121,25.8339859 7.94116211,25.5332031 C7.60994301,25.2324204 7.44433594,24.8045275 7.44433594,24.2495117 C7.44433594,23.0607037 8.39501002,22.437663 10.2963867,22.3803711 L11.2954102,22.3481445 L11.2954102,21.9829102 C11.2954102,21.5209938 11.1960459,21.1799327 10.9973145,20.9597168 C10.798583,20.7395009 10.4807965,20.6293945 10.0439453,20.6293945 C9.55338296,20.6293945 8.99837549,20.7797837 8.37890625,21.0805664 L8.10498047,20.3984375 C8.39502098,20.2408846 8.71280752,20.1173507 9.05834961,20.027832 C9.4038917,19.9383134 9.75032378,19.8935547 10.0976562,19.8935547 C10.7994827,19.8935547 11.3195784,20.0493148 11.657959,20.3608398 C11.9963396,20.6723648 12.1655273,21.1718716 12.1655273,21.859375 L12.1655273,25.8769531 L11.5048828,25.8769531 Z M9.49072266,25.2485352 C10.0457385,25.2485352 10.4816879,25.0963557 10.798584,24.7919922 C11.1154801,24.4876287 11.2739258,24.0615262 11.2739258,23.5136719 L11.2739258,22.9819336 L10.3823242,23.0195312 C9.6733363,23.0445965 9.16219232,23.1547028 8.84887695,23.3498535 C8.53556158,23.5450042 8.37890625,23.848468 8.37890625,24.2602539 C8.37890625,24.5825211 8.47648014,24.8277986 8.67163086,24.9960938 C8.86678157,25.1643889 9.13980944,25.2485352 9.49072266,25.2485352 Z M21.5058594,25.8769531 L21.5058594,22.0473633 C21.5058594,21.5782854 21.4056,21.2264823 21.2050781,20.9919434 C21.0045563,20.7574044 20.693036,20.6401367 20.2705078,20.6401367 C19.715492,20.6401367 19.3055026,20.7994776 19.0405273,21.1181641 C18.7755521,21.4368506 18.6430664,21.9274055 18.6430664,22.5898438 L18.6430664,25.8769531 L17.7514648,25.8769531 L17.7514648,22.0473633 C17.7514648,21.5782854 17.6512054,21.2264823 17.4506836,20.9919434 C17.2501618,20.7574044 16.9368511,20.6401367 16.5107422,20.6401367 C15.9521456,20.6401367 15.5430514,20.8075341 15.2834473,21.142334 C15.0238431,21.4771338 14.894043,22.0258751 14.894043,22.7885742 L14.894043,25.8769531 L14.0024414,25.8769531 L14.0024414,19.9902344 L14.7275391,19.9902344 L14.8725586,20.7958984 L14.9155273,20.7958984 C15.0838225,20.5094387 15.3210434,20.2856453 15.6271973,20.1245117 C15.9333511,19.9633781 16.2762025,19.8828125 16.6557617,19.8828125 C17.5760137,19.8828125 18.1775702,20.215817 18.4604492,20.8818359 L18.503418,20.8818359 C18.6788746,20.5738917 18.9331038,20.3304045 19.2661133,20.1513672 C19.5991228,19.9723298 19.9786763,19.8828125 20.4047852,19.8828125 C21.0708041,19.8828125 21.5694157,20.0537906 21.9006348,20.395752 C22.2318539,20.7377133 22.3974609,21.2846642 22.3974609,22.0366211 L22.3974609,25.8769531 L21.5058594,25.8769531 Z M27.8544922,25.8769531 L27.6772461,25.0390625 L27.6342773,25.0390625 C27.3406561,25.4078794 27.0479344,25.6576328 26.7561035,25.7883301 C26.4642726,25.9190273 26.0999371,25.984375 25.6630859,25.984375 C25.0794242,25.984375 24.6219906,25.8339859 24.2907715,25.5332031 C23.9595524,25.2324204 23.7939453,24.8045275 23.7939453,24.2495117 C23.7939453,23.0607037 24.7446194,22.437663 26.6459961,22.3803711 L27.6450195,22.3481445 L27.6450195,21.9829102 C27.6450195,21.5209938 27.5456553,21.1799327 27.3469238,20.9597168 C27.1481924,20.7395009 26.8304058,20.6293945 26.3935547,20.6293945 C25.9029923,20.6293945 25.3479849,20.7797837 24.7285156,21.0805664 L24.4545898,20.3984375 C24.7446304,20.2408846 25.0624169,20.1173507 25.407959,20.027832 C25.7535011,19.9383134 26.0999332,19.8935547 26.4472656,19.8935547 C27.1490921,19.8935547 27.6691878,20.0493148 28.0075684,20.3608398 C28.345949,20.6723648 28.5151367,21.1718716 28.5151367,21.859375 L28.5151367,25.8769531 L27.8544922,25.8769531 Z M25.840332,25.2485352 C26.3953478,25.2485352 26.8312972,25.0963557 27.1481934,24.7919922 C27.4650895,24.4876287 27.6235352,24.0615262 27.6235352,23.5136719 L27.6235352,22.9819336 L26.7319336,23.0195312 C26.0229457,23.0445965 25.5118017,23.1547028 25.1984863,23.3498535 C24.885171,23.5450042 24.7285156,23.848468 24.7285156,24.2602539 C24.7285156,24.5825211 24.8260895,24.8277986 25.0212402,24.9960938 C25.2163909,25.1643889 25.4894188,25.2485352 25.840332,25.2485352 Z M30.9267503,25.4150407 C30.7745422,25.3454751 30.649409,25.2403386 30.5480957,25.0981445 C30.4460444,24.9549146 30.3950195,24.7884124 30.3950195,24.5986328 C30.3950195,24.383788 30.4523106,24.1958016 30.5668945,24.034668 C30.6814784,23.8735344 30.8623035,23.7177742 31.109375,23.5673828 C30.8050115,23.4420567 30.5570485,23.2290054 30.3654785,22.9282227 C30.1739085,22.6274399 30.078125,22.2836933 30.078125,21.8969727 C30.078125,21.2524382 30.2714824,20.755617 30.6582031,20.4064941 C31.0449238,20.0573713 31.5927699,19.8828125 32.3017578,19.8828125 C32.6097021,19.8828125 32.8872058,19.9186194 33.1342773,19.9902344 L35.1699219,19.9902344 L35.1699219,20.5541992 L34.0795898,20.6831055 C34.1798508,20.8084316 34.2693681,20.9722483 34.3481445,21.1745605 C34.426921,21.3768728 34.4663086,21.605142 34.4663086,21.859375 C34.4663086,22.4358753 34.2693705,22.8959944 33.8754883,23.2397461 C33.4816061,23.5834978 32.9409214,23.7553711 32.253418,23.7553711 C32.0779614,23.7553711 31.9132495,23.7410483 31.7592773,23.7124023 C31.3797182,23.9129242 31.1899414,24.1653631 31.1899414,24.4697266 C31.1899414,24.6308602 31.2561842,24.7499182 31.3886719,24.8269043 C31.5211595,24.9038904 31.7485335,24.9423828 32.0708008,24.9423828 L33.112793,24.9423828 C33.7501659,24.9423828 34.2398258,25.0766588 34.5817871,25.3452148 C34.9237485,25.6137709 35.0947266,26.0040665 35.0947266,26.5161133 C35.0947266,27.1678092 34.8333359,27.6646305 34.3105469,28.0065918 C33.7877578,28.3485531 33.0250701,28.5195312 32.0224609,28.5195312 C31.2526003,28.5195312 30.6591004,28.3763035 30.2419434,28.0898438 C29.8247863,27.803384 29.6162109,27.3987656 29.6162109,26.8759766 C29.6162109,26.5179019 29.7307931,26.2081719 29.9599609,25.9467773 C30.1891274,25.6853844 30.5113873,25.5081406 30.9267503,25.4150407 Z M30.4755859,26.8652344 C30.4755859,27.1839209 30.6098619,27.4256177 30.878418,27.590332 C31.146974,27.7550464 31.5318985,27.8374023 32.0332031,27.8374023 C32.7815793,27.8374023 33.3356916,27.7255057 33.6955566,27.501709 C34.0554217,27.2779123 34.2353516,26.9744485 34.2353516,26.5913086 C34.2353516,26.2726221 34.1368825,26.0515143 33.9399414,25.9279785 C33.7430003,25.8044427 33.3723986,25.7426758 32.828125,25.7426758 L31.7592773,25.7426758 C31.3546529,25.7426758 31.0395519,25.8393545 30.8139648,26.0327148 C30.5883778,26.2260752 30.4755859,26.5035789 30.4755859,26.8652344 Z M30.9589844,21.8754883 C30.9589844,22.2872742 31.0753569,22.5987945 31.3081055,22.8100586 C31.540854,23.0213227 31.8649068,23.1269531 32.2802734,23.1269531 C33.150395,23.1269531 33.5854492,22.7044313 33.5854492,21.859375 C33.5854492,20.9749305 33.1450239,20.5327148 32.2641602,20.5327148 C31.8452127,20.5327148 31.5229503,20.6455067 31.2973633,20.8710938 C31.0717762,21.0966808 30.9589844,21.4314756 30.9589844,21.8754883 Z M38.8652344,25.984375 C37.9951128,25.984375 37.3085149,25.7194037 36.8054199,25.1894531 C36.302325,24.6595026 36.0507812,23.9236701 36.0507812,22.9819336 C36.0507812,22.0330356 36.2844215,21.2792997 36.751709,20.7207031 C37.2189965,20.1621066 37.846513,19.8828125 38.6342773,19.8828125 C39.3719112,19.8828125 39.9555643,20.1254045 40.3852539,20.6105957 C40.8149436,21.0957869 41.0297852,21.7358359 41.0297852,22.5307617 L41.0297852,23.0947266 L36.9746094,23.0947266 C36.9925131,23.7858107 37.1670719,24.3103823 37.498291,24.668457 C37.8295101,25.0265317 38.2958954,25.2055664 38.8974609,25.2055664 C39.5312532,25.2055664 40.1578745,25.0730808 40.7773438,24.8081055 L40.7773438,25.6030273 C40.462238,25.7390957 40.1641453,25.8366696 39.8830566,25.895752 C39.601968,25.9548343 39.2626973,25.984375 38.8652344,25.984375 Z M38.6235352,20.6293945 C38.1508765,20.6293945 37.7740086,20.7833643 37.4929199,21.0913086 C37.2118313,21.3992528 37.0462242,21.8253554 36.9960938,22.3696289 L40.0737305,22.3696289 C40.0737305,21.8074516 39.9484062,21.3768732 39.6977539,21.0778809 C39.4471016,20.7788885 39.0890323,20.6293945 38.6235352,20.6293945 Z M44.4511719,25.2485352 C44.6087247,25.2485352 44.7609042,25.2368979 44.9077148,25.213623 C45.0545255,25.1903482 45.170898,25.1661785 45.2568359,25.1411133 L45.2568359,25.8232422 C45.1601558,25.8697919 45.0178232,25.9082844 44.829834,25.9387207 C44.6418448,25.9691571 44.472657,25.984375 44.3222656,25.984375 C43.1835881,25.984375 42.6142578,25.3846089 42.6142578,24.1850586 L42.6142578,20.6831055 L41.7709961,20.6831055 L41.7709961,20.253418 L42.6142578,19.8828125 L42.9902344,18.6259766 L43.5058594,18.6259766 L43.5058594,19.9902344 L45.2138672,19.9902344 L45.2138672,20.6831055 L43.5058594,20.6831055 L43.5058594,24.1474609 C43.5058594,24.5019549 43.5900057,24.7740876 43.7583008,24.9638672 C43.9265959,25.1536468 44.1575506,25.2485352 44.4511719,25.2485352 Z" id="Damaget" fill="#55B85A" fill-rule="nonzero"></path>
                    </g>
                    <path d="M389.964844,50.3271484 C389.964844,50.0436184 390.029378,49.8288582 390.158447,49.6828613 C390.287517,49.5368645 390.472655,49.4638672 390.713867,49.4638672 C390.959311,49.4638672 391.150797,49.5368645 391.28833,49.6828613 C391.425863,49.8288582 391.494629,50.0436184 391.494629,50.3271484 C391.494629,50.6022149 391.424805,50.8138013 391.285156,50.9619141 C391.145507,51.1100268 390.955079,51.184082 390.713867,51.184082 C390.498046,51.184082 390.319255,51.1174323 390.17749,50.9841309 C390.035725,50.8508294 389.964844,50.6318375 389.964844,50.3271484 Z M395.82373,50.2573242 C396.009929,50.2573242 396.189778,50.2435711 396.363281,50.2160645 L396.596558,50.1740112 C396.665324,50.159729 396.725097,50.1451824 396.775879,50.1303711 L396.775879,50.9365234 C396.661621,50.9915367 396.493409,51.0370278 396.27124,51.072998 C396.049071,51.1089683 395.849122,51.1269531 395.671387,51.1269531 C394.325677,51.1269531 393.652832,50.4181386 393.652832,49.0004883 L393.652832,44.8618164 L392.65625,44.8618164 L392.65625,44.3540039 L393.652832,43.9160156 L394.097168,42.4306641 L394.706543,42.4306641 L394.706543,44.0429688 L396.725098,44.0429688 L396.725098,44.8618164 L394.706543,44.8618164 L394.706543,48.9560547 C394.706543,49.3750021 394.805989,49.6966135 395.004883,49.9208984 C395.203777,50.1451834 395.476724,50.2573242 395.82373,50.2573242 Z M399.841797,47.4389648 L397.42334,44.0429688 L398.623047,44.0429688 L400.45752,46.7089844 L402.285645,44.0429688 L403.472656,44.0429688 L401.054199,47.4389648 L403.599609,51 L402.40625,51 L400.45752,48.1816406 L398.489746,51 L397.296387,51 L399.841797,47.4389648 Z M407.224121,50.2573242 C407.41032,50.2573242 407.590168,50.2435711 407.763672,50.2160645 L407.996948,50.1740112 C408.065714,50.159729 408.125488,50.1451824 408.17627,50.1303711 L408.17627,50.9365234 C408.062011,50.9915367 407.8938,51.0370278 407.671631,51.072998 C407.449462,51.1089683 407.249513,51.1269531 407.071777,51.1269531 C405.726067,51.1269531 405.053223,50.4181386 405.053223,49.0004883 L405.053223,44.8618164 L404.056641,44.8618164 L404.056641,44.3540039 L405.053223,43.9160156 L405.497559,42.4306641 L406.106934,42.4306641 L406.106934,44.0429688 L408.125488,44.0429688 L408.125488,44.8618164 L406.106934,44.8618164 L406.106934,48.9560547 C406.106934,49.3750021 406.206379,49.6966135 406.405273,49.9208984 C406.604168,50.1451834 406.877114,50.2573242 407.224121,50.2573242 Z" id=".txt" fill="#3085F8" fill-rule="nonzero"></path>
                    <line x1="389" y1="55" x2="409" y2="55" id="Line-10" stroke="#2064F5" stroke-width="0.6" stroke-linecap="square"></line>
                    <g id="cloud-download-light" transform="translate(355.000000, 37.000000)" fill="#2064F5" fill-rule="nonzero">
                        <path d="M25.2220588,9.12352941 C25.3455882,8.68676471 25.4117647,8.23235294 25.4117647,7.76470588 C25.4117647,5.03382353 23.2014706,2.82352941 20.4705882,2.82352941 C19.7338235,2.82352941 19.0191176,2.98235294 18.3529412,3.3 C16.9588235,1.31470588 14.6338235,1.0658141e-13 12,1.0658141e-13 C7.83529412,1.0658141e-13 4.425,3.28676471 4.24411765,7.42058824 C1.72941176,8.30294118 -1.0658141e-13,10.6897059 -1.0658141e-13,13.4117647 C-1.0658141e-13,16.9235294 2.84117647,19.7647059 6.35294118,19.7647059 L22.5882353,19.7647059 C25.7073529,19.7647059 28.2352941,17.2411765 28.2352941,14.1176471 C28.2352941,12.0441176 27.0970588,10.1117647 25.2220588,9.12352941 Z M22.5882353,18.3529412 L6.35294118,18.3529412 C3.62205882,18.3529412 1.41176471,16.1426471 1.41176471,13.4117647 C1.41176471,10.9058824 3.27352941,8.83676471 5.69117647,8.51470588 C5.66029412,8.26764706 5.64705882,8.01617647 5.64705882,7.76470588 C5.64705882,4.25735294 8.49264706,1.41176471 12,1.41176471 C14.6602941,1.41176471 16.9367647,3.04411765 17.8852941,5.36470588 C18.5294118,4.67205882 19.4470588,4.23529412 20.4705882,4.23529412 C22.4205882,4.23529412 24,5.81470588 24,7.76470588 C24,8.58088235 23.7220588,9.33529412 23.2544118,9.93529412 C25.2794118,10.2529412 26.8235294,12.0044118 26.8235294,14.1176471 C26.8235294,16.4558824 24.9264706,18.3529412 22.5882353,18.3529412 Z M17.8764706,9.81617647 C17.6691176,9.60882353 17.3338235,9.60882353 17.1264706,9.81617647 L14.1176471,12.825 L14.1176471,6.17647059 C14.1176471,5.88529412 13.8794118,5.64705882 13.5882353,5.64705882 L13.2352941,5.64705882 C12.9441176,5.64705882 12.7058824,5.88529412 12.7058824,6.17647059 L12.7058824,12.825 L9.69705882,9.81617647 C9.48970588,9.60882353 9.15441176,9.60882353 8.94705882,9.81617647 L8.69558824,10.0676471 C8.48823529,10.275 8.48823529,10.6102941 8.69558824,10.8176471 L13.0323529,15.1544118 C13.2397059,15.3617647 13.575,15.3617647 13.7823529,15.1544118 L18.1191176,10.8176471 C18.3264706,10.6102941 18.3264706,10.275 18.1191176,10.0676471 L17.8764706,9.81617647 L17.8764706,9.81617647 Z" id="Shape"></path>
                    </g>
                    <path d="M249.452,40.124 C249.06,39.312 248.416,38.528 247.688,37.968 C246.82,37.324 245.952,37.1 245.252,37.044 L245.252,34.58 L243.18,34.58 L243.18,37.072 C241.864,37.268 240.884,37.856 240.24,38.472 C239.372,39.312 238.812,40.572 238.812,42.084 C238.812,43.092 239.12,44.044 239.988,44.94 C240.632,45.584 241.78,46.284 242.62,46.648 L244.412,47.404 L244.816768,47.57984 C245.33824,47.80832 245.7952,48.0368 246.288,48.552 C246.876,49.168 247.1,49.784 247.1,50.596 C247.1,51.464 246.904,52.164 246.232,52.836 C245.588,53.508 244.916,53.732 244.02,53.732 C243.04,53.732 242.228,53.424 241.584,52.612 C241.136,52.024 240.8,51.156 240.8,50.232 L237.972,50.848 C238.084,52.136 238.532,53.368 239.54,54.488 C240.632,55.72 241.836,56.224 243.18,56.336 L243.18,59.08 L245.252,59.08 L245.252,56.252 C246.4,56.084 247.408,55.608 248.332,54.628 C249.536,53.34 249.956,51.912 249.956,50.372 C249.956,49.14 249.62,47.908 248.668,46.844 C247.8,45.864 246.596,45.304 245.56,44.884 L244.16,44.324 C243.656,44.128 242.788,43.708 242.396,43.372 C241.864,42.924 241.668,42.448 241.668,41.804 C241.668,41.244 241.78,40.824 242.228,40.376 C242.62,39.984 243.292,39.62 244.3,39.62 C245.084,39.62 245.756,39.816 246.316,40.292 C246.736,40.656 246.988,41.048 247.156,41.468 L249.452,40.124 Z M265.524,53.368 L258.552,53.368 L262.050254,49.2324358 C262.893157,48.2321983 263.574182,47.3887273 264.124,46.564 C264.88,45.444 265.468,44.184 265.468,42.644 C265.468,39.732 263.424,37.016 259.448,37.016 C257.194,37.016 255.86575,37.9931806 255.167524,38.7399951 L255.08,38.836 C254.352,39.648 253.596,41.104 253.512,42.924 L256.256,42.924 C256.368,41.16 257.46,39.536 259.56,39.536 C261.632,39.536 262.668,40.992 262.668,42.56 C262.668,43.652 262.22,44.464 261.688,45.248 C261.140444,46.0444444 260.305284,47.1063704 259.674151,47.8831495 L252.98,56 L265.524,56 L265.524,53.368 Z M274.904,47.516 C275.716,47.516 276.556,47.824 277.116,48.384 C277.676,48.944 277.984,49.84 277.984,50.652 C277.984,51.38 277.704,52.22 277.144,52.836 C276.752,53.284 276.052,53.788 274.904,53.788 C273.756,53.788 273.056,53.284 272.664,52.836 C272.104,52.22 271.824,51.38 271.824,50.652 C271.824,49.84 272.132,48.944 272.692,48.384 C273.252,47.824 274.092,47.516 274.904,47.516 Z M274.904,39.536 C275.772,39.536 276.472,39.844 276.948,40.292 C277.424,40.768 277.732,41.524 277.732,42.364 C277.732,43.232 277.396,43.904 276.976,44.324 C276.472,44.856 275.632,45.164 274.904,45.164 C274.176,45.164 273.336,44.856 272.832,44.324 C272.412,43.904 272.076,43.232 272.076,42.364 C272.076,41.524 272.384,40.768 272.86,40.292 C273.336,39.844 274.036,39.536 274.904,39.536 Z M277.984,46.284 C278.768,45.948 279.3,45.388 279.636,44.884 C280.112,44.128 280.308,43.176 280.308,42.336 C280.308,40.852 279.776,39.452 278.74,38.444 L278.555045,38.2766349 C277.915048,37.7265397 276.753333,37.016 274.904,37.016 C272.86,37.016 271.656,37.884 271.068,38.444 C270.032,39.452 269.5,40.852 269.5,42.336 C269.5,43.176 269.696,44.128 270.172,44.884 C270.508,45.388 271.04,45.948 271.824,46.284 C270.956,46.648 270.284,47.208 269.864,47.796 C269.164,48.72 269.024,49.756 269.024,50.596 C269.024,52.5 269.752,53.788 270.508,54.572 C271.376,55.496 272.776,56.308 274.904,56.308 C277.032,56.308 278.432,55.496 279.3,54.572 C280.056,53.788 280.784,52.5 280.784,50.596 C280.784,49.756 280.644,48.72 279.944,47.796 C279.524,47.208 278.852,46.648 277.984,46.284 Z M294.672,38.22 L292.6,36.68 L286.756015,44.197695 C286.184992,44.9358347 285.661091,45.6578182 285.152,46.676 C284.564,47.824 284.256,48.888 284.256,50.26 C284.256,52.08 284.9,53.452 285.88,54.488 C287.308,55.972 289.072,56.308 290.696,56.308 L291.034366,56.3022007 C292.275221,56.2590926 294.080348,55.950087 295.512,54.544 C296.772,53.312 297.36,51.492 297.36,49.84 C297.36,48.132 296.716,46.536 295.708,45.472 C294.952,44.688 293.58,43.736 291.396,43.736 C291.004,43.736 290.64,43.764 290.22,43.848 L294.672,38.22 Z M290.836,46.172 C291.788,46.172 292.824,46.564 293.468,47.208 C294.168,47.908 294.56,49.028 294.56,49.98 C294.56,50.932 294.168,52.052 293.468,52.752 C292.768,53.452 291.704,53.788 290.836,53.788 C289.856,53.788 288.736,53.312 288.148,52.752 C287.42,52.052 287.056,50.932 287.056,49.98 C287.056,48.804 287.532,47.796 288.148,47.208 C288.82,46.564 289.884,46.172 290.836,46.172 Z M300.608,54.656 C300.608,55.58 301.364,56.336 302.288,56.336 C303.212,56.336 303.968,55.58 303.968,54.656 C303.968,53.732 303.212,52.976 302.288,52.976 C301.364,52.976 300.608,53.732 300.608,54.656 Z M317.632,38.22 L315.56,36.68 L309.716015,44.197695 C309.144992,44.9358347 308.621091,45.6578182 308.112,46.676 C307.524,47.824 307.216,48.888 307.216,50.26 C307.216,52.08 307.86,53.452 308.84,54.488 C310.268,55.972 312.032,56.308 313.656,56.308 L313.994366,56.3022007 C315.235221,56.2590926 317.040348,55.950087 318.472,54.544 C319.732,53.312 320.32,51.492 320.32,49.84 C320.32,48.132 319.676,46.536 318.668,45.472 C317.912,44.688 316.54,43.736 314.356,43.736 C313.964,43.736 313.6,43.764 313.18,43.848 L317.632,38.22 Z M313.796,46.172 C314.748,46.172 315.784,46.564 316.428,47.208 C317.128,47.908 317.52,49.028 317.52,49.98 C317.52,50.932 317.128,52.052 316.428,52.752 C315.728,53.452 314.664,53.788 313.796,53.788 C312.816,53.788 311.696,53.312 311.108,52.752 C310.38,52.052 310.016,50.932 310.016,49.98 C310.016,48.804 310.492,47.796 311.108,47.208 C311.78,46.564 312.844,46.172 313.796,46.172 Z M321.496,55.244 L330.792,39.956 L321.608,39.956 L321.608,37.324 L335.496,37.324 L323.736,56.644 L321.496,55.244 Z" id="$286.67" fill="#313131" fill-rule="nonzero"></path>
                </g>
            </g>
        </g>
    </g>
</svg>