<?xml version="1.0" encoding="UTF-8"?>
<svg width="567px" height="389px" viewBox="0 0 567 389" version="1.1" xmlns="http://www.w3.org/2000/svg" xmlns:xlink="http://www.w3.org/1999/xlink">
    <!-- Generator: Sketch 51.3 (57544) - http://www.bohemiancoding.com/sketch -->
    <title>form</title>
    <desc>Created with Sketch.</desc>
    <defs></defs>
    <g id="Page-1" stroke="none" stroke-width="1" fill="none" fill-rule="evenodd">
        <g id="BlackBox">
            <g id="Illustration">
                <g id="Form">
                    <g id="input" transform="translate(92.000000, 87.000000)">
                        <rect id="Rectangle" stroke="#B9C7D4" fill="#FFFFFF" x="0.5" y="18.5" width="367" height="31" rx="2"></rect>
                        <g id="chevron-down-regular" transform="translate(345.000000, 30.000000)" fill="#B9C7D4" fill-rule="nonzero">
                            <path d="M13.8007843,0.762352941 L13.1796078,0.141176471 C13.0321569,-0.0062745098 12.7937255,-0.0062745098 12.6462745,0.141176471 L6.96470588,5.81019608 L1.28313725,0.141176471 C1.13568627,-0.0062745098 0.897254902,-0.0062745098 0.749803922,0.141176471 L0.128627451,0.762352941 C-0.0188235294,0.909803922 -0.0188235294,1.14823529 0.128627451,1.29568627 L6.69803922,7.86509804 C6.8454902,8.01254902 7.08392157,8.01254902 7.23137255,7.86509804 L13.8007843,1.29568627 C13.9482353,1.14823529 13.9482353,0.909803922 13.8007843,0.762352941 Z" id="Path"></path>
                        </g>
                        <path d="M37.5625,38 L36.4960938,35.2753906 L33.0625,35.2753906 L32.0078125,38 L31,38 L34.3867188,29.3984375 L35.2246094,29.3984375 L38.59375,38 L37.5625,38 Z M33.4140625,34.3789062 L36.1855469,34.3789062 L35.1894531,31.7246094 C35.0605462,31.3886702 34.9277351,30.9765649 34.7910156,30.4882812 C34.7050777,30.8632831 34.5820321,31.2753884 34.421875,31.7246094 L33.4140625,34.3789062 Z M40.5976562,38 L39.625,38 L39.625,28.8828125 L40.5976562,28.8828125 L40.5976562,38 Z M43.6328125,38 L42.6601562,38 L42.6601562,28.8828125 L43.6328125,28.8828125 L43.6328125,38 Z M51.3789062,38.1171875 C50.4492141,38.1171875 49.7294947,37.8310575 49.2197266,37.2587891 C48.7099584,36.6865206 48.4550781,35.8769584 48.4550781,34.8300781 C48.4550781,33.755854 48.7138646,32.9257842 49.2314453,32.3398438 C49.749026,31.7539033 50.4863233,31.4609375 51.4433594,31.4609375 C51.7519547,31.4609375 52.0605453,31.4941403 52.3691406,31.5605469 C52.6777359,31.6269535 52.919921,31.7050777 53.0957031,31.7949219 L52.796875,32.6210938 C52.5820302,32.5351558 52.3476575,32.4638675 52.09375,32.4072266 C51.8398425,32.3505857 51.6152354,32.3222656 51.4199219,32.3222656 C50.1152279,32.3222656 49.4628906,33.1542886 49.4628906,34.8183594 C49.4628906,35.6074258 49.6220687,36.2128885 49.9404297,36.6347656 C50.2587907,37.0566427 50.7304656,37.2675781 51.3554688,37.2675781 C51.8906277,37.2675781 52.4394503,37.1523449 53.0019531,36.921875 L53.0019531,37.7832031 C52.5722635,38.0058605 52.0312533,38.1171875 51.3789062,38.1171875 Z M58.4746094,38 L58.28125,37.0859375 L58.234375,37.0859375 C57.9140609,37.4882833 57.5947282,37.7607415 57.2763672,37.9033203 C56.9580062,38.0458992 56.5605493,38.1171875 56.0839844,38.1171875 C55.4472624,38.1171875 54.948244,37.9531266 54.5869141,37.625 C54.2255841,37.2968734 54.0449219,36.8300812 54.0449219,36.2246094 C54.0449219,34.9277279 55.0820209,34.2480472 57.15625,34.1855469 L58.2460938,34.1503906 L58.2460938,33.7519531 C58.2460938,33.2480444 58.1376964,32.8759778 57.9208984,32.6357422 C57.7041005,32.3955066 57.3574243,32.2753906 56.8808594,32.2753906 C56.3457004,32.2753906 55.7402378,32.4394515 55.0644531,32.7675781 L54.765625,32.0234375 C55.0820328,31.8515616 55.4287091,31.7167974 55.8056641,31.6191406 C56.1826191,31.5214839 56.560545,31.4726562 56.9394531,31.4726562 C57.705082,31.4726562 58.2724591,31.6425764 58.6416016,31.9824219 C59.010744,32.3222673 59.1953125,32.8671837 59.1953125,33.6171875 L59.1953125,38 L58.4746094,38 Z M56.2773438,37.3144531 C56.8828155,37.3144531 57.3583967,37.1484392 57.7041016,36.8164062 C58.0498064,36.4843733 58.2226562,36.0195342 58.2226562,35.421875 L58.2226562,34.8417969 L57.25,34.8828125 C56.4765586,34.9101564 55.918947,35.0302724 55.5771484,35.2431641 C55.2353499,35.4560558 55.0644531,35.7871071 55.0644531,36.2363281 C55.0644531,36.5878924 55.1708974,36.8554678 55.3837891,37.0390625 C55.5966808,37.2226572 55.8945293,37.3144531 56.2773438,37.3144531 Z M63.2734375,37.3144531 C63.4453134,37.3144531 63.6113273,37.3017579 63.7714844,37.2763672 C63.9316414,37.2509764 64.0585933,37.2246095 64.1523438,37.1972656 L64.1523438,37.9414062 C64.0468745,37.9921878 63.8916026,38.0341795 63.6865234,38.0673828 C63.4814443,38.1005861 63.2968758,38.1171875 63.1328125,38.1171875 C61.8906188,38.1171875 61.2695312,37.4628972 61.2695312,36.1542969 L61.2695312,32.3339844 L60.3496094,32.3339844 L60.3496094,31.8652344 L61.2695312,31.4609375 L61.6796875,30.0898438 L62.2421875,30.0898438 L62.2421875,31.578125 L64.1054688,31.578125 L64.1054688,32.3339844 L62.2421875,32.3339844 L62.2421875,36.1132812 C62.2421875,36.5000019 62.3339835,36.796874 62.5175781,37.0039062 C62.7011728,37.2109385 62.9531234,37.3144531 63.2734375,37.3144531 Z M68.1484375,38.1171875 C67.199214,38.1171875 66.4501981,37.8281279 65.9013672,37.25 C65.3525363,36.6718721 65.078125,35.8691458 65.078125,34.8417969 C65.078125,33.8066354 65.3330053,32.984378 65.8427734,32.375 C66.3525416,31.765622 67.0371051,31.4609375 67.8964844,31.4609375 C68.7011759,31.4609375 69.3378883,31.7255833 69.8066406,32.2548828 C70.275393,32.7841823 70.5097656,33.4824175 70.5097656,34.3496094 L70.5097656,34.9648438 L66.0859375,34.9648438 C66.1054688,35.7187538 66.2958966,36.2910137 66.6572266,36.6816406 C67.0185565,37.0722676 67.5273405,37.2675781 68.1835938,37.2675781 C68.8750035,37.2675781 69.5585904,37.1230483 70.234375,36.8339844 L70.234375,37.7011719 C69.8906233,37.8496101 69.5654312,37.9560544 69.2587891,38.0205078 C68.9521469,38.0849613 68.5820334,38.1171875 68.1484375,38.1171875 Z M67.8847656,32.2753906 C67.369138,32.2753906 66.9580093,32.4433577 66.6513672,32.7792969 C66.344725,33.1152361 66.1640628,33.5800752 66.109375,34.1738281 L69.4667969,34.1738281 C69.4667969,33.5605438 69.3300795,33.0908219 69.0566406,32.7646484 C68.7832018,32.4384749 68.3925807,32.2753906 67.8847656,32.2753906 Z M77.4238281,31.578125 L77.4238281,32.1933594 L76.234375,32.3339844 C76.3437505,32.4707038 76.4414058,32.649413 76.5273438,32.8701172 C76.6132817,33.0908214 76.65625,33.3398424 76.65625,33.6171875 C76.65625,34.2460969 76.4414084,34.748045 76.0117188,35.1230469 C75.5820291,35.4980487 74.9921912,35.6855469 74.2421875,35.6855469 C74.0507803,35.6855469 73.8710946,35.669922 73.703125,35.6386719 C73.2890604,35.857423 73.0820312,36.1328108 73.0820312,36.4648438 C73.0820312,36.6406259 73.1542962,36.7705074 73.2988281,36.8544922 C73.4433601,36.938477 73.6914045,36.9804688 74.0429688,36.9804688 L75.1796875,36.9804688 C75.8750035,36.9804688 76.4091778,37.1269517 76.7822266,37.4199219 C77.1552753,37.7128921 77.3417969,38.1386691 77.3417969,38.6972656 C77.3417969,39.4082067 77.0566435,39.9501934 76.4863281,40.3232422 C75.9160128,40.6962909 75.0839898,40.8828125 73.9902344,40.8828125 C73.1503864,40.8828125 72.502932,40.7265641 72.0478516,40.4140625 C71.5927712,40.1015609 71.3652344,39.6601591 71.3652344,39.0898438 C71.3652344,38.6992168 71.4902331,38.3613296 71.7402344,38.0761719 C71.9902356,37.7910142 72.3417946,37.5976568 72.7949219,37.4960938 C72.6308586,37.4218746 72.4931646,37.3066414 72.3818359,37.1503906 C72.2705073,36.9941398 72.2148438,36.812501 72.2148438,36.6054688 C72.2148438,36.3710926 72.2773431,36.1660165 72.4023438,35.9902344 C72.5273444,35.8144522 72.724608,35.6445321 72.9941406,35.4804688 C72.6621077,35.3437493 72.3916026,35.1113298 72.1826172,34.7832031 C71.9736318,34.4550765 71.8691406,34.0800802 71.8691406,33.6582031 C71.8691406,32.9550746 72.080076,32.4130878 72.5019531,32.0322266 C72.9238302,31.6513653 73.5214805,31.4609375 74.2949219,31.4609375 C74.6308611,31.4609375 74.9335924,31.4999996 75.203125,31.578125 L77.4238281,31.578125 Z M72.3027344,39.078125 C72.3027344,39.425783 72.4492173,39.6894522 72.7421875,39.8691406 C73.0351577,40.048829 73.4550754,40.1386719 74.0019531,40.1386719 C74.8183635,40.1386719 75.4228496,40.0166028 75.8154297,39.7724609 C76.2080098,39.5283191 76.4042969,39.1972677 76.4042969,38.7792969 C76.4042969,38.4316389 76.2968761,38.1904304 76.0820312,38.0556641 C75.8671864,37.9208978 75.4628936,37.8535156 74.8691406,37.8535156 L73.703125,37.8535156 C73.2617165,37.8535156 72.91797,37.9589833 72.671875,38.1699219 C72.42578,38.3808604 72.3027344,38.6835918 72.3027344,39.078125 Z M72.8300781,33.6347656 C72.8300781,34.0839866 72.95703,34.423827 73.2109375,34.6542969 C73.464845,34.8847668 73.8183571,35 74.2714844,35 C75.2207079,35 75.6953125,34.5390671 75.6953125,33.6171875 C75.6953125,32.6523389 75.2148486,32.1699219 74.2539062,32.1699219 C73.7968727,32.1699219 73.4453137,32.2929675 73.1992188,32.5390625 C72.9531238,32.7851575 72.8300781,33.1503882 72.8300781,33.6347656 Z M84.2851562,34.7832031 C84.2851562,35.8300834 84.021487,36.647458 83.4941406,37.2353516 C82.9667942,37.8232451 82.2382859,38.1171875 81.3085938,38.1171875 C80.7343721,38.1171875 80.2246116,37.9824232 79.7792969,37.7128906 C79.3339821,37.443358 78.9902356,37.0566431 78.7480469,36.5527344 C78.5058582,36.0488256 78.3847656,35.4589878 78.3847656,34.7832031 C78.3847656,33.7363229 78.6464818,32.9209014 79.1699219,32.3369141 C79.693362,31.7529268 80.4199172,31.4609375 81.3496094,31.4609375 C82.2480514,31.4609375 82.9619114,31.7597626 83.4912109,32.3574219 C84.0205105,32.9550811 84.2851562,33.7636668 84.2851562,34.7832031 Z M79.3925781,34.7832031 C79.3925781,35.6035197 79.556639,36.2285135 79.8847656,36.6582031 C80.2128923,37.0878928 80.6953093,37.3027344 81.3320312,37.3027344 C81.9687532,37.3027344 82.4521468,37.0888693 82.7822266,36.6611328 C83.1123063,36.2333963 83.2773438,35.607426 83.2773438,34.7832031 C83.2773438,33.9667928 83.1123063,33.3466818 82.7822266,32.9228516 C82.4521468,32.4990213 81.964847,32.2871094 81.3203125,32.2871094 C80.6835906,32.2871094 80.2031266,32.4960917 79.8789062,32.9140625 C79.5546859,33.3320333 79.3925781,33.955074 79.3925781,34.7832031 Z M88.9199219,31.4609375 C89.2050796,31.4609375 89.4609364,31.4843748 89.6875,31.53125 L89.5527344,32.4335938 C89.287108,32.3749997 89.0527354,32.3457031 88.8496094,32.3457031 C88.3300755,32.3457031 87.885744,32.5566385 87.5166016,32.9785156 C87.1474591,33.4003927 86.9628906,33.9257781 86.9628906,34.5546875 L86.9628906,38 L85.9902344,38 L85.9902344,31.578125 L86.7929688,31.578125 L86.9042969,32.7675781 L86.9511719,32.7675781 C87.1894543,32.3496073 87.4765608,32.0273449 87.8125,31.8007812 C88.1484392,31.5742176 88.5175761,31.4609375 88.9199219,31.4609375 Z M91.8613281,38 L90.8886719,38 L90.8886719,31.578125 L91.8613281,31.578125 L91.8613281,38 Z M90.8066406,29.8378906 C90.8066406,29.6152333 90.8613276,29.452149 90.9707031,29.3486328 C91.0800787,29.2451167 91.2167961,29.1933594 91.3808594,29.1933594 C91.5371102,29.1933594 91.6718744,29.2460932 91.7851562,29.3515625 C91.8984381,29.4570318 91.9550781,29.6191395 91.9550781,29.8378906 C91.9550781,30.0566417 91.8984381,30.219726 91.7851562,30.3271484 C91.6718744,30.4345708 91.5371102,30.4882812 91.3808594,30.4882812 C91.2167961,30.4882812 91.0800787,30.4345708 90.9707031,30.3271484 C90.8613276,30.219726 90.8066406,30.0566417 90.8066406,29.8378906 Z M96.6367188,38.1171875 C95.6874953,38.1171875 94.9384793,37.8281279 94.3896484,37.25 C93.8408176,36.6718721 93.5664062,35.8691458 93.5664062,34.8417969 C93.5664062,33.8066354 93.8212865,32.984378 94.3310547,32.375 C94.8408229,31.765622 95.5253863,31.4609375 96.3847656,31.4609375 C97.1894571,31.4609375 97.8261695,31.7255833 98.2949219,32.2548828 C98.7636742,32.7841823 98.9980469,33.4824175 98.9980469,34.3496094 L98.9980469,34.9648438 L94.5742188,34.9648438 C94.5937501,35.7187538 94.7841779,36.2910137 95.1455078,36.6816406 C95.5068377,37.0722676 96.0156217,37.2675781 96.671875,37.2675781 C97.3632847,37.2675781 98.0468716,37.1230483 98.7226562,36.8339844 L98.7226562,37.7011719 C98.3789045,37.8496101 98.0537125,37.9560544 97.7470703,38.0205078 C97.4404282,38.0849613 97.0703147,38.1171875 96.6367188,38.1171875 Z M96.3730469,32.2753906 C95.8574193,32.2753906 95.4462906,32.4433577 95.1396484,32.7792969 C94.8330063,33.1152361 94.652344,33.5800752 94.5976562,34.1738281 L97.9550781,34.1738281 C97.9550781,33.5605438 97.8183607,33.0908219 97.5449219,32.7646484 C97.271483,32.4384749 96.8808619,32.2753906 96.3730469,32.2753906 Z M104.798828,36.2480469 C104.798828,36.8457061 104.576174,37.306639 104.130859,37.6308594 C103.685545,37.9550797 103.060551,38.1171875 102.255859,38.1171875 C101.404293,38.1171875 100.740237,37.9824232 100.263672,37.7128906 L100.263672,36.8105469 C100.572267,36.9667977 100.903319,37.0898433 101.256836,37.1796875 C101.610353,37.2695317 101.95117,37.3144531 102.279297,37.3144531 C102.787112,37.3144531 103.177733,37.2333992 103.451172,37.0712891 C103.724611,36.9091789 103.861328,36.662111 103.861328,36.3300781 C103.861328,36.0800769 103.752931,35.8662118 103.536133,35.6884766 C103.319335,35.5107413 102.896488,35.3007825 102.267578,35.0585938 C101.669919,34.8359364 101.245118,34.6416024 100.993164,34.4755859 C100.74121,34.3095695 100.553712,34.1210948 100.430664,33.9101562 C100.307617,33.6992177 100.246094,33.4472671 100.246094,33.1542969 C100.246094,32.6308568 100.458982,32.217775 100.884766,31.9150391 C101.310549,31.6123032 101.894528,31.4609375 102.636719,31.4609375 C103.328128,31.4609375 104.003903,31.6015611 104.664062,31.8828125 L104.318359,32.6738281 C103.673825,32.4082018 103.089846,32.2753906 102.566406,32.2753906 C102.105466,32.2753906 101.757814,32.3476555 101.523438,32.4921875 C101.289061,32.6367195 101.171875,32.8359362 101.171875,33.0898438 C101.171875,33.2617196 101.21582,33.4082025 101.303711,33.5292969 C101.391602,33.6503912 101.533202,33.7656245 101.728516,33.875 L101.908691,33.9661866 C102.051269,34.033081 102.238768,34.1121822 102.47119,34.2034909 L102.853516,34.3496094 C103.615238,34.6269545 104.129881,34.9062486 104.397461,35.1875 C104.66504,35.4687514 104.798828,35.8222635 104.798828,36.2480469 Z" id="Allcategories" fill="#000000" fill-rule="nonzero"></path>
                        <path d="M6.609375,3.9296875 C6.609375,4.79687934 6.31347952,5.46386485 5.72167969,5.93066406 C5.12987985,6.39746327 4.28320863,6.63085938 3.18164062,6.63085938 L2.17382812,6.63085938 L2.17382812,10 L1.17773438,10 L1.17773438,1.43359375 L3.3984375,1.43359375 C5.5390732,1.43359375 6.609375,2.26561668 6.609375,3.9296875 Z M2.17382812,5.77539062 L3.0703125,5.77539062 C3.95312941,5.77539062 4.5917949,5.63281393 4.98632812,5.34765625 C5.38086135,5.06249857 5.578125,4.60547189 5.578125,3.9765625 C5.578125,3.41015342 5.39257998,2.98828264 5.02148438,2.7109375 C4.65038877,2.43359236 4.07226955,2.29492188 3.28710938,2.29492188 L2.17382812,2.29492188 L2.17382812,5.77539062 Z M11.1855469,3.4609375 C11.4707046,3.4609375 11.7265614,3.48437477 11.953125,3.53125 L11.8183594,4.43359375 C11.552733,4.37499971 11.3183604,4.34570312 11.1152344,4.34570312 C10.5957005,4.34570312 10.151369,4.55663852 9.78222656,4.97851562 C9.41308409,5.40039273 9.22851562,5.92577811 9.22851562,6.5546875 L9.22851562,10 L8.25585938,10 L8.25585938,3.578125 L9.05859375,3.578125 L9.16992188,4.76757812 L9.21679688,4.76757812 C9.45507932,4.34960729 9.74218582,4.02734488 10.078125,3.80078125 C10.4140642,3.57421762 10.7832011,3.4609375 11.1855469,3.4609375 Z M18.4570312,6.78320312 C18.4570312,7.83008336 18.193362,8.647458 17.6660156,9.23535156 C17.1386692,9.82324513 16.4101609,10.1171875 15.4804688,10.1171875 C14.9062471,10.1171875 14.3964866,9.98242322 13.9511719,9.71289062 C13.5058571,9.44335803 13.1621106,9.05664314 12.9199219,8.55273438 C12.6777332,8.04882561 12.5566406,7.45898775 12.5566406,6.78320312 C12.5566406,5.73632289 12.8183568,4.92090136 13.3417969,4.33691406 C13.865237,3.75292677 14.5917922,3.4609375 15.5214844,3.4609375 C16.4199264,3.4609375 17.1337864,3.75976264 17.6630859,4.35742188 C18.1923855,4.95508111 18.4570312,5.76366678 18.4570312,6.78320312 Z M13.5644531,6.78320312 C13.5644531,7.60351973 13.728514,8.22851348 14.0566406,8.65820312 C14.3847673,9.08789277 14.8671843,9.30273438 15.5039062,9.30273438 C16.1406282,9.30273438 16.6240218,9.08886933 16.9541016,8.66113281 C17.2841813,8.2333963 17.4492188,7.607426 17.4492188,6.78320312 C17.4492188,5.96679279 17.2841813,5.34668181 16.9541016,4.92285156 C16.6240218,4.49902132 16.136722,4.28710938 15.4921875,4.28710938 C14.8554656,4.28710938 14.3750016,4.49609166 14.0507812,4.9140625 C13.7265609,5.33203334 13.5644531,5.95507398 13.5644531,6.78320312 Z M24.5332031,9.13867188 L24.4804688,9.13867188 C24.0312478,9.79101889 23.3593795,10.1171875 22.4648438,10.1171875 C21.6249958,10.1171875 20.971682,9.830081 20.5048828,9.25585938 C20.0380836,8.68163775 19.8046875,7.86523967 19.8046875,6.80664062 C19.8046875,5.74804158 20.0390602,4.92578418 20.5078125,4.33984375 C20.9765648,3.75390332 21.6289021,3.4609375 22.4648438,3.4609375 C23.3359419,3.4609375 24.0039039,3.77734059 24.46875,4.41015625 L24.5449219,4.41015625 L24.5039062,3.94726562 L24.4804688,3.49609375 L24.4804688,0.8828125 L25.453125,0.8828125 L25.453125,10 L24.6621094,10 L24.5332031,9.13867188 Z M22.5878906,9.30273438 C23.2519564,9.30273438 23.7333969,9.12207212 24.0322266,8.76074219 C24.3310562,8.39941226 24.4804688,7.81641027 24.4804688,7.01171875 L24.4804688,6.80664062 C24.4804688,5.89647982 24.3291031,5.24707226 24.0263672,4.85839844 C23.7236313,4.46972462 23.2402377,4.27539062 22.5761719,4.27539062 C22.0058565,4.27539062 21.5693375,4.4970681 21.2666016,4.94042969 C20.9638657,5.38379128 20.8125,6.00976158 20.8125,6.81835938 C20.8125,7.63867598 20.9628891,8.25781041 21.2636719,8.67578125 C21.5644546,9.09375209 22.0058565,9.30273438 22.5878906,9.30273438 Z M28.4296875,3.578125 L28.4296875,7.74414062 C28.4296875,8.26758074 28.5488269,8.65820184 28.7871094,8.91601562 C29.0253918,9.17382941 29.398435,9.30273438 29.90625,9.30273438 C30.5781284,9.30273438 31.0693344,9.11914246 31.3798828,8.75195312 C31.6904312,8.38476379 31.8457031,7.78516041 31.8457031,6.953125 L31.8457031,3.578125 L32.8183594,3.578125 L32.8183594,10 L32.015625,10 L31.875,9.13867188 L31.8222656,9.13867188 C31.6230459,9.45507971 31.3466815,9.69726479 30.9931641,9.86523438 C30.6396467,10.033204 30.2363304,10.1171875 29.7832031,10.1171875 C29.0019492,10.1171875 28.4169941,9.93164248 28.0283203,9.56054688 C27.6396465,9.18945127 27.4453125,8.59570721 27.4453125,7.77929688 L27.4453125,3.578125 L28.4296875,3.578125 Z M37.4472656,10.1171875 C36.5175735,10.1171875 35.7978541,9.83105755 35.2880859,9.25878906 C34.7783178,8.68652058 34.5234375,7.87695836 34.5234375,6.83007812 C34.5234375,5.755854 34.782224,4.92578418 35.2998047,4.33984375 C35.8173854,3.75390332 36.5546827,3.4609375 37.5117188,3.4609375 C37.820314,3.4609375 38.1289047,3.49414029 38.4375,3.56054688 C38.7460953,3.62695346 38.9882804,3.70507768 39.1640625,3.79492188 L38.8652344,4.62109375 C38.6503896,4.53515582 38.4160169,4.46386747 38.1621094,4.40722656 C37.9082019,4.35058565 37.6835947,4.32226562 37.4882812,4.32226562 C36.1835872,4.32226562 35.53125,5.15428855 35.53125,6.81835938 C35.53125,7.60742582 35.6904281,8.21288852 36.0087891,8.63476562 C36.32715,9.05664273 36.798825,9.26757812 37.4238281,9.26757812 C37.9589871,9.26757812 38.5078097,9.1523449 39.0703125,8.921875 L39.0703125,9.78320312 C38.6406229,10.0058605 38.0996126,10.1171875 37.4472656,10.1171875 Z M42.6679688,9.31445312 C42.8398446,9.31445312 43.0058586,9.30175794 43.1660156,9.27636719 C43.3261727,9.25097644 43.4531245,9.22460951 43.546875,9.19726562 L43.546875,9.94140625 C43.4414057,9.99218775 43.2861338,10.0341795 43.0810547,10.0673828 C42.8759755,10.1005861 42.6914071,10.1171875 42.5273438,10.1171875 C41.28515,10.1171875 40.6640625,9.46289717 40.6640625,8.15429688 L40.6640625,4.33398438 L39.7441406,4.33398438 L39.7441406,3.86523438 L40.6640625,3.4609375 L41.0742188,2.08984375 L41.6367188,2.08984375 L41.6367188,3.578125 L43.5,3.578125 L43.5,4.33398438 L41.6367188,4.33398438 L41.6367188,8.11328125 C41.6367188,8.50000193 41.7285147,8.79687396 41.9121094,9.00390625 C42.095704,9.21093854 42.3476546,9.31445312 42.6679688,9.31445312 Z M50.5136719,10.1171875 C49.5839797,10.1171875 48.8642604,9.83105755 48.3544922,9.25878906 C47.844724,8.68652058 47.5898438,7.87695836 47.5898438,6.83007812 C47.5898438,5.755854 47.8486302,4.92578418 48.3662109,4.33984375 C48.8837917,3.75390332 49.621089,3.4609375 50.578125,3.4609375 C50.8867203,3.4609375 51.195311,3.49414029 51.5039062,3.56054688 C51.8125015,3.62695346 52.0546866,3.70507768 52.2304688,3.79492188 L51.9316406,4.62109375 C51.7167958,4.53515582 51.4824231,4.46386747 51.2285156,4.40722656 C50.9746081,4.35058565 50.750001,4.32226562 50.5546875,4.32226562 C49.2499935,4.32226562 48.5976562,5.15428855 48.5976562,6.81835938 C48.5976562,7.60742582 48.7568343,8.21288852 49.0751953,8.63476562 C49.3935563,9.05664273 49.8652312,9.26757812 50.4902344,9.26757812 C51.0253933,9.26757812 51.5742159,9.1523449 52.1367188,8.921875 L52.1367188,9.78320312 C51.7070291,10.0058605 51.1660189,10.1171875 50.5136719,10.1171875 Z M57.609375,10 L57.4160156,9.0859375 L57.3691406,9.0859375 C57.0488265,9.48828326 56.7294938,9.76074147 56.4111328,9.90332031 C56.0927718,10.0458992 55.6953149,10.1171875 55.21875,10.1171875 C54.5820281,10.1171875 54.0830096,9.95312664 53.7216797,9.625 C53.3603498,9.29687336 53.1796875,8.83008115 53.1796875,8.22460938 C53.1796875,6.92772789 54.2167865,6.24804719 56.2910156,6.18554688 L57.3808594,6.15039062 L57.3808594,5.75195312 C57.3808594,5.24804436 57.272462,4.87597776 57.0556641,4.63574219 C56.8388661,4.39550661 56.4921899,4.27539062 56.015625,4.27539062 C55.4804661,4.27539062 54.8750034,4.43945148 54.1992188,4.76757812 L53.9003906,4.0234375 C54.2167985,3.85156164 54.5634747,3.71679736 54.9404297,3.61914062 C55.3173847,3.52148389 55.6953106,3.47265625 56.0742188,3.47265625 C56.8398476,3.47265625 57.4072247,3.64257643 57.7763672,3.98242188 C58.1455097,4.32226732 58.3300781,4.86718375 58.3300781,5.6171875 L58.3300781,10 L57.609375,10 Z M55.4121094,9.31445312 C56.0175812,9.31445312 56.4931623,9.14843916 56.8388672,8.81640625 C57.184572,8.48437334 57.3574219,8.01953424 57.3574219,7.421875 L57.3574219,6.84179688 L56.3847656,6.8828125 C55.6113243,6.91015639 55.0537126,7.03027237 54.7119141,7.24316406 C54.3701155,7.45605575 54.1992188,7.78710713 54.1992188,8.23632812 C54.1992188,8.58789238 54.305663,8.85546783 54.5185547,9.0390625 C54.7314464,9.22265717 55.029295,9.31445312 55.4121094,9.31445312 Z M62.4082031,9.31445312 C62.580079,9.31445312 62.7460929,9.30175794 62.90625,9.27636719 C63.0664071,9.25097644 63.1933589,9.22460951 63.2871094,9.19726562 L63.2871094,9.94140625 C63.1816401,9.99218775 63.0263682,10.0341795 62.8212891,10.0673828 C62.6162099,10.1005861 62.4316414,10.1171875 62.2675781,10.1171875 C61.0253844,10.1171875 60.4042969,9.46289717 60.4042969,8.15429688 L60.4042969,4.33398438 L59.484375,4.33398438 L59.484375,3.86523438 L60.4042969,3.4609375 L60.8144531,2.08984375 L61.3769531,2.08984375 L61.3769531,3.578125 L63.2402344,3.578125 L63.2402344,4.33398438 L61.3769531,4.33398438 L61.3769531,8.11328125 C61.3769531,8.50000193 61.4687491,8.79687396 61.6523438,9.00390625 C61.8359384,9.21093854 62.087889,9.31445312 62.4082031,9.31445312 Z M67.2832031,10.1171875 C66.3339796,10.1171875 65.5849637,9.82812789 65.0361328,9.25 C64.4873019,8.67187211 64.2128906,7.86914576 64.2128906,6.84179688 C64.2128906,5.80663545 64.4677709,4.98437805 64.9775391,4.375 C65.4873072,3.76562195 66.1718707,3.4609375 67.03125,3.4609375 C67.8359415,3.4609375 68.4726539,3.72558329 68.9414062,4.25488281 C69.4101586,4.78418233 69.6445312,5.48241754 69.6445312,6.34960938 L69.6445312,6.96484375 L65.2207031,6.96484375 C65.2402345,7.71875377 65.4306623,8.29101367 65.7919922,8.68164062 C66.1533221,9.07226758 66.6621061,9.26757812 67.3183594,9.26757812 C68.0097691,9.26757812 68.693356,9.12304832 69.3691406,8.83398438 L69.3691406,9.70117188 C69.0253889,9.84961012 68.7001968,9.95605437 68.3935547,10.0205078 C68.0869125,10.0849613 67.716799,10.1171875 67.2832031,10.1171875 Z M67.0195312,4.27539062 C66.5039037,4.27539062 66.092775,4.4433577 65.7861328,4.77929688 C65.4794907,5.11523605 65.2988284,5.58007516 65.2441406,6.17382812 L68.6015625,6.17382812 C68.6015625,5.56054381 68.4648451,5.09082194 68.1914062,4.76464844 C67.9179674,4.43847493 67.5273463,4.27539062 67.0195312,4.27539062 Z M76.5585938,3.578125 L76.5585938,4.19335938 L75.3691406,4.33398438 C75.4785162,4.47070381 75.5761714,4.64941296 75.6621094,4.87011719 C75.7480473,5.09082142 75.7910156,5.33984236 75.7910156,5.6171875 C75.7910156,6.24609689 75.576174,6.748045 75.1464844,7.12304688 C74.7167947,7.49804875 74.1269569,7.68554688 73.3769531,7.68554688 C73.1855459,7.68554688 73.0058602,7.66992203 72.8378906,7.63867188 C72.4238261,7.85742297 72.2167969,8.13281084 72.2167969,8.46484375 C72.2167969,8.64062588 72.2890618,8.77050739 72.4335938,8.85449219 C72.5781257,8.93847698 72.8261701,8.98046875 73.1777344,8.98046875 L74.3144531,8.98046875 C75.0097691,8.98046875 75.5439434,9.12695166 75.9169922,9.41992188 C76.2900409,9.71289209 76.4765625,10.1386691 76.4765625,10.6972656 C76.4765625,11.4082067 76.1914091,11.9501934 75.6210938,12.3232422 C75.0507784,12.6962909 74.2187555,12.8828125 73.125,12.8828125 C72.2851521,12.8828125 71.6376976,12.7265641 71.1826172,12.4140625 C70.7275368,12.1015609 70.5,11.6601591 70.5,11.0898438 C70.5,10.6992168 70.6249988,10.3613296 70.875,10.0761719 C71.1250012,9.7910142 71.4765602,9.59765676 71.9296875,9.49609375 C71.7656242,9.42187463 71.6279302,9.30664141 71.5166016,9.15039062 C71.4052729,8.99413984 71.3496094,8.81250104 71.3496094,8.60546875 C71.3496094,8.37109258 71.4121088,8.1660165 71.5371094,7.99023438 C71.66211,7.81445225 71.8593737,7.64453207 72.1289062,7.48046875 C71.7968733,7.34374932 71.5263682,7.11132977 71.3173828,6.78320312 C71.1083974,6.45507648 71.0039062,6.08008023 71.0039062,5.65820312 C71.0039062,4.95507461 71.2148416,4.41308784 71.6367188,4.03222656 C72.0585959,3.65136528 72.6562461,3.4609375 73.4296875,3.4609375 C73.7656267,3.4609375 74.068358,3.49999961 74.3378906,3.578125 L76.5585938,3.578125 Z M71.4375,11.078125 C71.4375,11.425783 71.5839829,11.6894522 71.8769531,11.8691406 C72.1699233,12.048829 72.589841,12.1386719 73.1367188,12.1386719 C73.9531291,12.1386719 74.5576152,12.0166028 74.9501953,11.7724609 C75.3427754,11.5283191 75.5390625,11.1972677 75.5390625,10.7792969 C75.5390625,10.4316389 75.4316417,10.1904304 75.2167969,10.0556641 C75.0019521,9.92089776 74.5976592,9.85351562 74.0039062,9.85351562 L72.8378906,9.85351562 C72.3964822,9.85351562 72.0527356,9.95898332 71.8066406,10.1699219 C71.5605456,10.3808604 71.4375,10.6835918 71.4375,11.078125 Z M71.9648438,5.63476562 C71.9648438,6.08398662 72.0917956,6.42382697 72.3457031,6.65429688 C72.5996106,6.88476678 72.9531227,7 73.40625,7 C74.3554735,7 74.8300781,6.53906711 74.8300781,5.6171875 C74.8300781,4.65233893 74.3496142,4.16992188 73.3886719,4.16992188 C72.9316383,4.16992188 72.5800794,4.29296752 72.3339844,4.5390625 C72.0878894,4.78515748 71.9648438,5.1503882 71.9648438,5.63476562 Z M83.4199219,6.78320312 C83.4199219,7.83008336 83.1562526,8.647458 82.6289062,9.23535156 C82.1015599,9.82324513 81.3730515,10.1171875 80.4433594,10.1171875 C79.8691378,10.1171875 79.3593772,9.98242322 78.9140625,9.71289062 C78.4687478,9.44335803 78.1250012,9.05664314 77.8828125,8.55273438 C77.6406238,8.04882561 77.5195312,7.45898775 77.5195312,6.78320312 C77.5195312,5.73632289 77.7812474,4.92090136 78.3046875,4.33691406 C78.8281276,3.75292677 79.5546829,3.4609375 80.484375,3.4609375 C81.382817,3.4609375 82.096677,3.75976264 82.6259766,4.35742188 C83.1552761,4.95508111 83.4199219,5.76366678 83.4199219,6.78320312 Z M78.5273438,6.78320312 C78.5273438,7.60351973 78.6914046,8.22851348 79.0195312,8.65820312 C79.3476579,9.08789277 79.8300749,9.30273438 80.4667969,9.30273438 C81.1035188,9.30273438 81.5869124,9.08886933 81.9169922,8.66113281 C82.247072,8.2333963 82.4121094,7.607426 82.4121094,6.78320312 C82.4121094,5.96679279 82.247072,5.34668181 81.9169922,4.92285156 C81.5869124,4.49902132 81.0996126,4.28710938 80.4550781,4.28710938 C79.8183562,4.28710938 79.3378922,4.49609166 79.0136719,4.9140625 C78.6894515,5.33203334 78.5273438,5.95507398 78.5273438,6.78320312 Z M88.0546875,3.4609375 C88.3398452,3.4609375 88.595702,3.48437477 88.8222656,3.53125 L88.6875,4.43359375 C88.4218737,4.37499971 88.187501,4.34570312 87.984375,4.34570312 C87.4648412,4.34570312 87.0205097,4.55663852 86.6513672,4.97851562 C86.2822247,5.40039273 86.0976562,5.92577811 86.0976562,6.5546875 L86.0976562,10 L85.125,10 L85.125,3.578125 L85.9277344,3.578125 L86.0390625,4.76757812 L86.0859375,4.76757812 C86.3242199,4.34960729 86.6113264,4.02734488 86.9472656,3.80078125 C87.2832048,3.57421762 87.6523417,3.4609375 88.0546875,3.4609375 Z M90.9960938,10 L90.0234375,10 L90.0234375,3.578125 L90.9960938,3.578125 L90.9960938,10 Z M89.9414062,1.83789062 C89.9414062,1.61523326 89.9960932,1.45214896 90.1054688,1.34863281 C90.2148443,1.24511667 90.3515617,1.19335938 90.515625,1.19335938 C90.6718758,1.19335938 90.8066401,1.24609322 90.9199219,1.3515625 C91.0332037,1.45703178 91.0898438,1.61913953 91.0898438,1.83789062 C91.0898438,2.05664172 91.0332037,2.21972603 90.9199219,2.32714844 C90.8066401,2.43457085 90.6718758,2.48828125 90.515625,2.48828125 C90.3515617,2.48828125 90.2148443,2.43457085 90.1054688,2.32714844 C89.9960932,2.21972603 89.9414062,2.05664172 89.9414062,1.83789062 Z M95.7714844,10.1171875 C94.8222609,10.1171875 94.0732449,9.82812789 93.5244141,9.25 C92.9755832,8.67187211 92.7011719,7.86914576 92.7011719,6.84179688 C92.7011719,5.80663545 92.9560521,4.98437805 93.4658203,4.375 C93.9755885,3.76562195 94.660152,3.4609375 95.5195312,3.4609375 C96.3242228,3.4609375 96.9609352,3.72558329 97.4296875,4.25488281 C97.8984398,4.78418233 98.1328125,5.48241754 98.1328125,6.34960938 L98.1328125,6.96484375 L93.7089844,6.96484375 C93.7285157,7.71875377 93.9189435,8.29101367 94.2802734,8.68164062 C94.6416034,9.07226758 95.1503873,9.26757812 95.8066406,9.26757812 C96.4980503,9.26757812 97.1816372,9.12304832 97.8574219,8.83398438 L97.8574219,9.70117188 C97.5136702,9.84961012 97.1884781,9.95605437 96.8818359,10.0205078 C96.5751938,10.0849613 96.2050803,10.1171875 95.7714844,10.1171875 Z M95.5078125,4.27539062 C94.9921849,4.27539062 94.5810562,4.4433577 94.2744141,4.77929688 C93.9677719,5.11523605 93.7871096,5.58007516 93.7324219,6.17382812 L97.0898438,6.17382812 C97.0898438,5.56054381 96.9531264,5.09082194 96.6796875,4.76464844 C96.4062486,4.43847493 96.0156275,4.27539062 95.5078125,4.27539062 Z M103.933594,8.24804688 C103.933594,8.84570611 103.71094,9.306639 103.265625,9.63085938 C102.82031,9.95507975 102.195317,10.1171875 101.390625,10.1171875 C100.539058,10.1171875 99.8750024,9.98242322 99.3984375,9.71289062 L99.3984375,8.81054688 C99.7070328,8.96679766 100.038084,9.0898433 100.391602,9.1796875 C100.745119,9.2695317 101.085936,9.31445312 101.414062,9.31445312 C101.921878,9.31445312 102.312499,9.23339925 102.585938,9.07128906 C102.859376,8.90917888 102.996094,8.66211104 102.996094,8.33007812 C102.996094,8.08007687 102.887696,7.86621183 102.670898,7.68847656 C102.4541,7.5107413 102.031253,7.30078246 101.402344,7.05859375 C100.804685,6.83593639 100.379884,6.64160239 100.12793,6.47558594 C99.8759753,6.30956948 99.6884772,6.1210948 99.5654297,5.91015625 C99.4423822,5.6992177 99.3808594,5.44726709 99.3808594,5.15429688 C99.3808594,4.63085676 99.5937479,4.21777495 100.019531,3.91503906 C100.445315,3.61230317 101.029293,3.4609375 101.771484,3.4609375 C102.462894,3.4609375 103.138669,3.60156109 103.798828,3.8828125 L103.453125,4.67382812 C102.808591,4.4082018 102.224612,4.27539062 101.701172,4.27539062 C101.240232,4.27539062 100.892579,4.34765553 100.658203,4.4921875 C100.423827,4.63671947 100.306641,4.83593623 100.306641,5.08984375 C100.306641,5.26171961 100.350585,5.40820252 100.438477,5.52929688 C100.526368,5.65039123 100.667968,5.76562445 100.863281,5.875 C101.009766,5.95703166 101.257323,6.06652794 101.605956,6.20349085 L101.988281,6.34960938 C102.750004,6.62695451 103.264647,6.90624859 103.532227,7.1875 C103.799806,7.46875141 103.933594,7.8222635 103.933594,8.24804688 Z" id="Productcategories" fill="#A8A8A8" fill-rule="nonzero"></path>
                        <g id="question-circle-light" transform="translate(110.000000, 0.000000)" fill="#9E9E9E" fill-rule="nonzero">
                            <path d="M6,8.03225806 C5.62587097,8.03225806 5.32258065,8.33554839 5.32258065,8.70967742 C5.32258065,9.08380645 5.62587097,9.38709677 6,9.38709677 C6.37412903,9.38709677 6.67741935,9.08380645 6.67741935,8.70967742 C6.67741935,8.33554839 6.37412903,8.03225806 6,8.03225806 Z M6.18556452,7.4516129 L5.79846774,7.4516129 C5.6381371,7.4516129 5.50814516,7.32162097 5.50814516,7.16129032 L5.50814516,7.15207258 C5.50814516,5.45022581 7.38169355,5.61290323 7.38169355,4.55349194 C7.38169355,4.06923387 6.95199194,3.58064516 5.99201613,3.58064516 C5.28691935,3.58064516 4.92108871,3.81408871 4.55949194,4.27480645 C4.46494355,4.39529032 4.29205645,4.41984677 4.16639516,4.33229032 L3.8486371,4.11091935 C3.71254839,4.01610484 3.68266935,3.8261371 3.78464516,3.69534677 C4.29817742,3.03662903 4.90746774,2.61290323 5.99201613,2.61290323 C7.25782258,2.61290323 8.34943548,3.33268548 8.34943548,4.55349194 C8.34943548,6.18447581 6.4758871,6.09822581 6.4758871,7.15207258 L6.4758871,7.16129032 C6.4758871,7.32162097 6.34589516,7.4516129 6.18556452,7.4516129 Z M6,0.774193548 C8.8698629,0.774193548 11.2258065,3.09858871 11.2258065,6 C11.2258065,8.88607258 8.88846774,11.2258065 6,11.2258065 C3.11506452,11.2258065 0.774193548,8.88962903 0.774193548,6 C0.774193548,3.11605645 3.11133871,0.774193548 6,0.774193548 Z M6,0 C2.68652419,0 0,2.68749194 0,6 C0,9.31444355 2.68652419,12 6,12 C9.31347581,12 12,9.31444355 12,6 C12,2.68749194 9.31347581,0 6,0 Z" id="Shape"></path>
                        </g>
                        <g id="layer-group-solid" transform="translate(8.000000, 26.000000)" fill="#B9C7D4" fill-rule="nonzero">
                            <path d="M0.417431907,4.63875486 L7.66848249,7.92809339 C7.88015564,8.02428016 8.11953307,8.02428016 8.33120623,7.92809339 L15.5822568,4.63875486 C16.0974319,4.40498054 16.0974319,3.62645914 15.5822568,3.39268482 L8.33151751,0.103035019 C8.12107959,0.00684968697 7.87923169,0.00684968697 7.66879377,0.103035019 L0.417431907,3.39237354 C-0.0977431907,3.62614786 -0.0977431907,4.40498054 0.417431907,4.63875486 Z M15.5825681,7.38677043 L13.7743191,6.56715953 L8.74272374,8.84793774 C8.507393,8.95470817 8.25743191,9.0088716 8,9.0088716 C7.74256809,9.0088716 7.49291829,8.95470817 7.25727626,8.84793774 L2.22599222,6.56715953 L0.417431907,7.38677043 C-0.0977431907,7.62023346 -0.0977431907,8.39844358 0.417431907,8.63190661 L7.66848249,11.9187549 C7.88015564,12.0146304 8.11953307,12.0146304 8.33120623,11.9187549 L15.5825681,8.63190661 C16.0977432,8.39844358 16.0977432,7.62023346 15.5825681,7.38677043 Z M15.5825681,11.3649805 L13.7811673,10.5484825 L8.74272374,12.8323735 C8.507393,12.939144 8.25743191,12.9933074 8,12.9933074 C7.74256809,12.9933074 7.49291829,12.939144 7.25727626,12.8323735 L2.21914397,10.5484825 L0.417431907,11.3649805 C-0.0977431907,11.5984436 -0.0977431907,12.3766537 0.417431907,12.6101167 L7.66848249,15.896965 C7.88015564,15.9928405 8.11953307,15.9928405 8.33120623,15.896965 L15.5825681,12.6101167 C16.0977432,12.3766537 16.0977432,11.5984436 15.5825681,11.3649805 Z" id="Shape"></path>
                        </g>
                    </g>
                    <g id="input-copy" transform="translate(92.000000, 151.000000)">
                        <rect id="Rectangle" stroke="#B9C7D4" fill="#FFFFFF" x="0.5" y="18.5" width="175" height="31" rx="2"></rect>
                        <path d="M35.96875,38 L33.0625,30.40625 L33.015625,30.40625 C33.0703128,31.0078155 33.0976562,31.7226521 33.0976562,32.5507812 L33.0976562,38 L32.1777344,38 L32.1777344,29.4335938 L33.6777344,29.4335938 L36.390625,36.5 L36.4375,36.5 L39.1738281,29.4335938 L40.6621094,29.4335938 L40.6621094,38 L39.6660156,38 L39.6660156,32.4804688 C39.6660156,31.8476531 39.6933591,31.16016 39.7480469,30.4179688 L39.7011719,30.4179688 L36.7714844,38 L35.96875,38 Z M43.8378906,38 L42.8652344,38 L42.8652344,31.578125 L43.8378906,31.578125 L43.8378906,38 Z M42.7832031,29.8378906 C42.7832031,29.6152333 42.8378901,29.452149 42.9472656,29.3486328 C43.0566412,29.2451167 43.1933586,29.1933594 43.3574219,29.1933594 C43.5136727,29.1933594 43.6484369,29.2460932 43.7617188,29.3515625 C43.8750006,29.4570318 43.9316406,29.6191395 43.9316406,29.8378906 C43.9316406,30.0566417 43.8750006,30.219726 43.7617188,30.3271484 C43.6484369,30.4345708 43.5136727,30.4882812 43.3574219,30.4882812 C43.1933586,30.4882812 43.0566412,30.4345708 42.9472656,30.3271484 C42.8378901,30.219726 42.7832031,30.0566417 42.7832031,29.8378906 Z M50.2949219,38 L50.2949219,33.8457031 C50.2949219,33.322263 50.1757824,32.9316419 49.9375,32.6738281 C49.6992176,32.4160143 49.3261744,32.2871094 48.8183594,32.2871094 C48.146481,32.2871094 47.6542984,32.4687482 47.3417969,32.8320312 C47.0292953,33.1953143 46.8730469,33.7949177 46.8730469,34.6308594 L46.8730469,38 L45.9003906,38 L45.9003906,31.578125 L46.6914062,31.578125 L46.8496094,32.4570312 L46.8964844,32.4570312 C47.0957041,32.1406234 47.3749982,31.8955087 47.734375,31.7216797 C48.0937518,31.5478507 48.4941384,31.4609375 48.9355469,31.4609375 C49.7089882,31.4609375 50.2910137,31.6474591 50.6816406,32.0205078 C51.0722676,32.3935566 51.2675781,32.9902303 51.2675781,33.8105469 L51.2675781,38 L50.2949219,38 Z" id="Min" fill="#9E9E9E" fill-rule="nonzero"></path>
                        <path d="M4.96875,10 L2.0625,2.40625 L2.015625,2.40625 C2.07031277,3.00781551 2.09765625,3.72265211 2.09765625,4.55078125 L2.09765625,10 L1.17773438,10 L1.17773438,1.43359375 L2.67773438,1.43359375 L5.390625,8.5 L5.4375,8.5 L8.17382812,1.43359375 L9.66210938,1.43359375 L9.66210938,10 L8.66601562,10 L8.66601562,4.48046875 C8.66601562,3.84765309 8.6933591,3.16015996 8.74804688,2.41796875 L8.70117188,2.41796875 L5.77148438,10 L4.96875,10 Z M17.4082031,6.78320312 C17.4082031,7.83008336 17.1445339,8.647458 16.6171875,9.23535156 C16.0898411,9.82324513 15.3613328,10.1171875 14.4316406,10.1171875 C13.857419,10.1171875 13.3476585,9.98242322 12.9023438,9.71289062 C12.457029,9.44335803 12.1132825,9.05664314 11.8710938,8.55273438 C11.628905,8.04882561 11.5078125,7.45898775 11.5078125,6.78320312 C11.5078125,5.73632289 11.7695286,4.92090136 12.2929688,4.33691406 C12.8164089,3.75292677 13.5429641,3.4609375 14.4726562,3.4609375 C15.3710982,3.4609375 16.0849583,3.75976264 16.6142578,4.35742188 C17.1435573,4.95508111 17.4082031,5.76366678 17.4082031,6.78320312 Z M12.515625,6.78320312 C12.515625,7.60351973 12.6796859,8.22851348 13.0078125,8.65820312 C13.3359391,9.08789277 13.8183562,9.30273438 14.4550781,9.30273438 C15.0918001,9.30273438 15.5751937,9.08886933 15.9052734,8.66113281 C16.2353532,8.2333963 16.4003906,7.607426 16.4003906,6.78320312 C16.4003906,5.96679279 16.2353532,5.34668181 15.9052734,4.92285156 C15.5751937,4.49902132 15.0878938,4.28710938 14.4433594,4.28710938 C13.8066374,4.28710938 13.3261735,4.49609166 13.0019531,4.9140625 C12.6777328,5.33203334 12.515625,5.95507398 12.515625,6.78320312 Z M23.5078125,10 L23.5078125,5.84570312 C23.5078125,5.32226301 23.3886731,4.93164191 23.1503906,4.67382812 C22.9121082,4.41601434 22.539065,4.28710938 22.03125,4.28710938 C21.3593716,4.28710938 20.8671891,4.46874818 20.5546875,4.83203125 C20.2421859,5.19531432 20.0859375,5.7949177 20.0859375,6.63085938 L20.0859375,10 L19.1132812,10 L19.1132812,3.578125 L19.9042969,3.578125 L20.0625,4.45703125 L20.109375,4.45703125 C20.3085947,4.14062342 20.5878888,3.89550868 20.9472656,3.72167969 C21.3066424,3.54785069 21.707029,3.4609375 22.1484375,3.4609375 C22.9218789,3.4609375 23.5039043,3.64745907 23.8945312,4.02050781 C24.2851582,4.39355655 24.4804688,4.99023027 24.4804688,5.81054688 L24.4804688,10 L23.5078125,10 Z M28.5527344,9.31445312 C28.7246102,9.31445312 28.8906242,9.30175794 29.0507812,9.27636719 C29.2109383,9.25097644 29.3378902,9.22460951 29.4316406,9.19726562 L29.4316406,9.94140625 C29.3261713,9.99218775 29.1708995,10.0341795 28.9658203,10.0673828 C28.7607412,10.1005861 28.5761727,10.1171875 28.4121094,10.1171875 C27.1699157,10.1171875 26.5488281,9.46289717 26.5488281,8.15429688 L26.5488281,4.33398438 L25.6289062,4.33398438 L25.6289062,3.86523438 L26.5488281,3.4609375 L26.9589844,2.08984375 L27.5214844,2.08984375 L27.5214844,3.578125 L29.3847656,3.578125 L29.3847656,4.33398438 L27.5214844,4.33398438 L27.5214844,8.11328125 C27.5214844,8.50000193 27.6132803,8.79687396 27.796875,9.00390625 C27.9804697,9.21093854 28.2324203,9.31445312 28.5527344,9.31445312 Z M35.109375,10 L35.109375,5.84570312 C35.109375,5.32226301 34.9902356,4.93164191 34.7519531,4.67382812 C34.5136707,4.41601434 34.1406275,4.28710938 33.6328125,4.28710938 C32.9570279,4.28710938 32.4638687,4.47070129 32.1533203,4.83789062 C31.8427719,5.20507996 31.6875,5.80663645 31.6875,6.64257813 L31.6875,10 L30.7148438,10 L30.7148438,0.8828125 L31.6875,0.8828125 L31.6875,3.64257812 C31.6875,3.97461104 31.6718752,4.24999891 31.640625,4.46875 L31.6992188,4.46875 C31.890626,4.16015471 32.1630842,3.91699308 32.5166016,3.73925781 C32.870119,3.56152255 33.2734352,3.47265625 33.7265625,3.47265625 C34.5117227,3.47265625 35.100584,3.65917782 35.4931641,4.03222656 C35.8857442,4.4052753 36.0820312,4.99804281 36.0820312,5.81054688 L36.0820312,10 L35.109375,10 Z M39.0527344,10 L38.0800781,10 L38.0800781,0.8828125 L39.0527344,0.8828125 L39.0527344,10 Z M40.0957031,3.578125 L41.1386719,3.578125 L42.5449219,7.24023438 L42.7160162,7.71390768 C42.9253915,8.30828333 43.0597653,8.75390477 43.1191406,9.05078125 L43.1660156,9.05078125 L43.2145386,8.87481681 C43.2341918,8.80731207 43.2573241,8.73095735 43.2839353,8.64575248 L43.5335491,7.8868609 C43.7383965,7.29171401 44.2526,5.85548014 45.0761719,3.578125 L46.1191406,3.578125 L43.359375,10.890625 C43.0859361,11.6132849 42.7666034,12.125975 42.4013672,12.4287109 C42.036131,12.7314468 41.5878933,12.8828125 41.0566406,12.8828125 C40.7597641,12.8828125 40.4667983,12.8496097 40.1777344,12.7832031 L40.1777344,12.0039062 C40.3925792,12.0507815 40.6328112,12.0742188 40.8984375,12.0742188 C41.5664096,12.0742188 42.0429673,11.6992225 42.328125,10.9492188 L42.6855469,10.0351562 L40.0957031,3.578125 Z M51.421875,6.4375 L51.421875,10 L50.4257812,10 L50.4257812,1.43359375 L52.7753906,1.43359375 C53.8261771,1.43359375 54.6025366,1.63476361 55.1044922,2.03710938 C55.6064478,2.43945514 55.8574219,3.04491783 55.8574219,3.85351562 C55.8574219,4.98633379 55.2832089,5.75195113 54.1347656,6.15039062 L56.4609375,10 L55.2832031,10 L53.2089844,6.4375 L51.421875,6.4375 Z M51.421875,5.58203125 L52.7871094,5.58203125 C53.4902379,5.58203125 54.0058577,5.44238421 54.3339844,5.16308594 C54.662111,4.88378767 54.8261719,4.46484654 54.8261719,3.90625 C54.8261719,3.33984092 54.6591814,2.93164188 54.3251953,2.68164062 C53.9912093,2.43163937 53.4550818,2.30664062 52.7167969,2.30664062 L51.421875,2.30664062 L51.421875,5.58203125 Z M60.4101562,10.1171875 C59.4609328,10.1171875 58.7119168,9.82812789 58.1630859,9.25 C57.6142551,8.67187211 57.3398438,7.86914576 57.3398438,6.84179688 C57.3398438,5.80663545 57.594724,4.98437805 58.1044922,4.375 C58.6142604,3.76562195 59.2988238,3.4609375 60.1582031,3.4609375 C60.9628946,3.4609375 61.599607,3.72558329 62.0683594,4.25488281 C62.5371117,4.78418233 62.7714844,5.48241754 62.7714844,6.34960938 L62.7714844,6.96484375 L58.3476562,6.96484375 C58.3671876,7.71875377 58.5576154,8.29101367 58.9189453,8.68164062 C59.2802752,9.07226758 59.7890592,9.26757812 60.4453125,9.26757812 C61.1367222,9.26757812 61.8203091,9.12304832 62.4960938,8.83398438 L62.4960938,9.70117188 C62.152342,9.84961012 61.82715,9.95605437 61.5205078,10.0205078 C61.2138657,10.0849613 60.8437522,10.1171875 60.4101562,10.1171875 Z M60.1464844,4.27539062 C59.6308568,4.27539062 59.2197281,4.4433577 58.9130859,4.77929688 C58.6064438,5.11523605 58.4257815,5.58007516 58.3710938,6.17382812 L61.7285156,6.17382812 C61.7285156,5.56054381 61.5917982,5.09082194 61.3183594,4.76464844 C61.0449205,4.43847493 60.6542994,4.27539062 60.1464844,4.27539062 Z M65.5957031,10 L63.1582031,3.578125 L64.2011719,3.578125 L65.5839844,7.38671875 L65.7941901,7.99609544 C65.9802254,8.54687701 66.0937498,8.921874 66.1347656,9.12109375 L66.1816406,9.12109375 C66.2150609,8.96006864 66.3046025,8.66494422 66.4502672,8.23571444 L66.7709785,7.32199768 C67.0458491,6.5530579 67.4978381,5.30510732 68.1269531,3.578125 L69.1699219,3.578125 L66.7324219,10 L65.5957031,10 Z M72.9140625,10.1171875 C71.964839,10.1171875 71.2158231,9.82812789 70.6669922,9.25 C70.1181613,8.67187211 69.84375,7.86914576 69.84375,6.84179688 C69.84375,5.80663545 70.0986303,4.98437805 70.6083984,4.375 C71.1181666,3.76562195 71.8027301,3.4609375 72.6621094,3.4609375 C73.4668009,3.4609375 74.1035133,3.72558329 74.5722656,4.25488281 C75.041018,4.78418233 75.2753906,5.48241754 75.2753906,6.34960938 L75.2753906,6.96484375 L70.8515625,6.96484375 C70.8710938,7.71875377 71.0615216,8.29101367 71.4228516,8.68164062 C71.7841815,9.07226758 72.2929655,9.26757812 72.9492188,9.26757812 C73.6406285,9.26757812 74.3242154,9.12304832 75,8.83398438 L75,9.70117188 C74.6562483,9.84961012 74.3310562,9.95605437 74.0244141,10.0205078 C73.7177719,10.0849613 73.3476584,10.1171875 72.9140625,10.1171875 Z M72.6503906,4.27539062 C72.134763,4.27539062 71.7236343,4.4433577 71.4169922,4.77929688 C71.11035,5.11523605 70.9296878,5.58007516 70.875,6.17382812 L74.2324219,6.17382812 C74.2324219,5.56054381 74.0957045,5.09082194 73.8222656,4.76464844 C73.5488268,4.43847493 73.1582057,4.27539062 72.6503906,4.27539062 Z M81.328125,10 L81.328125,5.84570312 C81.328125,5.32226301 81.2089856,4.93164191 80.9707031,4.67382812 C80.7324207,4.41601434 80.3593775,4.28710938 79.8515625,4.28710938 C79.1796841,4.28710938 78.6875016,4.46874818 78.375,4.83203125 C78.0624984,5.19531432 77.90625,5.7949177 77.90625,6.63085938 L77.90625,10 L76.9335938,10 L76.9335938,3.578125 L77.7246094,3.578125 L77.8828125,4.45703125 L77.9296875,4.45703125 C78.1289072,4.14062342 78.4082013,3.89550868 78.7675781,3.72167969 C79.1269549,3.54785069 79.5273415,3.4609375 79.96875,3.4609375 C80.7421914,3.4609375 81.3242168,3.64745907 81.7148438,4.02050781 C82.1054707,4.39355655 82.3007812,4.99023027 82.3007812,5.81054688 L82.3007812,10 L81.328125,10 Z M85.2128906,3.578125 L85.2128906,7.74414062 C85.2128906,8.26758074 85.3320301,8.65820184 85.5703125,8.91601562 C85.8085949,9.17382941 86.1816381,9.30273438 86.6894531,9.30273438 C87.3613315,9.30273438 87.8525375,9.11914246 88.1630859,8.75195312 C88.4736344,8.38476379 88.6289062,7.78516041 88.6289062,6.953125 L88.6289062,3.578125 L89.6015625,3.578125 L89.6015625,10 L88.7988281,10 L88.6582031,9.13867188 L88.6054688,9.13867188 C88.406249,9.45507971 88.1298846,9.69726479 87.7763672,9.86523438 C87.4228498,10.033204 87.0195335,10.1171875 86.5664062,10.1171875 C85.7851523,10.1171875 85.2001973,9.93164248 84.8115234,9.56054688 C84.4228496,9.18945127 84.2285156,8.59570721 84.2285156,7.77929688 L84.2285156,3.578125 L85.2128906,3.578125 Z M94.3769531,10.1171875 C93.4277296,10.1171875 92.6787137,9.82812789 92.1298828,9.25 C91.5810519,8.67187211 91.3066406,7.86914576 91.3066406,6.84179688 C91.3066406,5.80663545 91.5615209,4.98437805 92.0712891,4.375 C92.5810572,3.76562195 93.2656207,3.4609375 94.125,3.4609375 C94.9296915,3.4609375 95.5664039,3.72558329 96.0351562,4.25488281 C96.5039086,4.78418233 96.7382812,5.48241754 96.7382812,6.34960938 L96.7382812,6.96484375 L92.3144531,6.96484375 C92.3339845,7.71875377 92.5244123,8.29101367 92.8857422,8.68164062 C93.2470721,9.07226758 93.7558561,9.26757812 94.4121094,9.26757812 C95.1035191,9.26757812 95.787106,9.12304832 96.4628906,8.83398438 L96.4628906,9.70117188 C96.1191389,9.84961012 95.7939468,9.95605437 95.4873047,10.0205078 C95.1806625,10.0849613 94.810549,10.1171875 94.3769531,10.1171875 Z" id="MonthlyRevenue" fill="#9E9E9E" fill-rule="nonzero"></path>
                        <path d="M94.1132812,4.27539062 C94.6210963,4.27539062 95.0117174,4.43847493 95.2851562,4.76464844 C95.5585951,5.09082194 95.6953125,5.56054381 95.6953125,6.17382812 L92.3378906,6.17382812 C92.3925784,5.58007516 92.5732407,5.11523605 92.8798828,4.77929688 C93.186525,4.4433577 93.5976537,4.27539062 94.1132812,4.27539062 Z" id="Path" fill="#FFFFFF"></path>
                        <g id="question-circle-light" transform="translate(104.000000, 0.000000)" fill="#9E9E9E" fill-rule="nonzero">
                            <path d="M6,8.03225806 C5.62587097,8.03225806 5.32258065,8.33554839 5.32258065,8.70967742 C5.32258065,9.08380645 5.62587097,9.38709677 6,9.38709677 C6.37412903,9.38709677 6.67741935,9.08380645 6.67741935,8.70967742 C6.67741935,8.33554839 6.37412903,8.03225806 6,8.03225806 Z M6.18556452,7.4516129 L5.79846774,7.4516129 C5.6381371,7.4516129 5.50814516,7.32162097 5.50814516,7.16129032 L5.50814516,7.15207258 C5.50814516,5.45022581 7.38169355,5.61290323 7.38169355,4.55349194 C7.38169355,4.06923387 6.95199194,3.58064516 5.99201613,3.58064516 C5.28691935,3.58064516 4.92108871,3.81408871 4.55949194,4.27480645 C4.46494355,4.39529032 4.29205645,4.41984677 4.16639516,4.33229032 L3.8486371,4.11091935 C3.71254839,4.01610484 3.68266935,3.8261371 3.78464516,3.69534677 C4.29817742,3.03662903 4.90746774,2.61290323 5.99201613,2.61290323 C7.25782258,2.61290323 8.34943548,3.33268548 8.34943548,4.55349194 C8.34943548,6.18447581 6.4758871,6.09822581 6.4758871,7.15207258 L6.4758871,7.16129032 C6.4758871,7.32162097 6.34589516,7.4516129 6.18556452,7.4516129 Z M6,0.774193548 C8.8698629,0.774193548 11.2258065,3.09858871 11.2258065,6 C11.2258065,8.88607258 8.88846774,11.2258065 6,11.2258065 C3.11506452,11.2258065 0.774193548,8.88962903 0.774193548,6 C0.774193548,3.11605645 3.11133871,0.774193548 6,0.774193548 Z M6,0 C2.68652419,0 0,2.68749194 0,6 C0,9.31444355 2.68652419,12 6,12 C9.31347581,12 12,9.31444355 12,6 C12,2.68749194 9.31347581,0 6,0 Z" id="Shape"></path>
                        </g>
                        <g id="dollar-sign-solid" transform="translate(11.000000, 26.000000)" fill="#B9C7D4" fill-rule="nonzero">
                            <path d="M6.5375,7.29375 L3.1625,6.30625 C2.771875,6.19375 2.5,5.828125 2.5,5.421875 C2.5,4.9125 2.9125,4.5 3.421875,4.5 L5.49375,4.5 C5.875,4.5 6.25,4.615625 6.5625,4.828125 C6.753125,4.95625 7.009375,4.925 7.171875,4.765625 L8.259375,3.703125 C8.48125,3.4875 8.45,3.128125 8.203125,2.9375 C7.4375,2.3375 6.48125,2.003125 5.5,2 L5.5,0.5 C5.5,0.225 5.275,0 5,0 L4,0 C3.725,0 3.5,0.225 3.5,0.5 L3.5,2 L3.421875,2 C1.43125,2 -0.16875,3.709375 0.015625,5.7375 C0.146875,7.178125 1.246875,8.35 2.634375,8.75625 L5.8375,9.69375 C6.228125,9.809375 6.5,10.171875 6.5,10.578125 C6.5,11.0875 6.0875,11.5 5.578125,11.5 L3.50625,11.5 C3.125,11.5 2.75,11.384375 2.4375,11.171875 C2.246875,11.04375 1.990625,11.075 1.828125,11.234375 L0.740625,12.296875 C0.51875,12.5125 0.55,12.871875 0.796875,13.0625 C1.5625,13.6625 2.51875,13.996875 3.5,14 L3.5,15.5 C3.5,15.775 3.725,16 4,16 L5,16 C5.275,16 5.5,15.775 5.5,15.5 L5.5,13.99375 C6.95625,13.965625 8.321875,13.1 8.803125,11.721875 C9.475,9.796875 8.346875,7.821875 6.5375,7.29375 Z" id="Path"></path>
                        </g>
                    </g>
                    <g id="input-copy-2" transform="translate(284.000000, 169.000000)">
                        <rect id="Rectangle" stroke="#B9C7D4" fill="#FFFFFF" x="0.5" y="0.5" width="175" height="31" rx="2"></rect>
                        <path d="M35.96875,20 L33.0625,12.40625 L33.015625,12.40625 C33.0703128,13.0078155 33.0976562,13.7226521 33.0976562,14.5507812 L33.0976562,20 L32.1777344,20 L32.1777344,11.4335938 L33.6777344,11.4335938 L36.390625,18.5 L36.4375,18.5 L39.1738281,11.4335938 L40.6621094,11.4335938 L40.6621094,20 L39.6660156,20 L39.6660156,14.4804688 C39.6660156,13.8476531 39.6933591,13.16016 39.7480469,12.4179688 L39.7011719,12.4179688 L36.7714844,20 L35.96875,20 Z M46.8144531,20 L46.6210938,19.0859375 L46.5742188,19.0859375 C46.2539046,19.4882833 45.9345719,19.7607415 45.6162109,19.9033203 C45.29785,20.0458992 44.900393,20.1171875 44.4238281,20.1171875 C43.7871062,20.1171875 43.2880877,19.9531266 42.9267578,19.625 C42.5654279,19.2968734 42.3847656,18.8300812 42.3847656,18.2246094 C42.3847656,16.9277279 43.4218646,16.2480472 45.4960938,16.1855469 L46.5859375,16.1503906 L46.5859375,15.7519531 C46.5859375,15.2480444 46.4775401,14.8759778 46.2607422,14.6357422 C46.0439442,14.3955066 45.697268,14.2753906 45.2207031,14.2753906 C44.6855442,14.2753906 44.0800815,14.4394515 43.4042969,14.7675781 L43.1054688,14.0234375 C43.4218766,13.8515616 43.7685528,13.7167974 44.1455078,13.6191406 C44.5224628,13.5214839 44.9003887,13.4726562 45.2792969,13.4726562 C46.0449257,13.4726562 46.6123028,13.6425764 46.9814453,13.9824219 C47.3505878,14.3222673 47.5351562,14.8671837 47.5351562,15.6171875 L47.5351562,20 L46.8144531,20 Z M44.6171875,19.3144531 C45.2226593,19.3144531 45.6982405,19.1484392 46.0439453,18.8164062 C46.3896502,18.4843733 46.5625,18.0195342 46.5625,17.421875 L46.5625,16.8417969 L45.5898438,16.8828125 C44.8164024,16.9101564 44.2587908,17.0302724 43.9169922,17.2431641 C43.5751936,17.4560558 43.4042969,17.7871071 43.4042969,18.2363281 C43.4042969,18.5878924 43.5107411,18.8554678 43.7236328,19.0390625 C43.9365245,19.2226572 44.2343731,19.3144531 44.6171875,19.3144531 Z M51.0859375,16.7128906 L48.8535156,13.578125 L49.9609375,13.578125 L51.6542969,16.0390625 L53.3417969,13.578125 L54.4375,13.578125 L52.2050781,16.7128906 L54.5546875,20 L53.453125,20 L51.6542969,17.3984375 L49.8378906,20 L48.7363281,20 L51.0859375,16.7128906 Z" id="Max" fill="#9E9E9E" fill-rule="nonzero"></path>
                        <g id="dollar-sign-solid" transform="translate(11.000000, 8.000000)" fill="#B9C7D4" fill-rule="nonzero">
                            <path d="M6.5375,7.29375 L3.1625,6.30625 C2.771875,6.19375 2.5,5.828125 2.5,5.421875 C2.5,4.9125 2.9125,4.5 3.421875,4.5 L5.49375,4.5 C5.875,4.5 6.25,4.615625 6.5625,4.828125 C6.753125,4.95625 7.009375,4.925 7.171875,4.765625 L8.259375,3.703125 C8.48125,3.4875 8.45,3.128125 8.203125,2.9375 C7.4375,2.3375 6.48125,2.003125 5.5,2 L5.5,0.5 C5.5,0.225 5.275,0 5,0 L4,0 C3.725,0 3.5,0.225 3.5,0.5 L3.5,2 L3.421875,2 C1.43125,2 -0.16875,3.709375 0.015625,5.7375 C0.146875,7.178125 1.246875,8.35 2.634375,8.75625 L5.8375,9.69375 C6.228125,9.809375 6.5,10.171875 6.5,10.578125 C6.5,11.0875 6.0875,11.5 5.578125,11.5 L3.50625,11.5 C3.125,11.5 2.75,11.384375 2.4375,11.171875 C2.246875,11.04375 1.990625,11.075 1.828125,11.234375 L0.740625,12.296875 C0.51875,12.5125 0.55,12.871875 0.796875,13.0625 C1.5625,13.6625 2.51875,13.996875 3.5,14 L3.5,15.5 C3.5,15.775 3.725,16 4,16 L5,16 C5.275,16 5.5,15.775 5.5,15.5 L5.5,13.99375 C6.95625,13.965625 8.321875,13.1 8.803125,11.721875 C9.475,9.796875 8.346875,7.821875 6.5375,7.29375 Z" id="Path"></path>
                        </g>
                    </g>
                    <g id="input-copy-4" transform="translate(92.000000, 215.000000)">
                        <rect id="Rectangle" stroke="#B9C7D4" fill="#FFFFFF" x="0.5" y="18.5" width="175" height="31" rx="2"></rect>
                        <path d="M35.96875,38 L33.0625,30.40625 L33.015625,30.40625 C33.0703128,31.0078155 33.0976562,31.7226521 33.0976562,32.5507812 L33.0976562,38 L32.1777344,38 L32.1777344,29.4335938 L33.6777344,29.4335938 L36.390625,36.5 L36.4375,36.5 L39.1738281,29.4335938 L40.6621094,29.4335938 L40.6621094,38 L39.6660156,38 L39.6660156,32.4804688 C39.6660156,31.8476531 39.6933591,31.16016 39.7480469,30.4179688 L39.7011719,30.4179688 L36.7714844,38 L35.96875,38 Z M43.8378906,38 L42.8652344,38 L42.8652344,31.578125 L43.8378906,31.578125 L43.8378906,38 Z M42.7832031,29.8378906 C42.7832031,29.6152333 42.8378901,29.452149 42.9472656,29.3486328 C43.0566412,29.2451167 43.1933586,29.1933594 43.3574219,29.1933594 C43.5136727,29.1933594 43.6484369,29.2460932 43.7617188,29.3515625 C43.8750006,29.4570318 43.9316406,29.6191395 43.9316406,29.8378906 C43.9316406,30.0566417 43.8750006,30.219726 43.7617188,30.3271484 C43.6484369,30.4345708 43.5136727,30.4882812 43.3574219,30.4882812 C43.1933586,30.4882812 43.0566412,30.4345708 42.9472656,30.3271484 C42.8378901,30.219726 42.7832031,30.0566417 42.7832031,29.8378906 Z M50.2949219,38 L50.2949219,33.8457031 C50.2949219,33.322263 50.1757824,32.9316419 49.9375,32.6738281 C49.6992176,32.4160143 49.3261744,32.2871094 48.8183594,32.2871094 C48.146481,32.2871094 47.6542984,32.4687482 47.3417969,32.8320312 C47.0292953,33.1953143 46.8730469,33.7949177 46.8730469,34.6308594 L46.8730469,38 L45.9003906,38 L45.9003906,31.578125 L46.6914062,31.578125 L46.8496094,32.4570312 L46.8964844,32.4570312 C47.0957041,32.1406234 47.3749982,31.8955087 47.734375,31.7216797 C48.0937518,31.5478507 48.4941384,31.4609375 48.9355469,31.4609375 C49.7089882,31.4609375 50.2910137,31.6474591 50.6816406,32.0205078 C51.0722676,32.3935566 51.2675781,32.9902303 51.2675781,33.8105469 L51.2675781,38 L50.2949219,38 Z" id="Min" fill="#9E9E9E" fill-rule="nonzero"></path>
                        <path d="M6.609375,3.9296875 C6.609375,4.79687934 6.31347952,5.46386485 5.72167969,5.93066406 C5.12987985,6.39746327 4.28320863,6.63085938 3.18164062,6.63085938 L2.17382812,6.63085938 L2.17382812,10 L1.17773438,10 L1.17773438,1.43359375 L3.3984375,1.43359375 C5.5390732,1.43359375 6.609375,2.26561668 6.609375,3.9296875 Z M2.17382812,5.77539062 L3.0703125,5.77539062 C3.95312941,5.77539062 4.5917949,5.63281393 4.98632812,5.34765625 C5.38086135,5.06249857 5.578125,4.60547189 5.578125,3.9765625 C5.578125,3.41015342 5.39257998,2.98828264 5.02148438,2.7109375 C4.65038877,2.43359236 4.07226955,2.29492188 3.28710938,2.29492188 L2.17382812,2.29492188 L2.17382812,5.77539062 Z M11.1855469,3.4609375 C11.4707046,3.4609375 11.7265614,3.48437477 11.953125,3.53125 L11.8183594,4.43359375 C11.552733,4.37499971 11.3183604,4.34570312 11.1152344,4.34570312 C10.5957005,4.34570312 10.151369,4.55663852 9.78222656,4.97851562 C9.41308409,5.40039273 9.22851562,5.92577811 9.22851562,6.5546875 L9.22851562,10 L8.25585938,10 L8.25585938,3.578125 L9.05859375,3.578125 L9.16992188,4.76757812 L9.21679688,4.76757812 C9.45507932,4.34960729 9.74218582,4.02734488 10.078125,3.80078125 C10.4140642,3.57421762 10.7832011,3.4609375 11.1855469,3.4609375 Z M14.1269531,10 L13.1542969,10 L13.1542969,3.578125 L14.1269531,3.578125 L14.1269531,10 Z M13.0722656,1.83789062 C13.0722656,1.61523326 13.1269526,1.45214896 13.2363281,1.34863281 C13.3457037,1.24511667 13.4824211,1.19335938 13.6464844,1.19335938 C13.8027352,1.19335938 13.9374994,1.24609322 14.0507812,1.3515625 C14.1640631,1.45703178 14.2207031,1.61913953 14.2207031,1.83789062 C14.2207031,2.05664172 14.1640631,2.21972603 14.0507812,2.32714844 C13.9374994,2.43457085 13.8027352,2.48828125 13.6464844,2.48828125 C13.4824211,2.48828125 13.3457037,2.43457085 13.2363281,2.32714844 C13.1269526,2.21972603 13.0722656,2.05664172 13.0722656,1.83789062 Z M18.7558594,10.1171875 C17.8261672,10.1171875 17.1064479,9.83105755 16.5966797,9.25878906 C16.0869115,8.68652058 15.8320312,7.87695836 15.8320312,6.83007812 C15.8320312,5.755854 16.0908177,4.92578418 16.6083984,4.33984375 C17.1259792,3.75390332 17.8632765,3.4609375 18.8203125,3.4609375 C19.1289078,3.4609375 19.4374985,3.49414029 19.7460938,3.56054688 C20.054689,3.62695346 20.2968741,3.70507768 20.4726562,3.79492188 L20.1738281,4.62109375 C19.9589833,4.53515582 19.7246106,4.46386747 19.4707031,4.40722656 C19.2167956,4.35058565 18.9921885,4.32226562 18.796875,4.32226562 C17.492181,4.32226562 16.8398438,5.15428855 16.8398438,6.81835938 C16.8398438,7.60742582 16.9990218,8.21288852 17.3173828,8.63476562 C17.6357438,9.05664273 18.1074188,9.26757812 18.7324219,9.26757812 C19.2675808,9.26757812 19.8164034,9.1523449 20.3789062,8.921875 L20.3789062,9.78320312 C19.9492166,10.0058605 19.4082064,10.1171875 18.7558594,10.1171875 Z M24.6152344,10.1171875 C23.6660109,10.1171875 22.9169949,9.82812789 22.3681641,9.25 C21.8193332,8.67187211 21.5449219,7.86914576 21.5449219,6.84179688 C21.5449219,5.80663545 21.7998021,4.98437805 22.3095703,4.375 C22.8193385,3.76562195 23.503902,3.4609375 24.3632812,3.4609375 C25.1679728,3.4609375 25.8046852,3.72558329 26.2734375,4.25488281 C26.7421898,4.78418233 26.9765625,5.48241754 26.9765625,6.34960938 L26.9765625,6.96484375 L22.5527344,6.96484375 C22.5722657,7.71875377 22.7626935,8.29101367 23.1240234,8.68164062 C23.4853534,9.07226758 23.9941373,9.26757812 24.6503906,9.26757812 C25.3418003,9.26757812 26.0253872,9.12304832 26.7011719,8.83398438 L26.7011719,9.70117188 C26.3574202,9.84961012 26.0322281,9.95605437 25.7255859,10.0205078 C25.4189438,10.0849613 25.0488303,10.1171875 24.6152344,10.1171875 Z" id="Price" fill="#A8A8A8" fill-rule="nonzero"></path>
                        <path d="M24.3515625,4.27539062 C24.8593775,4.27539062 25.2499986,4.43847493 25.5234375,4.76464844 C25.7968764,5.09082194 25.9335938,5.56054381 25.9335938,6.17382812 L22.5761719,6.17382812 C22.6308596,5.58007516 22.8115219,5.11523605 23.1181641,4.77929688 C23.4248062,4.4433577 23.8359349,4.27539062 24.3515625,4.27539062 Z" id="Path" fill="#FFFFFF"></path>
                        <g id="question-circle-light" transform="translate(32.000000, 0.000000)" fill="#9E9E9E" fill-rule="nonzero">
                            <path d="M6,8.03225806 C5.62587097,8.03225806 5.32258065,8.33554839 5.32258065,8.70967742 C5.32258065,9.08380645 5.62587097,9.38709677 6,9.38709677 C6.37412903,9.38709677 6.67741935,9.08380645 6.67741935,8.70967742 C6.67741935,8.33554839 6.37412903,8.03225806 6,8.03225806 Z M6.18556452,7.4516129 L5.79846774,7.4516129 C5.6381371,7.4516129 5.50814516,7.32162097 5.50814516,7.16129032 L5.50814516,7.15207258 C5.50814516,5.45022581 7.38169355,5.61290323 7.38169355,4.55349194 C7.38169355,4.06923387 6.95199194,3.58064516 5.99201613,3.58064516 C5.28691935,3.58064516 4.92108871,3.81408871 4.55949194,4.27480645 C4.46494355,4.39529032 4.29205645,4.41984677 4.16639516,4.33229032 L3.8486371,4.11091935 C3.71254839,4.01610484 3.68266935,3.8261371 3.78464516,3.69534677 C4.29817742,3.03662903 4.90746774,2.61290323 5.99201613,2.61290323 C7.25782258,2.61290323 8.34943548,3.33268548 8.34943548,4.55349194 C8.34943548,6.18447581 6.4758871,6.09822581 6.4758871,7.15207258 L6.4758871,7.16129032 C6.4758871,7.32162097 6.34589516,7.4516129 6.18556452,7.4516129 Z M6,0.774193548 C8.8698629,0.774193548 11.2258065,3.09858871 11.2258065,6 C11.2258065,8.88607258 8.88846774,11.2258065 6,11.2258065 C3.11506452,11.2258065 0.774193548,8.88962903 0.774193548,6 C0.774193548,3.11605645 3.11133871,0.774193548 6,0.774193548 Z M6,0 C2.68652419,0 0,2.68749194 0,6 C0,9.31444355 2.68652419,12 6,12 C9.31347581,12 12,9.31444355 12,6 C12,2.68749194 9.31347581,0 6,0 Z" id="Shape"></path>
                        </g>
                        <g id="dollar-sign-solid" transform="translate(11.000000, 26.000000)" fill="#B9C7D4" fill-rule="nonzero">
                            <path d="M6.5375,7.29375 L3.1625,6.30625 C2.771875,6.19375 2.5,5.828125 2.5,5.421875 C2.5,4.9125 2.9125,4.5 3.421875,4.5 L5.49375,4.5 C5.875,4.5 6.25,4.615625 6.5625,4.828125 C6.753125,4.95625 7.009375,4.925 7.171875,4.765625 L8.259375,3.703125 C8.48125,3.4875 8.45,3.128125 8.203125,2.9375 C7.4375,2.3375 6.48125,2.003125 5.5,2 L5.5,0.5 C5.5,0.225 5.275,0 5,0 L4,0 C3.725,0 3.5,0.225 3.5,0.5 L3.5,2 L3.421875,2 C1.43125,2 -0.16875,3.709375 0.015625,5.7375 C0.146875,7.178125 1.246875,8.35 2.634375,8.75625 L5.8375,9.69375 C6.228125,9.809375 6.5,10.171875 6.5,10.578125 C6.5,11.0875 6.0875,11.5 5.578125,11.5 L3.50625,11.5 C3.125,11.5 2.75,11.384375 2.4375,11.171875 C2.246875,11.04375 1.990625,11.075 1.828125,11.234375 L0.740625,12.296875 C0.51875,12.5125 0.55,12.871875 0.796875,13.0625 C1.5625,13.6625 2.51875,13.996875 3.5,14 L3.5,15.5 C3.5,15.775 3.725,16 4,16 L5,16 C5.275,16 5.5,15.775 5.5,15.5 L5.5,13.99375 C6.95625,13.965625 8.321875,13.1 8.803125,11.721875 C9.475,9.796875 8.346875,7.821875 6.5375,7.29375 Z" id="Path"></path>
                        </g>
                    </g>
                    <g id="input-copy-3" transform="translate(284.000000, 233.000000)">
                        <rect id="Rectangle" stroke="#B9C7D4" fill="#FFFFFF" x="0.5" y="0.5" width="175" height="31" rx="2"></rect>
                        <path d="M35.96875,20 L33.0625,12.40625 L33.015625,12.40625 C33.0703128,13.0078155 33.0976562,13.7226521 33.0976562,14.5507812 L33.0976562,20 L32.1777344,20 L32.1777344,11.4335938 L33.6777344,11.4335938 L36.390625,18.5 L36.4375,18.5 L39.1738281,11.4335938 L40.6621094,11.4335938 L40.6621094,20 L39.6660156,20 L39.6660156,14.4804688 C39.6660156,13.8476531 39.6933591,13.16016 39.7480469,12.4179688 L39.7011719,12.4179688 L36.7714844,20 L35.96875,20 Z M46.8144531,20 L46.6210938,19.0859375 L46.5742188,19.0859375 C46.2539046,19.4882833 45.9345719,19.7607415 45.6162109,19.9033203 C45.29785,20.0458992 44.900393,20.1171875 44.4238281,20.1171875 C43.7871062,20.1171875 43.2880877,19.9531266 42.9267578,19.625 C42.5654279,19.2968734 42.3847656,18.8300812 42.3847656,18.2246094 C42.3847656,16.9277279 43.4218646,16.2480472 45.4960938,16.1855469 L46.5859375,16.1503906 L46.5859375,15.7519531 C46.5859375,15.2480444 46.4775401,14.8759778 46.2607422,14.6357422 C46.0439442,14.3955066 45.697268,14.2753906 45.2207031,14.2753906 C44.6855442,14.2753906 44.0800815,14.4394515 43.4042969,14.7675781 L43.1054688,14.0234375 C43.4218766,13.8515616 43.7685528,13.7167974 44.1455078,13.6191406 C44.5224628,13.5214839 44.9003887,13.4726562 45.2792969,13.4726562 C46.0449257,13.4726562 46.6123028,13.6425764 46.9814453,13.9824219 C47.3505878,14.3222673 47.5351562,14.8671837 47.5351562,15.6171875 L47.5351562,20 L46.8144531,20 Z M44.6171875,19.3144531 C45.2226593,19.3144531 45.6982405,19.1484392 46.0439453,18.8164062 C46.3896502,18.4843733 46.5625,18.0195342 46.5625,17.421875 L46.5625,16.8417969 L45.5898438,16.8828125 C44.8164024,16.9101564 44.2587908,17.0302724 43.9169922,17.2431641 C43.5751936,17.4560558 43.4042969,17.7871071 43.4042969,18.2363281 C43.4042969,18.5878924 43.5107411,18.8554678 43.7236328,19.0390625 C43.9365245,19.2226572 44.2343731,19.3144531 44.6171875,19.3144531 Z M51.0859375,16.7128906 L48.8535156,13.578125 L49.9609375,13.578125 L51.6542969,16.0390625 L53.3417969,13.578125 L54.4375,13.578125 L52.2050781,16.7128906 L54.5546875,20 L53.453125,20 L51.6542969,17.3984375 L49.8378906,20 L48.7363281,20 L51.0859375,16.7128906 Z" id="Max" fill="#9E9E9E" fill-rule="nonzero"></path>
                        <g id="dollar-sign-solid" transform="translate(11.000000, 8.000000)" fill="#B9C7D4" fill-rule="nonzero">
                            <path d="M6.5375,7.29375 L3.1625,6.30625 C2.771875,6.19375 2.5,5.828125 2.5,5.421875 C2.5,4.9125 2.9125,4.5 3.421875,4.5 L5.49375,4.5 C5.875,4.5 6.25,4.615625 6.5625,4.828125 C6.753125,4.95625 7.009375,4.925 7.171875,4.765625 L8.259375,3.703125 C8.48125,3.4875 8.45,3.128125 8.203125,2.9375 C7.4375,2.3375 6.48125,2.003125 5.5,2 L5.5,0.5 C5.5,0.225 5.275,0 5,0 L4,0 C3.725,0 3.5,0.225 3.5,0.5 L3.5,2 L3.421875,2 C1.43125,2 -0.16875,3.709375 0.015625,5.7375 C0.146875,7.178125 1.246875,8.35 2.634375,8.75625 L5.8375,9.69375 C6.228125,9.809375 6.5,10.171875 6.5,10.578125 C6.5,11.0875 6.0875,11.5 5.578125,11.5 L3.50625,11.5 C3.125,11.5 2.75,11.384375 2.4375,11.171875 C2.246875,11.04375 1.990625,11.075 1.828125,11.234375 L0.740625,12.296875 C0.51875,12.5125 0.55,12.871875 0.796875,13.0625 C1.5625,13.6625 2.51875,13.996875 3.5,14 L3.5,15.5 C3.5,15.775 3.725,16 4,16 L5,16 C5.275,16 5.5,15.775 5.5,15.5 L5.5,13.99375 C6.95625,13.965625 8.321875,13.1 8.803125,11.721875 C9.475,9.796875 8.346875,7.821875 6.5375,7.29375 Z" id="Path"></path>
                        </g>
                    </g>
                    <g id="input-copy-6" transform="translate(240.000000, 312.000000)" fill-rule="nonzero">
                        <path d="M29.8457031,5.20117188 C28.9042922,5.20117188 28.1611355,5.5146453 27.6162109,6.14160156 C27.0712863,6.76855782 26.7988281,7.62694768 26.7988281,8.71679688 C26.7988281,9.83789623 27.0615208,10.7040985 27.5869141,11.3154297 C28.1123073,11.9267609 28.8613233,12.2324219 29.8339844,12.2324219 C30.4316436,12.2324219 31.1132774,12.1250011 31.8789062,11.9101562 L31.8789062,12.7832031 C31.2851533,13.0058605 30.5527387,13.1171875 29.6816406,13.1171875 C28.4199156,13.1171875 27.4462925,12.7343788 26.7607422,11.96875 C26.0751919,11.2031212 25.7324219,10.1152414 25.7324219,8.70507812 C25.7324219,7.82226121 25.8974593,7.04883145 26.2275391,6.38476562 C26.5576188,5.7206998 27.0341766,5.20898617 27.6572266,4.84960938 C28.2802766,4.49023258 29.0136677,4.31054688 29.8574219,4.31054688 C30.7558639,4.31054688 31.5410123,4.47460773 32.2128906,4.80273438 L31.7910156,5.65820312 C31.1425749,5.3535141 30.4941439,5.20117188 29.8457031,5.20117188 Z M34.5742188,13 L33.6015625,13 L33.6015625,3.8828125 L34.5742188,3.8828125 L34.5742188,13 Z M39.3496094,13.1171875 C38.4003859,13.1171875 37.6513699,12.8281279 37.1025391,12.25 C36.5537082,11.6718721 36.2792969,10.8691458 36.2792969,9.84179688 C36.2792969,8.80663545 36.5341771,7.98437805 37.0439453,7.375 C37.5537135,6.76562195 38.238277,6.4609375 39.0976562,6.4609375 C39.9023478,6.4609375 40.5390602,6.72558329 41.0078125,7.25488281 C41.4765648,7.78418233 41.7109375,8.48241754 41.7109375,9.34960938 L41.7109375,9.96484375 L37.2871094,9.96484375 C37.3066407,10.7187538 37.4970685,11.2910137 37.8583984,11.6816406 C38.2197284,12.0722676 38.7285123,12.2675781 39.3847656,12.2675781 C40.0761753,12.2675781 40.7597622,12.1230483 41.4355469,11.8339844 L41.4355469,12.7011719 C41.0917952,12.8496101 40.7666031,12.9560544 40.4599609,13.0205078 C40.1533188,13.0849613 39.7832053,13.1171875 39.3496094,13.1171875 Z M39.0859375,7.27539062 C38.5703099,7.27539062 38.1591812,7.4433577 37.8525391,7.77929688 C37.5458969,8.11523605 37.3652346,8.58007516 37.3105469,9.17382812 L40.6679688,9.17382812 C40.6679688,8.56054381 40.5312514,8.09082194 40.2578125,7.76464844 C39.9843736,7.43847493 39.5937525,7.27539062 39.0859375,7.27539062 Z M47.3183594,13 L47.125,12.0859375 L47.078125,12.0859375 C46.7578109,12.4882833 46.4384782,12.7607415 46.1201172,12.9033203 C45.8017562,13.0458992 45.4042993,13.1171875 44.9277344,13.1171875 C44.2910124,13.1171875 43.791994,12.9531266 43.4306641,12.625 C43.0693341,12.2968734 42.8886719,11.8300812 42.8886719,11.2246094 C42.8886719,9.92772789 43.9257709,9.24804719 46,9.18554688 L47.0898438,9.15039062 L47.0898438,8.75195312 C47.0898438,8.24804436 46.9814464,7.87597776 46.7646484,7.63574219 C46.5478505,7.39550661 46.2011743,7.27539062 45.7246094,7.27539062 C45.1894504,7.27539062 44.5839878,7.43945148 43.9082031,7.76757812 L43.609375,7.0234375 C43.9257828,6.85156164 44.2724591,6.71679736 44.6494141,6.61914062 C45.0263691,6.52148389 45.404295,6.47265625 45.7832031,6.47265625 C46.548832,6.47265625 47.1162091,6.64257643 47.4853516,6.98242188 C47.854494,7.32226732 48.0390625,7.86718375 48.0390625,8.6171875 L48.0390625,13 L47.3183594,13 Z M45.1210938,12.3144531 C45.7265655,12.3144531 46.2021467,12.1484392 46.5478516,11.8164062 C46.8935564,11.4843733 47.0664062,11.0195342 47.0664062,10.421875 L47.0664062,9.84179688 L46.09375,9.8828125 C45.3203086,9.91015639 44.762697,10.0302724 44.4208984,10.2431641 C44.0790999,10.4560558 43.9082031,10.7871071 43.9082031,11.2363281 C43.9082031,11.5878924 44.0146474,11.8554678 44.2275391,12.0390625 C44.4404308,12.2226572 44.7382793,12.3144531 45.1210938,12.3144531 Z M52.9726562,6.4609375 C53.2578139,6.4609375 53.5136707,6.48437477 53.7402344,6.53125 L53.6054688,7.43359375 C53.3398424,7.37499971 53.1054698,7.34570312 52.9023438,7.34570312 C52.3828099,7.34570312 51.9384784,7.55663852 51.5693359,7.97851562 C51.2001935,8.40039273 51.015625,8.92577811 51.015625,9.5546875 L51.015625,13 L50.0429688,13 L50.0429688,6.578125 L50.8457031,6.578125 L50.9570312,7.76757812 L51.0039062,7.76757812 C51.2421887,7.34960729 51.5292952,7.02734488 51.8652344,6.80078125 C52.2011736,6.57421762 52.5703105,6.4609375 52.9726562,6.4609375 Z M59.2011719,13 L58.2050781,13 L58.2050781,4.43359375 L62.9804688,4.43359375 L62.9804688,5.31835938 L59.2011719,5.31835938 L59.2011719,8.453125 L62.7519531,8.453125 L62.7519531,9.33789062 L59.2011719,9.33789062 L59.2011719,13 Z M65.2246094,13 L64.2519531,13 L64.2519531,6.578125 L65.2246094,6.578125 L65.2246094,13 Z M64.1699219,4.83789062 C64.1699219,4.61523326 64.2246088,4.45214896 64.3339844,4.34863281 C64.4433599,4.24511667 64.5800773,4.19335938 64.7441406,4.19335938 C64.9003914,4.19335938 65.0351557,4.24609322 65.1484375,4.3515625 C65.2617193,4.45703178 65.3183594,4.61913953 65.3183594,4.83789062 C65.3183594,5.05664172 65.2617193,5.21972603 65.1484375,5.32714844 C65.0351557,5.43457085 64.9003914,5.48828125 64.7441406,5.48828125 C64.5800773,5.48828125 64.4433599,5.43457085 64.3339844,5.32714844 C64.2246088,5.21972603 64.1699219,5.05664172 64.1699219,4.83789062 Z M68.2597656,13 L67.2871094,13 L67.2871094,3.8828125 L68.2597656,3.8828125 L68.2597656,13 Z M72.3964844,12.3144531 C72.5683602,12.3144531 72.7343742,12.3017579 72.8945312,12.2763672 C73.0546883,12.2509764 73.1816402,12.2246095 73.2753906,12.1972656 L73.2753906,12.9414062 C73.1699213,12.9921878 73.0146495,13.0341795 72.8095703,13.0673828 C72.6044912,13.1005861 72.4199227,13.1171875 72.2558594,13.1171875 C71.0136657,13.1171875 70.3925781,12.4628972 70.3925781,11.1542969 L70.3925781,7.33398438 L69.4726562,7.33398438 L69.4726562,6.86523438 L70.3925781,6.4609375 L70.8027344,5.08984375 L71.3652344,5.08984375 L71.3652344,6.578125 L73.2285156,6.578125 L73.2285156,7.33398438 L71.3652344,7.33398438 L71.3652344,11.1132812 C71.3652344,11.5000019 71.4570303,11.796874 71.640625,12.0039062 C71.8242197,12.2109385 72.0761703,12.3144531 72.3964844,12.3144531 Z M77.2714844,13.1171875 C76.3222609,13.1171875 75.5732449,12.8281279 75.0244141,12.25 C74.4755832,11.6718721 74.2011719,10.8691458 74.2011719,9.84179688 C74.2011719,8.80663545 74.4560521,7.98437805 74.9658203,7.375 C75.4755885,6.76562195 76.160152,6.4609375 77.0195312,6.4609375 C77.8242228,6.4609375 78.4609352,6.72558329 78.9296875,7.25488281 C79.3984398,7.78418233 79.6328125,8.48241754 79.6328125,9.34960938 L79.6328125,9.96484375 L75.2089844,9.96484375 C75.2285157,10.7187538 75.4189435,11.2910137 75.7802734,11.6816406 C76.1416034,12.0722676 76.6503873,12.2675781 77.3066406,12.2675781 C77.9980503,12.2675781 78.6816372,12.1230483 79.3574219,11.8339844 L79.3574219,12.7011719 C79.0136702,12.8496101 78.6884781,12.9560544 78.3818359,13.0205078 C78.0751938,13.0849613 77.7050803,13.1171875 77.2714844,13.1171875 Z M77.0078125,7.27539062 C76.4921849,7.27539062 76.0810562,7.4433577 75.7744141,7.77929688 C75.4677719,8.11523605 75.2871096,8.58007516 75.2324219,9.17382812 L78.5898438,9.17382812 C78.5898438,8.56054381 78.4531264,8.09082194 78.1796875,7.76464844 C77.9062486,7.43847493 77.5156275,7.27539062 77.0078125,7.27539062 Z M84.2207031,6.4609375 C84.5058608,6.4609375 84.7617176,6.48437477 84.9882812,6.53125 L84.8535156,7.43359375 C84.5878893,7.37499971 84.3535166,7.34570312 84.1503906,7.34570312 C83.6308568,7.34570312 83.1865253,7.55663852 82.8173828,7.97851562 C82.4482403,8.40039273 82.2636719,8.92577811 82.2636719,9.5546875 L82.2636719,13 L81.2910156,13 L81.2910156,6.578125 L82.09375,6.578125 L82.2050781,7.76757812 L82.2519531,7.76757812 C82.4902356,7.34960729 82.7773421,7.02734488 83.1132812,6.80078125 C83.4492204,6.57421762 83.8183574,6.4609375 84.2207031,6.4609375 Z" id="ClearFilter" fill="#262626"></path>
                        <g id="dollar-sign-solid" transform="translate(0.000000, 1.000000)" fill="#B9C7D4">
                            <g id="broom-solid">
                                <path d="M8.0146875,6.7740625 L10.725,10.1859375 C10.725,10.1859375 10.20625,13.3846875 8.3321875,14.8771875 C6.458125,16.3703125 0,15.9434375 0,15.9434375 C0,15.9434375 0.11875,15.2203125 0.34375,14.21125 L3.300625,10.7059375 C3.4246875,10.5590625 3.2734375,10.3428125 3.0928125,10.4090625 L1.2053125,11.099375 C1.6565625,9.7975 2.2278125,8.598125 2.9115625,8.0534375 C4.785625,6.5609375 8.0146875,6.7740625 8.0146875,6.7740625 Z M19.8915625,0.9696875 L19.2709375,0.1884375 C19.099375,-0.0271875 18.7859375,-0.063125 18.570625,0.1084375 L11.305625,5.6646875 L10.23875,4.321875 C10.0796875,4.1215625 9.765625,4.1590625 9.6578125,4.3909375 L8.86625,6.095625 L11.5765625,9.5075 L13.4140625,9.1184375 C13.6640625,9.065625 13.7709375,8.7684375 13.6121875,8.5684375 L12.546875,7.2271875 L19.811875,1.6709375 C20.0271875,1.4996875 20.063125,1.185625 19.8915625,0.9696875 Z" id="Shape"></path>
                            </g>
                        </g>
                    </g>
                    <g id="input-copy-5" transform="translate(340.000000, 305.000000)">
                        <rect id="Rectangle" fill="#2064F5" x="0" y="0" width="120" height="32" rx="2"></rect>
                        <path d="M21.0117188,17.7207031 C21.0117188,18.4746131 20.738284,19.0624979 20.1914062,19.484375 C19.6445285,19.9062521 18.9023484,20.1171875 17.9648438,20.1171875 C16.9492137,20.1171875 16.1679715,19.9863294 15.6210938,19.7246094 L15.6210938,18.7636719 C15.972658,18.9121101 16.3554667,19.0292964 16.7695312,19.1152344 C17.1835958,19.2011723 17.593748,19.2441406 18,19.2441406 C18.6640658,19.2441406 19.1640608,19.1181653 19.5,18.8662109 C19.8359392,18.6142566 20.0039062,18.2636741 20.0039062,17.8144531 C20.0039062,17.5175766 19.9443365,17.274415 19.8251953,17.0849609 C19.7060541,16.8955069 19.5068373,16.7207039 19.2275391,16.5605469 C19.0280403,16.446149 18.7543057,16.320791 18.4063307,16.184471 L17.953125,16.015625 C17.156246,15.7304673 16.5869158,15.3925801 16.2451172,15.0019531 C15.9033186,14.6113262 15.7324219,14.1015656 15.7324219,13.4726562 C15.7324219,12.8124967 15.9804663,12.2871113 16.4765625,11.8964844 C16.9726587,11.5058574 17.6289022,11.3105469 18.4453125,11.3105469 C19.2968793,11.3105469 20.0800746,11.4667953 20.7949219,11.7792969 L20.484375,12.6464844 C19.7773402,12.3496079 19.0898471,12.2011719 18.421875,12.2011719 C17.8945286,12.2011719 17.4824234,12.314452 17.1855469,12.5410156 C16.8886704,12.7675793 16.7402344,13.0820292 16.7402344,13.484375 C16.7402344,13.7812515 16.7949213,14.0244131 16.9042969,14.2138672 C17.0136724,14.4033213 17.1982409,14.5771476 17.4580078,14.7353516 C17.6806652,14.8709549 18.0044826,15.0187535 18.4294675,15.1787505 L18.6503906,15.2597656 C19.5488326,15.5800797 20.1669905,15.9238263 20.5048828,16.2910156 C20.8427751,16.658205 21.0117188,17.1347627 21.0117188,17.7207031 Z M25.3300781,20.1171875 C24.3808546,20.1171875 23.6318387,19.8281279 23.0830078,19.25 C22.5341769,18.6718721 22.2597656,17.8691458 22.2597656,16.8417969 C22.2597656,15.8066354 22.5146459,14.984378 23.0244141,14.375 C23.5341822,13.765622 24.2187457,13.4609375 25.078125,13.4609375 C25.8828165,13.4609375 26.5195289,13.7255833 26.9882812,14.2548828 C27.4570336,14.7841823 27.6914062,15.4824175 27.6914062,16.3496094 L27.6914062,16.9648438 L23.2675781,16.9648438 C23.2871095,17.7187538 23.4775373,18.2910137 23.8388672,18.6816406 C24.2001971,19.0722676 24.7089811,19.2675781 25.3652344,19.2675781 C26.0566441,19.2675781 26.740231,19.1230483 27.4160156,18.8339844 L27.4160156,19.7011719 C27.0722639,19.8496101 26.7470718,19.9560544 26.4404297,20.0205078 C26.1337875,20.0849613 25.763674,20.1171875 25.3300781,20.1171875 Z M25.0664062,14.2753906 C24.5507787,14.2753906 24.13965,14.4433577 23.8330078,14.7792969 C23.5263657,15.1152361 23.3457034,15.5800752 23.2910156,16.1738281 L26.6484375,16.1738281 C26.6484375,15.5605438 26.5117201,15.0908219 26.2382812,14.7646484 C25.9648424,14.4384749 25.5742213,14.2753906 25.0664062,14.2753906 Z M33.2988281,20 L33.1054688,19.0859375 L33.0585938,19.0859375 C32.7382796,19.4882833 32.4189469,19.7607415 32.1005859,19.9033203 C31.782225,20.0458992 31.384768,20.1171875 30.9082031,20.1171875 C30.2714812,20.1171875 29.7724627,19.9531266 29.4111328,19.625 C29.0498029,19.2968734 28.8691406,18.8300812 28.8691406,18.2246094 C28.8691406,16.9277279 29.9062396,16.2480472 31.9804688,16.1855469 L33.0703125,16.1503906 L33.0703125,15.7519531 C33.0703125,15.2480444 32.9619151,14.8759778 32.7451172,14.6357422 C32.5283192,14.3955066 32.181643,14.2753906 31.7050781,14.2753906 C31.1699192,14.2753906 30.5644565,14.4394515 29.8886719,14.7675781 L29.5898438,14.0234375 C29.9062516,13.8515616 30.2529278,13.7167974 30.6298828,13.6191406 C31.0068378,13.5214839 31.3847637,13.4726562 31.7636719,13.4726562 C32.5293007,13.4726562 33.0966778,13.6425764 33.4658203,13.9824219 C33.8349628,14.3222673 34.0195312,14.8671837 34.0195312,15.6171875 L34.0195312,20 L33.2988281,20 Z M31.1015625,19.3144531 C31.7070343,19.3144531 32.1826155,19.1484392 32.5283203,18.8164062 C32.8740252,18.4843733 33.046875,18.0195342 33.046875,17.421875 L33.046875,16.8417969 L32.0742188,16.8828125 C31.3007774,16.9101564 30.7431658,17.0302724 30.4013672,17.2431641 C30.0595686,17.4560558 29.8886719,17.7871071 29.8886719,18.2363281 C29.8886719,18.5878924 29.9951161,18.8554678 30.2080078,19.0390625 C30.4208995,19.2226572 30.7187481,19.3144531 31.1015625,19.3144531 Z M38.953125,13.4609375 C39.2382827,13.4609375 39.4941395,13.4843748 39.7207031,13.53125 L39.5859375,14.4335938 C39.3203112,14.3749997 39.0859385,14.3457031 38.8828125,14.3457031 C38.3632787,14.3457031 37.9189472,14.5566385 37.5498047,14.9785156 C37.1806622,15.4003927 36.9960938,15.9257781 36.9960938,16.5546875 L36.9960938,20 L36.0234375,20 L36.0234375,13.578125 L36.8261719,13.578125 L36.9375,14.7675781 L36.984375,14.7675781 C37.2226574,14.3496073 37.5097639,14.0273449 37.8457031,13.8007812 C38.1816423,13.5742176 38.5507792,13.4609375 38.953125,13.4609375 Z M43.2480469,20.1171875 C42.3183547,20.1171875 41.5986354,19.8310575 41.0888672,19.2587891 C40.579099,18.6865206 40.3242188,17.8769584 40.3242188,16.8300781 C40.3242188,15.755854 40.5830052,14.9257842 41.1005859,14.3398438 C41.6181667,13.7539033 42.355464,13.4609375 43.3125,13.4609375 C43.6210953,13.4609375 43.929686,13.4941403 44.2382812,13.5605469 C44.5468765,13.6269535 44.7890616,13.7050777 44.9648438,13.7949219 L44.6660156,14.6210938 C44.4511708,14.5351558 44.2167981,14.4638675 43.9628906,14.4072266 C43.7089831,14.3505857 43.484376,14.3222656 43.2890625,14.3222656 C41.9843685,14.3222656 41.3320312,15.1542886 41.3320312,16.8183594 C41.3320312,17.6074258 41.4912093,18.2128885 41.8095703,18.6347656 C42.1279313,19.0566427 42.5996063,19.2675781 43.2246094,19.2675781 C43.7597683,19.2675781 44.3085909,19.1523449 44.8710938,18.921875 L44.8710938,19.7832031 C44.4414041,20.0058605 43.9003939,20.1171875 43.2480469,20.1171875 Z M50.7890625,20 L50.7890625,15.8457031 C50.7890625,15.322263 50.6699231,14.9316419 50.4316406,14.6738281 C50.1933582,14.4160143 49.820315,14.2871094 49.3125,14.2871094 C48.6367154,14.2871094 48.1435562,14.4707013 47.8330078,14.8378906 C47.5224594,15.20508 47.3671875,15.8066364 47.3671875,16.6425781 L47.3671875,20 L46.3945312,20 L46.3945312,10.8828125 L47.3671875,10.8828125 L47.3671875,13.6425781 C47.3671875,13.974611 47.3515627,14.2499989 47.3203125,14.46875 L47.3789062,14.46875 C47.5703135,14.1601547 47.8427717,13.9169931 48.1962891,13.7392578 C48.5498065,13.5615225 48.9531227,13.4726562 49.40625,13.4726562 C50.1914102,13.4726562 50.7802715,13.6591778 51.1728516,14.0322266 C51.5654317,14.4052753 51.7617188,14.9980428 51.7617188,15.8105469 L51.7617188,20 L50.7890625,20 Z M62.4550781,13.9296875 C62.4550781,14.7968793 62.1591826,15.4638649 61.5673828,15.9306641 C60.975583,16.3974633 60.1289118,16.6308594 59.0273438,16.6308594 L58.0195312,16.6308594 L58.0195312,20 L57.0234375,20 L57.0234375,11.4335938 L59.2441406,11.4335938 C61.3847763,11.4335938 62.4550781,12.2656167 62.4550781,13.9296875 Z M58.0195312,15.7753906 L58.9160156,15.7753906 C59.7988325,15.7753906 60.437498,15.6328139 60.8320312,15.3476562 C61.2265645,15.0624986 61.4238281,14.6054719 61.4238281,13.9765625 C61.4238281,13.4101534 61.2382831,12.9882826 60.8671875,12.7109375 C60.4960919,12.4335924 59.9179727,12.2949219 59.1328125,12.2949219 L58.0195312,12.2949219 L58.0195312,15.7753906 Z M67.03125,13.4609375 C67.3164077,13.4609375 67.5722645,13.4843748 67.7988281,13.53125 L67.6640625,14.4335938 C67.3984362,14.3749997 67.1640635,14.3457031 66.9609375,14.3457031 C66.4414037,14.3457031 65.9970722,14.5566385 65.6279297,14.9785156 C65.2587872,15.4003927 65.0742188,15.9257781 65.0742188,16.5546875 L65.0742188,20 L64.1015625,20 L64.1015625,13.578125 L64.9042969,13.578125 L65.015625,14.7675781 L65.0625,14.7675781 C65.3007824,14.3496073 65.5878889,14.0273449 65.9238281,13.8007812 C66.2597673,13.5742176 66.6289042,13.4609375 67.03125,13.4609375 Z M74.3027344,16.7832031 C74.3027344,17.8300834 74.0390651,18.647458 73.5117188,19.2353516 C72.9843724,19.8232451 72.255864,20.1171875 71.3261719,20.1171875 C70.7519503,20.1171875 70.2421897,19.9824232 69.796875,19.7128906 C69.3515603,19.443358 69.0078137,19.0566431 68.765625,18.5527344 C68.5234363,18.0488256 68.4023438,17.4589878 68.4023438,16.7832031 C68.4023438,15.7363229 68.6640599,14.9209014 69.1875,14.3369141 C69.7109401,13.7529268 70.4374954,13.4609375 71.3671875,13.4609375 C72.2656295,13.4609375 72.9794895,13.7597626 73.5087891,14.3574219 C74.0380886,14.9550811 74.3027344,15.7636668 74.3027344,16.7832031 Z M69.4101562,16.7832031 C69.4101562,17.6035197 69.5742171,18.2285135 69.9023438,18.6582031 C70.2304704,19.0878928 70.7128874,19.3027344 71.3496094,19.3027344 C71.9863313,19.3027344 72.4697249,19.0888693 72.7998047,18.6611328 C73.1298845,18.2333963 73.2949219,17.607426 73.2949219,16.7832031 C73.2949219,15.9667928 73.1298845,15.3466818 72.7998047,14.9228516 C72.4697249,14.4990213 71.9824251,14.2871094 71.3378906,14.2871094 C70.7011687,14.2871094 70.2207047,14.4960917 69.8964844,14.9140625 C69.572264,15.3320333 69.4101562,15.955074 69.4101562,16.7832031 Z M80.3789062,19.1386719 L80.3261719,19.1386719 C79.8769509,19.7910189 79.2050826,20.1171875 78.3105469,20.1171875 C77.4706989,20.1171875 76.8173851,19.830081 76.3505859,19.2558594 C75.8837867,18.6816378 75.6503906,17.8652397 75.6503906,16.8066406 C75.6503906,15.7480416 75.8847633,14.9257842 76.3535156,14.3398438 C76.822268,13.7539033 77.4746052,13.4609375 78.3105469,13.4609375 C79.181645,13.4609375 79.8496071,13.7773406 80.3144531,14.4101562 L80.390625,14.4101562 L80.3496094,13.9472656 L80.3261719,13.4960938 L80.3261719,10.8828125 L81.2988281,10.8828125 L81.2988281,20 L80.5078125,20 L80.3789062,19.1386719 Z M78.4335938,19.3027344 C79.0976596,19.3027344 79.5791001,19.1220721 79.8779297,18.7607422 C80.1767593,18.3994123 80.3261719,17.8164103 80.3261719,17.0117188 L80.3261719,16.8066406 C80.3261719,15.8964798 80.1748062,15.2470723 79.8720703,14.8583984 C79.5693344,14.4697246 79.0859408,14.2753906 78.421875,14.2753906 C77.8515596,14.2753906 77.4150406,14.4970681 77.1123047,14.9404297 C76.8095688,15.3837913 76.6582031,16.0097616 76.6582031,16.8183594 C76.6582031,17.638676 76.8085922,18.2578104 77.109375,18.6757812 C77.4101578,19.0937521 77.8515596,19.3027344 78.4335938,19.3027344 Z M84.2753906,13.578125 L84.2753906,17.7441406 C84.2753906,18.2675807 84.3945301,18.6582018 84.6328125,18.9160156 C84.8710949,19.1738294 85.2441381,19.3027344 85.7519531,19.3027344 C86.4238315,19.3027344 86.9150375,19.1191425 87.2255859,18.7519531 C87.5361344,18.3847638 87.6914062,17.7851604 87.6914062,16.953125 L87.6914062,13.578125 L88.6640625,13.578125 L88.6640625,20 L87.8613281,20 L87.7207031,19.1386719 L87.6679688,19.1386719 C87.468749,19.4550797 87.1923846,19.6972648 86.8388672,19.8652344 C86.4853498,20.033204 86.0820335,20.1171875 85.6289062,20.1171875 C84.8476523,20.1171875 84.2626973,19.9316425 83.8740234,19.5605469 C83.4853496,19.1894513 83.2910156,18.5957072 83.2910156,17.7792969 L83.2910156,13.578125 L84.2753906,13.578125 Z M93.2929688,20.1171875 C92.3632766,20.1171875 91.6435572,19.8310575 91.1337891,19.2587891 C90.6240209,18.6865206 90.3691406,17.8769584 90.3691406,16.8300781 C90.3691406,15.755854 90.6279271,14.9257842 91.1455078,14.3398438 C91.6630885,13.7539033 92.4003858,13.4609375 93.3574219,13.4609375 C93.6660172,13.4609375 93.9746078,13.4941403 94.2832031,13.5605469 C94.5917984,13.6269535 94.8339835,13.7050777 95.0097656,13.7949219 L94.7109375,14.6210938 C94.4960927,14.5351558 94.26172,14.4638675 94.0078125,14.4072266 C93.753905,14.3505857 93.5292979,14.3222656 93.3339844,14.3222656 C92.0292904,14.3222656 91.3769531,15.1542886 91.3769531,16.8183594 C91.3769531,17.6074258 91.5361312,18.2128885 91.8544922,18.6347656 C92.1728532,19.0566427 92.6445281,19.2675781 93.2695312,19.2675781 C93.8046902,19.2675781 94.3535128,19.1523449 94.9160156,18.921875 L94.9160156,19.7832031 C94.486326,20.0058605 93.9453158,20.1171875 93.2929688,20.1171875 Z M98.5136719,19.3144531 C98.6855477,19.3144531 98.8515617,19.3017579 99.0117188,19.2763672 C99.1718758,19.2509764 99.2988277,19.2246095 99.3925781,19.1972656 L99.3925781,19.9414062 C99.2871088,19.9921878 99.131837,20.0341795 98.9267578,20.0673828 C98.7216787,20.1005861 98.5371102,20.1171875 98.3730469,20.1171875 C97.1308532,20.1171875 96.5097656,19.4628972 96.5097656,18.1542969 L96.5097656,14.3339844 L95.5898438,14.3339844 L95.5898438,13.8652344 L96.5097656,13.4609375 L96.9199219,12.0898438 L97.4824219,12.0898438 L97.4824219,13.578125 L99.3457031,13.578125 L99.3457031,14.3339844 L97.4824219,14.3339844 L97.4824219,18.1132812 C97.4824219,18.5000019 97.5742178,18.796874 97.7578125,19.0039062 C97.9414072,19.2109385 98.1933578,19.3144531 98.5136719,19.3144531 Z M104.818359,18.2480469 C104.818359,18.8457061 104.595705,19.306639 104.150391,19.6308594 C103.705076,19.9550797 103.080082,20.1171875 102.275391,20.1171875 C101.423824,20.1171875 100.759768,19.9824232 100.283203,19.7128906 L100.283203,18.8105469 C100.591798,18.9667977 100.92285,19.0898433 101.276367,19.1796875 C101.629885,19.2695317 101.970701,19.3144531 102.298828,19.3144531 C102.806643,19.3144531 103.197264,19.2333992 103.470703,19.0712891 C103.744142,18.9091789 103.880859,18.662111 103.880859,18.3300781 C103.880859,18.0800769 103.772462,17.8662118 103.555664,17.6884766 C103.338866,17.5107413 102.916019,17.3007825 102.287109,17.0585938 C101.68945,16.8359364 101.26465,16.6416024 101.012695,16.4755859 C100.760741,16.3095695 100.573243,16.1210948 100.450195,15.9101562 C100.327148,15.6992177 100.265625,15.4472671 100.265625,15.1542969 C100.265625,14.6308568 100.478513,14.217775 100.904297,13.9150391 C101.33008,13.6123032 101.914059,13.4609375 102.65625,13.4609375 C103.34766,13.4609375 104.023434,13.6015611 104.683594,13.8828125 L104.337891,14.6738281 C103.693356,14.4082018 103.109378,14.2753906 102.585938,14.2753906 C102.124998,14.2753906 101.777345,14.3476555 101.542969,14.4921875 C101.308593,14.6367195 101.191406,14.8359362 101.191406,15.0898438 C101.191406,15.2617196 101.235351,15.4082025 101.323242,15.5292969 C101.411133,15.6503912 101.552733,15.7656245 101.748047,15.875 C101.894532,15.9570317 102.142089,16.0665279 102.490722,16.2034909 L102.873047,16.3496094 C103.634769,16.6269545 104.149413,16.9062486 104.416992,17.1875 C104.684572,17.4687514 104.818359,17.8222635 104.818359,18.2480469 Z" id="SearchProducts" fill="#FFFFFF" fill-rule="nonzero"></path>
                    </g>
                </g>
            </g>
        </g>
    </g>
</svg>