<?xml version="1.0" encoding="UTF-8"?>
<svg width="567px" height="389px" viewBox="0 0 567 389" version="1.1" xmlns="http://www.w3.org/2000/svg" xmlns:xlink="http://www.w3.org/1999/xlink">
    <!-- Generator: Sketch 51.3 (57544) - http://www.bohemiancoding.com/sketch -->
    <title>price</title>
    <desc>Created with Sketch.</desc>
    <defs>
        <rect id="path-1" x="20" y="129" width="104" height="72" rx="6"></rect>
        <filter x="-33.7%" y="-34.7%" width="167.3%" height="197.2%" filterUnits="objectBoundingBox" id="filter-2">
            <feOffset dx="0" dy="10" in="SourceAlpha" result="shadowOffsetOuter1"></feOffset>
            <feGaussianBlur stdDeviation="10" in="shadowOffsetOuter1" result="shadowBlurOuter1"></feGaussianBlur>
            <feComposite in="shadowBlurOuter1" in2="SourceAlpha" operator="out" result="shadowBlurOuter1"></feComposite>
            <feColorMatrix values="0 0 0 0 0.149019608   0 0 0 0 0.149019608   0 0 0 0 0.149019608  0 0 0 0.16 0" type="matrix" in="shadowBlurOuter1"></feColorMatrix>
        </filter>
    </defs>
    <g id="Page-1" stroke="none" stroke-width="1" fill="none" fill-rule="evenodd">
        <g id="BlackBox">
            <g id="Illustration">
                <g id="price">
                    <g id="Rectangle">
                        <use fill="black" fill-opacity="1" filter="url(#filter-2)" xlink:href="#path-1"></use>
                        <rect stroke="#EBF0F2" stroke-width="1" stroke-linejoin="square" fill="#FFFFFF" fill-rule="evenodd" x="20.5" y="129.5" width="103" height="71" rx="6"></rect>
                    </g>
                    <path d="M44.6845703,147.016602 C45.4580117,147.016602 46.058673,147.280678 46.4865723,147.808838 C46.9144715,148.336998 47.128418,149.084468 47.128418,150.05127 C47.128418,151.018071 46.9126812,151.769122 46.4812012,152.304443 C46.0497211,152.839765 45.4508502,153.107422 44.6845703,153.107422 C44.3014304,153.107422 43.9514176,153.036703 43.6345215,152.895264 C43.3176254,152.753824 43.0517589,152.536297 42.8369141,152.242676 L42.7724609,152.242676 L42.5844727,153 L41.9453125,153 L41.9453125,144.642578 L42.8369141,144.642578 L42.8369141,146.672852 C42.8369141,147.127606 42.8225913,147.535805 42.7939453,147.897461 L42.8369141,147.897461 C43.2522807,147.310218 43.86816,147.016602 44.6845703,147.016602 Z M44.5556641,147.763184 C43.9469371,147.763184 43.5083021,147.937742 43.2397461,148.286865 C42.9711901,148.635988 42.8369141,149.224117 42.8369141,150.05127 C42.8369141,150.878422 42.9747708,151.470132 43.2504883,151.826416 C43.5262058,152.1827 43.9684214,152.36084 44.5771484,152.36084 C45.1250027,152.36084 45.5332018,152.161216 45.8017578,151.761963 C46.0703138,151.36271 46.2045898,150.788903 46.2045898,150.040527 C46.2045898,149.274247 46.0703138,148.703127 45.8017578,148.327148 C45.5332018,147.95117 45.1178414,147.763184 44.5556641,147.763184 Z M51.4478516,153.107422 C50.57773,153.107422 49.8911321,152.842451 49.3880371,152.3125 C48.8849421,151.782549 48.6333984,151.046717 48.6333984,150.10498 C48.6333984,149.156082 48.8670387,148.402347 49.3343262,147.84375 C49.8016137,147.285153 50.4291302,147.005859 51.2168945,147.005859 C51.9545284,147.005859 52.5381814,147.248451 52.9678711,147.733643 C53.3975607,148.218834 53.6124023,148.858883 53.6124023,149.653809 L53.6124023,150.217773 L49.5572266,150.217773 C49.5751303,150.908858 49.7496891,151.433429 50.0809082,151.791504 C50.4121273,152.149579 50.8785126,152.328613 51.4800781,152.328613 C52.1138704,152.328613 52.7404917,152.196128 53.3599609,151.931152 L53.3599609,152.726074 C53.0448552,152.862143 52.7467625,152.959717 52.4656738,153.018799 C52.1845852,153.077881 51.8453145,153.107422 51.4478516,153.107422 Z M51.2061523,147.752441 C50.7334937,147.752441 50.3566258,147.906411 50.0755371,148.214355 C49.7944485,148.5223 49.6288414,148.948402 49.5787109,149.492676 L52.6563477,149.492676 C52.6563477,148.930498 52.5310234,148.49992 52.2803711,148.200928 C52.0297188,147.901935 51.6716495,147.752441 51.2061523,147.752441 Z M57.3087891,152.371582 C57.4663419,152.371582 57.6185214,152.359945 57.765332,152.33667 C57.9121427,152.313395 58.0285152,152.289225 58.1144531,152.26416 L58.1144531,152.946289 C58.017773,152.992839 57.8754404,153.031331 57.6874512,153.061768 C57.499462,153.092204 57.3302742,153.107422 57.1798828,153.107422 C56.0412052,153.107422 55.471875,152.507656 55.471875,151.308105 L55.471875,147.806152 L54.6286133,147.806152 L54.6286133,147.376465 L55.471875,147.005859 L55.8478516,145.749023 L56.3634766,145.749023 L56.3634766,147.113281 L58.0714844,147.113281 L58.0714844,147.806152 L56.3634766,147.806152 L56.3634766,151.270508 C56.3634766,151.625002 56.4476229,151.897134 56.615918,152.086914 C56.7842131,152.276694 57.0151678,152.371582 57.3087891,152.371582 Z M61.4670898,152.371582 C61.6246427,152.371582 61.7768222,152.359945 61.9236328,152.33667 C62.0704434,152.313395 62.186816,152.289225 62.2727539,152.26416 L62.2727539,152.946289 C62.1760737,152.992839 62.0337412,153.031331 61.845752,153.061768 C61.6577627,153.092204 61.488575,153.107422 61.3381836,153.107422 C60.199506,153.107422 59.6301758,152.507656 59.6301758,151.308105 L59.6301758,147.806152 L58.7869141,147.806152 L58.7869141,147.376465 L59.6301758,147.005859 L60.0061523,145.749023 L60.5217773,145.749023 L60.5217773,147.113281 L62.2297852,147.113281 L62.2297852,147.806152 L60.5217773,147.806152 L60.5217773,151.270508 C60.5217773,151.625002 60.6059236,151.897134 60.7742188,152.086914 C60.9425139,152.276694 61.1734686,152.371582 61.4670898,152.371582 Z M66.2108398,153.107422 C65.3407183,153.107422 64.6541204,152.842451 64.1510254,152.3125 C63.6479304,151.782549 63.3963867,151.046717 63.3963867,150.10498 C63.3963867,149.156082 63.630027,148.402347 64.0973145,147.84375 C64.5646019,147.285153 65.1921185,147.005859 65.9798828,147.005859 C66.7175167,147.005859 67.3011697,147.248451 67.7308594,147.733643 C68.160549,148.218834 68.3753906,148.858883 68.3753906,149.653809 L68.3753906,150.217773 L64.3202148,150.217773 C64.3381186,150.908858 64.5126774,151.433429 64.8438965,151.791504 C65.1751156,152.149579 65.6415009,152.328613 66.2430664,152.328613 C66.8768586,152.328613 67.50348,152.196128 68.1229492,151.931152 L68.1229492,152.726074 C67.8078435,152.862143 67.5097508,152.959717 67.2286621,153.018799 C66.9475735,153.077881 66.6083028,153.107422 66.2108398,153.107422 Z M65.9691406,147.752441 C65.496482,147.752441 65.119614,147.906411 64.8385254,148.214355 C64.5574367,148.5223 64.3918297,148.948402 64.3416992,149.492676 L67.4193359,149.492676 C67.4193359,148.930498 67.2940117,148.49992 67.0433594,148.200928 C66.7927071,147.901935 66.4346377,147.752441 65.9691406,147.752441 Z M72.855957,147.005859 C73.1173516,147.005859 73.351887,147.027344 73.5595703,147.070312 L73.4360352,147.897461 C73.1925444,147.84375 72.9777028,147.816895 72.7915039,147.816895 C72.3152645,147.816895 71.9079607,148.010252 71.5695801,148.396973 C71.2311995,148.783693 71.0620117,149.265297 71.0620117,149.841797 L71.0620117,153 L70.1704102,153 L70.1704102,147.113281 L70.90625,147.113281 L71.0083008,148.203613 L71.0512695,148.203613 C71.2696951,147.820473 71.5328761,147.525066 71.8408203,147.317383 C72.1487646,147.109699 72.4871401,147.005859 72.855957,147.005859 Z M80.8073242,153.107422 C80.4241843,153.107422 80.0741715,153.036703 79.7572754,152.895264 C79.4403793,152.753824 79.1745128,152.536297 78.959668,152.242676 L78.8952148,152.242676 C78.9381838,152.586428 78.959668,152.912271 78.959668,153.220215 L78.959668,155.642578 L78.0680664,155.642578 L78.0680664,147.113281 L78.7931641,147.113281 L78.9166992,147.918945 L78.959668,147.918945 C79.1888358,147.596678 79.4555974,147.363933 79.7599609,147.220703 C80.0643244,147.077473 80.413442,147.005859 80.8073242,147.005859 C81.5879271,147.005859 82.1903787,147.272621 82.6146973,147.806152 C83.0390158,148.339684 83.2511719,149.088049 83.2511719,150.05127 C83.2511719,151.018071 83.0354351,151.769122 82.6039551,152.304443 C82.1724751,152.839765 81.5736041,153.107422 80.8073242,153.107422 Z M80.678418,147.763184 C80.0768525,147.763184 79.6417982,147.929686 79.3732422,148.262695 C79.1046862,148.595705 78.9668295,149.125647 78.959668,149.852539 L78.959668,150.05127 C78.959668,150.878422 79.0975247,151.470132 79.3732422,151.826416 C79.6489597,152.1827 80.0911753,152.36084 80.6999023,152.36084 C81.2083684,152.36084 81.6067206,152.15495 81.8949707,151.743164 C82.1832208,151.331378 82.3273437,150.763838 82.3273437,150.040527 C82.3273437,149.306474 82.1832208,148.74341 81.8949707,148.351318 C81.6067206,147.959227 81.201207,147.763184 80.678418,147.763184 Z M87.7693359,147.005859 C88.0307305,147.005859 88.2652659,147.027344 88.4729492,147.070312 L88.3494141,147.897461 C88.1059233,147.84375 87.8910817,147.816895 87.7048828,147.816895 C87.2286435,147.816895 86.8213396,148.010252 86.482959,148.396973 C86.1445784,148.783693 85.9753906,149.265297 85.9753906,149.841797 L85.9753906,153 L85.0837891,153 L85.0837891,147.113281 L85.8196289,147.113281 L85.9216797,148.203613 L85.9646484,148.203613 C86.183074,147.820473 86.446255,147.525066 86.7541992,147.317383 C87.0621435,147.109699 87.400519,147.005859 87.7693359,147.005859 Z M90.740625,153 L89.8490234,153 L89.8490234,147.113281 L90.740625,147.113281 L90.740625,153 Z M89.7738281,145.518066 C89.7738281,145.313964 89.8239578,145.16447 89.9242187,145.06958 C90.0244797,144.97469 90.1498039,144.927246 90.3001953,144.927246 C90.4434252,144.927246 90.5669591,144.975585 90.6708008,145.072266 C90.7746424,145.168946 90.8265625,145.317545 90.8265625,145.518066 C90.8265625,145.718588 90.7746424,145.868082 90.6708008,145.966553 C90.5669591,146.065023 90.4434252,146.114258 90.3001953,146.114258 C90.1498039,146.114258 90.0244797,146.065023 89.9242187,145.966553 C89.8239578,145.868082 89.7738281,145.718588 89.7738281,145.518066 Z M95.2587891,153.107422 C94.4065713,153.107422 93.7468285,152.845136 93.279541,152.320557 C92.8122535,151.795977 92.5786133,151.053878 92.5786133,150.094238 C92.5786133,149.109533 92.8158342,148.348635 93.2902832,147.811523 C93.7647322,147.274411 94.4405881,147.005859 95.3178711,147.005859 C95.6007501,147.005859 95.8836249,147.036295 96.1665039,147.097168 C96.4493829,147.158041 96.6713859,147.229655 96.8325195,147.312012 L96.5585938,148.069336 C96.3616527,147.99056 96.1468111,147.925212 95.9140625,147.873291 C95.6813139,147.82137 95.4754241,147.79541 95.2963867,147.79541 C94.1004172,147.79541 93.5024414,148.558098 93.5024414,150.083496 C93.5024414,150.806807 93.6483547,151.361814 93.9401855,151.748535 C94.2320164,152.135256 94.6643852,152.328613 95.2373047,152.328613 C95.727867,152.328613 96.2309545,152.222983 96.746582,152.011719 L96.746582,152.80127 C96.3526999,153.005372 95.8567738,153.107422 95.2587891,153.107422 Z M100.904883,153.107422 C100.034761,153.107422 99.3481633,152.842451 98.8450684,152.3125 C98.3419734,151.782549 98.0904297,151.046717 98.0904297,150.10498 C98.0904297,149.156082 98.3240699,148.402347 98.7913574,147.84375 C99.2586449,147.285153 99.8861614,147.005859 100.673926,147.005859 C101.41156,147.005859 101.995213,147.248451 102.424902,147.733643 C102.854592,148.218834 103.069434,148.858883 103.069434,149.653809 L103.069434,150.217773 L99.0142578,150.217773 C99.0321615,150.908858 99.2067203,151.433429 99.5379395,151.791504 C99.8691586,152.149579 100.335544,152.328613 100.937109,152.328613 C101.570902,152.328613 102.197523,152.196128 102.816992,151.931152 L102.816992,152.726074 C102.501886,152.862143 102.203794,152.959717 101.922705,153.018799 C101.641616,153.077881 101.302346,153.107422 100.904883,153.107422 Z" id="betterprice" fill="#9E9E9E" fill-rule="nonzero"></path>
                    <path d="M100.663184,147.752441 C101.128681,147.752441 101.48675,147.901935 101.737402,148.200928 C101.988055,148.49992 102.113379,148.930498 102.113379,149.492676 L99.0357422,149.492676 C99.0858726,148.948402 99.2514797,148.5223 99.5325684,148.214355 C99.813657,147.906411 100.190525,147.752441 100.663184,147.752441 Z" id="Path" fill="#FFFFFF"></path>
                    <path d="M42.952,158.64 L42.952,161.04 C41.728,161.304 40.912,161.952 40.408,162.504 C39.64,163.368 39.328,164.376 39.328,165.432 C39.328,166.704 39.688,167.472 40.456,168.192 C41.392,169.08 42.928,169.752 43.648,170.04 L44.022625,170.2065 C44.494,170.4225 45.178,170.76 45.376,170.976 C45.64,171.264 45.928,171.696 45.928,172.296 C45.928,172.824 45.736,173.376 45.328,173.784 C44.8,174.288 44.128,174.408 43.504,174.408 C42.64,174.408 41.944,174.192 41.32,173.736 C40.792,173.376 40.264,172.752 39.952,172.296 L38.152,174.144 C38.704,174.96 39.328,175.512 39.904,175.896 C40.576,176.352 41.608,176.856 42.952,177 L42.952,179.64 L44.92,179.64 L44.92,176.952 C45.904,176.76 46.888,176.28 47.608,175.56 C48.4,174.792 49.048,173.52 49.048,171.984 C49.048,170.832 48.688,169.824 47.824,169.008 C47.2305455,168.432 46.4720661,168.059107 45.7332051,167.732376 L44.92,167.376 C43.7002353,166.833882 43.2883322,166.631917 43.0039862,166.429952 L42.952,166.392 C42.52,166.08 42.328,165.744 42.328,165.264 C42.328,164.88 42.448,164.472 42.784,164.136 C43.2203636,163.677818 43.7955702,163.576661 44.2752096,163.562056 L44.416,163.56 C44.872,163.56 45.976,163.68 46.936,164.856 L48.52,162.84 C48.088,162.36 47.56,161.952 46.888,161.592 C46.264,161.28 45.64,161.088 44.92,161.04 L44.92,158.64 L42.952,158.64 Z M56.704,177 L59.824,177 L59.824,160.992 L54.4,160.992 L54.4,163.68 L56.704,163.68 L56.704,177 Z M66.52,177 L69.64,177 L69.64,160.992 L64.216,160.992 L64.216,163.68 L66.52,163.68 L66.52,177 Z M83.032,161.784 L80.512,160.56 L75.808,166.848 C74.68,168.336 73.792,169.896 73.792,171.84 C73.792,173.64 74.488,174.864 75.352,175.728 C76.672,177.048 78.208,177.36 79.912,177.36 C81.544,177.36 83.104,177.024 84.472,175.536 C85.552,174.36 85.936,173.016 85.936,171.672 C85.936,169.992 85.264,168.624 84.424,167.832 C83.488,166.92 82.072,166.464 80.896,166.464 C80.2,166.464 79.624,166.632 79.144,166.848 L83.032,161.784 Z M79.864,174.864 C78.904,174.864 78.208,174.456 77.8,174.072 C77.2,173.52 76.912,172.8 76.912,171.912 C76.912,171.024 77.2,170.424 77.776,169.824 C78.304,169.272 78.928,168.96 79.864,168.96 C80.656,168.96 81.328,169.152 81.928,169.728 C82.48,170.256 82.816,170.976 82.816,171.936 C82.816,172.992 82.336,173.664 81.952,174.048 C81.544,174.456 80.872,174.864 79.864,174.864 Z M88.456,175.44 C88.456,176.496 89.272,177.312 90.328,177.312 C91.384,177.312 92.2,176.496 92.2,175.44 C92.2,174.384 91.384,173.568 90.328,173.568 C89.272,173.568 88.456,174.384 88.456,175.44 Z M105.232,160.992 L102.424,160.992 L94.48,172.584 L94.48,173.976 L102.304,173.976 L102.304,177 L105.232,177 L105.232,173.976 L107.104,173.976 L107.104,171.48 L105.232,171.48 L105.232,160.992 Z M98.176,171.48 L102.304,165.384 L102.304,171.48 L98.176,171.48 Z" id="$116.4" fill="#69C771" fill-rule="nonzero"></path>
                </g>
            </g>
        </g>
    </g>
</svg>