<?xml version="1.0" encoding="UTF-8"?>
<svg width="567px" height="389px" viewBox="0 0 567 389" version="1.1" xmlns="http://www.w3.org/2000/svg" xmlns:xlink="http://www.w3.org/1999/xlink">
    <!-- Generator: Sketch 51.3 (57544) - http://www.bohemiancoding.com/sketch -->
    <title>rating</title>
    <desc>Created with Sketch.</desc>
    <defs>
        <rect id="path-1" x="372" y="105" width="176" height="40" rx="20"></rect>
        <filter x="-19.9%" y="-62.5%" width="139.8%" height="275.0%" filterUnits="objectBoundingBox" id="filter-2">
            <feOffset dx="0" dy="10" in="SourceAlpha" result="shadowOffsetOuter1"></feOffset>
            <feGaussianBlur stdDeviation="10" in="shadowOffsetOuter1" result="shadowBlurOuter1"></feGaussianBlur>
            <feComposite in="shadowBlurOuter1" in2="SourceAlpha" operator="out" result="shadowBlurOuter1"></feComposite>
            <feColorMatrix values="0 0 0 0 0.149019608   0 0 0 0 0.149019608   0 0 0 0 0.149019608  0 0 0 0.16 0" type="matrix" in="shadowBlurOuter1"></feColorMatrix>
        </filter>
    </defs>
    <g id="Page-1" stroke="none" stroke-width="1" fill="none" fill-rule="evenodd">
        <g id="BlackBox">
            <g id="Illustration">
                <g id="rating">
                    <g id="Rectangle">
                        <use fill="black" fill-opacity="1" filter="url(#filter-2)" xlink:href="#path-1"></use>
                        <rect stroke="#EBF0F2" stroke-width="1" stroke-linejoin="square" fill="#FFFFFF" fill-rule="evenodd" x="372.5" y="105.5" width="175" height="39" rx="19.5"></rect>
                    </g>
                    <path d="M486.198242,127.195312 L485.032715,127.195312 L485.032715,129 L484.178711,129 L484.178711,127.195312 L480.359863,127.195312 L480.359863,126.416504 L484.087402,121.104492 L485.032715,121.104492 L485.032715,126.384277 L486.198242,126.384277 L486.198242,127.195312 Z M484.178711,126.384277 L484.178711,123.773926 C484.178711,123.261879 484.196614,122.683597 484.232422,122.039062 L484.189453,122.039062 C484.017577,122.382814 483.856446,122.667479 483.706055,122.893066 L481.251465,126.384277 L484.178711,126.384277 Z M487.234863,128.430664 C487.234863,128.190754 487.289469,128.009034 487.398682,127.885498 C487.507894,127.761962 487.66455,127.700195 487.868652,127.700195 C488.076336,127.700195 488.238362,127.761962 488.354736,127.885498 C488.471111,128.009034 488.529297,128.190754 488.529297,128.430664 C488.529297,128.663413 488.470215,128.842447 488.352051,128.967773 C488.233886,129.0931 488.072755,129.155762 487.868652,129.155762 C487.686034,129.155762 487.53475,129.099366 487.414795,128.986572 C487.29484,128.873779 487.234863,128.688478 487.234863,128.430664 Z M492.337402,124.203613 C493.164555,124.203613 493.815346,124.408608 494.289795,124.818604 C494.764244,125.228599 495.001465,125.789873 495.001465,126.502441 C495.001465,127.315271 494.74276,127.952634 494.225342,128.414551 C493.707924,128.876467 492.994471,129.107422 492.084961,129.107422 C491.200516,129.107422 490.525556,128.965984 490.060059,128.683105 L490.060059,127.82373 C490.310711,127.984864 490.622231,128.111084 490.994629,128.202393 C491.367027,128.293702 491.734048,128.339355 492.095703,128.339355 C492.725915,128.339355 493.215574,128.190757 493.564697,127.893555 C493.91382,127.596353 494.088379,127.166669 494.088379,126.604492 C494.088379,125.508784 493.416999,124.960938 492.074219,124.960938 C491.734048,124.960938 491.2793,125.012858 490.709961,125.116699 L490.248047,124.821289 L490.543457,121.147461 L494.448242,121.147461 L494.448242,121.969238 L491.306152,121.969238 L491.107422,124.327148 C491.519208,124.244791 491.929197,124.203613 492.337402,124.203613 Z M498.933105,125.986816 C498.933105,125.037918 499.071857,124.149906 499.349365,123.322754 C499.626873,122.495601 500.027016,121.770511 500.549805,121.147461 L501.419922,121.147461 C500.904294,121.838545 500.516684,122.597652 500.25708,123.424805 C499.997476,124.251957 499.867676,125.102372 499.867676,125.976074 C499.867676,126.835454 500.000161,127.675126 500.265137,128.495117 C500.530112,129.315108 500.911456,130.063473 501.40918,130.740234 L500.549805,130.740234 C500.023435,130.131507 499.622397,129.42074 499.34668,128.60791 C499.070962,127.795081 498.933105,126.921391 498.933105,125.986816 Z M505.587891,129 L504.717773,129 L504.717773,123.40332 C504.717773,122.937823 504.732096,122.497398 504.760742,122.082031 L504.641235,122.19751 L504.441687,122.375312 C504.276211,122.514451 503.872311,122.844586 503.22998,123.365723 L502.757324,122.753418 L504.835938,121.147461 L505.587891,121.147461 L505.587891,129 Z M513.73584,129 L508.574219,129 L508.574219,128.231934 L510.64209,126.15332 L510.994435,125.792811 C511.429852,125.341353 511.727766,125.006772 511.888184,124.789062 C512.088705,124.516926 512.239095,124.251954 512.339355,123.994141 C512.439616,123.736327 512.489746,123.458823 512.489746,123.161621 C512.489746,122.742674 512.362631,122.410564 512.108398,122.165283 C511.854165,121.920002 511.501467,121.797363 511.050293,121.797363 C510.724445,121.797363 510.41561,121.851074 510.123779,121.958496 C509.831948,122.065919 509.507,122.261066 509.148926,122.543945 L508.67627,121.937012 C509.39958,121.335446 510.187333,121.034668 511.039551,121.034668 C511.777185,121.034668 512.355467,121.22355 512.774414,121.601318 C513.193361,121.979087 513.402832,122.48665 513.402832,123.124023 C513.402832,123.621747 513.263185,124.114093 512.983887,124.601074 C512.732518,125.039358 512.283929,125.582048 511.638106,126.229159 L509.696777,128.129883 L509.696777,128.172852 L513.73584,128.172852 L513.73584,129 Z M520.395996,127.195312 L519.230469,127.195312 L519.230469,129 L518.376465,129 L518.376465,127.195312 L514.557617,127.195312 L514.557617,126.416504 L518.285156,121.104492 L519.230469,121.104492 L519.230469,126.384277 L520.395996,126.384277 L520.395996,127.195312 Z M518.376465,126.384277 L518.376465,123.773926 C518.376465,123.261879 518.394368,122.683597 518.430176,122.039062 L518.387207,122.039062 C518.215331,122.382814 518.0542,122.667479 517.903809,122.893066 L515.449219,126.384277 L518.376465,126.384277 Z M523.430664,125.986816 C523.430664,126.928553 523.291912,127.805823 523.014404,128.618652 C522.736896,129.431482 522.336754,130.138669 521.813965,130.740234 L520.95459,130.740234 C521.452314,130.067054 521.833658,129.319584 522.098633,128.497803 C522.363608,127.676021 522.496094,126.835454 522.496094,125.976074 C522.496094,125.102372 522.366294,124.251957 522.106689,123.424805 C521.847085,122.597652 521.459475,121.838545 520.943848,121.147461 L521.813965,121.147461 C522.340335,121.774092 522.741372,122.501868 523.01709,123.330811 C523.292807,124.159753 523.430664,125.04508 523.430664,125.986816 Z" id="4.5(124)" fill="#000000" fill-rule="nonzero"></path>
                    <path d="M401.346279,119.398791 L399.884339,122.36297 L396.613443,122.839836 C396.026876,122.924911 395.791802,123.648045 396.217175,124.062224 L398.583593,126.368194 L398.023891,129.625657 C397.923145,130.214463 398.543294,130.655508 399.062697,130.380135 L401.988817,128.842075 L404.914936,130.380135 C405.434339,130.653269 406.054488,130.214463 405.953742,129.625657 L405.39404,126.368194 L407.760458,124.062224 C408.185832,123.648045 407.950757,122.924911 407.36419,122.839836 L404.093294,122.36297 L402.631354,119.398791 C402.369414,118.870433 401.610458,118.863717 401.346279,119.398791 Z" id="Path" fill="#FF9800" fill-rule="nonzero"></path>
                    <path d="M417.335096,119.398791 L415.873156,122.36297 L412.60226,122.839836 C412.015693,122.924911 411.780618,123.648045 412.205991,124.062224 L414.572409,126.368194 L414.012708,129.625657 C413.911962,130.214463 414.532111,130.655508 415.051514,130.380135 L417.977633,128.842075 L420.903753,130.380135 C421.423156,130.653269 422.043305,130.214463 421.942559,129.625657 L421.382857,126.368194 L423.749275,124.062224 C424.174648,123.648045 423.939574,122.924911 423.353006,122.839836 L420.082111,122.36297 L418.620171,119.398791 C418.35823,118.870433 417.599275,118.863717 417.335096,119.398791 Z" id="Path-Copy" fill="#FF9800" fill-rule="nonzero"></path>
                    <path d="M433.335096,119.398791 L431.873156,122.36297 L428.60226,122.839836 C428.015693,122.924911 427.780618,123.648045 428.205991,124.062224 L430.572409,126.368194 L430.012708,129.625657 C429.911962,130.214463 430.532111,130.655508 431.051514,130.380135 L433.977633,128.842075 L436.903753,130.380135 C437.423156,130.653269 438.043305,130.214463 437.942559,129.625657 L437.382857,126.368194 L439.749275,124.062224 C440.174648,123.648045 439.939574,122.924911 439.353006,122.839836 L436.082111,122.36297 L434.620171,119.398791 C434.35823,118.870433 433.599275,118.863717 433.335096,119.398791 Z" id="Path-Copy-2" fill="#FF9800" fill-rule="nonzero"></path>
                    <path d="M449.346279,119.398791 L447.884339,122.36297 L444.613443,122.839836 C444.026876,122.924911 443.791802,123.648045 444.217175,124.062224 L446.583593,126.368194 L446.023891,129.625657 C445.923145,130.214463 446.543294,130.655508 447.062697,130.380135 L449.988817,128.842075 L452.914936,130.380135 C453.434339,130.653269 454.054488,130.214463 453.953742,129.625657 L453.39404,126.368194 L455.760458,124.062224 C456.185832,123.648045 455.950757,122.924911 455.36419,122.839836 L452.093294,122.36297 L450.631354,119.398791 C450.369414,118.870433 449.610458,118.863717 449.346279,119.398791 Z" id="Path-Copy-3" fill="#FF9800" fill-rule="nonzero"></path>
                    <path d="M465.794646,119.620076 L464.216521,122.819827 L463.956472,122.85774 L460.685212,123.334659 C460.508808,123.360244 460.437771,123.57915 460.566125,123.704127 L463.12091,126.193652 L463.076372,126.452864 L462.516729,129.709983 C462.486538,129.886432 462.673009,130.020812 462.830061,129.937551 L465.988817,128.27721 L466.221453,128.399491 L469.147652,129.937593 C469.304414,130.020028 469.490991,129.885823 469.460963,129.710327 L468.856723,126.193652 L469.04509,126.010097 L471.41165,123.703989 C471.539862,123.57915 471.468825,123.360244 471.292057,123.334606 L467.761112,122.819827 L467.644868,122.584135 L466.183384,119.620878 C466.103743,119.460235 465.874012,119.459458 465.794646,119.620076 Z M465.794646,119.620076 C465.794635,119.620099 465.794624,119.620122 465.794613,119.620144 L465.794706,119.619956 L465.794646,119.620076 Z" id="Path-Copy-4" stroke="#FF9800" fill-rule="nonzero"></path>
                </g>
            </g>
        </g>
    </g>
</svg>