<?xml version="1.0" encoding="UTF-8"?>
<svg width="567px" height="389px" viewBox="0 0 567 389" version="1.1" xmlns="http://www.w3.org/2000/svg" xmlns:xlink="http://www.w3.org/1999/xlink">
    <!-- Generator: Sketch 51.3 (57544) - http://www.bohemiancoding.com/sketch -->
    <title>window</title>
    <desc>Created with Sketch.</desc>
    <defs>
        <path d="M66,0 L486,1.77635684e-15 C489.313708,1.16763846e-15 492,2.6862915 492,6 L492,365 C492,367.209139 490.209139,369 488,369 L64,369 C61.790861,369 60,367.209139 60,365 L60,6 C60,2.6862915 62.6862915,6.08718376e-16 66,0 Z" id="path-1"></path>
        <filter x="-4.6%" y="-2.7%" width="109.3%" height="110.8%" filterUnits="objectBoundingBox" id="filter-2">
            <feOffset dx="0" dy="10" in="SourceAlpha" result="shadowOffsetOuter1"></feOffset>
            <feGaussianBlur stdDeviation="5" in="shadowOffsetOuter1" result="shadowBlurOuter1"></feGaussianBlur>
            <feComposite in="shadowBlurOuter1" in2="SourceAlpha" operator="out" result="shadowBlurOuter1"></feComposite>
            <feColorMatrix values="0 0 0 0 0.149019608   0 0 0 0 0.149019608   0 0 0 0 0.149019608  0 0 0 0.08 0" type="matrix" in="shadowBlurOuter1"></feColorMatrix>
        </filter>
    </defs>
    <g id="Page-1" stroke="none" stroke-width="1" fill="none" fill-rule="evenodd">
        <g id="BlackBox">
            <g id="Illustration">
                <g id="Group">
                    <g id="box">
                        <use fill="black" fill-opacity="1" filter="url(#filter-2)" xlink:href="#path-1"></use>
                        <path stroke="#DBE2E8" stroke-width="1" d="M66,0.5 C62.9624339,0.5 60.5,2.96243388 60.5,6 L60.5,365 C60.5,366.932997 62.0670034,368.5 64,368.5 L488,368.5 C489.932997,368.5 491.5,366.932997 491.5,365 L491.5,6 C491.5,2.96243388 489.037566,0.5 486,0.5 L66,0.5 Z" stroke-linejoin="square" fill="#FFFFFF" fill-rule="evenodd"></path>
                    </g>
                    <g id="Panel" transform="translate(60.000000, 0.000000)">
                        <path d="M6,0 L426,0 C429.313708,-6.08718376e-16 432,2.6862915 432,6 L432,57 L0,57 L0,6 C-4.05812251e-16,2.6862915 2.6862915,6.08718376e-16 6,0 Z" id="Rectangle" fill="#B9C7D4"></path>
                        <path d="M14,25 L82,25 C83.1045695,25 84,25.8954305 84,27 L84,57 L12,57 L12,27 C12,25.8954305 12.8954305,25 14,25 Z" id="Rectangle" fill="#FFFFFF"></path>
                        <path d="M30.609375,38.9296875 C30.609375,39.7968793 30.3134795,40.4638649 29.7216797,40.9306641 C29.1298799,41.3974633 28.2832086,41.6308594 27.1816406,41.6308594 L26.1738281,41.6308594 L26.1738281,45 L25.1777344,45 L25.1777344,36.4335938 L27.3984375,36.4335938 C29.5390732,36.4335938 30.609375,37.2656167 30.609375,38.9296875 Z M26.1738281,40.7753906 L27.0703125,40.7753906 C27.9531294,40.7753906 28.5917949,40.6328139 28.9863281,40.3476562 C29.3808613,40.0624986 29.578125,39.6054719 29.578125,38.9765625 C29.578125,38.4101534 29.39258,37.9882826 29.0214844,37.7109375 C28.6503888,37.4335924 28.0722696,37.2949219 27.2871094,37.2949219 L26.1738281,37.2949219 L26.1738281,40.7753906 Z M35.1855469,38.4609375 C35.4707046,38.4609375 35.7265614,38.4843748 35.953125,38.53125 L35.8183594,39.4335938 C35.552733,39.3749997 35.3183604,39.3457031 35.1152344,39.3457031 C34.5957005,39.3457031 34.151369,39.5566385 33.7822266,39.9785156 C33.4130841,40.4003927 33.2285156,40.9257781 33.2285156,41.5546875 L33.2285156,45 L32.2558594,45 L32.2558594,38.578125 L33.0585938,38.578125 L33.1699219,39.7675781 L33.2167969,39.7675781 C33.4550793,39.3496073 33.7421858,39.0273449 34.078125,38.8007812 C34.4140642,38.5742176 34.7832011,38.4609375 35.1855469,38.4609375 Z M42.4570312,41.7832031 C42.4570312,42.8300834 42.193362,43.647458 41.6660156,44.2353516 C41.1386692,44.8232451 40.4101609,45.1171875 39.4804688,45.1171875 C38.9062471,45.1171875 38.3964866,44.9824232 37.9511719,44.7128906 C37.5058571,44.443358 37.1621106,44.0566431 36.9199219,43.5527344 C36.6777332,43.0488256 36.5566406,42.4589878 36.5566406,41.7832031 C36.5566406,40.7363229 36.8183568,39.9209014 37.3417969,39.3369141 C37.865237,38.7529268 38.5917922,38.4609375 39.5214844,38.4609375 C40.4199264,38.4609375 41.1337864,38.7597626 41.6630859,39.3574219 C42.1923855,39.9550811 42.4570312,40.7636668 42.4570312,41.7832031 Z M37.5644531,41.7832031 C37.5644531,42.6035197 37.728514,43.2285135 38.0566406,43.6582031 C38.3847673,44.0878928 38.8671843,44.3027344 39.5039062,44.3027344 C40.1406282,44.3027344 40.6240218,44.0888693 40.9541016,43.6611328 C41.2841813,43.2333963 41.4492188,42.607426 41.4492188,41.7832031 C41.4492188,40.9667928 41.2841813,40.3466818 40.9541016,39.9228516 C40.6240218,39.4990213 40.136722,39.2871094 39.4921875,39.2871094 C38.8554656,39.2871094 38.3750016,39.4960917 38.0507812,39.9140625 C37.7265609,40.3320333 37.5644531,40.955074 37.5644531,41.7832031 Z M48.5332031,44.1386719 L48.4804688,44.1386719 C48.0312478,44.7910189 47.3593795,45.1171875 46.4648438,45.1171875 C45.6249958,45.1171875 44.971682,44.830081 44.5048828,44.2558594 C44.0380836,43.6816378 43.8046875,42.8652397 43.8046875,41.8066406 C43.8046875,40.7480416 44.0390602,39.9257842 44.5078125,39.3398438 C44.9765648,38.7539033 45.6289021,38.4609375 46.4648438,38.4609375 C47.3359419,38.4609375 48.0039039,38.7773406 48.46875,39.4101562 L48.5449219,39.4101562 L48.5039062,38.9472656 L48.4804688,38.4960938 L48.4804688,35.8828125 L49.453125,35.8828125 L49.453125,45 L48.6621094,45 L48.5332031,44.1386719 Z M46.5878906,44.3027344 C47.2519564,44.3027344 47.7333969,44.1220721 48.0322266,43.7607422 C48.3310562,43.3994123 48.4804688,42.8164103 48.4804688,42.0117188 L48.4804688,41.8066406 C48.4804688,40.8964798 48.3291031,40.2470723 48.0263672,39.8583984 C47.7236313,39.4697246 47.2402377,39.2753906 46.5761719,39.2753906 C46.0058565,39.2753906 45.5693375,39.4970681 45.2666016,39.9404297 C44.9638657,40.3837913 44.8125,41.0097616 44.8125,41.8183594 C44.8125,42.638676 44.9628891,43.2578104 45.2636719,43.6757812 C45.5644546,44.0937521 46.0058565,44.3027344 46.5878906,44.3027344 Z M52.4296875,38.578125 L52.4296875,42.7441406 C52.4296875,43.2675807 52.5488269,43.6582018 52.7871094,43.9160156 C53.0253918,44.1738294 53.398435,44.3027344 53.90625,44.3027344 C54.5781284,44.3027344 55.0693344,44.1191425 55.3798828,43.7519531 C55.6904312,43.3847638 55.8457031,42.7851604 55.8457031,41.953125 L55.8457031,38.578125 L56.8183594,38.578125 L56.8183594,45 L56.015625,45 L55.875,44.1386719 L55.8222656,44.1386719 C55.6230459,44.4550797 55.3466815,44.6972648 54.9931641,44.8652344 C54.6396467,45.033204 54.2363304,45.1171875 53.7832031,45.1171875 C53.0019492,45.1171875 52.4169941,44.9316425 52.0283203,44.5605469 C51.6396465,44.1894513 51.4453125,43.5957072 51.4453125,42.7792969 L51.4453125,38.578125 L52.4296875,38.578125 Z M61.4472656,45.1171875 C60.5175735,45.1171875 59.7978541,44.8310575 59.2880859,44.2587891 C58.7783178,43.6865206 58.5234375,42.8769584 58.5234375,41.8300781 C58.5234375,40.755854 58.782224,39.9257842 59.2998047,39.3398438 C59.8173854,38.7539033 60.5546827,38.4609375 61.5117188,38.4609375 C61.820314,38.4609375 62.1289047,38.4941403 62.4375,38.5605469 C62.7460953,38.6269535 62.9882804,38.7050777 63.1640625,38.7949219 L62.8652344,39.6210938 C62.6503896,39.5351558 62.4160169,39.4638675 62.1621094,39.4072266 C61.9082019,39.3505857 61.6835947,39.3222656 61.4882812,39.3222656 C60.1835872,39.3222656 59.53125,40.1542886 59.53125,41.8183594 C59.53125,42.6074258 59.6904281,43.2128885 60.0087891,43.6347656 C60.32715,44.0566427 60.798825,44.2675781 61.4238281,44.2675781 C61.9589871,44.2675781 62.5078097,44.1523449 63.0703125,43.921875 L63.0703125,44.7832031 C62.6406229,45.0058605 62.0996126,45.1171875 61.4472656,45.1171875 Z M66.6679688,44.3144531 C66.8398446,44.3144531 67.0058586,44.3017579 67.1660156,44.2763672 C67.3261727,44.2509764 67.4531245,44.2246095 67.546875,44.1972656 L67.546875,44.9414062 C67.4414057,44.9921878 67.2861338,45.0341795 67.0810547,45.0673828 C66.8759755,45.1005861 66.6914071,45.1171875 66.5273438,45.1171875 C65.28515,45.1171875 64.6640625,44.4628972 64.6640625,43.1542969 L64.6640625,39.3339844 L63.7441406,39.3339844 L63.7441406,38.8652344 L64.6640625,38.4609375 L65.0742188,37.0898438 L65.6367188,37.0898438 L65.6367188,38.578125 L67.5,38.578125 L67.5,39.3339844 L65.6367188,39.3339844 L65.6367188,43.1132812 C65.6367188,43.5000019 65.7285147,43.796874 65.9121094,44.0039062 C66.095704,44.2109385 66.3476546,44.3144531 66.6679688,44.3144531 Z M72.9726562,43.2480469 C72.9726562,43.8457061 72.7500022,44.306639 72.3046875,44.6308594 C71.8593728,44.9550797 71.234379,45.1171875 70.4296875,45.1171875 C69.5781207,45.1171875 68.9140649,44.9824232 68.4375,44.7128906 L68.4375,43.8105469 C68.7460953,43.9667977 69.0771467,44.0898433 69.4306641,44.1796875 C69.7841815,44.2695317 70.1249984,44.3144531 70.453125,44.3144531 C70.96094,44.3144531 71.3515611,44.2333992 71.625,44.0712891 C71.8984389,43.9091789 72.0351562,43.662111 72.0351562,43.3300781 C72.0351562,43.0800769 71.9267589,42.8662118 71.7099609,42.6884766 C71.493163,42.5107413 71.0703156,42.3007825 70.4414062,42.0585938 C69.843747,41.8359364 69.4189466,41.6416024 69.1669922,41.4755859 C68.9150378,41.3095695 68.7275397,41.1210948 68.6044922,40.9101562 C68.4814447,40.6992177 68.4199219,40.4472671 68.4199219,40.1542969 C68.4199219,39.6308568 68.6328104,39.217775 69.0585938,38.9150391 C69.4843771,38.6123032 70.0683557,38.4609375 70.8105469,38.4609375 C71.5019566,38.4609375 72.1777311,38.6015611 72.8378906,38.8828125 L72.4921875,39.6738281 C71.847653,39.4082018 71.2636745,39.2753906 70.7402344,39.2753906 C70.2792946,39.2753906 69.9316418,39.3476555 69.6972656,39.4921875 C69.4628895,39.6367195 69.3457031,39.8359362 69.3457031,40.0898438 C69.3457031,40.2617196 69.389648,40.4082025 69.4775391,40.5292969 C69.5654301,40.6503912 69.7070303,40.7656245 69.9023438,40.875 L70.0825196,40.9661866 C70.2250973,41.033081 70.4125965,41.1121822 70.6450185,41.2034909 L71.0273438,41.3496094 C71.7890663,41.6269545 72.3037096,41.9062486 72.5712891,42.1875 C72.8388685,42.4687514 72.9726562,42.8222635 72.9726562,43.2480469 Z" id="Products" fill="#000000" fill-rule="nonzero"></path>
                        <path d="M103.365234,45 L102.193359,45 L99.0703125,40.8457031 L98.1738281,41.6425781 L98.1738281,45 L97.1777344,45 L97.1777344,36.4335938 L98.1738281,36.4335938 L98.1738281,40.6816406 L102.058594,36.4335938 L103.236328,36.4335938 L99.7910156,40.1542969 L103.365234,45 Z M107.109375,45.1171875 C106.160152,45.1171875 105.411136,44.8281279 104.862305,44.25 C104.313474,43.6718721 104.039062,42.8691458 104.039062,41.8417969 C104.039062,40.8066354 104.293943,39.984378 104.803711,39.375 C105.313479,38.765622 105.998043,38.4609375 106.857422,38.4609375 C107.662113,38.4609375 108.298826,38.7255833 108.767578,39.2548828 C109.23633,39.7841823 109.470703,40.4824175 109.470703,41.3496094 L109.470703,41.9648438 L105.046875,41.9648438 C105.066406,42.7187538 105.256834,43.2910137 105.618164,43.6816406 C105.979494,44.0722676 106.488278,44.2675781 107.144531,44.2675781 C107.835941,44.2675781 108.519528,44.1230483 109.195312,43.8339844 L109.195312,44.7011719 C108.851561,44.8496101 108.526369,44.9560544 108.219727,45.0205078 C107.913084,45.0849613 107.542971,45.1171875 107.109375,45.1171875 Z M106.845703,39.2753906 C106.330076,39.2753906 105.918947,39.4433577 105.612305,39.7792969 C105.305663,40.1152361 105.125,40.5800752 105.070312,41.1738281 L108.427734,41.1738281 C108.427734,40.5605438 108.291017,40.0908219 108.017578,39.7646484 C107.744139,39.4384749 107.353518,39.2753906 106.845703,39.2753906 Z M109.869141,38.578125 L110.912109,38.578125 L112.318359,42.2402344 L112.489454,42.7139077 C112.698829,43.3082833 112.833203,43.7539048 112.892578,44.0507812 L112.939453,44.0507812 L112.987976,43.8748168 C113.017456,43.7735597 113.054764,43.6523901 113.099899,43.5113076 L113.370524,42.7036947 C113.607882,42.0236292 114.100908,40.6484479 114.849609,38.578125 L115.892578,38.578125 L113.132812,45.890625 C112.859374,46.6132849 112.540041,47.125975 112.174805,47.4287109 C111.809568,47.7314468 111.361331,47.8828125 110.830078,47.8828125 C110.533202,47.8828125 110.240236,47.8496097 109.951172,47.7832031 L109.951172,47.0039062 C110.166017,47.0507815 110.406249,47.0742188 110.671875,47.0742188 C111.339847,47.0742188 111.816405,46.6992225 112.101562,45.9492188 L112.458984,45.0351562 L109.869141,38.578125 Z M123.333984,45 L122.179688,45 L121.001953,41.2324219 C120.927734,41.001952 120.789064,40.4785197 120.585938,39.6621094 L120.539062,39.6621094 L120.371521,40.3652354 C120.28302,40.7192387 120.202149,41.0122059 120.128906,41.2441406 L118.916016,45 L117.791016,45 L116.039062,38.578125 L117.058594,38.578125 L118.004883,42.2636719 C118.221681,43.1074261 118.345703,43.6757798 118.376953,43.96875 L118.423828,43.96875 C118.466797,43.7460926 118.536132,43.4580096 118.631836,43.1044922 L118.740586,42.7154292 C118.774805,42.5974607 118.806992,42.4912111 118.837148,42.3966799 L120.058594,38.578125 L121.113281,38.578125 L122.261719,42.2636719 C122.48047,42.9355502 122.628906,43.4999977 122.707031,43.9570312 L122.753906,43.9570312 C122.763281,43.8726558 122.782148,43.7608596 122.810508,43.6216411 L122.900652,43.2204137 C123.010431,42.7731247 123.410731,41.2257077 124.101562,38.578125 L125.109375,38.578125 L123.333984,45 Z M131.8125,41.7832031 C131.8125,42.8300834 131.548831,43.647458 131.021484,44.2353516 C130.494138,44.8232451 129.76563,45.1171875 128.835938,45.1171875 C128.261716,45.1171875 127.751955,44.9824232 127.306641,44.7128906 C126.861326,44.443358 126.517579,44.0566431 126.275391,43.5527344 C126.033202,43.0488256 125.912109,42.4589878 125.912109,41.7832031 C125.912109,40.7363229 126.173826,39.9209014 126.697266,39.3369141 C127.220706,38.7529268 127.947261,38.4609375 128.876953,38.4609375 C129.775395,38.4609375 130.489255,38.7597626 131.018555,39.3574219 C131.547854,39.9550811 131.8125,40.7636668 131.8125,41.7832031 Z M126.919922,41.7832031 C126.919922,42.6035197 127.083983,43.2285135 127.412109,43.6582031 C127.740236,44.0878928 128.222653,44.3027344 128.859375,44.3027344 C129.496097,44.3027344 129.979491,44.0888693 130.30957,43.6611328 C130.63965,43.2333963 130.804688,42.607426 130.804688,41.7832031 C130.804688,40.9667928 130.63965,40.3466818 130.30957,39.9228516 C129.979491,39.4990213 129.492191,39.2871094 128.847656,39.2871094 C128.210934,39.2871094 127.73047,39.4960917 127.40625,39.9140625 C127.08203,40.3320333 126.919922,40.955074 126.919922,41.7832031 Z M136.447266,38.4609375 C136.732423,38.4609375 136.98828,38.4843748 137.214844,38.53125 L137.080078,39.4335938 C136.814452,39.3749997 136.580079,39.3457031 136.376953,39.3457031 C135.857419,39.3457031 135.413088,39.5566385 135.043945,39.9785156 C134.674803,40.4003927 134.490234,40.9257781 134.490234,41.5546875 L134.490234,45 L133.517578,45 L133.517578,38.578125 L134.320312,38.578125 L134.431641,39.7675781 L134.478516,39.7675781 C134.716798,39.3496073 135.003905,39.0273449 135.339844,38.8007812 C135.675783,38.5742176 136.04492,38.4609375 136.447266,38.4609375 Z M142.546875,44.1386719 L142.494141,44.1386719 C142.04492,44.7910189 141.373051,45.1171875 140.478516,45.1171875 C139.638668,45.1171875 138.985354,44.830081 138.518555,44.2558594 C138.051755,43.6816378 137.818359,42.8652397 137.818359,41.8066406 C137.818359,40.7480416 138.052732,39.9257842 138.521484,39.3398438 C138.990237,38.7539033 139.642574,38.4609375 140.478516,38.4609375 C141.349614,38.4609375 142.017576,38.7773406 142.482422,39.4101562 L142.558594,39.4101562 L142.517578,38.9472656 L142.494141,38.4960938 L142.494141,35.8828125 L143.466797,35.8828125 L143.466797,45 L142.675781,45 L142.546875,44.1386719 Z M140.601562,44.3027344 C141.265628,44.3027344 141.747069,44.1220721 142.045898,43.7607422 C142.344728,43.3994123 142.494141,42.8164103 142.494141,42.0117188 L142.494141,41.8066406 C142.494141,40.8964798 142.342775,40.2470723 142.040039,39.8583984 C141.737303,39.4697246 141.25391,39.2753906 140.589844,39.2753906 C140.019528,39.2753906 139.583009,39.4970681 139.280273,39.9404297 C138.977538,40.3837913 138.826172,41.0097616 138.826172,41.8183594 C138.826172,42.638676 138.976561,43.2578104 139.277344,43.6757812 C139.578127,44.0937521 140.019528,44.3027344 140.601562,44.3027344 Z M149.671875,43.2480469 C149.671875,43.8457061 149.449221,44.306639 149.003906,44.6308594 C148.558592,44.9550797 147.933598,45.1171875 147.128906,45.1171875 C146.277339,45.1171875 145.613284,44.9824232 145.136719,44.7128906 L145.136719,43.8105469 C145.445314,43.9667977 145.776365,44.0898433 146.129883,44.1796875 C146.4834,44.2695317 146.824217,44.3144531 147.152344,44.3144531 C147.660159,44.3144531 148.05078,44.2333992 148.324219,44.0712891 C148.597658,43.9091789 148.734375,43.662111 148.734375,43.3300781 C148.734375,43.0800769 148.625978,42.8662118 148.40918,42.6884766 C148.192382,42.5107413 147.769534,42.3007825 147.140625,42.0585938 C146.542966,41.8359364 146.118165,41.6416024 145.866211,41.4755859 C145.614257,41.3095695 145.426758,41.1210948 145.303711,40.9101562 C145.180663,40.6992177 145.119141,40.4472671 145.119141,40.1542969 C145.119141,39.6308568 145.332029,39.217775 145.757812,38.9150391 C146.183596,38.6123032 146.767574,38.4609375 147.509766,38.4609375 C148.201175,38.4609375 148.87695,38.6015611 149.537109,38.8828125 L149.191406,39.6738281 C148.546872,39.4082018 147.962893,39.2753906 147.439453,39.2753906 C146.978513,39.2753906 146.630861,39.3476555 146.396484,39.4921875 C146.162108,39.6367195 146.044922,39.8359362 146.044922,40.0898438 C146.044922,40.2617196 146.088867,40.4082025 146.176758,40.5292969 C146.264649,40.6503912 146.406249,40.7656245 146.601562,40.875 L146.781738,40.9661866 C146.924316,41.033081 147.111815,41.1121822 147.344237,41.2034909 L147.726562,41.3496094 C148.488285,41.6269545 149.002928,41.9062486 149.270508,42.1875 C149.538087,42.4687514 149.671875,42.8222635 149.671875,43.2480469 Z" id="Keywords" fill="#FFFFFF" fill-rule="nonzero"></path>
                        <path d="M172.845703,37.2011719 C171.904292,37.2011719 171.161136,37.5146453 170.616211,38.1416016 C170.071286,38.7685578 169.798828,39.6269477 169.798828,40.7167969 C169.798828,41.8378962 170.061521,42.7040985 170.586914,43.3154297 C171.112307,43.9267609 171.861323,44.2324219 172.833984,44.2324219 C173.431644,44.2324219 174.113277,44.1250011 174.878906,43.9101562 L174.878906,44.7832031 C174.285153,45.0058605 173.552739,45.1171875 172.681641,45.1171875 C171.419916,45.1171875 170.446292,44.7343788 169.760742,43.96875 C169.075192,43.2031212 168.732422,42.1152414 168.732422,40.7050781 C168.732422,39.8222612 168.897459,39.0488314 169.227539,38.3847656 C169.557619,37.7206998 170.034177,37.2089862 170.657227,36.8496094 C171.280277,36.4902326 172.013668,36.3105469 172.857422,36.3105469 C173.755864,36.3105469 174.541012,36.4746077 175.212891,36.8027344 L174.791016,37.6582031 C174.142575,37.3535141 173.494144,37.2011719 172.845703,37.2011719 Z M182.144531,41.7832031 C182.144531,42.8300834 181.880862,43.647458 181.353516,44.2353516 C180.826169,44.8232451 180.097661,45.1171875 179.167969,45.1171875 C178.593747,45.1171875 178.083987,44.9824232 177.638672,44.7128906 C177.193357,44.443358 176.849611,44.0566431 176.607422,43.5527344 C176.365233,43.0488256 176.244141,42.4589878 176.244141,41.7832031 C176.244141,40.7363229 176.505857,39.9209014 177.029297,39.3369141 C177.552737,38.7529268 178.279292,38.4609375 179.208984,38.4609375 C180.107426,38.4609375 180.821286,38.7597626 181.350586,39.3574219 C181.879885,39.9550811 182.144531,40.7636668 182.144531,41.7832031 Z M177.251953,41.7832031 C177.251953,42.6035197 177.416014,43.2285135 177.744141,43.6582031 C178.072267,44.0878928 178.554684,44.3027344 179.191406,44.3027344 C179.828128,44.3027344 180.311522,44.0888693 180.641602,43.6611328 C180.971681,43.2333963 181.136719,42.607426 181.136719,41.7832031 C181.136719,40.9667928 180.971681,40.3466818 180.641602,39.9228516 C180.311522,39.4990213 179.824222,39.2871094 179.179688,39.2871094 C178.542966,39.2871094 178.062502,39.4960917 177.738281,39.9140625 C177.414061,40.3320333 177.251953,40.955074 177.251953,41.7832031 Z M192.035156,45 L192.035156,40.8222656 C192.035156,40.3105443 191.925782,39.9267591 191.707031,39.6708984 C191.48828,39.4150378 191.14844,39.2871094 190.6875,39.2871094 C190.082028,39.2871094 189.634767,39.4609375 189.345703,39.8085938 C189.056639,40.1562517 188.912109,40.6914026 188.912109,41.4140625 L188.912109,45 L187.939453,45 L187.939453,40.8222656 C187.939453,40.3105443 187.830079,39.9267591 187.611328,39.6708984 C187.392577,39.4150378 187.050784,39.2871094 186.585938,39.2871094 C185.976559,39.2871094 185.530275,39.4697247 185.24707,39.8349609 C184.963866,40.2001971 184.822266,40.798824 184.822266,41.6308594 L184.822266,45 L183.849609,45 L183.849609,38.578125 L184.640625,38.578125 L184.798828,39.4570312 L184.845703,39.4570312 C185.029298,39.1445297 185.288084,38.9003915 185.62207,38.7246094 C185.956056,38.5488272 186.330076,38.4609375 186.744141,38.4609375 C187.748052,38.4609375 188.404295,38.8242151 188.712891,39.5507812 L188.759766,39.5507812 C188.951173,39.2148421 189.228514,38.9492197 189.591797,38.7539062 C189.95508,38.5585928 190.369138,38.4609375 190.833984,38.4609375 C191.560551,38.4609375 192.10449,38.6474591 192.46582,39.0205078 C192.82715,39.3935566 193.007812,39.9902303 193.007812,40.8105469 L193.007812,45 L192.035156,45 Z M198,45.1171875 C197.582029,45.1171875 197.200197,45.0400398 196.854492,44.8857422 C196.508787,44.7314445 196.218751,44.4941422 195.984375,44.1738281 L195.914062,44.1738281 C195.960938,44.54883 195.984375,44.9042952 195.984375,45.2402344 L195.984375,47.8828125 L195.011719,47.8828125 L195.011719,38.578125 L195.802734,38.578125 L195.9375,39.4570312 L195.984375,39.4570312 C196.234376,39.105467 196.525389,38.8515633 196.857422,38.6953125 C197.189455,38.5390617 197.57031,38.4609375 198,38.4609375 C198.851567,38.4609375 199.508787,38.7519502 199.97168,39.3339844 C200.434573,39.9160185 200.666016,40.7324166 200.666016,41.7832031 C200.666016,42.8378959 200.430666,43.6572236 199.959961,44.2412109 C199.489255,44.8251982 198.835942,45.1171875 198,45.1171875 Z M197.859375,39.2871094 C197.203122,39.2871094 196.728517,39.4687482 196.435547,39.8320312 C196.142577,40.1953143 195.992188,40.7734335 195.984375,41.5664062 L195.984375,41.7832031 C195.984375,42.6855514 196.134764,43.3310527 196.435547,43.7197266 C196.73633,44.1084004 197.218747,44.3027344 197.882812,44.3027344 C198.437503,44.3027344 198.872069,44.0781272 199.186523,43.6289062 C199.500978,43.1796853 199.658203,42.5605508 199.658203,41.7714844 C199.658203,40.9706991 199.500978,40.3564475 199.186523,39.9287109 C198.872069,39.5009744 198.42969,39.2871094 197.859375,39.2871094 Z M205.078125,45.1171875 C204.128902,45.1171875 203.379886,44.8281279 202.831055,44.25 C202.282224,43.6718721 202.007812,42.8691458 202.007812,41.8417969 C202.007812,40.8066354 202.262693,39.984378 202.772461,39.375 C203.282229,38.765622 203.966793,38.4609375 204.826172,38.4609375 C205.630863,38.4609375 206.267576,38.7255833 206.736328,39.2548828 C207.20508,39.7841823 207.439453,40.4824175 207.439453,41.3496094 L207.439453,41.9648438 L203.015625,41.9648438 C203.035156,42.7187538 203.225584,43.2910137 203.586914,43.6816406 C203.948244,44.0722676 204.457028,44.2675781 205.113281,44.2675781 C205.804691,44.2675781 206.488278,44.1230483 207.164062,43.8339844 L207.164062,44.7011719 C206.820311,44.8496101 206.495119,44.9560544 206.188477,45.0205078 C205.881834,45.0849613 205.511721,45.1171875 205.078125,45.1171875 Z M204.814453,39.2753906 C204.298826,39.2753906 203.887697,39.4433577 203.581055,39.7792969 C203.274413,40.1152361 203.09375,40.5800752 203.039062,41.1738281 L206.396484,41.1738281 C206.396484,40.5605438 206.259767,40.0908219 205.986328,39.7646484 C205.712889,39.4384749 205.322268,39.2753906 204.814453,39.2753906 Z M211.171875,44.3144531 C211.343751,44.3144531 211.509765,44.3017579 211.669922,44.2763672 C211.830079,44.2509764 211.957031,44.2246095 212.050781,44.1972656 L212.050781,44.9414062 C211.945312,44.9921878 211.79004,45.0341795 211.584961,45.0673828 C211.379882,45.1005861 211.195313,45.1171875 211.03125,45.1171875 C209.789056,45.1171875 209.167969,44.4628972 209.167969,43.1542969 L209.167969,39.3339844 L208.248047,39.3339844 L208.248047,38.8652344 L209.167969,38.4609375 L209.578125,37.0898438 L210.140625,37.0898438 L210.140625,38.578125 L212.003906,38.578125 L212.003906,39.3339844 L210.140625,39.3339844 L210.140625,43.1132812 C210.140625,43.5000019 210.232421,43.796874 210.416016,44.0039062 C210.59961,44.2109385 210.851561,44.3144531 211.171875,44.3144531 Z M214.306641,45 L213.333984,45 L213.333984,38.578125 L214.306641,38.578125 L214.306641,45 Z M213.251953,36.8378906 C213.251953,36.6152333 213.30664,36.452149 213.416016,36.3486328 C213.525391,36.2451167 213.662109,36.1933594 213.826172,36.1933594 C213.982423,36.1933594 214.117187,36.2460932 214.230469,36.3515625 C214.343751,36.4570318 214.400391,36.6191395 214.400391,36.8378906 C214.400391,37.0566417 214.343751,37.219726 214.230469,37.3271484 C214.117187,37.4345708 213.982423,37.4882812 213.826172,37.4882812 C213.662109,37.4882812 213.525391,37.4345708 213.416016,37.3271484 C213.30664,37.219726 213.251953,37.0566417 213.251953,36.8378906 Z M218.443359,44.3144531 C218.615235,44.3144531 218.781249,44.3017579 218.941406,44.2763672 C219.101563,44.2509764 219.228515,44.2246095 219.322266,44.1972656 L219.322266,44.9414062 C219.216796,44.9921878 219.061524,45.0341795 218.856445,45.0673828 C218.651366,45.1005861 218.466798,45.1171875 218.302734,45.1171875 C217.060541,45.1171875 216.439453,44.4628972 216.439453,43.1542969 L216.439453,39.3339844 L215.519531,39.3339844 L215.519531,38.8652344 L216.439453,38.4609375 L216.849609,37.0898438 L217.412109,37.0898438 L217.412109,38.578125 L219.275391,38.578125 L219.275391,39.3339844 L217.412109,39.3339844 L217.412109,43.1132812 C217.412109,43.5000019 217.503905,43.796874 217.6875,44.0039062 C217.871095,44.2109385 218.123045,44.3144531 218.443359,44.3144531 Z M226.148438,41.7832031 C226.148438,42.8300834 225.884768,43.647458 225.357422,44.2353516 C224.830075,44.8232451 224.101567,45.1171875 223.171875,45.1171875 C222.597653,45.1171875 222.087893,44.9824232 221.642578,44.7128906 C221.197263,44.443358 220.853517,44.0566431 220.611328,43.5527344 C220.369139,43.0488256 220.248047,42.4589878 220.248047,41.7832031 C220.248047,40.7363229 220.509763,39.9209014 221.033203,39.3369141 C221.556643,38.7529268 222.283198,38.4609375 223.212891,38.4609375 C224.111333,38.4609375 224.825193,38.7597626 225.354492,39.3574219 C225.883792,39.9550811 226.148438,40.7636668 226.148438,41.7832031 Z M221.255859,41.7832031 C221.255859,42.6035197 221.41992,43.2285135 221.748047,43.6582031 C222.076174,44.0878928 222.558591,44.3027344 223.195312,44.3027344 C223.832034,44.3027344 224.315428,44.0888693 224.645508,43.6611328 C224.975588,43.2333963 225.140625,42.607426 225.140625,41.7832031 C225.140625,40.9667928 224.975588,40.3466818 224.645508,39.9228516 C224.315428,39.4990213 223.828128,39.2871094 223.183594,39.2871094 C222.546872,39.2871094 222.066408,39.4960917 221.742188,39.9140625 C221.417967,40.3320333 221.255859,40.955074 221.255859,41.7832031 Z M230.783203,38.4609375 C231.068361,38.4609375 231.324218,38.4843748 231.550781,38.53125 L231.416016,39.4335938 C231.150389,39.3749997 230.916017,39.3457031 230.712891,39.3457031 C230.193357,39.3457031 229.749025,39.5566385 229.379883,39.9785156 C229.01074,40.4003927 228.826172,40.9257781 228.826172,41.5546875 L228.826172,45 L227.853516,45 L227.853516,38.578125 L228.65625,38.578125 L228.767578,39.7675781 L228.814453,39.7675781 C229.052736,39.3496073 229.339842,39.0273449 229.675781,38.8007812 C230.01172,38.5742176 230.380857,38.4609375 230.783203,38.4609375 Z M236.894531,43.2480469 C236.894531,43.8457061 236.671877,44.306639 236.226562,44.6308594 C235.781248,44.9550797 235.156254,45.1171875 234.351562,45.1171875 C233.499996,45.1171875 232.83594,44.9824232 232.359375,44.7128906 L232.359375,43.8105469 C232.66797,43.9667977 232.999022,44.0898433 233.352539,44.1796875 C233.706056,44.2695317 234.046873,44.3144531 234.375,44.3144531 C234.882815,44.3144531 235.273436,44.2333992 235.546875,44.0712891 C235.820314,43.9091789 235.957031,43.662111 235.957031,43.3300781 C235.957031,43.0800769 235.848634,42.8662118 235.631836,42.6884766 C235.415038,42.5107413 234.992191,42.3007825 234.363281,42.0585938 C233.765622,41.8359364 233.340822,41.6416024 233.088867,41.4755859 C232.836913,41.3095695 232.649415,41.1210948 232.526367,40.9101562 C232.40332,40.6992177 232.341797,40.4472671 232.341797,40.1542969 C232.341797,39.6308568 232.554685,39.217775 232.980469,38.9150391 C233.406252,38.6123032 233.990231,38.4609375 234.732422,38.4609375 C235.423832,38.4609375 236.099606,38.6015611 236.759766,38.8828125 L236.414062,39.6738281 C235.769528,39.4082018 235.185549,39.2753906 234.662109,39.2753906 C234.20117,39.2753906 233.853517,39.3476555 233.619141,39.4921875 C233.384764,39.6367195 233.267578,39.8359362 233.267578,40.0898438 C233.267578,40.2617196 233.311523,40.4082025 233.399414,40.5292969 C233.487305,40.6503912 233.628905,40.7656245 233.824219,40.875 C233.970704,40.9570317 234.218261,41.0665279 234.566893,41.2034909 L234.949219,41.3496094 C235.710941,41.6269545 236.225585,41.9062486 236.493164,42.1875 C236.760744,42.4687514 236.894531,42.8222635 236.894531,43.2480469 Z" id="Competitors" fill="#FFFFFF" fill-rule="nonzero"></path>
                        <path d="M262.869141,45 L261.732422,45 L257.050781,37.8105469 L257.003906,37.8105469 C257.066407,38.6543011 257.097656,39.4277309 257.097656,40.1308594 L257.097656,45 L256.177734,45 L256.177734,36.4335938 L257.302734,36.4335938 L261.972656,43.59375 L262.019531,43.59375 L261.966797,42.5771484 L261.938965,41.8410638 C261.934082,41.6364745 261.933594,41.4726569 261.9375,41.3496094 L261.9375,36.4335938 L262.869141,36.4335938 L262.869141,45 Z M266.050781,45 L265.078125,45 L265.078125,38.578125 L266.050781,38.578125 L266.050781,45 Z M264.996094,36.8378906 C264.996094,36.6152333 265.050781,36.452149 265.160156,36.3486328 C265.269532,36.2451167 265.406249,36.1933594 265.570312,36.1933594 C265.726563,36.1933594 265.861328,36.2460932 265.974609,36.3515625 C266.087891,36.4570318 266.144531,36.6191395 266.144531,36.8378906 C266.144531,37.0566417 266.087891,37.219726 265.974609,37.3271484 C265.861328,37.4345708 265.726563,37.4882812 265.570312,37.4882812 C265.406249,37.4882812 265.269532,37.4345708 265.160156,37.3271484 C265.050781,37.219726 264.996094,37.0566417 264.996094,36.8378906 Z M270.679688,45.1171875 C269.749995,45.1171875 269.030276,44.8310575 268.520508,44.2587891 C268.01074,43.6865206 267.755859,42.8769584 267.755859,41.8300781 C267.755859,40.755854 268.014646,39.9257842 268.532227,39.3398438 C269.049807,38.7539033 269.787105,38.4609375 270.744141,38.4609375 C271.052736,38.4609375 271.361327,38.4941403 271.669922,38.5605469 C271.978517,38.6269535 272.220702,38.7050777 272.396484,38.7949219 L272.097656,39.6210938 C271.882811,39.5351558 271.648439,39.4638675 271.394531,39.4072266 C271.140624,39.3505857 270.916017,39.3222656 270.720703,39.3222656 C269.416009,39.3222656 268.763672,40.1542886 268.763672,41.8183594 C268.763672,42.6074258 268.92285,43.2128885 269.241211,43.6347656 C269.559572,44.0566427 270.031247,44.2675781 270.65625,44.2675781 C271.191409,44.2675781 271.740232,44.1523449 272.302734,43.921875 L272.302734,44.7832031 C271.873045,45.0058605 271.332035,45.1171875 270.679688,45.1171875 Z M278.220703,45 L278.220703,40.8457031 C278.220703,40.322263 278.101564,39.9316419 277.863281,39.6738281 C277.624999,39.4160143 277.251956,39.2871094 276.744141,39.2871094 C276.068356,39.2871094 275.575197,39.4707013 275.264648,39.8378906 C274.9541,40.20508 274.798828,40.8066364 274.798828,41.6425781 L274.798828,45 L273.826172,45 L273.826172,35.8828125 L274.798828,35.8828125 L274.798828,38.6425781 C274.798828,38.974611 274.783203,39.2499989 274.751953,39.46875 L274.810547,39.46875 C275.001954,39.1601547 275.274412,38.9169931 275.62793,38.7392578 C275.981447,38.5615225 276.384763,38.4726562 276.837891,38.4726562 C277.623051,38.4726562 278.211912,38.6591778 278.604492,39.0322266 C278.997072,39.4052753 279.193359,39.9980428 279.193359,40.8105469 L279.193359,45 L278.220703,45 Z M283.904297,45.1171875 C282.955073,45.1171875 282.206057,44.8281279 281.657227,44.25 C281.108396,43.6718721 280.833984,42.8691458 280.833984,41.8417969 C280.833984,40.8066354 281.088865,39.984378 281.598633,39.375 C282.108401,38.765622 282.792964,38.4609375 283.652344,38.4609375 C284.457035,38.4609375 285.093748,38.7255833 285.5625,39.2548828 C286.031252,39.7841823 286.265625,40.4824175 286.265625,41.3496094 L286.265625,41.9648438 L281.841797,41.9648438 C281.861328,42.7187538 282.051756,43.2910137 282.413086,43.6816406 C282.774416,44.0722676 283.2832,44.2675781 283.939453,44.2675781 C284.630863,44.2675781 285.31445,44.1230483 285.990234,43.8339844 L285.990234,44.7011719 C285.646483,44.8496101 285.321291,44.9560544 285.014648,45.0205078 C284.708006,45.0849613 284.337893,45.1171875 283.904297,45.1171875 Z" id="Niche" fill="#FFFFFF" fill-rule="nonzero"></path>
                        <path d="M283.640625,39.2753906 C284.14844,39.2753906 284.539061,39.4384749 284.8125,39.7646484 C285.085939,40.0908219 285.222656,40.5605438 285.222656,41.1738281 L281.865234,41.1738281 C281.919922,40.5800752 282.100584,40.1152361 282.407227,39.7792969 C282.713869,39.4433577 283.124997,39.2753906 283.640625,39.2753906 Z" id="Path" fill="#B9C7D4"></path>
                        <path d="M309.609375,38.9296875 C309.609375,39.7968793 309.31348,40.4638649 308.72168,40.9306641 C308.12988,41.3974633 307.283209,41.6308594 306.181641,41.6308594 L305.173828,41.6308594 L305.173828,45 L304.177734,45 L304.177734,36.4335938 L306.398438,36.4335938 C308.539073,36.4335938 309.609375,37.2656167 309.609375,38.9296875 Z M305.173828,40.7753906 L306.070312,40.7753906 C306.953129,40.7753906 307.591795,40.6328139 307.986328,40.3476562 C308.380861,40.0624986 308.578125,39.6054719 308.578125,38.9765625 C308.578125,38.4101534 308.39258,37.9882826 308.021484,37.7109375 C307.650389,37.4335924 307.07227,37.2949219 306.287109,37.2949219 L305.173828,37.2949219 L305.173828,40.7753906 Z M314.185547,38.4609375 C314.470705,38.4609375 314.726561,38.4843748 314.953125,38.53125 L314.818359,39.4335938 C314.552733,39.3749997 314.31836,39.3457031 314.115234,39.3457031 C313.595701,39.3457031 313.151369,39.5566385 312.782227,39.9785156 C312.413084,40.4003927 312.228516,40.9257781 312.228516,41.5546875 L312.228516,45 L311.255859,45 L311.255859,38.578125 L312.058594,38.578125 L312.169922,39.7675781 L312.216797,39.7675781 C312.455079,39.3496073 312.742186,39.0273449 313.078125,38.8007812 C313.414064,38.5742176 313.783201,38.4609375 314.185547,38.4609375 Z M321.457031,41.7832031 C321.457031,42.8300834 321.193362,43.647458 320.666016,44.2353516 C320.138669,44.8232451 319.410161,45.1171875 318.480469,45.1171875 C317.906247,45.1171875 317.396487,44.9824232 316.951172,44.7128906 C316.505857,44.443358 316.162111,44.0566431 315.919922,43.5527344 C315.677733,43.0488256 315.556641,42.4589878 315.556641,41.7832031 C315.556641,40.7363229 315.818357,39.9209014 316.341797,39.3369141 C316.865237,38.7529268 317.591792,38.4609375 318.521484,38.4609375 C319.419926,38.4609375 320.133786,38.7597626 320.663086,39.3574219 C321.192385,39.9550811 321.457031,40.7636668 321.457031,41.7832031 Z M316.564453,41.7832031 C316.564453,42.6035197 316.728514,43.2285135 317.056641,43.6582031 C317.384767,44.0878928 317.867184,44.3027344 318.503906,44.3027344 C319.140628,44.3027344 319.624022,44.0888693 319.954102,43.6611328 C320.284181,43.2333963 320.449219,42.607426 320.449219,41.7832031 C320.449219,40.9667928 320.284181,40.3466818 319.954102,39.9228516 C319.624022,39.4990213 319.136722,39.2871094 318.492188,39.2871094 C317.855466,39.2871094 317.375002,39.4960917 317.050781,39.9140625 C316.726561,40.3320333 316.564453,40.955074 316.564453,41.7832031 Z M327.533203,44.1386719 L327.480469,44.1386719 C327.031248,44.7910189 326.359379,45.1171875 325.464844,45.1171875 C324.624996,45.1171875 323.971682,44.830081 323.504883,44.2558594 C323.038084,43.6816378 322.804688,42.8652397 322.804688,41.8066406 C322.804688,40.7480416 323.03906,39.9257842 323.507812,39.3398438 C323.976565,38.7539033 324.628902,38.4609375 325.464844,38.4609375 C326.335942,38.4609375 327.003904,38.7773406 327.46875,39.4101562 L327.544922,39.4101562 L327.503906,38.9472656 L327.480469,38.4960938 L327.480469,35.8828125 L328.453125,35.8828125 L328.453125,45 L327.662109,45 L327.533203,44.1386719 Z M325.587891,44.3027344 C326.251956,44.3027344 326.733397,44.1220721 327.032227,43.7607422 C327.331056,43.3994123 327.480469,42.8164103 327.480469,42.0117188 L327.480469,41.8066406 C327.480469,40.8964798 327.329103,40.2470723 327.026367,39.8583984 C326.723631,39.4697246 326.240238,39.2753906 325.576172,39.2753906 C325.005857,39.2753906 324.569337,39.4970681 324.266602,39.9404297 C323.963866,40.3837913 323.8125,41.0097616 323.8125,41.8183594 C323.8125,42.638676 323.962889,43.2578104 324.263672,43.6757812 C324.564455,44.0937521 325.005856,44.3027344 325.587891,44.3027344 Z M331.429688,38.578125 L331.429688,42.7441406 C331.429688,43.2675807 331.548827,43.6582018 331.787109,43.9160156 C332.025392,44.1738294 332.398435,44.3027344 332.90625,44.3027344 C333.578128,44.3027344 334.069334,44.1191425 334.379883,43.7519531 C334.690431,43.3847638 334.845703,42.7851604 334.845703,41.953125 L334.845703,38.578125 L335.818359,38.578125 L335.818359,45 L335.015625,45 L334.875,44.1386719 L334.822266,44.1386719 C334.623046,44.4550797 334.346681,44.6972648 333.993164,44.8652344 C333.639647,45.033204 333.23633,45.1171875 332.783203,45.1171875 C332.001949,45.1171875 331.416994,44.9316425 331.02832,44.5605469 C330.639646,44.1894513 330.445312,43.5957072 330.445312,42.7792969 L330.445312,38.578125 L331.429688,38.578125 Z M340.447266,45.1171875 C339.517573,45.1171875 338.797854,44.8310575 338.288086,44.2587891 C337.778318,43.6865206 337.523438,42.8769584 337.523438,41.8300781 C337.523438,40.755854 337.782224,39.9257842 338.299805,39.3398438 C338.817385,38.7539033 339.554683,38.4609375 340.511719,38.4609375 C340.820314,38.4609375 341.128905,38.4941403 341.4375,38.5605469 C341.746095,38.6269535 341.98828,38.7050777 342.164062,38.7949219 L341.865234,39.6210938 C341.65039,39.5351558 341.416017,39.4638675 341.162109,39.4072266 C340.908202,39.3505857 340.683595,39.3222656 340.488281,39.3222656 C339.183587,39.3222656 338.53125,40.1542886 338.53125,41.8183594 C338.53125,42.6074258 338.690428,43.2128885 339.008789,43.6347656 C339.32715,44.0566427 339.798825,44.2675781 340.423828,44.2675781 C340.958987,44.2675781 341.50781,44.1523449 342.070312,43.921875 L342.070312,44.7832031 C341.640623,45.0058605 341.099613,45.1171875 340.447266,45.1171875 Z M345.667969,44.3144531 C345.839845,44.3144531 346.005859,44.3017579 346.166016,44.2763672 C346.326173,44.2509764 346.453125,44.2246095 346.546875,44.1972656 L346.546875,44.9414062 C346.441406,44.9921878 346.286134,45.0341795 346.081055,45.0673828 C345.875976,45.1005861 345.691407,45.1171875 345.527344,45.1171875 C344.28515,45.1171875 343.664062,44.4628972 343.664062,43.1542969 L343.664062,39.3339844 L342.744141,39.3339844 L342.744141,38.8652344 L343.664062,38.4609375 L344.074219,37.0898438 L344.636719,37.0898438 L344.636719,38.578125 L346.5,38.578125 L346.5,39.3339844 L344.636719,39.3339844 L344.636719,43.1132812 C344.636719,43.5000019 344.728515,43.796874 344.912109,44.0039062 C345.095704,44.2109385 345.347655,44.3144531 345.667969,44.3144531 Z M353.730469,45 L352.734375,45 L352.734375,37.3183594 L350.021484,37.3183594 L350.021484,36.4335938 L356.443359,36.4335938 L356.443359,37.3183594 L353.730469,37.3183594 L353.730469,45 Z M360.574219,45 L360.380859,44.0859375 L360.333984,44.0859375 C360.01367,44.4882833 359.694338,44.7607415 359.375977,44.9033203 C359.057616,45.0458992 358.660159,45.1171875 358.183594,45.1171875 C357.546872,45.1171875 357.047853,44.9531266 356.686523,44.625 C356.325194,44.2968734 356.144531,43.8300812 356.144531,43.2246094 C356.144531,41.9277279 357.18163,41.2480472 359.255859,41.1855469 L360.345703,41.1503906 L360.345703,40.7519531 C360.345703,40.2480444 360.237306,39.8759778 360.020508,39.6357422 C359.80371,39.3955066 359.457034,39.2753906 358.980469,39.2753906 C358.44531,39.2753906 357.839847,39.4394515 357.164062,39.7675781 L356.865234,39.0234375 C357.181642,38.8515616 357.528318,38.7167974 357.905273,38.6191406 C358.282228,38.5214839 358.660154,38.4726562 359.039062,38.4726562 C359.804691,38.4726562 360.372068,38.6425764 360.741211,38.9824219 C361.110353,39.3222673 361.294922,39.8671837 361.294922,40.6171875 L361.294922,45 L360.574219,45 Z M358.376953,44.3144531 C358.982425,44.3144531 359.458006,44.1484392 359.803711,43.8164062 C360.149416,43.4843733 360.322266,43.0195342 360.322266,42.421875 L360.322266,41.8417969 L359.349609,41.8828125 C358.576168,41.9101564 358.018556,42.0302724 357.676758,42.2431641 C357.334959,42.4560558 357.164062,42.7871071 357.164062,43.2363281 C357.164062,43.5878924 357.270507,43.8554678 357.483398,44.0390625 C357.69629,44.2226572 357.994139,44.3144531 358.376953,44.3144531 Z M366.228516,38.4609375 C366.513673,38.4609375 366.76953,38.4843748 366.996094,38.53125 L366.861328,39.4335938 C366.595702,39.3749997 366.361329,39.3457031 366.158203,39.3457031 C365.638669,39.3457031 365.194338,39.5566385 364.825195,39.9785156 C364.456053,40.4003927 364.271484,40.9257781 364.271484,41.5546875 L364.271484,45 L363.298828,45 L363.298828,38.578125 L364.101562,38.578125 L364.212891,39.7675781 L364.259766,39.7675781 C364.498048,39.3496073 364.785155,39.0273449 365.121094,38.8007812 C365.457033,38.5742176 365.82617,38.4609375 366.228516,38.4609375 Z M373.335938,38.578125 L373.335938,39.1933594 L372.146484,39.3339844 C372.25586,39.4707038 372.353515,39.649413 372.439453,39.8701172 C372.525391,40.0908214 372.568359,40.3398424 372.568359,40.6171875 C372.568359,41.2460969 372.353518,41.748045 371.923828,42.1230469 C371.494138,42.4980487 370.904301,42.6855469 370.154297,42.6855469 C369.96289,42.6855469 369.783204,42.669922 369.615234,42.6386719 C369.20117,42.857423 368.994141,43.1328108 368.994141,43.4648438 C368.994141,43.6406259 369.066406,43.7705074 369.210938,43.8544922 C369.355469,43.938477 369.603514,43.9804688 369.955078,43.9804688 L371.091797,43.9804688 C371.787113,43.9804688 372.321287,44.1269517 372.694336,44.4199219 C373.067385,44.7128921 373.253906,45.1386691 373.253906,45.6972656 C373.253906,46.4082067 372.968753,46.9501934 372.398438,47.3232422 C371.828122,47.6962909 370.996099,47.8828125 369.902344,47.8828125 C369.062496,47.8828125 368.415041,47.7265641 367.959961,47.4140625 C367.504881,47.1015609 367.277344,46.6601591 367.277344,46.0898438 C367.277344,45.6992168 367.402343,45.3613296 367.652344,45.0761719 C367.902345,44.7910142 368.253904,44.5976568 368.707031,44.4960938 C368.542968,44.4218746 368.405274,44.3066414 368.293945,44.1503906 C368.182617,43.9941398 368.126953,43.812501 368.126953,43.6054688 C368.126953,43.3710926 368.189453,43.1660165 368.314453,42.9902344 C368.439454,42.8144522 368.636717,42.6445321 368.90625,42.4804688 C368.574217,42.3437493 368.303712,42.1113298 368.094727,41.7832031 C367.885741,41.4550765 367.78125,41.0800802 367.78125,40.6582031 C367.78125,39.9550746 367.992185,39.4130878 368.414062,39.0322266 C368.83594,38.6513653 369.43359,38.4609375 370.207031,38.4609375 C370.54297,38.4609375 370.845702,38.4999996 371.115234,38.578125 L373.335938,38.578125 Z M368.214844,46.078125 C368.214844,46.425783 368.361327,46.6894522 368.654297,46.8691406 C368.947267,47.048829 369.367185,47.1386719 369.914062,47.1386719 C370.730473,47.1386719 371.334959,47.0166028 371.727539,46.7724609 C372.120119,46.5283191 372.316406,46.1972677 372.316406,45.7792969 C372.316406,45.4316389 372.208985,45.1904304 371.994141,45.0556641 C371.779296,44.9208978 371.375003,44.8535156 370.78125,44.8535156 L369.615234,44.8535156 C369.173826,44.8535156 368.830079,44.9589833 368.583984,45.1699219 C368.337889,45.3808604 368.214844,45.6835918 368.214844,46.078125 Z M368.742188,40.6347656 C368.742188,41.0839866 368.869139,41.423827 369.123047,41.6542969 C369.376954,41.8847668 369.730466,42 370.183594,42 C371.132817,42 371.607422,41.5390671 371.607422,40.6171875 C371.607422,39.6523389 371.126958,39.1699219 370.166016,39.1699219 C369.708982,39.1699219 369.357423,39.2929675 369.111328,39.5390625 C368.865233,39.7851575 368.742188,40.1503882 368.742188,40.6347656 Z M377.367188,45.1171875 C376.417964,45.1171875 375.668948,44.8281279 375.120117,44.25 C374.571286,43.6718721 374.296875,42.8691458 374.296875,41.8417969 C374.296875,40.8066354 374.551755,39.984378 375.061523,39.375 C375.571292,38.765622 376.255855,38.4609375 377.115234,38.4609375 C377.919926,38.4609375 378.556638,38.7255833 379.025391,39.2548828 C379.494143,39.7841823 379.728516,40.4824175 379.728516,41.3496094 L379.728516,41.9648438 L375.304688,41.9648438 C375.324219,42.7187538 375.514647,43.2910137 375.875977,43.6816406 C376.237306,44.0722676 376.74609,44.2675781 377.402344,44.2675781 C378.093753,44.2675781 378.77734,44.1230483 379.453125,43.8339844 L379.453125,44.7011719 C379.109373,44.8496101 378.784181,44.9560544 378.477539,45.0205078 C378.170897,45.0849613 377.800783,45.1171875 377.367188,45.1171875 Z M377.103516,39.2753906 C376.587888,39.2753906 376.176759,39.4433577 375.870117,39.7792969 C375.563475,40.1152361 375.382813,40.5800752 375.328125,41.1738281 L378.685547,41.1738281 C378.685547,40.5605438 378.548829,40.0908219 378.275391,39.7646484 C378.001952,39.4384749 377.611331,39.2753906 377.103516,39.2753906 Z M383.460938,44.3144531 C383.632813,44.3144531 383.798827,44.3017579 383.958984,44.2763672 C384.119141,44.2509764 384.246093,44.2246095 384.339844,44.1972656 L384.339844,44.9414062 C384.234374,44.9921878 384.079103,45.0341795 383.874023,45.0673828 C383.668944,45.1005861 383.484376,45.1171875 383.320312,45.1171875 C382.078119,45.1171875 381.457031,44.4628972 381.457031,43.1542969 L381.457031,39.3339844 L380.537109,39.3339844 L380.537109,38.8652344 L381.457031,38.4609375 L381.867188,37.0898438 L382.429688,37.0898438 L382.429688,38.578125 L384.292969,38.578125 L384.292969,39.3339844 L382.429688,39.3339844 L382.429688,43.1132812 C382.429688,43.5000019 382.521483,43.796874 382.705078,44.0039062 C382.888673,44.2109385 383.140623,44.3144531 383.460938,44.3144531 Z M386.595703,45 L385.623047,45 L385.623047,38.578125 L386.595703,38.578125 L386.595703,45 Z M385.541016,36.8378906 C385.541016,36.6152333 385.595703,36.452149 385.705078,36.3486328 C385.814454,36.2451167 385.951171,36.1933594 386.115234,36.1933594 C386.271485,36.1933594 386.406249,36.2460932 386.519531,36.3515625 C386.632813,36.4570318 386.689453,36.6191395 386.689453,36.8378906 C386.689453,37.0566417 386.632813,37.219726 386.519531,37.3271484 C386.406249,37.4345708 386.271485,37.4882812 386.115234,37.4882812 C385.951171,37.4882812 385.814454,37.4345708 385.705078,37.3271484 C385.595703,37.219726 385.541016,37.0566417 385.541016,36.8378906 Z M393.052734,45 L393.052734,40.8457031 C393.052734,40.322263 392.933595,39.9316419 392.695312,39.6738281 C392.45703,39.4160143 392.083987,39.2871094 391.576172,39.2871094 C390.904294,39.2871094 390.412111,39.4687482 390.099609,39.8320312 C389.787108,40.1953143 389.630859,40.7949177 389.630859,41.6308594 L389.630859,45 L388.658203,45 L388.658203,38.578125 L389.449219,38.578125 L389.607422,39.4570312 L389.654297,39.4570312 C389.853517,39.1406234 390.132811,38.8955087 390.492188,38.7216797 C390.851564,38.5478507 391.251951,38.4609375 391.693359,38.4609375 C392.466801,38.4609375 393.048826,38.6474591 393.439453,39.0205078 C393.83008,39.3935566 394.025391,39.9902303 394.025391,40.8105469 L394.025391,45 L393.052734,45 Z M401.279297,38.578125 L401.279297,39.1933594 L400.089844,39.3339844 C400.199219,39.4707038 400.296875,39.649413 400.382812,39.8701172 C400.46875,40.0908214 400.511719,40.3398424 400.511719,40.6171875 C400.511719,41.2460969 400.296877,41.748045 399.867188,42.1230469 C399.437498,42.4980487 398.84766,42.6855469 398.097656,42.6855469 C397.906249,42.6855469 397.726563,42.669922 397.558594,42.6386719 C397.144529,42.857423 396.9375,43.1328108 396.9375,43.4648438 C396.9375,43.6406259 397.009765,43.7705074 397.154297,43.8544922 C397.298829,43.938477 397.546873,43.9804688 397.898438,43.9804688 L399.035156,43.9804688 C399.730472,43.9804688 400.264647,44.1269517 400.637695,44.4199219 C401.010744,44.7128921 401.197266,45.1386691 401.197266,45.6972656 C401.197266,46.4082067 400.912112,46.9501934 400.341797,47.3232422 C399.771482,47.6962909 398.939459,47.8828125 397.845703,47.8828125 C397.005855,47.8828125 396.358401,47.7265641 395.90332,47.4140625 C395.44824,47.1015609 395.220703,46.6601591 395.220703,46.0898438 C395.220703,45.6992168 395.345702,45.3613296 395.595703,45.0761719 C395.845704,44.7910142 396.197263,44.5976568 396.650391,44.4960938 C396.486327,44.4218746 396.348633,44.3066414 396.237305,44.1503906 C396.125976,43.9941398 396.070312,43.812501 396.070312,43.6054688 C396.070312,43.3710926 396.132812,43.1660165 396.257812,42.9902344 C396.382813,42.8144522 396.580077,42.6445321 396.849609,42.4804688 C396.517576,42.3437493 396.247071,42.1113298 396.038086,41.7832031 C395.829101,41.4550765 395.724609,41.0800802 395.724609,40.6582031 C395.724609,39.9550746 395.935545,39.4130878 396.357422,39.0322266 C396.779299,38.6513653 397.376949,38.4609375 398.150391,38.4609375 C398.48633,38.4609375 398.789061,38.4999996 399.058594,38.578125 L401.279297,38.578125 Z M396.158203,46.078125 C396.158203,46.425783 396.304686,46.6894522 396.597656,46.8691406 C396.890626,47.048829 397.310544,47.1386719 397.857422,47.1386719 C398.673832,47.1386719 399.278318,47.0166028 399.670898,46.7724609 C400.063479,46.5283191 400.259766,46.1972677 400.259766,45.7792969 C400.259766,45.4316389 400.152345,45.1904304 399.9375,45.0556641 C399.722655,44.9208978 399.318362,44.8535156 398.724609,44.8535156 L397.558594,44.8535156 C397.117185,44.8535156 396.773439,44.9589833 396.527344,45.1699219 C396.281249,45.3808604 396.158203,45.6835918 396.158203,46.078125 Z" id="ProductTargeting" fill="#FFFFFF" fill-rule="nonzero"></path>
                        <path d="M396.685547,40.6347656 C396.685547,40.1503882 396.808593,39.7851575 397.054688,39.5390625 C397.300782,39.2929675 397.652341,39.1699219 398.109375,39.1699219 C399.070317,39.1699219 399.550781,39.6523389 399.550781,40.6171875 C399.550781,41.5390671 399.076177,42 398.126953,42 C397.673826,42 397.320314,41.8847668 397.066406,41.6542969 C396.812499,41.423827 396.685547,41.0839866 396.685547,40.6347656 Z" id="Path" fill="#B9C7D4"></path>
                    </g>
                    <g id="buttons" transform="translate(66.000000, 5.000000)">
                        <circle id="Oval" fill="#FB544B" cx="4" cy="4" r="4"></circle>
                        <circle id="Oval-Copy" fill="#FAB521" cx="16" cy="4" r="4"></circle>
                        <circle id="Oval-Copy-2" fill="#27CA41" cx="28" cy="4" r="4"></circle>
                    </g>
                </g>
            </g>
        </g>
    </g>
</svg>