<?xml version="1.0" encoding="UTF-8"?>
<svg width="526px" height="364px" viewBox="0 0 526 364" version="1.1" xmlns="http://www.w3.org/2000/svg" xmlns:xlink="http://www.w3.org/1999/xlink">
    <!-- Generator: Sketch 51.3 (57544) - http://www.bohemiancoding.com/sketch -->
    <title>browser</title>
    <desc>Created with Sketch.</desc>
    <defs>
        <path d="M90,0 L510,0 C513.313708,-6.08718376e-16 516,2.6862915 516,6 L516,340 C516,342.209139 514.209139,344 512,344 L88,344 C85.790861,344 84,342.209139 84,340 L84,6 C84,2.6862915 86.6862915,6.08718376e-16 90,0 Z" id="path-1"></path>
        <filter x="-4.6%" y="-2.9%" width="109.3%" height="111.6%" filterUnits="objectBoundingBox" id="filter-2">
            <feOffset dx="0" dy="10" in="SourceAlpha" result="shadowOffsetOuter1"></feOffset>
            <feGaussianBlur stdDeviation="5" in="shadowOffsetOuter1" result="shadowBlurOuter1"></feGaussianBlur>
            <feComposite in="shadowBlurOuter1" in2="SourceAlpha" operator="out" result="shadowBlurOuter1"></feComposite>
            <feColorMatrix values="0 0 0 0 0.149019608   0 0 0 0 0.149019608   0 0 0 0 0.149019608  0 0 0 0.08 0" type="matrix" in="shadowBlurOuter1"></feColorMatrix>
        </filter>
    </defs>
    <g id="Page-1" stroke="none" stroke-width="1" fill="none" fill-rule="evenodd">
        <g id="Xray">
            <g id="Browser">
                <g id="Rectangle">
                    <use fill="black" fill-opacity="1" filter="url(#filter-2)" xlink:href="#path-1"></use>
                    <path stroke="#DBE2E8" stroke-width="1" d="M90,0.5 C86.9624339,0.5 84.5,2.96243388 84.5,6 L84.5,340 C84.5,341.932997 86.0670034,343.5 88,343.5 L512,343.5 C513.932997,343.5 515.5,341.932997 515.5,340 L515.5,6 C515.5,2.96243388 513.037566,0.5 510,0.5 L90,0.5 Z" stroke-linejoin="square" fill="#FFFFFF" fill-rule="evenodd"></path>
                </g>
                <g id="Group-7-Copy-2" transform="translate(208.000000, 88.000000)">
                    <rect id="Rectangle" fill="#DBE2E8" x="0" y="0" width="80" height="80"></rect>
                    <rect id="Rectangle" fill="#DBE2E8" x="0" y="89" width="68" height="6" rx="2"></rect>
                    <rect id="Rectangle-Copy-27" fill="#DBE2E8" x="0" y="105" width="76" height="6" rx="2"></rect>
                    <rect id="Rectangle-Copy-28" fill="#DBE2E8" x="0" y="137" width="68" height="6" rx="2"></rect>
                    <path d="M5.46355235,119.347861 L4.24299377,121.933479 L1.5121575,122.349443 C1.02243874,122.423652 0.826177409,123.054434 1.18131697,123.415717 L3.15701439,125.427187 L2.6897255,128.268633 C2.6056135,128.782241 3.12336959,129.166959 3.55701368,128.926754 L6,127.585123 L8.44298632,128.926754 C8.87663041,129.165006 9.3943865,128.782241 9.3102745,128.268633 L8.84298561,125.427187 L10.818683,123.415717 C11.1738226,123.054434 10.9775613,122.423652 10.4878425,122.349443 L7.75700623,121.933479 L6.53644765,119.347861 C6.31775645,118.88698 5.68411271,118.881122 5.46355235,119.347861 Z" id="Path" fill="#FF9800" fill-rule="nonzero"></path>
                    <path d="M21.452369,119.347861 L20.2318104,121.933479 L17.5009741,122.349443 C17.0112553,122.423652 16.814994,123.054434 17.1701336,123.415717 L19.145831,125.427187 L18.6785421,128.268633 C18.5944301,128.782241 19.1121862,129.166959 19.5458303,128.926754 L21.9888166,127.585123 L24.4318029,128.926754 C24.865447,129.165006 25.3832031,128.782241 25.2990911,128.268633 L24.8318022,125.427187 L26.8074996,123.415717 C27.1626392,123.054434 26.9663779,122.423652 26.4766591,122.349443 L23.7458228,121.933479 L22.5252642,119.347861 C22.306573,118.88698 21.6729293,118.881122 21.452369,119.347861 Z" id="Path-Copy" fill="#FF9800" fill-rule="nonzero"></path>
                    <path d="M37.452369,119.347861 L36.2318104,121.933479 L33.5009741,122.349443 C33.0112553,122.423652 32.814994,123.054434 33.1701336,123.415717 L35.145831,125.427187 L34.6785421,128.268633 C34.5944301,128.782241 35.1121862,129.166959 35.5458303,128.926754 L37.9888166,127.585123 L40.4318029,128.926754 C40.865447,129.165006 41.3832031,128.782241 41.2990911,128.268633 L40.8318022,125.427187 L42.8074996,123.415717 C43.1626392,123.054434 42.9663779,122.423652 42.4766591,122.349443 L39.7458228,121.933479 L38.5252642,119.347861 C38.306573,118.88698 37.6729293,118.881122 37.452369,119.347861 Z" id="Path-Copy-2" fill="#FF9800" fill-rule="nonzero"></path>
                    <path d="M53.4635524,119.347861 L52.2429938,121.933479 L49.5121575,122.349443 C49.0224387,122.423652 48.8261774,123.054434 49.181317,123.415717 L51.1570144,125.427187 L50.6897255,128.268633 C50.6056135,128.782241 51.1233696,129.166959 51.5570137,128.926754 L54,127.585123 L56.4429863,128.926754 C56.8766304,129.165006 57.3943865,128.782241 57.3102745,128.268633 L56.8429856,125.427187 L58.818683,123.415717 C59.1738226,123.054434 58.9775613,122.423652 58.4878425,122.349443 L55.7570062,121.933479 L54.5364476,119.347861 C54.3177564,118.88698 53.6841127,118.881122 53.4635524,119.347861 Z" id="Path-Copy-3" fill="#FF9800" fill-rule="nonzero"></path>
                </g>
                <g id="Group-7-Copy-3" transform="translate(312.000000, 88.000000)">
                    <rect id="Rectangle" fill="#DBE2E8" x="0" y="0" width="80" height="80"></rect>
                    <rect id="Rectangle" fill="#DBE2E8" x="0" y="89" width="76" height="6" rx="2"></rect>
                    <rect id="Rectangle-Copy-27" fill="#DBE2E8" x="0" y="105" width="75" height="6" rx="2"></rect>
                    <rect id="Rectangle-Copy-28" fill="#DBE2E8" x="0" y="137" width="68" height="6" rx="2"></rect>
                    <path d="M5.46355235,119.347861 L4.24299377,121.933479 L1.5121575,122.349443 C1.02243874,122.423652 0.826177409,123.054434 1.18131697,123.415717 L3.15701439,125.427187 L2.6897255,128.268633 C2.6056135,128.782241 3.12336959,129.166959 3.55701368,128.926754 L6,127.585123 L8.44298632,128.926754 C8.87663041,129.165006 9.3943865,128.782241 9.3102745,128.268633 L8.84298561,125.427187 L10.818683,123.415717 C11.1738226,123.054434 10.9775613,122.423652 10.4878425,122.349443 L7.75700623,121.933479 L6.53644765,119.347861 C6.31775645,118.88698 5.68411271,118.881122 5.46355235,119.347861 Z" id="Path" fill="#FF9800" fill-rule="nonzero"></path>
                    <path d="M21.452369,119.347861 L20.2318104,121.933479 L17.5009741,122.349443 C17.0112553,122.423652 16.814994,123.054434 17.1701336,123.415717 L19.145831,125.427187 L18.6785421,128.268633 C18.5944301,128.782241 19.1121862,129.166959 19.5458303,128.926754 L21.9888166,127.585123 L24.4318029,128.926754 C24.865447,129.165006 25.3832031,128.782241 25.2990911,128.268633 L24.8318022,125.427187 L26.8074996,123.415717 C27.1626392,123.054434 26.9663779,122.423652 26.4766591,122.349443 L23.7458228,121.933479 L22.5252642,119.347861 C22.306573,118.88698 21.6729293,118.881122 21.452369,119.347861 Z" id="Path-Copy" fill="#FF9800" fill-rule="nonzero"></path>
                    <path d="M37.452369,119.347861 L36.2318104,121.933479 L33.5009741,122.349443 C33.0112553,122.423652 32.814994,123.054434 33.1701336,123.415717 L35.145831,125.427187 L34.6785421,128.268633 C34.5944301,128.782241 35.1121862,129.166959 35.5458303,128.926754 L37.9888166,127.585123 L40.4318029,128.926754 C40.865447,129.165006 41.3832031,128.782241 41.2990911,128.268633 L40.8318022,125.427187 L42.8074996,123.415717 C43.1626392,123.054434 42.9663779,122.423652 42.4766591,122.349443 L39.7458228,121.933479 L38.5252642,119.347861 C38.306573,118.88698 37.6729293,118.881122 37.452369,119.347861 Z" id="Path-Copy-2" fill="#FF9800" fill-rule="nonzero"></path>
                    <path d="M53.4635524,119.347861 L52.2429938,121.933479 L49.5121575,122.349443 C49.0224387,122.423652 48.8261774,123.054434 49.181317,123.415717 L51.1570144,125.427187 L50.6897255,128.268633 C50.6056135,128.782241 51.1233696,129.166959 51.5570137,128.926754 L54,127.585123 L56.4429863,128.926754 C56.8766304,129.165006 57.3943865,128.782241 57.3102745,128.268633 L56.8429856,125.427187 L58.818683,123.415717 C59.1738226,123.054434 58.9775613,122.423652 58.4878425,122.349443 L55.7570062,121.933479 L54.5364476,119.347861 C54.3177564,118.88698 53.6841127,118.881122 53.4635524,119.347861 Z" id="Path-Copy-3" fill="#FF9800" fill-rule="nonzero"></path>
                    <path d="M69.4635524,119.347861 L68.2429938,121.933479 L65.5121575,122.349443 C65.0224387,122.423652 64.8261774,123.054434 65.181317,123.415717 L67.1570144,125.427187 L66.6897255,128.268633 C66.6056135,128.782241 67.1233696,129.166959 67.5570137,128.926754 L70,127.585123 L72.4429863,128.926754 C72.8766304,129.165006 73.3943865,128.782241 73.3102745,128.268633 L72.8429856,125.427187 L74.818683,123.415717 C75.1738226,123.054434 74.9775613,122.423652 74.4878425,122.349443 L71.7570062,121.933479 L70.5364476,119.347861 C70.3177564,118.88698 69.6841127,118.881122 69.4635524,119.347861 Z" id="Path-Copy-5" fill="#FF9800" fill-rule="nonzero"></path>
                </g>
                <g id="Group-7-Copy-4" transform="translate(416.000000, 88.000000)">
                    <rect id="Rectangle" fill="#DBE2E8" x="0" y="0" width="80" height="80"></rect>
                    <rect id="Rectangle" fill="#DBE2E8" x="0" y="89" width="60" height="6" rx="2"></rect>
                    <rect id="Rectangle-Copy-27" fill="#DBE2E8" x="0" y="105" width="76" height="6" rx="2"></rect>
                    <rect id="Rectangle-Copy-28" fill="#DBE2E8" x="0" y="137" width="68" height="6" rx="2"></rect>
                    <path d="M5.46355235,119.347861 L4.24299377,121.933479 L1.5121575,122.349443 C1.02243874,122.423652 0.826177409,123.054434 1.18131697,123.415717 L3.15701439,125.427187 L2.6897255,128.268633 C2.6056135,128.782241 3.12336959,129.166959 3.55701368,128.926754 L6,127.585123 L8.44298632,128.926754 C8.87663041,129.165006 9.3943865,128.782241 9.3102745,128.268633 L8.84298561,125.427187 L10.818683,123.415717 C11.1738226,123.054434 10.9775613,122.423652 10.4878425,122.349443 L7.75700623,121.933479 L6.53644765,119.347861 C6.31775645,118.88698 5.68411271,118.881122 5.46355235,119.347861 Z" id="Path" fill="#FF9800" fill-rule="nonzero"></path>
                    <path d="M21.452369,119.347861 L20.2318104,121.933479 L17.5009741,122.349443 C17.0112553,122.423652 16.814994,123.054434 17.1701336,123.415717 L19.145831,125.427187 L18.6785421,128.268633 C18.5944301,128.782241 19.1121862,129.166959 19.5458303,128.926754 L21.9888166,127.585123 L24.4318029,128.926754 C24.865447,129.165006 25.3832031,128.782241 25.2990911,128.268633 L24.8318022,125.427187 L26.8074996,123.415717 C27.1626392,123.054434 26.9663779,122.423652 26.4766591,122.349443 L23.7458228,121.933479 L22.5252642,119.347861 C22.306573,118.88698 21.6729293,118.881122 21.452369,119.347861 Z" id="Path-Copy" fill="#FF9800" fill-rule="nonzero"></path>
                    <path d="M37.452369,119.347861 L36.2318104,121.933479 L33.5009741,122.349443 C33.0112553,122.423652 32.814994,123.054434 33.1701336,123.415717 L35.145831,125.427187 L34.6785421,128.268633 C34.5944301,128.782241 35.1121862,129.166959 35.5458303,128.926754 L37.9888166,127.585123 L40.4318029,128.926754 C40.865447,129.165006 41.3832031,128.782241 41.2990911,128.268633 L40.8318022,125.427187 L42.8074996,123.415717 C43.1626392,123.054434 42.9663779,122.423652 42.4766591,122.349443 L39.7458228,121.933479 L38.5252642,119.347861 C38.306573,118.88698 37.6729293,118.881122 37.452369,119.347861 Z" id="Path-Copy-2" fill="#FF9800" fill-rule="nonzero"></path>
                    <path d="M53.4635524,119.347861 L52.2429938,121.933479 L49.5121575,122.349443 C49.0224387,122.423652 48.8261774,123.054434 49.181317,123.415717 L51.1570144,125.427187 L50.6897255,128.268633 C50.6056135,128.782241 51.1233696,129.166959 51.5570137,128.926754 L54,127.585123 L56.4429863,128.926754 C56.8766304,129.165006 57.3943865,128.782241 57.3102745,128.268633 L56.8429856,125.427187 L58.818683,123.415717 C59.1738226,123.054434 58.9775613,122.423652 58.4878425,122.349443 L55.7570062,121.933479 L54.5364476,119.347861 C54.3177564,118.88698 53.6841127,118.881122 53.4635524,119.347861 Z" id="Path-Copy-3" fill="#FF9800" fill-rule="nonzero"></path>
                </g>
                <g id="Group-7-Copy-7" transform="translate(208.000000, 256.000000)" fill="#DBE2E8">
                    <rect id="Rectangle" x="0" y="0" width="80" height="80"></rect>
                </g>
                <g id="Group-7-Copy-6" transform="translate(312.000000, 256.000000)" fill="#DBE2E8">
                    <rect id="Rectangle" x="0" y="0" width="80" height="80"></rect>
                </g>
                <g id="Group-7-Copy-5" transform="translate(416.000000, 256.000000)" fill="#DBE2E8">
                    <rect id="Rectangle" x="0" y="0" width="80" height="80"></rect>
                </g>
                <path d="M187.75,64.5 L187.75,344" id="Line-5" stroke="#DBE2E8" stroke-linecap="square"></path>
                <rect id="Rectangle" fill="#DBE2E8" x="100" y="89" width="68" height="6" rx="2"></rect>
                <rect id="Rectangle-Copy-24" fill="#DBE2E8" x="100" y="105" width="76" height="6" rx="2"></rect>
                <rect id="Rectangle-Copy-25" fill="#DBE2E8" x="100" y="121" width="61" height="6" rx="2"></rect>
                <rect id="Rectangle-Copy-26" fill="#DBE2E8" x="100" y="137" width="68" height="6" rx="2"></rect>
                <rect id="Rectangle-Copy-29" fill="#DBE2E8" x="100" y="153" width="73" height="6" rx="2"></rect>
                <rect id="Rectangle-Copy-30" fill="#DBE2E8" x="100" y="169" width="48" height="6" rx="2"></rect>
                <rect id="Rectangle-Copy-31" fill="#DBE2E8" x="100" y="185" width="58" height="6" rx="2"></rect>
                <rect id="Rectangle-Copy-32" fill="#DBE2E8" x="100" y="201" width="68" height="6" rx="2"></rect>
                <rect id="Rectangle-Copy-33" fill="#DBE2E8" x="100" y="217" width="57" height="6" rx="2"></rect>
                <rect id="Rectangle-Copy-34" fill="#DBE2E8" x="100" y="233" width="68" height="6" rx="2"></rect>
                <path d="M90,0 L510,0 C513.313708,-6.08718376e-16 516,2.6862915 516,6 L516,64 L84,64 L84,6 C84,2.6862915 86.6862915,6.08718376e-16 90,0 Z" id="Rectangle" fill="#23303E"></path>
                <g id="iconfinder_amazon_1220386" transform="translate(98.000000, 31.000000)" fill-rule="nonzero">
                    <path d="M23.5382114,9.6195122 C23.5382114,10.7056911 23.5772358,11.7853659 23.5252033,12.8715447 C23.4731707,14.1073171 23.8504065,15.1674797 24.6308943,16.104065 C24.7219512,16.2146341 24.8065041,16.3252033 24.8845528,16.4422764 C25.1642276,16.8650407 25.1121951,17.1577236 24.7284553,17.4829268 C23.9089431,18.1723577 23.095935,18.8682927 22.2764228,19.5577236 C21.7886179,19.9674797 21.4829268,19.9609756 20.9886179,19.5577236 C20.3252033,19.0178862 19.804878,18.3544715 19.3430894,17.6455285 C19.2325203,17.4764228 19.1739837,17.4829268 19.0373984,17.6130081 C18.2178862,18.4130081 17.3528455,19.1544715 16.2536585,19.5252033 C14.5560976,20.104065 12.8325203,20.195122 11.1284553,19.5902439 C9.48943089,19.004878 8.50731707,17.795122 8.14308943,16.1105691 C7.7398374,14.2308943 7.94796748,12.4422764 9.10569106,10.8487805 C9.98373984,9.64552846 11.2,8.93658537 12.598374,8.50081301 C14.0422764,8.05853659 15.5317073,7.88943089 17.0276423,7.7398374 C17.4504065,7.69430894 17.8666667,7.65528455 18.2894309,7.61626016 C18.3934959,7.6097561 18.4845528,7.59674797 18.4780488,7.4601626 C18.4650407,6.77073171 18.5365854,6.06829268 18.3739837,5.39186992 C18.1658537,4.52682927 17.6,4.0195122 16.7349593,3.83089431 C16.1170732,3.69430894 15.5056911,3.73333333 14.9073171,3.93495935 C13.996748,4.24715447 13.4308943,4.87804878 13.203252,5.81463415 C13.0796748,6.32845528 12.8390244,6.51056911 12.3382114,6.45853659 C11.2715447,6.34796748 10.204878,6.23739837 9.14471545,6.12682927 C8.70894309,6.08130081 8.48130081,5.7495935 8.57235772,5.32682927 C9.12520325,2.62764228 10.8943089,1.11219512 13.4439024,0.416260163 C15.401626,-0.117073171 17.3853659,-0.149593496 19.3495935,0.403252033 C20.9300813,0.845528455 22.2569106,1.62601626 22.998374,3.17398374 C23.4211382,4.05203252 23.5186992,5.00162602 23.5317073,5.95121951 C23.5447154,7.16747967 23.5317073,8.39674797 23.5382114,9.6195122 C23.5317073,9.6195122 23.5382114,9.6195122 23.5382114,9.6195122 Z M18.4780488,11.6487805 C18.4780488,11.3235772 18.4650407,10.998374 18.4845528,10.6731707 C18.497561,10.4715447 18.4260163,10.4 18.2243902,10.4195122 C17.7300813,10.4650407 17.2292683,10.4715447 16.7349593,10.5365854 C15.8699187,10.6471545 15.0243902,10.8617886 14.3219512,11.4081301 C13.300813,12.2081301 13.0861789,13.300813 13.2552846,14.5300813 C13.4569106,15.9739837 14.7447154,16.7739837 16.1235772,16.2926829 C17.0601626,15.9674797 17.6325203,15.2780488 18.0292683,14.4130081 C18.4455285,13.5349593 18.4780488,12.5918699 18.4780488,11.6487805 Z" id="Shape" fill="#FFFFFF"></path>
                    <path d="M16.0715447,26.3284553 C11.1089431,26.295935 6.65365854,25.0211382 2.62764228,22.3349593 C1.80813008,21.7886179 1.02764228,21.1902439 0.286178862,20.5333333 C0.221138211,20.4747967 0.156097561,20.4162602 0.104065041,20.3447154 C0.0325203252,20.2471545 -0.0195121951,20.1300813 0.0650406504,20.0130081 C0.149593496,19.8829268 0.292682927,19.8699187 0.416260163,19.9284553 C0.702439024,20.0650407 0.975609756,20.2146341 1.25528455,20.3577236 C3.81788618,21.7105691 6.51707317,22.6861789 9.34634146,23.304065 C11.9089431,23.8634146 14.497561,24.1235772 17.1252033,24.0520325 C20.8780488,23.9479675 24.4943089,23.1934959 27.9739837,21.795122 C28.1430894,21.7235772 28.3186992,21.6520325 28.4943089,21.6130081 C28.7414634,21.5674797 28.9886179,21.6 29.099187,21.8666667 C29.203252,22.1138211 29.0666667,22.3089431 28.8845528,22.4650407 C28.7544715,22.5756098 28.604878,22.6666667 28.4552846,22.7642276 C26.2113821,24.2211382 23.7528455,25.1577236 21.1512195,25.7365854 C19.4341463,26.1268293 17.6910569,26.3154472 16.0715447,26.3284553 Z" id="Path" fill="#F6A61F"></path>
                    <path d="M28.5918699,20.5333333 C27.8439024,20.5268293 27.102439,20.6243902 26.3609756,20.702439 C26.2178862,20.7154472 26.0552846,20.7544715 25.9902439,20.598374 C25.9121951,20.4227642 26.0617886,20.3186992 26.1853659,20.2341463 C27.1089431,19.6227642 28.1430894,19.3821138 29.2292683,19.3235772 C29.9772358,19.2780488 30.7186992,19.3105691 31.4471545,19.5317073 C31.7788618,19.6292683 31.9414634,19.8243902 31.9349593,20.1626016 C31.895935,21.9707317 31.2910569,23.5447154 29.9837398,24.8260163 C29.9382114,24.8715447 29.8861789,24.9105691 29.8341463,24.9495935 C29.7170732,25.0341463 29.5739837,25.1121951 29.4504065,25.0081301 C29.3333333,24.9105691 29.398374,24.7674797 29.4504065,24.6504065 C29.8341463,23.6943089 30.2243902,22.7447154 30.4130081,21.7235772 C30.4390244,21.5934959 30.4455285,21.4634146 30.4520325,21.3398374 C30.4585366,20.9170732 30.3089431,20.7349593 29.8926829,20.6308943 C29.4569106,20.5138211 29.0211382,20.5333333 28.5918699,20.5333333 Z" id="Path" fill="#F6A61F"></path>
                </g>
                <rect id="Rectangle" fill="#FFFFFF" x="140" y="32" width="360" height="24" rx="2"></rect>
                <path d="M468,32 L498,32 C499.104569,32 500,32.8954305 500,34 L500,54 C500,55.1045695 499.104569,56 498,56 L468,56 L468,32 Z" id="Rectangle-Copy-21" fill="#F6A61F"></path>
                <g id="search-regular" transform="translate(476.000000, 36.000000)" fill="#000000" fill-rule="nonzero">
                    <path d="M15.8596491,14.6245614 L12.0732943,10.8382066 C12.0015595,10.7664717 11.9079922,10.7290448 11.8081871,10.7290448 L11.3964912,10.7290448 C12.3789474,9.59064327 12.9746589,8.10916179 12.9746589,6.48732943 C12.9746589,2.9037037 10.0709552,0 6.48732943,0 C2.9037037,0 0,2.9037037 0,6.48732943 C0,10.0709552 2.9037037,12.9746589 6.48732943,12.9746589 C8.10916179,12.9746589 9.59064327,12.3789474 10.7290448,11.3964912 L10.7290448,11.8081871 C10.7290448,11.9079922 10.7695906,12.0015595 10.8382066,12.0732943 L14.6245614,15.8596491 C14.7711501,16.0062378 15.0081871,16.0062378 15.1547758,15.8596491 L15.8596491,15.1547758 C16.0062378,15.0081871 16.0062378,14.7711501 15.8596491,14.6245614 Z M6.48732943,11.4775828 C3.73021442,11.4775828 1.49707602,9.24444444 1.49707602,6.48732943 C1.49707602,3.73021442 3.73021442,1.49707602 6.48732943,1.49707602 C9.24444444,1.49707602 11.4775828,3.73021442 11.4775828,6.48732943 C11.4775828,9.24444444 9.24444444,11.4775828 6.48732943,11.4775828 Z" id="Shape"></path>
                </g>
                <path d="M153.011719,45.7207031 C153.011719,46.4746131 152.738284,47.0624979 152.191406,47.484375 C151.644529,47.9062521 150.902348,48.1171875 149.964844,48.1171875 C148.949214,48.1171875 148.167971,47.9863294 147.621094,47.7246094 L147.621094,46.7636719 C147.972658,46.9121101 148.355467,47.0292964 148.769531,47.1152344 C149.183596,47.2011723 149.593748,47.2441406 150,47.2441406 C150.664066,47.2441406 151.164061,47.1181653 151.5,46.8662109 C151.835939,46.6142566 152.003906,46.2636741 152.003906,45.8144531 C152.003906,45.5175766 151.944337,45.274415 151.825195,45.0849609 C151.706054,44.8955069 151.506837,44.7207039 151.227539,44.5605469 C151.02804,44.446149 150.754306,44.320791 150.406331,44.184471 L149.953125,44.015625 C149.156246,43.7304673 148.586916,43.3925801 148.245117,43.0019531 C147.903319,42.6113262 147.732422,42.1015656 147.732422,41.4726562 C147.732422,40.8124967 147.980466,40.2871113 148.476562,39.8964844 C148.972659,39.5058574 149.628902,39.3105469 150.445312,39.3105469 C151.296879,39.3105469 152.080075,39.4667953 152.794922,39.7792969 L152.484375,40.6464844 C151.77734,40.3496079 151.089847,40.2011719 150.421875,40.2011719 C149.894529,40.2011719 149.482423,40.314452 149.185547,40.5410156 C148.88867,40.7675793 148.740234,41.0820292 148.740234,41.484375 C148.740234,41.7812515 148.794921,42.0244131 148.904297,42.2138672 C149.013672,42.4033213 149.198241,42.5771476 149.458008,42.7353516 C149.680665,42.8709549 150.004483,43.0187535 150.429467,43.1787505 L150.650391,43.2597656 C151.548833,43.5800797 152.16699,43.9238263 152.504883,44.2910156 C152.842775,44.658205 153.011719,45.1347627 153.011719,45.7207031 Z M157.330078,48.1171875 C156.380855,48.1171875 155.631839,47.8281279 155.083008,47.25 C154.534177,46.6718721 154.259766,45.8691458 154.259766,44.8417969 C154.259766,43.8066354 154.514646,42.984378 155.024414,42.375 C155.534182,41.765622 156.218746,41.4609375 157.078125,41.4609375 C157.882817,41.4609375 158.519529,41.7255833 158.988281,42.2548828 C159.457034,42.7841823 159.691406,43.4824175 159.691406,44.3496094 L159.691406,44.9648438 L155.267578,44.9648438 C155.287109,45.7187538 155.477537,46.2910137 155.838867,46.6816406 C156.200197,47.0722676 156.708981,47.2675781 157.365234,47.2675781 C158.056644,47.2675781 158.740231,47.1230483 159.416016,46.8339844 L159.416016,47.7011719 C159.072264,47.8496101 158.747072,47.9560544 158.44043,48.0205078 C158.133788,48.0849613 157.763674,48.1171875 157.330078,48.1171875 Z M157.066406,42.2753906 C156.550779,42.2753906 156.13965,42.4433577 155.833008,42.7792969 C155.526366,43.1152361 155.345703,43.5800752 155.291016,44.1738281 L158.648438,44.1738281 C158.648438,43.5605438 158.51172,43.0908219 158.238281,42.7646484 C157.964842,42.4384749 157.574221,42.2753906 157.066406,42.2753906 Z M165.298828,48 L165.105469,47.0859375 L165.058594,47.0859375 C164.73828,47.4882833 164.418947,47.7607415 164.100586,47.9033203 C163.782225,48.0458992 163.384768,48.1171875 162.908203,48.1171875 C162.271481,48.1171875 161.772463,47.9531266 161.411133,47.625 C161.049803,47.2968734 160.869141,46.8300812 160.869141,46.2246094 C160.869141,44.9277279 161.90624,44.2480472 163.980469,44.1855469 L165.070312,44.1503906 L165.070312,43.7519531 C165.070312,43.2480444 164.961915,42.8759778 164.745117,42.6357422 C164.528319,42.3955066 164.181643,42.2753906 163.705078,42.2753906 C163.169919,42.2753906 162.564457,42.4394515 161.888672,42.7675781 L161.589844,42.0234375 C161.906252,41.8515616 162.252928,41.7167974 162.629883,41.6191406 C163.006838,41.5214839 163.384764,41.4726562 163.763672,41.4726562 C164.529301,41.4726562 165.096678,41.6425764 165.46582,41.9824219 C165.834963,42.3222673 166.019531,42.8671837 166.019531,43.6171875 L166.019531,48 L165.298828,48 Z M163.101562,47.3144531 C163.707034,47.3144531 164.182615,47.1484392 164.52832,46.8164062 C164.874025,46.4843733 165.046875,46.0195342 165.046875,45.421875 L165.046875,44.8417969 L164.074219,44.8828125 C163.300777,44.9101564 162.743166,45.0302724 162.401367,45.2431641 C162.059569,45.4560558 161.888672,45.7871071 161.888672,46.2363281 C161.888672,46.5878924 161.995116,46.8554678 162.208008,47.0390625 C162.4209,47.2226572 162.718748,47.3144531 163.101562,47.3144531 Z M170.953125,41.4609375 C171.238283,41.4609375 171.494139,41.4843748 171.720703,41.53125 L171.585938,42.4335938 C171.320311,42.3749997 171.085939,42.3457031 170.882812,42.3457031 C170.363279,42.3457031 169.918947,42.5566385 169.549805,42.9785156 C169.180662,43.4003927 168.996094,43.9257781 168.996094,44.5546875 L168.996094,48 L168.023438,48 L168.023438,41.578125 L168.826172,41.578125 L168.9375,42.7675781 L168.984375,42.7675781 C169.222657,42.3496073 169.509764,42.0273449 169.845703,41.8007812 C170.181642,41.5742176 170.550779,41.4609375 170.953125,41.4609375 Z M175.248047,48.1171875 C174.318355,48.1171875 173.598635,47.8310575 173.088867,47.2587891 C172.579099,46.6865206 172.324219,45.8769584 172.324219,44.8300781 C172.324219,43.755854 172.583005,42.9257842 173.100586,42.3398438 C173.618167,41.7539033 174.355464,41.4609375 175.3125,41.4609375 C175.621095,41.4609375 175.929686,41.4941403 176.238281,41.5605469 C176.546877,41.6269535 176.789062,41.7050777 176.964844,41.7949219 L176.666016,42.6210938 C176.451171,42.5351558 176.216798,42.4638675 175.962891,42.4072266 C175.708983,42.3505857 175.484376,42.3222656 175.289062,42.3222656 C173.984368,42.3222656 173.332031,43.1542886 173.332031,44.8183594 C173.332031,45.6074258 173.491209,46.2128885 173.80957,46.6347656 C174.127931,47.0566427 174.599606,47.2675781 175.224609,47.2675781 C175.759768,47.2675781 176.308591,47.1523449 176.871094,46.921875 L176.871094,47.7832031 C176.441404,48.0058605 175.900394,48.1171875 175.248047,48.1171875 Z M182.789062,48 L182.789062,43.8457031 C182.789062,43.322263 182.669923,42.9316419 182.431641,42.6738281 C182.193358,42.4160143 181.820315,42.2871094 181.3125,42.2871094 C180.636715,42.2871094 180.143556,42.4707013 179.833008,42.8378906 C179.522459,43.20508 179.367188,43.8066364 179.367188,44.6425781 L179.367188,48 L178.394531,48 L178.394531,38.8828125 L179.367188,38.8828125 L179.367188,41.6425781 C179.367188,41.974611 179.351563,42.2499989 179.320312,42.46875 L179.378906,42.46875 C179.570313,42.1601547 179.842772,41.9169931 180.196289,41.7392578 C180.549806,41.5615225 180.953123,41.4726562 181.40625,41.4726562 C182.19141,41.4726562 182.780271,41.6591778 183.172852,42.0322266 C183.565432,42.4052753 183.761719,42.9980428 183.761719,43.8105469 L183.761719,48 L182.789062,48 Z" id="Search" fill="#9E9E9E" fill-rule="nonzero"></path>
                <circle id="Oval" fill="#FB544B" cx="94" cy="9" r="4"></circle>
                <circle id="Oval-Copy" fill="#FAB521" cx="106" cy="9" r="4"></circle>
                <circle id="Oval-Copy-2" fill="#27CA41" cx="118" cy="9" r="4"></circle>
            </g>
        </g>
    </g>
</svg>