<?xml version="1.0" encoding="UTF-8"?>
<svg width="526px" height="364px" viewBox="0 0 526 364" version="1.1" xmlns="http://www.w3.org/2000/svg" xmlns:xlink="http://www.w3.org/1999/xlink">
    <!-- Generator: Sketch 51.3 (57544) - http://www.bohemiancoding.com/sketch -->
    <title>extension</title>
    <desc>Created with Sketch.</desc>
    <defs></defs>
    <g id="Page-1" stroke="none" stroke-width="1" fill="none" fill-rule="evenodd">
        <g id="Xray">
            <g id="Table">
                <rect id="Rectangle" fill="#FFFFFF" x="102" y="48" width="398" height="240" rx="4"></rect>
                <rect id="Rectangle" fill="#DBE2E8" x="124" y="113" width="88" height="6" rx="2"></rect>
                <rect id="Rectangle-Copy-48" fill="#DBE2E8" x="268" y="113" width="48" height="6" rx="2"></rect>
                <rect id="Rectangle-Copy-49" fill="#DBE2E8" x="268" y="129" width="48" height="6" rx="2"></rect>
                <rect id="Rectangle-Copy-50" fill="#DBE2E8" x="268" y="145" width="48" height="6" rx="2"></rect>
                <rect id="Rectangle-Copy-51" fill="#DBE2E8" x="268" y="161" width="48" height="6" rx="2"></rect>
                <rect id="Rectangle-Copy-52" fill="#DBE2E8" x="268" y="177" width="48" height="6" rx="2"></rect>
                <rect id="Rectangle-Copy-53" fill="#DBE2E8" x="268" y="193" width="48" height="6" rx="2"></rect>
                <rect id="Rectangle-Copy-54" fill="#DBE2E8" x="268" y="209" width="48" height="6" rx="2"></rect>
                <rect id="Rectangle-Copy-55" fill="#DBE2E8" x="268" y="225" width="48" height="6" rx="2"></rect>
                <rect id="Rectangle-Copy-56" fill="#DBE2E8" x="268" y="241" width="48" height="6" rx="2"></rect>
                <rect id="Rectangle-Copy-57" fill="#DBE2E8" x="268" y="257" width="48" height="6" rx="2"></rect>
                <rect id="Rectangle-Copy-67" fill="#DBE2E8" x="332" y="113" width="48" height="6" rx="2"></rect>
                <rect id="Rectangle-Copy-66" fill="#DBE2E8" x="332" y="129" width="48" height="6" rx="2"></rect>
                <rect id="Rectangle-Copy-65" fill="#DBE2E8" x="332" y="145" width="48" height="6" rx="2"></rect>
                <rect id="Rectangle-Copy-64" fill="#DBE2E8" x="332" y="161" width="48" height="6" rx="2"></rect>
                <rect id="Rectangle-Copy-63" fill="#DBE2E8" x="332" y="177" width="48" height="6" rx="2"></rect>
                <rect id="Rectangle-Copy-62" fill="#DBE2E8" x="332" y="193" width="48" height="6" rx="2"></rect>
                <rect id="Rectangle-Copy-61" fill="#DBE2E8" x="332" y="209" width="48" height="6" rx="2"></rect>
                <rect id="Rectangle-Copy-60" fill="#DBE2E8" x="332" y="225" width="48" height="6" rx="2"></rect>
                <rect id="Rectangle-Copy-59" fill="#DBE2E8" x="332" y="241" width="48" height="6" rx="2"></rect>
                <rect id="Rectangle-Copy-58" fill="#DBE2E8" x="332" y="257" width="48" height="6" rx="2"></rect>
                <rect id="Rectangle-Copy-77" fill="#DBE2E8" x="396" y="113" width="24" height="6" rx="2"></rect>
                <rect id="Rectangle-Copy-76" fill="#DBE2E8" x="396" y="129" width="24" height="6" rx="2"></rect>
                <rect id="Rectangle-Copy-75" fill="#DBE2E8" x="396" y="145" width="24" height="6" rx="2"></rect>
                <rect id="Rectangle-Copy-74" fill="#DBE2E8" x="396" y="161" width="24" height="6" rx="2"></rect>
                <rect id="Rectangle-Copy-73" fill="#DBE2E8" x="396" y="177" width="24" height="6" rx="2"></rect>
                <rect id="Rectangle-Copy-72" fill="#DBE2E8" x="396" y="193" width="24" height="6" rx="2"></rect>
                <rect id="Rectangle-Copy-71" fill="#DBE2E8" x="396" y="209" width="24" height="6" rx="2"></rect>
                <rect id="Rectangle-Copy-70" fill="#DBE2E8" x="396" y="225" width="24" height="6" rx="2"></rect>
                <rect id="Rectangle-Copy-69" fill="#DBE2E8" x="396" y="241" width="24" height="6" rx="2"></rect>
                <rect id="Rectangle-Copy-68" fill="#DBE2E8" x="396" y="257" width="24" height="6" rx="2"></rect>
                <rect id="Rectangle-Copy-87" fill="#DBE2E8" x="436" y="113" width="40" height="6" rx="2"></rect>
                <rect id="Rectangle-Copy-86" fill="#DBE2E8" x="436" y="129" width="40" height="6" rx="2"></rect>
                <rect id="Rectangle-Copy-85" fill="#DBE2E8" x="436" y="145" width="40" height="6" rx="2"></rect>
                <rect id="Rectangle-Copy-84" fill="#DBE2E8" x="436" y="161" width="40" height="6" rx="2"></rect>
                <rect id="Rectangle-Copy-83" fill="#DBE2E8" x="436" y="177" width="40" height="6" rx="2"></rect>
                <rect id="Rectangle-Copy-82" fill="#DBE2E8" x="436" y="193" width="40" height="6" rx="2"></rect>
                <rect id="Rectangle-Copy-81" fill="#DBE2E8" x="436" y="209" width="40" height="6" rx="2"></rect>
                <rect id="Rectangle-Copy-80" fill="#DBE2E8" x="436" y="225" width="40" height="6" rx="2"></rect>
                <rect id="Rectangle-Copy-79" fill="#DBE2E8" x="436" y="241" width="40" height="6" rx="2"></rect>
                <rect id="Rectangle-Copy-78" fill="#DBE2E8" x="436" y="257" width="40" height="6" rx="2"></rect>
                <rect id="Rectangle-Copy-39" fill="#DBE2E8" x="124" y="129" width="104" height="6" rx="2"></rect>
                <rect id="Rectangle-Copy-40" fill="#DBE2E8" x="124" y="145" width="80" height="6" rx="2"></rect>
                <rect id="Rectangle-Copy-41" fill="#DBE2E8" x="124" y="161" width="96" height="6" rx="2"></rect>
                <rect id="Rectangle-Copy-42" fill="#DBE2E8" x="124" y="177" width="88" height="6" rx="2"></rect>
                <rect id="Rectangle-Copy-43" fill="#DBE2E8" x="124" y="193" width="120" height="6" rx="2"></rect>
                <rect id="Rectangle-Copy-44" fill="#DBE2E8" x="124" y="209" width="73" height="6" rx="2"></rect>
                <rect id="Rectangle-Copy-45" fill="#DBE2E8" x="124" y="225" width="97" height="6" rx="2"></rect>
                <rect id="Rectangle-Copy-46" fill="#DBE2E8" x="124" y="241" width="57" height="6" rx="2"></rect>
                <rect id="Rectangle-Copy-47" fill="#DBE2E8" x="124" y="257" width="88" height="6" rx="2"></rect>
                <circle id="Oval" stroke-opacity="0.24" stroke="#4CAF50" stroke-width="2" cx="464" cy="76" r="11"></circle>
                <g id="Oval-Copy-5" transform="translate(452.000000, 64.000000)">
                    <polygon id="Mask" points="12 0 12 8 0 16 0 24 24 24 24 0"></polygon>
                    <circle stroke="#4CAF50" stroke-width="2" cx="12" cy="12" r="11"></circle>
                </g>
                <path d="M465.728,75.836 C466.1,75.992 466.388,76.232 466.568,76.484 C466.868,76.88 466.928,77.324 466.928,77.684 C466.928,78.5 466.616,79.052 466.292,79.388 C465.92,79.784 465.32,80.132 464.408,80.132 C463.496,80.132 462.896,79.784 462.524,79.388 C462.2,79.052 461.888,78.5 461.888,77.684 C461.888,77.324 461.948,76.88 462.248,76.484 C462.428,76.232 462.716,75.992 463.088,75.836 C462.752,75.692 462.524,75.452 462.38,75.236 C462.176,74.912 462.092,74.504 462.092,74.144 C462.092,73.508 462.32,72.908 462.764,72.476 C463.016,72.236 463.532,71.864 464.408,71.864 C465.284,71.864 465.8,72.236 466.052,72.476 C466.496,72.908 466.724,73.508 466.724,74.144 C466.724,74.504 466.64,74.912 466.436,75.236 C466.292,75.452 466.064,75.692 465.728,75.836 Z M464.408,72.944 C464.036,72.944 463.736,73.076 463.532,73.268 C463.328,73.472 463.196,73.796 463.196,74.156 C463.196,74.528 463.34,74.816 463.52,74.996 C463.736,75.224 464.096,75.356 464.408,75.356 C464.72,75.356 465.08,75.224 465.296,74.996 C465.476,74.816 465.62,74.528 465.62,74.156 C465.62,73.796 465.488,73.472 465.284,73.268 C465.08,73.076 464.78,72.944 464.408,72.944 Z M464.408,76.364 C464.06,76.364 463.7,76.496 463.46,76.736 C463.22,76.976 463.088,77.36 463.088,77.708 C463.088,78.02 463.208,78.38 463.448,78.644 C463.616,78.836 463.916,79.052 464.408,79.052 C464.9,79.052 465.2,78.836 465.368,78.644 C465.608,78.38 465.728,78.02 465.728,77.708 C465.728,77.36 465.596,76.976 465.356,76.736 C465.116,76.496 464.756,76.364 464.408,76.364 Z" id="8" fill="#000000" fill-rule="nonzero"></path>
                <circle id="Oval-Copy-3" stroke-opacity="0.24" stroke="#FF9800" stroke-width="2" cx="432" cy="76" r="11"></circle>
                <g id="Oval-Copy-4" transform="translate(432.000000, 64.000000)">
                    <polygon id="Mask" points="0 0 0 9.37628485 12 24 12 0"></polygon>
                    <circle stroke="#FF9800" stroke-width="2" cx="0" cy="12" r="11"></circle>
                </g>
                <path d="M430.992,74.036 L429.816,74.036 C429.852,73.388 430.128,72.836 430.5,72.476 C431.052,71.948 431.724,71.864 432.252,71.864 C432.864,71.864 433.464,71.984 433.98,72.524 C434.4,72.956 434.556,73.472 434.556,74.048 C434.556,74.432 434.484,74.768 434.28,75.104 C434.064,75.452 433.788,75.656 433.56,75.776 C433.968,75.932 434.22,76.208 434.352,76.412 C434.58,76.748 434.688,77.192 434.688,77.648 C434.688,78.44 434.388,79.052 434.004,79.436 C433.428,80.012 432.672,80.132 432.048,80.132 C431.436,80.132 430.776,80.012 430.26,79.46 C429.9,79.076 429.636,78.44 429.576,77.828 L430.752,77.828 C430.812,78.188 430.98,78.5 431.184,78.692 C431.352,78.848 431.652,79.052 432.156,79.052 C432.528,79.052 432.876,78.908 433.092,78.716 C433.32,78.5 433.512,78.128 433.512,77.588 C433.512,77.324 433.464,76.94 433.152,76.64 C432.842667,76.3413333 432.466963,76.2891852 432.210305,76.281284 L431.88,76.28 L431.88,75.248 L432.048,75.248 C432.564,75.248 432.888,75.08 433.068,74.9 C433.26,74.708 433.38,74.408 433.38,74.048 C433.38,73.628 433.2,73.376 433.068,73.244 C432.792,72.98 432.456,72.944 432.216,72.944 C431.928,72.944 431.592,72.992 431.328,73.268 C431.052,73.556 430.992,73.988 430.992,74.036 Z" id="3" fill="#000000" fill-rule="nonzero"></path>
                <g id="times-light" transform="translate(485.000000, 56.000000)" fill="#9E9E9E" fill-rule="nonzero">
                    <path d="M4.84865152,4.000125 L7.41273165,1.43604488 L7.94149817,0.907278352 C8.01950061,0.829275915 8.01950061,0.702521954 7.94149817,0.624519516 L7.37573049,0.058751836 C7.29772805,-0.0192506016 7.17097409,-0.0192506016 7.09297166,0.058751836 L4.000125,3.15159849 L0.907278352,0.0585018282 C0.829275915,-0.0195006094 0.702521954,-0.0195006094 0.624519516,0.0585018282 L0.0585018282,0.624269508 C-0.0195006094,0.702271946 -0.0195006094,0.829025907 0.0585018282,0.907028345 L3.15159849,4.000125 L0.0585018282,7.09297166 C-0.0195006094,7.17097409 -0.0195006094,7.29772805 0.0585018282,7.37573049 L0.624269508,7.94149817 C0.702271946,8.01950061 0.829025907,8.01950061 0.907028345,7.94149817 L4.000125,4.84865152 L6.56420513,7.41273165 L7.09297166,7.94149817 C7.17097409,8.01950061 7.29772805,8.01950061 7.37573049,7.94149817 L7.94149817,7.37573049 C8.01950061,7.29772805 8.01950061,7.17097409 7.94149817,7.09297166 L4.84865152,4.000125 Z" id="Path"></path>
                </g>
                <path d="M102,96 L500,96" id="Line-6" stroke="#DBE2E8" stroke-linecap="square"></path>
                <path d="M127.472,77.29 L127.472,78.69 C126.758,78.844 126.282,79.222 125.988,79.544 C125.54,80.048 125.358,80.636 125.358,81.252 C125.358,81.994 125.568,82.442 126.016,82.862 C126.4528,83.2764 127.1136,83.61016 127.575488,83.813104 L127.878,83.94 C128.074,84.024 128.732,84.318 128.886,84.486 C129.04,84.654 129.208,84.906 129.208,85.256 C129.208,85.564 129.096,85.886 128.858,86.124 C128.55,86.418 128.158,86.488 127.794,86.488 C127.29,86.488 126.884,86.362 126.52,86.096 C126.212,85.886 125.904,85.522 125.722,85.256 L124.672,86.334 C124.994,86.81 125.358,87.132 125.694,87.356 C126.086,87.622 126.688,87.916 127.472,88 L127.472,89.54 L128.62,89.54 L128.62,87.972 C129.194,87.86 129.768,87.58 130.188,87.16 C130.65,86.712 131.028,85.97 131.028,85.074 C131.028,84.402 130.818,83.814 130.314,83.338 C130.0165,83.04925 129.647906,82.848 129.276578,82.6761445 L128.62,82.386 C127.864,82.05 127.64,81.938 127.472,81.812 C127.22,81.63 127.108,81.434 127.108,81.154 C127.108,80.93 127.178,80.692 127.374,80.496 C127.654,80.202 128.032,80.16 128.326,80.16 L128.451465,80.1650276 C128.76224,80.1896178 129.310667,80.3214667 129.796,80.916 L130.72,79.74 C130.468,79.46 130.16,79.222 129.768,79.012 C129.404,78.83 129.04,78.718 128.62,78.69 L128.62,77.29 L127.472,77.29 Z M132.988,87.594 L134.528,88.28 L140.142,78.662 L132.946,78.662 L132.946,80.23 L137.286,80.23 L132.988,87.594 Z M142.676,88 L144.496,88 L144.496,78.662 L141.332,78.662 L141.332,80.23 L142.676,80.23 L142.676,88 Z M147.646,87.09 C147.646,87.706 148.122,88.182 148.738,88.182 C149.354,88.182 149.83,87.706 149.83,87.09 C149.83,86.474 149.354,85.998 148.738,85.998 C148.122,85.998 147.646,86.474 147.646,87.09 Z M154.828,88.21 C156.69,88.21 158.44,86.544 158.44,83.338 C158.44,80.118 156.69,78.452 154.828,78.452 C152.966,78.452 151.216,80.118 151.216,83.324 C151.216,86.544 152.966,88.21 154.828,88.21 Z M154.828,80.02 C155.612,80.02 156.62,80.902 156.62,83.324 C156.62,85.76 155.626,86.642 154.828,86.642 C154.03,86.642 153.036,85.76 153.036,83.324 C153.036,80.902 154.044,80.02 154.828,80.02 Z M165.762,78.662 L161.45,78.662 L160.344,83.562 C161.044,83.142 161.702,82.96 162.36,82.96 C162.808,82.96 163.34,83.016 163.816,83.436 C164.208,83.786 164.362,84.192 164.362,84.724 C164.362,85.326 164.138,85.802 163.872,86.082 C163.648,86.32 163.214,86.642 162.444,86.642 C161.996,86.642 161.548,86.544 161.086,86.292 C160.666,86.068 160.372,85.788 160.12,85.452 L159.518,87.02 C159.854,87.342 160.274,87.636 160.652,87.818 C161.366,88.168 162.164,88.21 162.668,88.21 C163.662,88.21 164.488,88 165.23,87.258 C165.874,86.614 166.182,85.83 166.182,84.822 L166.176159,84.5798477 C166.147902,84.0185867 165.999067,83.2372 165.356,82.582 C164.824,82.036 163.942,81.644 162.948,81.644 C162.71,81.644 162.5,81.672 162.318,81.7 L162.654,80.23 L165.762,80.23 L165.762,78.662 Z M173.266,79.124 L171.796,78.41 L169.052,82.078 C168.394,82.946 167.876,83.856 167.876,84.99 C167.876,86.04 168.282,86.754 168.786,87.258 C169.556,88.028 170.452,88.21 171.446,88.21 C172.398,88.21 173.308,88.014 174.106,87.146 C174.736,86.46 174.96,85.676 174.96,84.892 C174.96,83.912 174.568,83.114 174.078,82.652 C173.532,82.12 172.706,81.854 172.02,81.854 C171.614,81.854 171.278,81.952 170.998,82.078 L173.266,79.124 Z M171.418,86.754 C170.858,86.754 170.452,86.516 170.214,86.292 C169.864,85.97 169.696,85.55 169.696,85.032 C169.696,84.514 169.864,84.164 170.2,83.814 C170.508,83.492 170.872,83.31 171.418,83.31 C171.88,83.31 172.272,83.422 172.622,83.758 C172.944,84.066 173.14,84.486 173.14,85.046 C173.14,85.662 172.86,86.054 172.636,86.278 C172.398,86.516 172.006,86.754 171.418,86.754 Z" id="$71.056" fill="#256FF6" fill-rule="nonzero"></path>
                <rect id="Rectangle-Copy-20" fill="#DBE2E8" x="124" y="66" width="32" height="4" rx="2"></rect>
                <path d="M199.472,77.29 L199.472,78.69 C198.758,78.844 198.282,79.222 197.988,79.544 C197.54,80.048 197.358,80.636 197.358,81.252 C197.358,81.994 197.568,82.442 198.016,82.862 C198.4528,83.2764 199.1136,83.61016 199.575488,83.813104 L199.878,83.94 C200.074,84.024 200.732,84.318 200.886,84.486 C201.04,84.654 201.208,84.906 201.208,85.256 C201.208,85.564 201.096,85.886 200.858,86.124 C200.55,86.418 200.158,86.488 199.794,86.488 C199.29,86.488 198.884,86.362 198.52,86.096 C198.212,85.886 197.904,85.522 197.722,85.256 L196.672,86.334 C196.994,86.81 197.358,87.132 197.694,87.356 C198.086,87.622 198.688,87.916 199.472,88 L199.472,89.54 L200.62,89.54 L200.62,87.972 C201.194,87.86 201.768,87.58 202.188,87.16 C202.65,86.712 203.028,85.97 203.028,85.074 C203.028,84.402 202.818,83.814 202.314,83.338 C202.0165,83.04925 201.647906,82.848 201.276578,82.6761445 L200.62,82.386 C199.864,82.05 199.64,81.938 199.472,81.812 C199.22,81.63 199.108,81.434 199.108,81.154 C199.108,80.93 199.178,80.692 199.374,80.496 C199.654,80.202 200.032,80.16 200.326,80.16 L200.451465,80.1650276 C200.76224,80.1896178 201.310667,80.3214667 201.796,80.916 L202.72,79.74 C202.468,79.46 202.16,79.222 201.768,79.012 C201.404,78.83 201.04,78.718 200.62,78.69 L200.62,77.29 L199.472,77.29 Z M204.554,88 L211.33,88 L211.33,86.432 L207.956,86.432 L209.830863,84.3945797 C210.507924,83.6486159 211.26,82.6923529 211.26,81.42 C211.26,79.936 210.14,78.452 207.97,78.452 C206.122,78.452 204.778,79.67 204.694,81.574 L206.57,81.574 C206.598,80.776 207.102,80.02 208.054,80.02 C208.838,80.02 209.44,80.594 209.44,81.434 C209.44,81.98 209.146,82.554 208.894,82.932 L208.735844,83.1522813 C208.299438,83.7310938 207.445,84.7065 207.298,84.878 L204.554,88 Z M216.58,88.21 C218.442,88.21 220.192,86.544 220.192,83.338 C220.192,80.118 218.442,78.452 216.58,78.452 C214.718,78.452 212.968,80.118 212.968,83.324 C212.968,86.544 214.718,88.21 216.58,88.21 Z M216.58,80.02 C217.364,80.02 218.372,80.902 218.372,83.324 C218.372,85.76 217.378,86.642 216.58,86.642 C215.782,86.642 214.788,85.76 214.788,83.324 C214.788,80.902 215.796,80.02 216.58,80.02 Z M221.578,87.09 C221.578,87.706 222.054,88.182 222.67,88.182 C223.286,88.182 223.762,87.706 223.762,87.09 C223.762,86.474 223.286,85.998 222.67,85.998 C222.054,85.998 221.578,86.474 221.578,87.09 Z M231.364,78.662 L229.726,78.662 L225.092,85.424 L225.092,86.236 L229.656,86.236 L229.656,88 L231.364,88 L231.364,86.236 L232.456,86.236 L232.456,84.78 L231.364,84.78 L231.364,78.662 Z M227.248,84.78 L229.656,81.224 L229.656,84.78 L227.248,84.78 Z M235.83,81.098 C235.872,80.3 236.474,79.88 237.118,79.88 C237.86,79.88 238.35,80.37 238.35,81.112 C238.35,81.756 237.972,82.386 237.076,82.386 L236.824,82.386 L236.824,83.702 L237.062,83.702 C238.196,83.702 238.616,84.472 238.616,85.158 C238.616,85.872 238.168,86.642 237.118,86.642 C236.222,86.642 235.676,86.082 235.564,85.312 L233.744,85.312 C233.898,87.104 235.312,88.21 237.104,88.21 C238.952,88.21 240.436,87.132 240.436,85.214 C240.436,83.674 239.386,83.142 239.008,82.988 C239.988,82.442 240.086,81.518 240.086,81.028 C240.086,79.46 238.952,78.452 237.16,78.452 C235.564,78.452 234.29,79.404 234.122,81.098 L235.83,81.098 Z M241.64,88 L244.384,84.878 L245.245574,83.8695078 C245.541297,83.5150234 245.833,83.1525 245.98,82.932 C246.232,82.554 246.526,81.98 246.526,81.434 C246.526,80.594 245.924,80.02 245.14,80.02 C244.188,80.02 243.684,80.776 243.656,81.574 L241.78,81.574 C241.864,79.67 243.208,78.452 245.056,78.452 C247.226,78.452 248.346,79.936 248.346,81.42 C248.346,82.862 247.38,83.898 246.652,84.682 L245.042,86.432 L248.416,86.432 L248.416,88 L241.64,88 Z" id="$20.432" fill="#2A7AF7" fill-rule="nonzero"></path>
                <rect id="Rectangle-Copy-36" fill="#DBE2E8" x="196" y="66" width="32" height="4" rx="2"></rect>
                <path d="M271.192,88 L273.012,88 L273.012,78.662 L269.848,78.662 L269.848,80.23 L271.192,80.23 L271.192,88 Z M276.918,88 L278.738,88 L278.738,78.662 L275.574,78.662 L275.574,80.23 L276.918,80.23 L276.918,88 Z M281.888,87.09 C281.888,87.706 282.364,88.182 282.98,88.182 C283.596,88.182 284.072,87.706 284.072,87.09 C284.072,86.474 283.596,85.998 282.98,85.998 C282.364,85.998 281.888,86.474 281.888,87.09 Z M290.904,79.124 L289.434,78.41 L286.69,82.078 C286.032,82.946 285.514,83.856 285.514,84.99 C285.514,86.04 285.92,86.754 286.424,87.258 C287.194,88.028 288.09,88.21 289.084,88.21 C290.036,88.21 290.946,88.014 291.744,87.146 C292.374,86.46 292.598,85.676 292.598,84.892 C292.598,83.912 292.206,83.114 291.716,82.652 C291.17,82.12 290.344,81.854 289.658,81.854 C289.252,81.854 288.916,81.952 288.636,82.078 L290.904,79.124 Z M289.056,86.754 C288.496,86.754 288.09,86.516 287.852,86.292 C287.502,85.97 287.334,85.55 287.334,85.032 C287.334,84.514 287.502,84.164 287.838,83.814 C288.146,83.492 288.51,83.31 289.056,83.31 C289.518,83.31 289.91,83.422 290.26,83.758 C290.582,84.066 290.778,84.486 290.778,85.046 C290.778,85.662 290.498,86.054 290.274,86.278 C290.036,86.516 289.644,86.754 289.056,86.754 Z M299.976,78.662 L298.338,78.662 L293.704,85.424 L293.704,86.236 L298.268,86.236 L298.268,88 L299.976,88 L299.976,86.236 L301.068,86.236 L301.068,84.78 L299.976,84.78 L299.976,78.662 Z M295.86,84.78 L298.268,81.224 L298.268,84.78 L295.86,84.78 Z M304.47,78.55 C303.014,78.55 302.118,79.488 302.118,80.762 C302.118,82.036 303.014,82.974 304.47,82.974 C305.926,82.974 306.822,82.036 306.822,80.762 C306.822,79.488 305.926,78.55 304.47,78.55 Z M304.47,81.966 C303.784,81.966 303.294,81.462 303.294,80.762 C303.294,80.062 303.784,79.558 304.47,79.558 C305.156,79.558 305.646,80.062 305.646,80.762 C305.646,81.462 305.156,81.966 304.47,81.966 Z M303.966,87.958 L304.708,88.392 L310.266,78.774 L309.524,78.354 L303.966,87.958 Z M309.762,83.716 C308.306,83.716 307.41,84.654 307.41,85.928 C307.41,87.202 308.306,88.14 309.762,88.14 C311.218,88.14 312.114,87.202 312.114,85.928 C312.114,84.654 311.218,83.716 309.762,83.716 Z M309.762,87.132 C309.076,87.132 308.586,86.628 308.586,85.928 C308.586,85.228 309.076,84.724 309.762,84.724 C310.448,84.724 310.938,85.228 310.938,85.928 C310.938,86.628 310.448,87.132 309.762,87.132 Z" id="11.64%" fill="#3085F8" fill-rule="nonzero"></path>
                <rect id="Rectangle-Copy-37" fill="#DBE2E8" x="268" y="66" width="40" height="4" rx="2"></rect>
                <path d="M334.422,81.098 C334.464,80.3 335.066,79.88 335.71,79.88 C336.452,79.88 336.942,80.37 336.942,81.112 C336.942,81.756 336.564,82.386 335.668,82.386 L335.416,82.386 L335.416,83.702 L335.654,83.702 C336.788,83.702 337.208,84.472 337.208,85.158 C337.208,85.872 336.76,86.642 335.71,86.642 C334.814,86.642 334.268,86.082 334.156,85.312 L332.336,85.312 C332.49,87.104 333.904,88.21 335.696,88.21 C337.544,88.21 339.028,87.132 339.028,85.214 C339.028,83.674 337.978,83.142 337.6,82.988 C338.58,82.442 338.678,81.518 338.678,81.028 C338.678,79.46 337.544,78.452 335.752,78.452 C334.156,78.452 332.882,79.404 332.714,81.098 L334.422,81.098 Z M340.974,87.09 C340.974,87.706 341.45,88.182 342.066,88.182 C342.682,88.182 343.158,87.706 343.158,87.09 C343.158,86.474 342.682,85.998 342.066,85.998 C341.45,85.998 340.974,86.474 340.974,87.09 Z M350.76,78.662 L349.122,78.662 L344.488,85.424 L344.488,86.236 L349.052,86.236 L349.052,88 L350.76,88 L350.76,86.236 L351.852,86.236 L351.852,84.78 L350.76,84.78 L350.76,78.662 Z M346.644,84.78 L349.052,81.224 L349.052,84.78 L346.644,84.78 Z M358.292,79.124 L356.822,78.41 L354.078,82.078 C353.42,82.946 352.902,83.856 352.902,84.99 C352.902,86.04 353.308,86.754 353.812,87.258 C354.582,88.028 355.478,88.21 356.472,88.21 C357.424,88.21 358.334,88.014 359.132,87.146 C359.762,86.46 359.986,85.676 359.986,84.892 C359.986,83.912 359.594,83.114 359.104,82.652 C358.558,82.12 357.732,81.854 357.046,81.854 C356.64,81.854 356.304,81.952 356.024,82.078 L358.292,79.124 Z M356.444,86.754 C355.884,86.754 355.478,86.516 355.24,86.292 C354.89,85.97 354.722,85.55 354.722,85.032 C354.722,84.514 354.89,84.164 355.226,83.814 C355.534,83.492 355.898,83.31 356.444,83.31 C356.906,83.31 357.298,83.422 357.648,83.758 C357.97,84.066 358.166,84.486 358.166,85.046 C358.166,85.662 357.886,86.054 357.662,86.278 C357.424,86.516 357.032,86.754 356.444,86.754 Z" id="3.46" fill="#3790F9" fill-rule="nonzero"></path>
                <rect id="Rectangle-Copy-38" fill="#DBE2E8" x="332" y="66" width="24" height="4" rx="2"></rect>
            </g>
        </g>
    </g>
</svg>