<?xml version="1.0" encoding="UTF-8"?>
<svg width="400px" height="240px" viewBox="0 0 400 240" version="1.1" xmlns="http://www.w3.org/2000/svg" xmlns:xlink="http://www.w3.org/1999/xlink">
    <!-- Generator: Sketch 56.3 (81716) - https://sketch.com -->
    <title>Table</title>
    <desc>Created with Sketch.</desc>
    <defs>
        <polygon id="path-1" points="12 0 12 8 0 16 0 24 24 24 24 0"></polygon>
        <polygon id="path-3" points="0 0 0 9.37628485 12 24 12 0"></polygon>
    </defs>
    <g id="Page-1" stroke="none" stroke-width="1" fill="none" fill-rule="evenodd">
        <g id="Homepage" transform="translate(-817.000000, -1664.000000)">
            <g id="Xray" transform="translate(240.000000, 1616.000000)">
                <g id="Table" transform="translate(578.000000, 48.000000)">
                    <rect id="Rectangle" fill="#FFFFFF" x="0" y="0" width="398" height="240" rx="4"></rect>
                    <rect id="Rectangle" fill="#DBE2E8" x="22" y="65" width="88" height="6" rx="2"></rect>
                    <rect id="Rectangle-Copy-48" fill="#DBE2E8" x="166" y="65" width="48" height="6" rx="2"></rect>
                    <rect id="Rectangle-Copy-49" fill="#DBE2E8" x="166" y="81" width="48" height="6" rx="2"></rect>
                    <rect id="Rectangle-Copy-50" fill="#DBE2E8" x="166" y="97" width="48" height="6" rx="2"></rect>
                    <rect id="Rectangle-Copy-51" fill="#DBE2E8" x="166" y="113" width="48" height="6" rx="2"></rect>
                    <rect id="Rectangle-Copy-52" fill="#DBE2E8" x="166" y="129" width="48" height="6" rx="2"></rect>
                    <rect id="Rectangle-Copy-53" fill="#DBE2E8" x="166" y="145" width="48" height="6" rx="2"></rect>
                    <rect id="Rectangle-Copy-54" fill="#DBE2E8" x="166" y="161" width="48" height="6" rx="2"></rect>
                    <rect id="Rectangle-Copy-55" fill="#DBE2E8" x="166" y="177" width="48" height="6" rx="2"></rect>
                    <rect id="Rectangle-Copy-56" fill="#DBE2E8" x="166" y="193" width="48" height="6" rx="2"></rect>
                    <rect id="Rectangle-Copy-57" fill="#DBE2E8" x="166" y="209" width="48" height="6" rx="2"></rect>
                    <rect id="Rectangle-Copy-67" fill="#DBE2E8" x="230" y="65" width="48" height="6" rx="2"></rect>
                    <rect id="Rectangle-Copy-66" fill="#DBE2E8" x="230" y="81" width="48" height="6" rx="2"></rect>
                    <rect id="Rectangle-Copy-65" fill="#DBE2E8" x="230" y="97" width="48" height="6" rx="2"></rect>
                    <rect id="Rectangle-Copy-64" fill="#DBE2E8" x="230" y="113" width="48" height="6" rx="2"></rect>
                    <rect id="Rectangle-Copy-63" fill="#DBE2E8" x="230" y="129" width="48" height="6" rx="2"></rect>
                    <rect id="Rectangle-Copy-62" fill="#DBE2E8" x="230" y="145" width="48" height="6" rx="2"></rect>
                    <rect id="Rectangle-Copy-61" fill="#DBE2E8" x="230" y="161" width="48" height="6" rx="2"></rect>
                    <rect id="Rectangle-Copy-60" fill="#DBE2E8" x="230" y="177" width="48" height="6" rx="2"></rect>
                    <rect id="Rectangle-Copy-59" fill="#DBE2E8" x="230" y="193" width="48" height="6" rx="2"></rect>
                    <rect id="Rectangle-Copy-58" fill="#DBE2E8" x="230" y="209" width="48" height="6" rx="2"></rect>
                    <rect id="Rectangle-Copy-77" fill="#DBE2E8" x="294" y="65" width="24" height="6" rx="2"></rect>
                    <rect id="Rectangle-Copy-76" fill="#DBE2E8" x="294" y="81" width="24" height="6" rx="2"></rect>
                    <rect id="Rectangle-Copy-75" fill="#DBE2E8" x="294" y="97" width="24" height="6" rx="2"></rect>
                    <rect id="Rectangle-Copy-74" fill="#DBE2E8" x="294" y="113" width="24" height="6" rx="2"></rect>
                    <rect id="Rectangle-Copy-73" fill="#DBE2E8" x="294" y="129" width="24" height="6" rx="2"></rect>
                    <rect id="Rectangle-Copy-72" fill="#DBE2E8" x="294" y="145" width="24" height="6" rx="2"></rect>
                    <rect id="Rectangle-Copy-71" fill="#DBE2E8" x="294" y="161" width="24" height="6" rx="2"></rect>
                    <rect id="Rectangle-Copy-70" fill="#DBE2E8" x="294" y="177" width="24" height="6" rx="2"></rect>
                    <rect id="Rectangle-Copy-69" fill="#DBE2E8" x="294" y="193" width="24" height="6" rx="2"></rect>
                    <rect id="Rectangle-Copy-68" fill="#DBE2E8" x="294" y="209" width="24" height="6" rx="2"></rect>
                    <rect id="Rectangle-Copy-87" fill="#DBE2E8" x="334" y="65" width="40" height="6" rx="2"></rect>
                    <rect id="Rectangle-Copy-86" fill="#DBE2E8" x="334" y="81" width="40" height="6" rx="2"></rect>
                    <rect id="Rectangle-Copy-85" fill="#DBE2E8" x="334" y="97" width="40" height="6" rx="2"></rect>
                    <rect id="Rectangle-Copy-84" fill="#DBE2E8" x="334" y="113" width="40" height="6" rx="2"></rect>
                    <rect id="Rectangle-Copy-83" fill="#DBE2E8" x="334" y="129" width="40" height="6" rx="2"></rect>
                    <rect id="Rectangle-Copy-82" fill="#DBE2E8" x="334" y="145" width="40" height="6" rx="2"></rect>
                    <rect id="Rectangle-Copy-81" fill="#DBE2E8" x="334" y="161" width="40" height="6" rx="2"></rect>
                    <rect id="Rectangle-Copy-80" fill="#DBE2E8" x="334" y="177" width="40" height="6" rx="2"></rect>
                    <rect id="Rectangle-Copy-79" fill="#DBE2E8" x="334" y="193" width="40" height="6" rx="2"></rect>
                    <rect id="Rectangle-Copy-78" fill="#DBE2E8" x="334" y="209" width="40" height="6" rx="2"></rect>
                    <rect id="Rectangle-Copy-39" fill="#DBE2E8" x="22" y="81" width="104" height="6" rx="2"></rect>
                    <rect id="Rectangle-Copy-40" fill="#DBE2E8" x="22" y="97" width="80" height="6" rx="2"></rect>
                    <rect id="Rectangle-Copy-41" fill="#DBE2E8" x="22" y="113" width="96" height="6" rx="2"></rect>
                    <rect id="Rectangle-Copy-42" fill="#DBE2E8" x="22" y="129" width="88" height="6" rx="2"></rect>
                    <rect id="Rectangle-Copy-43" fill="#DBE2E8" x="22" y="145" width="120" height="6" rx="2"></rect>
                    <rect id="Rectangle-Copy-44" fill="#DBE2E8" x="22" y="161" width="73" height="6" rx="2"></rect>
                    <rect id="Rectangle-Copy-45" fill="#DBE2E8" x="22" y="177" width="97" height="6" rx="2"></rect>
                    <rect id="Rectangle-Copy-46" fill="#DBE2E8" x="22" y="193" width="57" height="6" rx="2"></rect>
                    <rect id="Rectangle-Copy-47" fill="#DBE2E8" x="22" y="209" width="88" height="6" rx="2"></rect>
                    <circle id="Oval" stroke-opacity="0.24" stroke="#4CAF50" stroke-width="2" cx="362" cy="28" r="11"></circle>
                    <g id="Oval-Copy-5" transform="translate(350.000000, 16.000000)">
                        <mask id="mask-2" fill="white">
                            <use xlink:href="#path-1"></use>
                        </mask>
                        <g id="Mask"></g>
                        <circle stroke="#4CAF50" stroke-width="2" mask="url(#mask-2)" cx="12" cy="12" r="11"></circle>
                    </g>
                    <path d="M362.408,28.364 C362.06,28.364 361.7,28.496 361.46,28.736 C361.22,28.976 361.088,29.36 361.088,29.708 C361.088,30.02 361.208,30.38 361.448,30.644 C361.616,30.836 361.916,31.052 362.408,31.052 C362.9,31.052 363.2,30.836 363.368,30.644 C363.608,30.38 363.728,30.02 363.728,29.708 C363.728,29.36 363.596,28.976 363.356,28.736 C363.116,28.496 362.756,28.364 362.408,28.364 Z M362.408,24.944 C362.036,24.944 361.736,25.076 361.532,25.268 C361.328,25.472 361.196,25.796 361.196,26.156 C361.196,26.528 361.34,26.816 361.52,26.996 C361.736,27.224 362.096,27.356 362.408,27.356 C362.72,27.356 363.08,27.224 363.296,26.996 C363.476,26.816 363.62,26.528 363.62,26.156 C363.62,25.796 363.488,25.472 363.284,25.268 C363.08,25.076 362.78,24.944 362.408,24.944 Z M363.728,27.836 C364.1,27.992 364.388,28.232 364.568,28.484 C364.868,28.88 364.928,29.324 364.928,29.684 C364.928,30.5 364.616,31.052 364.292,31.388 C363.92,31.784 363.32,32.132 362.408,32.132 C361.496,32.132 360.896,31.784 360.524,31.388 C360.2,31.052 359.888,30.5 359.888,29.684 C359.888,29.324 359.948,28.88 360.248,28.484 C360.428,28.232 360.716,27.992 361.088,27.836 C360.752,27.692 360.524,27.452 360.38,27.236 C360.176,26.912 360.092,26.504 360.092,26.144 C360.092,25.508 360.32,24.908 360.764,24.476 C361.016,24.236 361.532,23.864 362.408,23.864 C363.284,23.864 363.8,24.236 364.052,24.476 C364.496,24.908 364.724,25.508 364.724,26.144 C364.724,26.504 364.64,26.912 364.436,27.236 C364.292,27.452 364.064,27.692 363.728,27.836 Z" id="8" fill="#000000" fill-rule="nonzero"></path>
                    <circle id="Oval-Copy-3" stroke-opacity="0.24" stroke="#FF9800" stroke-width="2" cx="330" cy="28" r="11"></circle>
                    <g id="Oval-Copy-4" transform="translate(330.000000, 16.000000)">
                        <mask id="mask-4" fill="white">
                            <use xlink:href="#path-3"></use>
                        </mask>
                        <g id="Mask"></g>
                        <circle stroke="#FF9800" stroke-width="2" mask="url(#mask-4)" cx="0" cy="12" r="11"></circle>
                    </g>
                    <path d="M328.992,26.036 L327.816,26.036 C327.852,25.388 328.128,24.836 328.5,24.476 C329.052,23.948 329.724,23.864 330.252,23.864 C330.864,23.864 331.464,23.984 331.98,24.524 C332.4,24.956 332.556,25.472 332.556,26.048 C332.556,26.432 332.484,26.768 332.28,27.104 C332.064,27.452 331.788,27.656 331.56,27.776 C331.968,27.932 332.22,28.208 332.352,28.412 C332.58,28.748 332.688,29.192 332.688,29.648 C332.688,30.44 332.388,31.052 332.004,31.436 C331.428,32.012 330.672,32.132 330.048,32.132 C329.436,32.132 328.776,32.012 328.26,31.46 C327.9,31.076 327.636,30.44 327.576,29.828 L328.752,29.828 C328.812,30.188 328.98,30.5 329.184,30.692 C329.352,30.848 329.652,31.052 330.156,31.052 C330.528,31.052 330.876,30.908 331.092,30.716 C331.32,30.5 331.512,30.128 331.512,29.588 C331.512,29.324 331.464,28.94 331.152,28.64 C330.804,28.304 330.372,28.28 330.12,28.28 L329.88,28.28 L329.88,27.248 L330.048,27.248 C330.564,27.248 330.888,27.08 331.068,26.9 C331.26,26.708 331.38,26.408 331.38,26.048 C331.38,25.628 331.2,25.376 331.068,25.244 C330.792,24.98 330.456,24.944 330.216,24.944 C329.928,24.944 329.592,24.992 329.328,25.268 C329.052,25.556 328.992,25.988 328.992,26.036 Z" id="3" fill="#000000" fill-rule="nonzero"></path>
                    <g id="times-light" transform="translate(383.000000, 8.000000)" fill="#9E9E9E" fill-rule="nonzero">
                        <path d="M4.84865152,4.000125 L7.41273165,1.43604488 L7.94149817,0.907278352 C8.01950061,0.829275915 8.01950061,0.702521954 7.94149817,0.624519516 L7.37573049,0.058751836 C7.29772805,-0.0192506016 7.17097409,-0.0192506016 7.09297166,0.058751836 L4.000125,3.15159849 L0.907278352,0.0585018282 C0.829275915,-0.0195006094 0.702521954,-0.0195006094 0.624519516,0.0585018282 L0.0585018282,0.624269508 C-0.0195006094,0.702271946 -0.0195006094,0.829025907 0.0585018282,0.907028345 L3.15159849,4.000125 L0.0585018282,7.09297166 C-0.0195006094,7.17097409 -0.0195006094,7.29772805 0.0585018282,7.37573049 L0.624269508,7.94149817 C0.702271946,8.01950061 0.829025907,8.01950061 0.907028345,7.94149817 L4.000125,4.84865152 L6.56420513,7.41273165 L7.09297166,7.94149817 C7.17097409,8.01950061 7.29772805,8.01950061 7.37573049,7.94149817 L7.94149817,7.37573049 C8.01950061,7.29772805 8.01950061,7.17097409 7.94149817,7.09297166 L4.84865152,4.000125 Z" id="Path"></path>
                    </g>
                    <path d="M0,48 L398,48" id="Line-6" stroke="#DBE2E8" stroke-linecap="square"></path>
                    <path d="M25.472,29.29 L26.62,29.29 L26.62,30.69 C27.04,30.718 27.404,30.83 27.768,31.012 C28.16,31.222 28.468,31.46 28.72,31.74 L27.796,32.916 C27.236,32.23 26.592,32.16 26.326,32.16 C26.032,32.16 25.654,32.202 25.374,32.496 C25.178,32.692 25.108,32.93 25.108,33.154 C25.108,33.434 25.22,33.63 25.472,33.812 C25.64,33.938 25.864,34.05 26.62,34.386 C27.18,34.638 27.838,34.876 28.314,35.338 C28.818,35.814 29.028,36.402 29.028,37.074 C29.028,37.97 28.65,38.712 28.188,39.16 C27.768,39.58 27.194,39.86 26.62,39.972 L26.62,41.54 L25.472,41.54 L25.472,40 C24.688,39.916 24.086,39.622 23.694,39.356 C23.358,39.132 22.994,38.81 22.672,38.334 L23.722,37.256 C23.904,37.522 24.212,37.886 24.52,38.096 C24.884,38.362 25.29,38.488 25.794,38.488 C26.158,38.488 26.55,38.418 26.858,38.124 C27.096,37.886 27.208,37.564 27.208,37.256 C27.208,36.906 27.04,36.654 26.886,36.486 C26.732,36.318 26.074,36.024 25.878,35.94 C25.458,35.772 24.562,35.38 24.016,34.862 C23.568,34.442 23.358,33.994 23.358,33.252 C23.358,32.636 23.54,32.048 23.988,31.544 C24.282,31.222 24.758,30.844 25.472,30.69 L25.472,29.29 Z M30.988,39.594 L35.286,32.23 L30.946,32.23 L30.946,30.662 L38.142,30.662 L32.528,40.28 L30.988,39.594 Z M40.676,40 L40.676,32.23 L39.332,32.23 L39.332,30.662 L42.496,30.662 L42.496,40 L40.676,40 Z M45.646,39.09 C45.646,38.474 46.122,37.998 46.738,37.998 C47.354,37.998 47.83,38.474 47.83,39.09 C47.83,39.706 47.354,40.182 46.738,40.182 C46.122,40.182 45.646,39.706 45.646,39.09 Z M52.828,40.21 C50.966,40.21 49.216,38.544 49.216,35.324 C49.216,32.118 50.966,30.452 52.828,30.452 C54.69,30.452 56.44,32.118 56.44,35.338 C56.44,38.544 54.69,40.21 52.828,40.21 Z M52.828,32.02 C52.044,32.02 51.036,32.902 51.036,35.324 C51.036,37.76 52.03,38.642 52.828,38.642 C53.626,38.642 54.62,37.76 54.62,35.324 C54.62,32.902 53.612,32.02 52.828,32.02 Z M63.762,30.662 L63.762,32.23 L60.654,32.23 L60.318,33.7 C60.5,33.672 60.71,33.644 60.948,33.644 C61.942,33.644 62.824,34.036 63.356,34.582 C64.098,35.338 64.182,36.262 64.182,36.822 C64.182,37.83 63.874,38.614 63.23,39.258 C62.488,40 61.662,40.21 60.668,40.21 C60.164,40.21 59.366,40.168 58.652,39.818 C58.274,39.636 57.854,39.342 57.518,39.02 L58.12,37.452 C58.372,37.788 58.666,38.068 59.086,38.292 C59.548,38.544 59.996,38.642 60.444,38.642 C61.214,38.642 61.648,38.32 61.872,38.082 C62.138,37.802 62.362,37.326 62.362,36.724 C62.362,36.192 62.208,35.786 61.816,35.436 C61.34,35.016 60.808,34.96 60.36,34.96 C59.702,34.96 59.044,35.142 58.344,35.562 L59.45,30.662 L63.762,30.662 Z M69.796,30.41 L71.266,31.124 L68.998,34.078 C69.278,33.952 69.614,33.854 70.02,33.854 C70.706,33.854 71.532,34.12 72.078,34.652 C72.568,35.114 72.96,35.912 72.96,36.892 C72.96,37.676 72.736,38.46 72.106,39.146 C71.308,40.014 70.398,40.21 69.446,40.21 C68.452,40.21 67.556,40.028 66.786,39.258 C66.282,38.754 65.876,38.04 65.876,36.99 C65.876,35.856 66.394,34.946 67.052,34.078 L69.796,30.41 Z M69.418,38.754 C70.006,38.754 70.398,38.516 70.636,38.278 C70.86,38.054 71.14,37.662 71.14,37.046 C71.14,36.486 70.944,36.066 70.622,35.758 C70.272,35.422 69.88,35.31 69.418,35.31 C68.872,35.31 68.508,35.492 68.2,35.814 C67.864,36.164 67.696,36.514 67.696,37.032 C67.696,37.55 67.864,37.97 68.214,38.292 C68.452,38.516 68.858,38.754 69.418,38.754 Z" id="$71.056" fill="#256FF6" fill-rule="nonzero"></path>
                    <rect id="Rectangle-Copy-20" fill="#DBE2E8" x="22" y="18" width="32" height="4" rx="2"></rect>
                    <path d="M97.472,29.29 L98.62,29.29 L98.62,30.69 C99.04,30.718 99.404,30.83 99.768,31.012 C100.16,31.222 100.468,31.46 100.72,31.74 L99.796,32.916 C99.236,32.23 98.592,32.16 98.326,32.16 C98.032,32.16 97.654,32.202 97.374,32.496 C97.178,32.692 97.108,32.93 97.108,33.154 C97.108,33.434 97.22,33.63 97.472,33.812 C97.64,33.938 97.864,34.05 98.62,34.386 C99.18,34.638 99.838,34.876 100.314,35.338 C100.818,35.814 101.028,36.402 101.028,37.074 C101.028,37.97 100.65,38.712 100.188,39.16 C99.768,39.58 99.194,39.86 98.62,39.972 L98.62,41.54 L97.472,41.54 L97.472,40 C96.688,39.916 96.086,39.622 95.694,39.356 C95.358,39.132 94.994,38.81 94.672,38.334 L95.722,37.256 C95.904,37.522 96.212,37.886 96.52,38.096 C96.884,38.362 97.29,38.488 97.794,38.488 C98.158,38.488 98.55,38.418 98.858,38.124 C99.096,37.886 99.208,37.564 99.208,37.256 C99.208,36.906 99.04,36.654 98.886,36.486 C98.732,36.318 98.074,36.024 97.878,35.94 C97.458,35.772 96.562,35.38 96.016,34.862 C95.568,34.442 95.358,33.994 95.358,33.252 C95.358,32.636 95.54,32.048 95.988,31.544 C96.282,31.222 96.758,30.844 97.472,30.69 L97.472,29.29 Z M102.554,40 L105.298,36.878 C105.466,36.682 106.558,35.436 106.894,34.932 C107.146,34.554 107.44,33.98 107.44,33.434 C107.44,32.594 106.838,32.02 106.054,32.02 C105.102,32.02 104.598,32.776 104.57,33.574 L102.694,33.574 C102.778,31.67 104.122,30.452 105.97,30.452 C108.14,30.452 109.26,31.936 109.26,33.42 C109.26,34.862 108.294,35.898 107.566,36.682 L105.956,38.432 L109.33,38.432 L109.33,40 L102.554,40 Z M114.58,40.21 C112.718,40.21 110.968,38.544 110.968,35.324 C110.968,32.118 112.718,30.452 114.58,30.452 C116.442,30.452 118.192,32.118 118.192,35.338 C118.192,38.544 116.442,40.21 114.58,40.21 Z M114.58,32.02 C113.796,32.02 112.788,32.902 112.788,35.324 C112.788,37.76 113.782,38.642 114.58,38.642 C115.378,38.642 116.372,37.76 116.372,35.324 C116.372,32.902 115.364,32.02 114.58,32.02 Z M119.578,39.09 C119.578,38.474 120.054,37.998 120.67,37.998 C121.286,37.998 121.762,38.474 121.762,39.09 C121.762,39.706 121.286,40.182 120.67,40.182 C120.054,40.182 119.578,39.706 119.578,39.09 Z M129.364,30.662 L129.364,36.78 L130.456,36.78 L130.456,38.236 L129.364,38.236 L129.364,40 L127.656,40 L127.656,38.236 L123.092,38.236 L123.092,37.424 L127.726,30.662 L129.364,30.662 Z M125.248,36.78 L127.656,36.78 L127.656,33.224 L125.248,36.78 Z M133.83,33.098 L132.122,33.098 C132.29,31.404 133.564,30.452 135.16,30.452 C136.952,30.452 138.086,31.46 138.086,33.028 C138.086,33.518 137.988,34.442 137.008,34.988 C137.386,35.142 138.436,35.674 138.436,37.214 C138.436,39.132 136.952,40.21 135.104,40.21 C133.312,40.21 131.898,39.104 131.744,37.312 L133.564,37.312 C133.676,38.082 134.222,38.642 135.118,38.642 C136.168,38.642 136.616,37.872 136.616,37.158 C136.616,36.472 136.196,35.702 135.062,35.702 L134.824,35.702 L134.824,34.386 L135.076,34.386 C135.972,34.386 136.35,33.756 136.35,33.112 C136.35,32.37 135.86,31.88 135.118,31.88 C134.474,31.88 133.872,32.3 133.83,33.098 Z M139.64,40 L142.384,36.878 C142.552,36.682 143.644,35.436 143.98,34.932 C144.232,34.554 144.526,33.98 144.526,33.434 C144.526,32.594 143.924,32.02 143.14,32.02 C142.188,32.02 141.684,32.776 141.656,33.574 L139.78,33.574 C139.864,31.67 141.208,30.452 143.056,30.452 C145.226,30.452 146.346,31.936 146.346,33.42 C146.346,34.862 145.38,35.898 144.652,36.682 L143.042,38.432 L146.416,38.432 L146.416,40 L139.64,40 Z" id="$20.432" fill="#2A7AF7" fill-rule="nonzero"></path>
                    <rect id="Rectangle-Copy-36" fill="#DBE2E8" x="94" y="18" width="32" height="4" rx="2"></rect>
                    <path d="M169.192,40 L169.192,32.23 L167.848,32.23 L167.848,30.662 L171.012,30.662 L171.012,40 L169.192,40 Z M174.918,40 L174.918,32.23 L173.574,32.23 L173.574,30.662 L176.738,30.662 L176.738,40 L174.918,40 Z M179.888,39.09 C179.888,38.474 180.364,37.998 180.98,37.998 C181.596,37.998 182.072,38.474 182.072,39.09 C182.072,39.706 181.596,40.182 180.98,40.182 C180.364,40.182 179.888,39.706 179.888,39.09 Z M187.434,30.41 L188.904,31.124 L186.636,34.078 C186.916,33.952 187.252,33.854 187.658,33.854 C188.344,33.854 189.17,34.12 189.716,34.652 C190.206,35.114 190.598,35.912 190.598,36.892 C190.598,37.676 190.374,38.46 189.744,39.146 C188.946,40.014 188.036,40.21 187.084,40.21 C186.09,40.21 185.194,40.028 184.424,39.258 C183.92,38.754 183.514,38.04 183.514,36.99 C183.514,35.856 184.032,34.946 184.69,34.078 L187.434,30.41 Z M187.056,38.754 C187.644,38.754 188.036,38.516 188.274,38.278 C188.498,38.054 188.778,37.662 188.778,37.046 C188.778,36.486 188.582,36.066 188.26,35.758 C187.91,35.422 187.518,35.31 187.056,35.31 C186.51,35.31 186.146,35.492 185.838,35.814 C185.502,36.164 185.334,36.514 185.334,37.032 C185.334,37.55 185.502,37.97 185.852,38.292 C186.09,38.516 186.496,38.754 187.056,38.754 Z M197.976,30.662 L197.976,36.78 L199.068,36.78 L199.068,38.236 L197.976,38.236 L197.976,40 L196.268,40 L196.268,38.236 L191.704,38.236 L191.704,37.424 L196.338,30.662 L197.976,30.662 Z M193.86,36.78 L196.268,36.78 L196.268,33.224 L193.86,36.78 Z M202.47,30.55 C203.926,30.55 204.822,31.488 204.822,32.762 C204.822,34.036 203.926,34.974 202.47,34.974 C201.014,34.974 200.118,34.036 200.118,32.762 C200.118,31.488 201.014,30.55 202.47,30.55 Z M202.47,33.966 C203.156,33.966 203.646,33.462 203.646,32.762 C203.646,32.062 203.156,31.558 202.47,31.558 C201.784,31.558 201.294,32.062 201.294,32.762 C201.294,33.462 201.784,33.966 202.47,33.966 Z M201.966,39.958 L207.524,30.354 L208.266,30.774 L202.708,40.392 L201.966,39.958 Z M207.762,35.716 C209.218,35.716 210.114,36.654 210.114,37.928 C210.114,39.202 209.218,40.14 207.762,40.14 C206.306,40.14 205.41,39.202 205.41,37.928 C205.41,36.654 206.306,35.716 207.762,35.716 Z M207.762,39.132 C208.448,39.132 208.938,38.628 208.938,37.928 C208.938,37.228 208.448,36.724 207.762,36.724 C207.076,36.724 206.586,37.228 206.586,37.928 C206.586,38.628 207.076,39.132 207.762,39.132 Z" id="11.64%" fill="#3085F8" fill-rule="nonzero"></path>
                    <rect id="Rectangle-Copy-37" fill="#DBE2E8" x="166" y="18" width="40" height="4" rx="2"></rect>
                    <path d="M232.422,33.098 L230.714,33.098 C230.882,31.404 232.156,30.452 233.752,30.452 C235.544,30.452 236.678,31.46 236.678,33.028 C236.678,33.518 236.58,34.442 235.6,34.988 C235.978,35.142 237.028,35.674 237.028,37.214 C237.028,39.132 235.544,40.21 233.696,40.21 C231.904,40.21 230.49,39.104 230.336,37.312 L232.156,37.312 C232.268,38.082 232.814,38.642 233.71,38.642 C234.76,38.642 235.208,37.872 235.208,37.158 C235.208,36.472 234.788,35.702 233.654,35.702 L233.416,35.702 L233.416,34.386 L233.668,34.386 C234.564,34.386 234.942,33.756 234.942,33.112 C234.942,32.37 234.452,31.88 233.71,31.88 C233.066,31.88 232.464,32.3 232.422,33.098 Z M238.974,39.09 C238.974,38.474 239.45,37.998 240.066,37.998 C240.682,37.998 241.158,38.474 241.158,39.09 C241.158,39.706 240.682,40.182 240.066,40.182 C239.45,40.182 238.974,39.706 238.974,39.09 Z M248.76,30.662 L248.76,36.78 L249.852,36.78 L249.852,38.236 L248.76,38.236 L248.76,40 L247.052,40 L247.052,38.236 L242.488,38.236 L242.488,37.424 L247.122,30.662 L248.76,30.662 Z M244.644,36.78 L247.052,36.78 L247.052,33.224 L244.644,36.78 Z M254.822,30.41 L256.292,31.124 L254.024,34.078 C254.304,33.952 254.64,33.854 255.046,33.854 C255.732,33.854 256.558,34.12 257.104,34.652 C257.594,35.114 257.986,35.912 257.986,36.892 C257.986,37.676 257.762,38.46 257.132,39.146 C256.334,40.014 255.424,40.21 254.472,40.21 C253.478,40.21 252.582,40.028 251.812,39.258 C251.308,38.754 250.902,38.04 250.902,36.99 C250.902,35.856 251.42,34.946 252.078,34.078 L254.822,30.41 Z M254.444,38.754 C255.032,38.754 255.424,38.516 255.662,38.278 C255.886,38.054 256.166,37.662 256.166,37.046 C256.166,36.486 255.97,36.066 255.648,35.758 C255.298,35.422 254.906,35.31 254.444,35.31 C253.898,35.31 253.534,35.492 253.226,35.814 C252.89,36.164 252.722,36.514 252.722,37.032 C252.722,37.55 252.89,37.97 253.24,38.292 C253.478,38.516 253.884,38.754 254.444,38.754 Z" id="3.46" fill="#3790F9" fill-rule="nonzero"></path>
                    <rect id="Rectangle-Copy-38" fill="#DBE2E8" x="230" y="18" width="24" height="4" rx="2"></rect>
                </g>
            </g>
        </g>
    </g>
</svg>