<?xml version="1.0" encoding="UTF-8"?>
<svg width="432px" height="345px" viewBox="0 0 432 345" version="1.1" xmlns="http://www.w3.org/2000/svg" xmlns:xlink="http://www.w3.org/1999/xlink">
    <!-- Generator: Sketch 56.3 (81716) - https://sketch.com -->
    <title>Browser</title>
    <desc>Created with Sketch.</desc>
    <g id="Page-1" stroke="none" stroke-width="1" fill="none" fill-rule="evenodd">
        <g id="Homepage" transform="translate(-800.000000, -1616.000000)">
            <g id="Xray" transform="translate(240.000000, 1616.000000)">
                <g id="Browser" transform="translate(560.000000, 0.000000)">
                    <path d="M6,0.5 C2.96243388,0.5 0.5,2.96243388 0.5,6 L0.5,340 C0.5,341.932997 2.06700338,343.5 4,343.5 L428,343.5 C429.932997,343.5 431.5,341.932997 431.5,340 L431.5,6 C431.5,2.96243388 429.037566,0.5 426,0.5 L6,0.5 Z" id="Rectangle" stroke="#DBE2E8" fill="#FFFFFF"></path>
                    <g id="Group-7-Copy-2" transform="translate(124.000000, 88.000000)">
                        <rect id="Rectangle" fill="#DBE2E8" x="0" y="0" width="80" height="80"></rect>
                        <rect id="Rectangle" fill="#DBE2E8" x="0" y="89" width="68" height="6" rx="2"></rect>
                        <rect id="Rectangle-Copy-27" fill="#DBE2E8" x="0" y="105" width="76" height="6" rx="2"></rect>
                        <rect id="Rectangle-Copy-28" fill="#DBE2E8" x="0" y="137" width="68" height="6" rx="2"></rect>
                        <path d="M5.46355235,119.347861 L4.24299377,121.933479 L1.5121575,122.349443 C1.02243874,122.423652 0.826177409,123.054434 1.18131697,123.415717 L3.15701439,125.427187 L2.6897255,128.268633 C2.6056135,128.782241 3.12336959,129.166959 3.55701368,128.926754 L6,127.585123 L8.44298632,128.926754 C8.87663041,129.165006 9.3943865,128.782241 9.3102745,128.268633 L8.84298561,125.427187 L10.818683,123.415717 C11.1738226,123.054434 10.9775613,122.423652 10.4878425,122.349443 L7.75700623,121.933479 L6.53644765,119.347861 C6.31775645,118.88698 5.68411271,118.881122 5.46355235,119.347861 Z" id="Path" fill="#FF9800" fill-rule="nonzero"></path>
                        <path d="M21.452369,119.347861 L20.2318104,121.933479 L17.5009741,122.349443 C17.0112553,122.423652 16.814994,123.054434 17.1701336,123.415717 L19.145831,125.427187 L18.6785421,128.268633 C18.5944301,128.782241 19.1121862,129.166959 19.5458303,128.926754 L21.9888166,127.585123 L24.4318029,128.926754 C24.865447,129.165006 25.3832031,128.782241 25.2990911,128.268633 L24.8318022,125.427187 L26.8074996,123.415717 C27.1626392,123.054434 26.9663779,122.423652 26.4766591,122.349443 L23.7458228,121.933479 L22.5252642,119.347861 C22.306573,118.88698 21.6729293,118.881122 21.452369,119.347861 Z" id="Path-Copy" fill="#FF9800" fill-rule="nonzero"></path>
                        <path d="M37.452369,119.347861 L36.2318104,121.933479 L33.5009741,122.349443 C33.0112553,122.423652 32.814994,123.054434 33.1701336,123.415717 L35.145831,125.427187 L34.6785421,128.268633 C34.5944301,128.782241 35.1121862,129.166959 35.5458303,128.926754 L37.9888166,127.585123 L40.4318029,128.926754 C40.865447,129.165006 41.3832031,128.782241 41.2990911,128.268633 L40.8318022,125.427187 L42.8074996,123.415717 C43.1626392,123.054434 42.9663779,122.423652 42.4766591,122.349443 L39.7458228,121.933479 L38.5252642,119.347861 C38.306573,118.88698 37.6729293,118.881122 37.452369,119.347861 Z" id="Path-Copy-2" fill="#FF9800" fill-rule="nonzero"></path>
                        <path d="M53.4635524,119.347861 L52.2429938,121.933479 L49.5121575,122.349443 C49.0224387,122.423652 48.8261774,123.054434 49.181317,123.415717 L51.1570144,125.427187 L50.6897255,128.268633 C50.6056135,128.782241 51.1233696,129.166959 51.5570137,128.926754 L54,127.585123 L56.4429863,128.926754 C56.8766304,129.165006 57.3943865,128.782241 57.3102745,128.268633 L56.8429856,125.427187 L58.818683,123.415717 C59.1738226,123.054434 58.9775613,122.423652 58.4878425,122.349443 L55.7570062,121.933479 L54.5364476,119.347861 C54.3177564,118.88698 53.6841127,118.881122 53.4635524,119.347861 Z" id="Path-Copy-3" fill="#FF9800" fill-rule="nonzero"></path>
                    </g>
                    <g id="Group-7-Copy-3" transform="translate(228.000000, 88.000000)">
                        <rect id="Rectangle" fill="#DBE2E8" x="0" y="0" width="80" height="80"></rect>
                        <rect id="Rectangle" fill="#DBE2E8" x="0" y="89" width="76" height="6" rx="2"></rect>
                        <rect id="Rectangle-Copy-27" fill="#DBE2E8" x="0" y="105" width="75" height="6" rx="2"></rect>
                        <rect id="Rectangle-Copy-28" fill="#DBE2E8" x="0" y="137" width="68" height="6" rx="2"></rect>
                        <path d="M5.46355235,119.347861 L4.24299377,121.933479 L1.5121575,122.349443 C1.02243874,122.423652 0.826177409,123.054434 1.18131697,123.415717 L3.15701439,125.427187 L2.6897255,128.268633 C2.6056135,128.782241 3.12336959,129.166959 3.55701368,128.926754 L6,127.585123 L8.44298632,128.926754 C8.87663041,129.165006 9.3943865,128.782241 9.3102745,128.268633 L8.84298561,125.427187 L10.818683,123.415717 C11.1738226,123.054434 10.9775613,122.423652 10.4878425,122.349443 L7.75700623,121.933479 L6.53644765,119.347861 C6.31775645,118.88698 5.68411271,118.881122 5.46355235,119.347861 Z" id="Path" fill="#FF9800" fill-rule="nonzero"></path>
                        <path d="M21.452369,119.347861 L20.2318104,121.933479 L17.5009741,122.349443 C17.0112553,122.423652 16.814994,123.054434 17.1701336,123.415717 L19.145831,125.427187 L18.6785421,128.268633 C18.5944301,128.782241 19.1121862,129.166959 19.5458303,128.926754 L21.9888166,127.585123 L24.4318029,128.926754 C24.865447,129.165006 25.3832031,128.782241 25.2990911,128.268633 L24.8318022,125.427187 L26.8074996,123.415717 C27.1626392,123.054434 26.9663779,122.423652 26.4766591,122.349443 L23.7458228,121.933479 L22.5252642,119.347861 C22.306573,118.88698 21.6729293,118.881122 21.452369,119.347861 Z" id="Path-Copy" fill="#FF9800" fill-rule="nonzero"></path>
                        <path d="M37.452369,119.347861 L36.2318104,121.933479 L33.5009741,122.349443 C33.0112553,122.423652 32.814994,123.054434 33.1701336,123.415717 L35.145831,125.427187 L34.6785421,128.268633 C34.5944301,128.782241 35.1121862,129.166959 35.5458303,128.926754 L37.9888166,127.585123 L40.4318029,128.926754 C40.865447,129.165006 41.3832031,128.782241 41.2990911,128.268633 L40.8318022,125.427187 L42.8074996,123.415717 C43.1626392,123.054434 42.9663779,122.423652 42.4766591,122.349443 L39.7458228,121.933479 L38.5252642,119.347861 C38.306573,118.88698 37.6729293,118.881122 37.452369,119.347861 Z" id="Path-Copy-2" fill="#FF9800" fill-rule="nonzero"></path>
                        <path d="M53.4635524,119.347861 L52.2429938,121.933479 L49.5121575,122.349443 C49.0224387,122.423652 48.8261774,123.054434 49.181317,123.415717 L51.1570144,125.427187 L50.6897255,128.268633 C50.6056135,128.782241 51.1233696,129.166959 51.5570137,128.926754 L54,127.585123 L56.4429863,128.926754 C56.8766304,129.165006 57.3943865,128.782241 57.3102745,128.268633 L56.8429856,125.427187 L58.818683,123.415717 C59.1738226,123.054434 58.9775613,122.423652 58.4878425,122.349443 L55.7570062,121.933479 L54.5364476,119.347861 C54.3177564,118.88698 53.6841127,118.881122 53.4635524,119.347861 Z" id="Path-Copy-3" fill="#FF9800" fill-rule="nonzero"></path>
                        <path d="M69.4635524,119.347861 L68.2429938,121.933479 L65.5121575,122.349443 C65.0224387,122.423652 64.8261774,123.054434 65.181317,123.415717 L67.1570144,125.427187 L66.6897255,128.268633 C66.6056135,128.782241 67.1233696,129.166959 67.5570137,128.926754 L70,127.585123 L72.4429863,128.926754 C72.8766304,129.165006 73.3943865,128.782241 73.3102745,128.268633 L72.8429856,125.427187 L74.818683,123.415717 C75.1738226,123.054434 74.9775613,122.423652 74.4878425,122.349443 L71.7570062,121.933479 L70.5364476,119.347861 C70.3177564,118.88698 69.6841127,118.881122 69.4635524,119.347861 Z" id="Path-Copy-5" fill="#FF9800" fill-rule="nonzero"></path>
                    </g>
                    <g id="Group-7-Copy-4" transform="translate(332.000000, 88.000000)">
                        <rect id="Rectangle" fill="#DBE2E8" x="0" y="0" width="80" height="80"></rect>
                        <rect id="Rectangle" fill="#DBE2E8" x="0" y="89" width="60" height="6" rx="2"></rect>
                        <rect id="Rectangle-Copy-27" fill="#DBE2E8" x="0" y="105" width="76" height="6" rx="2"></rect>
                        <rect id="Rectangle-Copy-28" fill="#DBE2E8" x="0" y="137" width="68" height="6" rx="2"></rect>
                        <path d="M5.46355235,119.347861 L4.24299377,121.933479 L1.5121575,122.349443 C1.02243874,122.423652 0.826177409,123.054434 1.18131697,123.415717 L3.15701439,125.427187 L2.6897255,128.268633 C2.6056135,128.782241 3.12336959,129.166959 3.55701368,128.926754 L6,127.585123 L8.44298632,128.926754 C8.87663041,129.165006 9.3943865,128.782241 9.3102745,128.268633 L8.84298561,125.427187 L10.818683,123.415717 C11.1738226,123.054434 10.9775613,122.423652 10.4878425,122.349443 L7.75700623,121.933479 L6.53644765,119.347861 C6.31775645,118.88698 5.68411271,118.881122 5.46355235,119.347861 Z" id="Path" fill="#FF9800" fill-rule="nonzero"></path>
                        <path d="M21.452369,119.347861 L20.2318104,121.933479 L17.5009741,122.349443 C17.0112553,122.423652 16.814994,123.054434 17.1701336,123.415717 L19.145831,125.427187 L18.6785421,128.268633 C18.5944301,128.782241 19.1121862,129.166959 19.5458303,128.926754 L21.9888166,127.585123 L24.4318029,128.926754 C24.865447,129.165006 25.3832031,128.782241 25.2990911,128.268633 L24.8318022,125.427187 L26.8074996,123.415717 C27.1626392,123.054434 26.9663779,122.423652 26.4766591,122.349443 L23.7458228,121.933479 L22.5252642,119.347861 C22.306573,118.88698 21.6729293,118.881122 21.452369,119.347861 Z" id="Path-Copy" fill="#FF9800" fill-rule="nonzero"></path>
                        <path d="M37.452369,119.347861 L36.2318104,121.933479 L33.5009741,122.349443 C33.0112553,122.423652 32.814994,123.054434 33.1701336,123.415717 L35.145831,125.427187 L34.6785421,128.268633 C34.5944301,128.782241 35.1121862,129.166959 35.5458303,128.926754 L37.9888166,127.585123 L40.4318029,128.926754 C40.865447,129.165006 41.3832031,128.782241 41.2990911,128.268633 L40.8318022,125.427187 L42.8074996,123.415717 C43.1626392,123.054434 42.9663779,122.423652 42.4766591,122.349443 L39.7458228,121.933479 L38.5252642,119.347861 C38.306573,118.88698 37.6729293,118.881122 37.452369,119.347861 Z" id="Path-Copy-2" fill="#FF9800" fill-rule="nonzero"></path>
                        <path d="M53.4635524,119.347861 L52.2429938,121.933479 L49.5121575,122.349443 C49.0224387,122.423652 48.8261774,123.054434 49.181317,123.415717 L51.1570144,125.427187 L50.6897255,128.268633 C50.6056135,128.782241 51.1233696,129.166959 51.5570137,128.926754 L54,127.585123 L56.4429863,128.926754 C56.8766304,129.165006 57.3943865,128.782241 57.3102745,128.268633 L56.8429856,125.427187 L58.818683,123.415717 C59.1738226,123.054434 58.9775613,122.423652 58.4878425,122.349443 L55.7570062,121.933479 L54.5364476,119.347861 C54.3177564,118.88698 53.6841127,118.881122 53.4635524,119.347861 Z" id="Path-Copy-3" fill="#FF9800" fill-rule="nonzero"></path>
                    </g>
                    <g id="Group-7-Copy-7" transform="translate(124.000000, 256.000000)" fill="#DBE2E8">
                        <rect id="Rectangle" x="0" y="0" width="80" height="80"></rect>
                    </g>
                    <g id="Group-7-Copy-6" transform="translate(228.000000, 256.000000)" fill="#DBE2E8">
                        <rect id="Rectangle" x="0" y="0" width="80" height="80"></rect>
                    </g>
                    <g id="Group-7-Copy-5" transform="translate(332.000000, 256.000000)" fill="#DBE2E8">
                        <rect id="Rectangle" x="0" y="0" width="80" height="80"></rect>
                    </g>
                    <path d="M103.75,64.5 L103.75,344" id="Line-5" stroke="#DBE2E8" stroke-linecap="square"></path>
                    <rect id="Rectangle" fill="#DBE2E8" x="16" y="89" width="68" height="6" rx="2"></rect>
                    <rect id="Rectangle-Copy-24" fill="#DBE2E8" x="16" y="105" width="76" height="6" rx="2"></rect>
                    <rect id="Rectangle-Copy-25" fill="#DBE2E8" x="16" y="121" width="61" height="6" rx="2"></rect>
                    <rect id="Rectangle-Copy-26" fill="#DBE2E8" x="16" y="137" width="68" height="6" rx="2"></rect>
                    <rect id="Rectangle-Copy-29" fill="#DBE2E8" x="16" y="153" width="73" height="6" rx="2"></rect>
                    <rect id="Rectangle-Copy-30" fill="#DBE2E8" x="16" y="169" width="48" height="6" rx="2"></rect>
                    <rect id="Rectangle-Copy-31" fill="#DBE2E8" x="16" y="185" width="58" height="6" rx="2"></rect>
                    <rect id="Rectangle-Copy-32" fill="#DBE2E8" x="16" y="201" width="68" height="6" rx="2"></rect>
                    <rect id="Rectangle-Copy-33" fill="#DBE2E8" x="16" y="217" width="57" height="6" rx="2"></rect>
                    <rect id="Rectangle-Copy-34" fill="#DBE2E8" x="16" y="233" width="68" height="6" rx="2"></rect>
                    <path d="M6,0 L426,0 C429.313708,-6.08718376e-16 432,2.6862915 432,6 L432,64 L0,64 L0,6 C-4.05812251e-16,2.6862915 2.6862915,6.08718376e-16 6,0 Z" id="Rectangle" fill="#23303E"></path>
                    <g id="iconfinder_amazon_1220386" transform="translate(14.000000, 31.000000)" fill-rule="nonzero">
                        <path d="M23.5382114,9.6195122 C23.5382114,10.7056911 23.5772358,11.7853659 23.5252033,12.8715447 C23.4731707,14.1073171 23.8504065,15.1674797 24.6308943,16.104065 C24.7219512,16.2146341 24.8065041,16.3252033 24.8845528,16.4422764 C25.1642276,16.8650407 25.1121951,17.1577236 24.7284553,17.4829268 C23.9089431,18.1723577 23.095935,18.8682927 22.2764228,19.5577236 C21.7886179,19.9674797 21.4829268,19.9609756 20.9886179,19.5577236 C20.3252033,19.0178862 19.804878,18.3544715 19.3430894,17.6455285 C19.2325203,17.4764228 19.1739837,17.4829268 19.0373984,17.6130081 C18.2178862,18.4130081 17.3528455,19.1544715 16.2536585,19.5252033 C14.5560976,20.104065 12.8325203,20.195122 11.1284553,19.5902439 C9.48943089,19.004878 8.50731707,17.795122 8.14308943,16.1105691 C7.7398374,14.2308943 7.94796748,12.4422764 9.10569106,10.8487805 C9.98373984,9.64552846 11.2,8.93658537 12.598374,8.50081301 C14.0422764,8.05853659 15.5317073,7.88943089 17.0276423,7.7398374 C17.4504065,7.69430894 17.8666667,7.65528455 18.2894309,7.61626016 C18.3934959,7.6097561 18.4845528,7.59674797 18.4780488,7.4601626 C18.4650407,6.77073171 18.5365854,6.06829268 18.3739837,5.39186992 C18.1658537,4.52682927 17.6,4.0195122 16.7349593,3.83089431 C16.1170732,3.69430894 15.5056911,3.73333333 14.9073171,3.93495935 C13.996748,4.24715447 13.4308943,4.87804878 13.203252,5.81463415 C13.0796748,6.32845528 12.8390244,6.51056911 12.3382114,6.45853659 C11.2715447,6.34796748 10.204878,6.23739837 9.14471545,6.12682927 C8.70894309,6.08130081 8.48130081,5.7495935 8.57235772,5.32682927 C9.12520325,2.62764228 10.8943089,1.11219512 13.4439024,0.416260163 C15.401626,-0.117073171 17.3853659,-0.149593496 19.3495935,0.403252033 C20.9300813,0.845528455 22.2569106,1.62601626 22.998374,3.17398374 C23.4211382,4.05203252 23.5186992,5.00162602 23.5317073,5.95121951 C23.5447154,7.16747967 23.5317073,8.39674797 23.5382114,9.6195122 C23.5317073,9.6195122 23.5382114,9.6195122 23.5382114,9.6195122 Z M18.4780488,11.6487805 C18.4780488,11.3235772 18.4650407,10.998374 18.4845528,10.6731707 C18.497561,10.4715447 18.4260163,10.4 18.2243902,10.4195122 C17.7300813,10.4650407 17.2292683,10.4715447 16.7349593,10.5365854 C15.8699187,10.6471545 15.0243902,10.8617886 14.3219512,11.4081301 C13.300813,12.2081301 13.0861789,13.300813 13.2552846,14.5300813 C13.4569106,15.9739837 14.7447154,16.7739837 16.1235772,16.2926829 C17.0601626,15.9674797 17.6325203,15.2780488 18.0292683,14.4130081 C18.4455285,13.5349593 18.4780488,12.5918699 18.4780488,11.6487805 Z" id="Shape" fill="#FFFFFF"></path>
                        <path d="M16.0715447,26.3284553 C11.1089431,26.295935 6.65365854,25.0211382 2.62764228,22.3349593 C1.80813008,21.7886179 1.02764228,21.1902439 0.286178862,20.5333333 C0.221138211,20.4747967 0.156097561,20.4162602 0.104065041,20.3447154 C0.0325203252,20.2471545 -0.0195121951,20.1300813 0.0650406504,20.0130081 C0.149593496,19.8829268 0.292682927,19.8699187 0.416260163,19.9284553 C0.702439024,20.0650407 0.975609756,20.2146341 1.25528455,20.3577236 C3.81788618,21.7105691 6.51707317,22.6861789 9.34634146,23.304065 C11.9089431,23.8634146 14.497561,24.1235772 17.1252033,24.0520325 C20.8780488,23.9479675 24.4943089,23.1934959 27.9739837,21.795122 C28.1430894,21.7235772 28.3186992,21.6520325 28.4943089,21.6130081 C28.7414634,21.5674797 28.9886179,21.6 29.099187,21.8666667 C29.203252,22.1138211 29.0666667,22.3089431 28.8845528,22.4650407 C28.7544715,22.5756098 28.604878,22.6666667 28.4552846,22.7642276 C26.2113821,24.2211382 23.7528455,25.1577236 21.1512195,25.7365854 C19.4341463,26.1268293 17.6910569,26.3154472 16.0715447,26.3284553 Z" id="Path" fill="#F6A61F"></path>
                        <path d="M28.5918699,20.5333333 C27.8439024,20.5268293 27.102439,20.6243902 26.3609756,20.702439 C26.2178862,20.7154472 26.0552846,20.7544715 25.9902439,20.598374 C25.9121951,20.4227642 26.0617886,20.3186992 26.1853659,20.2341463 C27.1089431,19.6227642 28.1430894,19.3821138 29.2292683,19.3235772 C29.9772358,19.2780488 30.7186992,19.3105691 31.4471545,19.5317073 C31.7788618,19.6292683 31.9414634,19.8243902 31.9349593,20.1626016 C31.895935,21.9707317 31.2910569,23.5447154 29.9837398,24.8260163 C29.9382114,24.8715447 29.8861789,24.9105691 29.8341463,24.9495935 C29.7170732,25.0341463 29.5739837,25.1121951 29.4504065,25.0081301 C29.3333333,24.9105691 29.398374,24.7674797 29.4504065,24.6504065 C29.8341463,23.6943089 30.2243902,22.7447154 30.4130081,21.7235772 C30.4390244,21.5934959 30.4455285,21.4634146 30.4520325,21.3398374 C30.4585366,20.9170732 30.3089431,20.7349593 29.8926829,20.6308943 C29.4569106,20.5138211 29.0211382,20.5333333 28.5918699,20.5333333 Z" id="Path" fill="#F6A61F"></path>
                    </g>
                    <rect id="Rectangle" fill="#FFFFFF" x="56" y="32" width="360" height="24" rx="2"></rect>
                    <path d="M384,32 L414,32 C415.104569,32 416,32.8954305 416,34 L416,54 C416,55.1045695 415.104569,56 414,56 L384,56 L384,32 Z" id="Rectangle-Copy-21" fill="#F6A61F"></path>
                    <g id="search-regular" transform="translate(392.000000, 36.000000)" fill="#000000" fill-rule="nonzero">
                        <path d="M15.8596491,14.6245614 L12.0732943,10.8382066 C12.0015595,10.7664717 11.9079922,10.7290448 11.8081871,10.7290448 L11.3964912,10.7290448 C12.3789474,9.59064327 12.9746589,8.10916179 12.9746589,6.48732943 C12.9746589,2.9037037 10.0709552,0 6.48732943,0 C2.9037037,0 0,2.9037037 0,6.48732943 C0,10.0709552 2.9037037,12.9746589 6.48732943,12.9746589 C8.10916179,12.9746589 9.59064327,12.3789474 10.7290448,11.3964912 L10.7290448,11.8081871 C10.7290448,11.9079922 10.7695906,12.0015595 10.8382066,12.0732943 L14.6245614,15.8596491 C14.7711501,16.0062378 15.0081871,16.0062378 15.1547758,15.8596491 L15.8596491,15.1547758 C16.0062378,15.0081871 16.0062378,14.7711501 15.8596491,14.6245614 Z M6.48732943,11.4775828 C3.73021442,11.4775828 1.49707602,9.24444444 1.49707602,6.48732943 C1.49707602,3.73021442 3.73021442,1.49707602 6.48732943,1.49707602 C9.24444444,1.49707602 11.4775828,3.73021442 11.4775828,6.48732943 C11.4775828,9.24444444 9.24444444,11.4775828 6.48732943,11.4775828 Z" id="Shape"></path>
                    </g>
                    <path d="M69.0117188,45.7207031 C69.0117188,46.4746131 68.738284,47.0624979 68.1914062,47.484375 C67.6445285,47.9062521 66.9023484,48.1171875 65.9648438,48.1171875 C64.9492137,48.1171875 64.1679715,47.9863294 63.6210938,47.7246094 L63.6210938,46.7636719 C63.972658,46.9121101 64.3554667,47.0292964 64.7695312,47.1152344 C65.1835958,47.2011723 65.593748,47.2441406 66,47.2441406 C66.6640658,47.2441406 67.1640608,47.1181653 67.5,46.8662109 C67.8359392,46.6142566 68.0039062,46.2636741 68.0039062,45.8144531 C68.0039062,45.5175766 67.9443365,45.274415 67.8251953,45.0849609 C67.7060541,44.8955069 67.5068373,44.7207039 67.2275391,44.5605469 C66.9482408,44.4003898 66.5234404,44.218751 65.953125,44.015625 C65.156246,43.7304673 64.5869158,43.3925801 64.2451172,43.0019531 C63.9033186,42.6113262 63.7324219,42.1015656 63.7324219,41.4726562 C63.7324219,40.8124967 63.9804663,40.2871113 64.4765625,39.8964844 C64.9726587,39.5058574 65.6289022,39.3105469 66.4453125,39.3105469 C67.2968793,39.3105469 68.0800746,39.4667953 68.7949219,39.7792969 L68.484375,40.6464844 C67.7773402,40.3496079 67.0898471,40.2011719 66.421875,40.2011719 C65.8945286,40.2011719 65.4824234,40.314452 65.1855469,40.5410156 C64.8886704,40.7675793 64.7402344,41.0820292 64.7402344,41.484375 C64.7402344,41.7812515 64.7949213,42.0244131 64.9042969,42.2138672 C65.0136724,42.4033213 65.1982409,42.5771476 65.4580078,42.7353516 C65.7177747,42.8935555 66.1152317,43.0683584 66.6503906,43.2597656 C67.5488326,43.5800797 68.1669905,43.9238263 68.5048828,44.2910156 C68.8427751,44.658205 69.0117188,45.1347627 69.0117188,45.7207031 Z M73.3300781,48.1171875 C72.3808546,48.1171875 71.6318387,47.8281279 71.0830078,47.25 C70.5341769,46.6718721 70.2597656,45.8691458 70.2597656,44.8417969 C70.2597656,43.8066354 70.5146459,42.984378 71.0244141,42.375 C71.5341822,41.765622 72.2187457,41.4609375 73.078125,41.4609375 C73.8828165,41.4609375 74.5195289,41.7255833 74.9882812,42.2548828 C75.4570336,42.7841823 75.6914062,43.4824175 75.6914062,44.3496094 L75.6914062,44.9648438 L71.2675781,44.9648438 C71.2871095,45.7187538 71.4775373,46.2910137 71.8388672,46.6816406 C72.2001971,47.0722676 72.7089811,47.2675781 73.3652344,47.2675781 C74.0566441,47.2675781 74.740231,47.1230483 75.4160156,46.8339844 L75.4160156,47.7011719 C75.0722639,47.8496101 74.7470718,47.9560544 74.4404297,48.0205078 C74.1337875,48.0849613 73.763674,48.1171875 73.3300781,48.1171875 Z M73.0664062,42.2753906 C72.5507787,42.2753906 72.13965,42.4433577 71.8330078,42.7792969 C71.5263657,43.1152361 71.3457034,43.5800752 71.2910156,44.1738281 L74.6484375,44.1738281 C74.6484375,43.5605438 74.5117201,43.0908219 74.2382812,42.7646484 C73.9648424,42.4384749 73.5742213,42.2753906 73.0664062,42.2753906 Z M81.2988281,48 L81.1054688,47.0859375 L81.0585938,47.0859375 C80.7382796,47.4882833 80.4189469,47.7607415 80.1005859,47.9033203 C79.782225,48.0458992 79.384768,48.1171875 78.9082031,48.1171875 C78.2714812,48.1171875 77.7724627,47.9531266 77.4111328,47.625 C77.0498029,47.2968734 76.8691406,46.8300812 76.8691406,46.2246094 C76.8691406,44.9277279 77.9062396,44.2480472 79.9804688,44.1855469 L81.0703125,44.1503906 L81.0703125,43.7519531 C81.0703125,43.2480444 80.9619151,42.8759778 80.7451172,42.6357422 C80.5283192,42.3955066 80.181643,42.2753906 79.7050781,42.2753906 C79.1699192,42.2753906 78.5644565,42.4394515 77.8886719,42.7675781 L77.5898438,42.0234375 C77.9062516,41.8515616 78.2529278,41.7167974 78.6298828,41.6191406 C79.0068378,41.5214839 79.3847637,41.4726562 79.7636719,41.4726562 C80.5293007,41.4726562 81.0966778,41.6425764 81.4658203,41.9824219 C81.8349628,42.3222673 82.0195312,42.8671837 82.0195312,43.6171875 L82.0195312,48 L81.2988281,48 Z M79.1015625,47.3144531 C79.7070343,47.3144531 80.1826155,47.1484392 80.5283203,46.8164062 C80.8740252,46.4843733 81.046875,46.0195342 81.046875,45.421875 L81.046875,44.8417969 L80.0742188,44.8828125 C79.3007774,44.9101564 78.7431658,45.0302724 78.4013672,45.2431641 C78.0595686,45.4560558 77.8886719,45.7871071 77.8886719,46.2363281 C77.8886719,46.5878924 77.9951161,46.8554678 78.2080078,47.0390625 C78.4208995,47.2226572 78.7187481,47.3144531 79.1015625,47.3144531 Z M86.953125,41.4609375 C87.2382827,41.4609375 87.4941395,41.4843748 87.7207031,41.53125 L87.5859375,42.4335938 C87.3203112,42.3749997 87.0859385,42.3457031 86.8828125,42.3457031 C86.3632787,42.3457031 85.9189472,42.5566385 85.5498047,42.9785156 C85.1806622,43.4003927 84.9960938,43.9257781 84.9960938,44.5546875 L84.9960938,48 L84.0234375,48 L84.0234375,41.578125 L84.8261719,41.578125 L84.9375,42.7675781 L84.984375,42.7675781 C85.2226574,42.3496073 85.5097639,42.0273449 85.8457031,41.8007812 C86.1816423,41.5742176 86.5507792,41.4609375 86.953125,41.4609375 Z M91.2480469,48.1171875 C90.3183547,48.1171875 89.5986354,47.8310575 89.0888672,47.2587891 C88.579099,46.6865206 88.3242188,45.8769584 88.3242188,44.8300781 C88.3242188,43.755854 88.5830052,42.9257842 89.1005859,42.3398438 C89.6181667,41.7539033 90.355464,41.4609375 91.3125,41.4609375 C91.6210953,41.4609375 91.929686,41.4941403 92.2382812,41.5605469 C92.5468765,41.6269535 92.7890616,41.7050777 92.9648438,41.7949219 L92.6660156,42.6210938 C92.4511708,42.5351558 92.2167981,42.4638675 91.9628906,42.4072266 C91.7089831,42.3505857 91.484376,42.3222656 91.2890625,42.3222656 C89.9843685,42.3222656 89.3320312,43.1542886 89.3320312,44.8183594 C89.3320312,45.6074258 89.4912093,46.2128885 89.8095703,46.6347656 C90.1279313,47.0566427 90.5996062,47.2675781 91.2246094,47.2675781 C91.7597683,47.2675781 92.3085909,47.1523449 92.8710938,46.921875 L92.8710938,47.7832031 C92.4414041,48.0058605 91.9003939,48.1171875 91.2480469,48.1171875 Z M98.7890625,48 L98.7890625,43.8457031 C98.7890625,43.322263 98.6699231,42.9316419 98.4316406,42.6738281 C98.1933582,42.4160143 97.820315,42.2871094 97.3125,42.2871094 C96.6367154,42.2871094 96.1435562,42.4707013 95.8330078,42.8378906 C95.5224594,43.20508 95.3671875,43.8066364 95.3671875,44.6425781 L95.3671875,48 L94.3945312,48 L94.3945312,38.8828125 L95.3671875,38.8828125 L95.3671875,41.6425781 C95.3671875,41.974611 95.3515627,42.2499989 95.3203125,42.46875 L95.3789062,42.46875 C95.5703135,42.1601547 95.8427717,41.9169931 96.1962891,41.7392578 C96.5498065,41.5615225 96.9531227,41.4726562 97.40625,41.4726562 C98.1914102,41.4726562 98.7802715,41.6591778 99.1728516,42.0322266 C99.5654317,42.4052753 99.7617188,42.9980428 99.7617188,43.8105469 L99.7617188,48 L98.7890625,48 Z" id="Search" fill="#9E9E9E" fill-rule="nonzero"></path>
                    <circle id="Oval" fill="#FB544B" cx="10" cy="9" r="4"></circle>
                    <circle id="Oval-Copy" fill="#FAB521" cx="22" cy="9" r="4"></circle>
                    <circle id="Oval-Copy-2" fill="#27CA41" cx="34" cy="9" r="4"></circle>
                </g>
            </g>
        </g>
    </g>
</svg>