<?xml version="1.0" encoding="UTF-8"?>
<svg width="160px" height="56px" viewBox="0 0 160 56" version="1.1" xmlns="http://www.w3.org/2000/svg" xmlns:xlink="http://www.w3.org/1999/xlink">
    <!-- Generator: Sketch 59 (86127) - https://sketch.com -->
    <title>Group 11</title>
    <desc>Created with Sketch.</desc>
    <g id="Page-1" stroke="none" stroke-width="1" fill="none" fill-rule="evenodd">
        <g id="Homepage" transform="translate(-1064.000000, -3608.000000)">
            <g id="Inventory" transform="translate(239.000000, 3408.000000)">
                <g id="Browser" transform="translate(561.000000, 0.000000)">
                    <g id="Product" transform="translate(24.000000, 192.000000)">
                        <g id="Group-11" transform="translate(240.000000, 8.000000)">
                            <g id="Group-5">
                                <rect id="Rectangle" fill="#FFFFFF" x="0" y="0" width="160" height="56"></rect>
                                <rect id="Rectangle" stroke="#DBE2E8" fill="#FFFFFF" x="80.5" y="16.5" width="71" height="23" rx="2"></rect>
                                <path d="M36.0714286,26.75 L35.1071429,26.75 L35.1071429,23.9375 C35.1071429,20.6640625 32.3669643,18 29,18 C25.6330357,18 22.8928571,20.6640625 22.8928571,23.9375 L22.8928571,26.75 L21.9285714,26.75 C20.8638393,26.75 20,27.5898438 20,28.625 L20,36.125 C20,37.1601562 20.8638393,38 21.9285714,38 L36.0714286,38 C37.1361607,38 38,37.1601562 38,36.125 L38,28.625 C38,27.5898438 37.1361607,26.75 36.0714286,26.75 Z M30.6071429,33.3125 C30.6071429,34.1757812 29.8879464,34.875 29,34.875 C28.1120536,34.875 27.3928571,34.1757812 27.3928571,33.3125 L27.3928571,31.4375 C27.3928571,30.5742188 28.1120536,29.875 29,29.875 C29.8879464,29.875 30.6071429,30.5742188 30.6071429,31.4375 L30.6071429,33.3125 Z M31.8928571,26.75 L26.1071429,26.75 L26.1071429,23.9375 C26.1071429,22.3867188 27.4049107,21.125 29,21.125 C30.5950893,21.125 31.8928571,22.3867188 31.8928571,23.9375 L31.8928571,26.75 Z" id="Shape" fill="#4CAF50" fill-rule="nonzero"></path>
                                <path d="M130.019531,32.1171875 C129.60156,32.1171875 129.219728,32.0400398 128.874023,31.8857422 C128.528319,31.7314445 128.238282,31.4941422 128.003906,31.1738281 L127.933594,31.1738281 C127.980469,31.54883 128.003906,31.9042952 128.003906,32.2402344 L128.003906,34.8828125 L127.03125,34.8828125 L127.03125,25.578125 L127.822266,25.578125 L127.957031,26.4570312 L128.003906,26.4570312 C128.253907,26.105467 128.54492,25.8515633 128.876953,25.6953125 C129.208986,25.5390617 129.589842,25.4609375 130.019531,25.4609375 C130.871098,25.4609375 131.528318,25.7519502 131.991211,26.3339844 C132.454104,26.9160185 132.685547,27.7324166 132.685547,28.7832031 C132.685547,29.8378959 132.450198,30.6572236 131.979492,31.2412109 C131.508787,31.8251982 130.855473,32.1171875 130.019531,32.1171875 Z M129.878906,26.2871094 C129.222653,26.2871094 128.748048,26.4687482 128.455078,26.8320312 C128.162108,27.1953143 128.011719,27.7734335 128.003906,28.5664062 L128.003906,28.7832031 C128.003906,29.6855514 128.154295,30.3310527 128.455078,30.7197266 C128.755861,31.1084004 129.238278,31.3027344 129.902344,31.3027344 C130.457034,31.3027344 130.8916,31.0781272 131.206055,30.6289062 C131.520509,30.1796853 131.677734,29.5605508 131.677734,28.7714844 C131.677734,27.9706991 131.520509,27.3564475 131.206055,26.9287109 C130.8916,26.5009744 130.449222,26.2871094 129.878906,26.2871094 Z M136.951172,32.1171875 C136.02148,32.1171875 135.30176,31.8310575 134.791992,31.2587891 C134.282224,30.6865206 134.027344,29.8769584 134.027344,28.8300781 C134.027344,27.755854 134.28613,26.9257842 134.803711,26.3398438 C135.321292,25.7539033 136.058589,25.4609375 137.015625,25.4609375 C137.32422,25.4609375 137.632811,25.4941403 137.941406,25.5605469 C138.250002,25.6269535 138.492187,25.7050777 138.667969,25.7949219 L138.369141,26.6210938 C138.154296,26.5351558 137.919923,26.4638675 137.666016,26.4072266 C137.412108,26.3505857 137.187501,26.3222656 136.992188,26.3222656 C135.687493,26.3222656 135.035156,27.1542886 135.035156,28.8183594 C135.035156,29.6074258 135.194334,30.2128885 135.512695,30.6347656 C135.831056,31.0566427 136.302731,31.2675781 136.927734,31.2675781 C137.462893,31.2675781 138.011716,31.1523449 138.574219,30.921875 L138.574219,31.7832031 C138.144529,32.0058605 137.603519,32.1171875 136.951172,32.1171875 Z M144.240234,30.2480469 C144.240234,30.8457061 144.01758,31.306639 143.572266,31.6308594 C143.126951,31.9550797 142.501957,32.1171875 141.697266,32.1171875 C140.845699,32.1171875 140.181643,31.9824232 139.705078,31.7128906 L139.705078,30.8105469 C140.013673,30.9667977 140.344725,31.0898433 140.698242,31.1796875 C141.05176,31.2695317 141.392576,31.3144531 141.720703,31.3144531 C142.228518,31.3144531 142.619139,31.2333992 142.892578,31.0712891 C143.166017,30.9091789 143.302734,30.662111 143.302734,30.3300781 C143.302734,30.0800769 143.194337,29.8662118 142.977539,29.6884766 C142.760741,29.5107413 142.337894,29.3007825 141.708984,29.0585938 C141.111325,28.8359364 140.686525,28.6416024 140.43457,28.4755859 C140.182616,28.3095695 139.995118,28.1210948 139.87207,27.9101562 C139.749023,27.6992177 139.6875,27.4472671 139.6875,27.1542969 C139.6875,26.6308568 139.900388,26.217775 140.326172,25.9150391 C140.751955,25.6123032 141.335934,25.4609375 142.078125,25.4609375 C142.769535,25.4609375 143.445309,25.6015611 144.105469,25.8828125 L143.759766,26.6738281 C143.115231,26.4082018 142.531253,26.2753906 142.007812,26.2753906 C141.546873,26.2753906 141.19922,26.3476555 140.964844,26.4921875 C140.730468,26.6367195 140.613281,26.8359362 140.613281,27.0898438 C140.613281,27.2617196 140.657226,27.4082025 140.745117,27.5292969 C140.833008,27.6503912 140.974608,27.7656245 141.169922,27.875 C141.316407,27.9570317 141.563964,28.0665279 141.912597,28.2034909 L142.294922,28.3496094 C143.056644,28.6269545 143.571288,28.9062486 143.838867,29.1875 C144.106447,29.4687514 144.240234,29.8222635 144.240234,30.2480469 Z" id="pcs" fill="#9E9E9E" fill-rule="nonzero"></path>
                                <path d="M91.1894531,32 L90.2402344,32 L90.2402344,25.8945312 C90.2402344,25.3867162 90.2558592,24.9062523 90.2871094,24.453125 L90.1567383,24.5791015 L90.1567383,24.5791015 L89.9459503,24.7672592 C89.7699305,24.9155368 89.3270125,25.2776199 88.6171875,25.8535156 L88.1015625,25.1855469 L90.3691406,23.4335938 L91.1894531,23.4335938 L91.1894531,32 Z M97.125,26.7675781 C98.0273483,26.7675781 98.7373021,26.9912087 99.2548828,27.4384766 C99.7724635,27.8857444 100.03125,28.498043 100.03125,29.2753906 C100.03125,30.1621138 99.7490263,30.8574194 99.1845703,31.3613281 C98.6201144,31.8652369 97.8418018,32.1171875 96.8496094,32.1171875 C95.8847608,32.1171875 95.14844,31.9628922 94.640625,31.6542969 L94.640625,30.7167969 C94.9140639,30.892579 95.2539042,31.0302729 95.6601562,31.1298828 C96.0664083,31.2294927 96.4667949,31.2792969 96.8613281,31.2792969 C97.5488316,31.2792969 98.0830059,31.1171891 98.4638672,30.7929688 C98.8447285,30.4687484 99.0351562,30.0000031 99.0351562,29.3867188 C99.0351562,28.1914003 98.3027417,27.59375 96.8378906,27.59375 C96.466795,27.59375 95.9707062,27.6503901 95.3496094,27.7636719 L94.8457031,27.4414062 L95.1679688,23.4335938 L99.4277344,23.4335938 L99.4277344,24.3300781 L96,24.3300781 L95.7832031,26.9023438 C96.2324241,26.8124996 96.6796853,26.7675781 97.125,26.7675781 Z" id="15" fill="#000000" fill-rule="nonzero"></path>
                            </g>
                        </g>
                    </g>
                </g>
            </g>
        </g>
    </g>
</svg>